<svg id="bug" enable-background="new 0 0 300 300" height="512" viewBox="0 0 300 300" width="512" xmlns="http://www.w3.org/2000/svg"><g><circle cx="248" cy="244" fill="#4c241d" r="4"/><circle cx="178" cy="114" fill="#fff4f1" r="86"/><g><circle cx="148" cy="160" fill="#e66353" r="108"/><path d="m148 272c-61.758 0-112-50.242-112-112s50.242-112 112-112 112 50.242 112 112-50.242 112-112 112zm0-216c-57.348 0-104 46.652-104 104s46.652 104 104 104 104-46.652 104-104-46.652-104-104-104z" fill="#4c241d"/></g><circle cx="56" cy="52" fill="#4c241d" r="4"/><path d="m260 60c-1.023 0-2.047-.391-2.828-1.172l-12-12c-1.562-1.562-1.562-4.094 0-5.656s4.094-1.562 5.656 0l12 12c1.562 1.562 1.562 4.094 0 5.656-.781.781-1.805 1.172-2.828 1.172z" fill="#4c241d"/><path d="m248 60c-1.023 0-2.047-.391-2.828-1.172-1.562-1.562-1.562-4.094 0-5.656l12-12c1.562-1.562 4.094-1.562 5.656 0s1.562 4.094 0 5.656l-12 12c-.781.781-1.805 1.172-2.828 1.172z" fill="#4c241d"/><path d="m108 240c-1.023 0-2.047-.391-2.828-1.172l-12-12c-.562-.562-.945-1.277-1.098-2.059l-4-20.434c-.148-.766-.07-1.562.223-2.285l8-19.566c.836-2.043 3.172-3.027 5.219-2.188 2.043.836 3.023 3.172 2.188 5.219l-7.547 18.457 3.535 18.062 11.137 11.137c1.562 1.562 1.562 4.094 0 5.656-.782.782-1.806 1.173-2.829 1.173z" fill="#4c241d"/><g><path d="m137.384 76.169c-21.676 4.39-37.384 24.836-37.384 48.659v33.203c0 5.506 4.132 9.969 9.228 9.969h29.444c5.152 0 9.328-4.511 9.328-10.076v-72.238c0-6.063-5.099-10.635-10.616-9.517z" fill="#b5a19c"/><path d="m138.672 172h-29.445c-7.293 0-13.227-6.266-13.227-13.969v-33.203c0-25.703 17.07-47.816 40.59-52.582 3.668-.734 7.445.219 10.387 2.621 3.191 2.609 5.023 6.555 5.023 10.82v72.234c0 7.763-5.98 14.079-13.328 14.079zm-.496-91.91c-19.801 4.012-34.176 22.824-34.176 44.738v33.203c0 3.293 2.344 5.969 5.227 5.969h29.445c2.938 0 5.328-2.727 5.328-6.078v-72.234c0-1.855-.762-3.543-2.09-4.629-1.094-.895-2.402-1.235-3.734-.969z" fill="#4c241d"/></g><g><path d="m158.502 76.168c21.443 4.39 36.982 24.836 36.982 48.66v33.203c0 5.506-4.087 9.969-9.129 9.969h-29.127c-5.096 0-9.228-4.511-9.228-10.076v-72.238c0-6.063 5.045-10.635 10.502-9.518z" fill="#b5a19c"/><path d="m186.355 172h-29.129c-7.293 0-13.227-6.316-13.227-14.078v-72.234c0-4.293 1.836-8.25 5.035-10.863 2.91-2.375 6.656-3.32 10.266-2.574 23.285 4.766 40.184 26.879 40.184 52.578v33.203c0 7.702-5.89 13.968-13.129 13.968zm-29.503-92c-1.285 0-2.254.609-2.762 1.023-1.328 1.086-2.09 2.785-2.09 4.664v72.234c0 3.352 2.344 6.078 5.227 6.078h29.129c2.828 0 5.129-2.676 5.129-5.969v-33.203c0-21.918-14.211-40.734-33.785-44.742-.298-.058-.579-.085-.848-.085z" fill="#4c241d"/></g><g fill="#4c241d"><path d="m99.996 160c-.82 0-1.648-.25-2.363-.773l-16-11.742c-.902-.664-1.484-1.676-1.609-2.785l-3.844-34.746-23.012-23.099c-1.215-1.219-1.516-3.07-.75-4.609l4-8.031c.984-1.973 3.387-2.781 5.367-1.797 1.977.988 2.781 3.387 1.797 5.367l-2.723 5.457 21.973 22.055c.641.645 1.043 1.484 1.145 2.383l3.805 34.391 14.586 10.703c1.781 1.309 2.164 3.812.859 5.594-.786 1.066-2 1.632-3.231 1.632z"/><path d="m104 108c-.48 0-.969-.086-1.445-.27l-16.641-6.449c-1.539-.598-2.555-2.078-2.555-3.73v-35.547l-6.344-7.102c-1.355-1.516-1.355-3.812 0-5.328l7.359-8.238c1.48-1.652 4.004-1.785 5.648-.32 1.648 1.473 1.789 4 .32 5.648l-4.98 5.574 4.98 5.574c.652.73 1.016 1.68 1.016 2.664v34.336l14.086 5.457c2.059.801 3.082 3.117 2.285 5.176-.612 1.586-2.127 2.555-3.729 2.555z"/><path d="m188 240c-1.023 0-2.047-.391-2.828-1.172-1.562-1.562-1.562-4.094 0-5.656l11.137-11.137 3.535-18.062-7.547-18.457c-.836-2.047.145-4.383 2.188-5.219 2.039-.844 4.383.145 5.219 2.188l8 19.566c.293.723.371 1.52.223 2.285l-4 20.434c-.152.781-.535 1.496-1.098 2.059l-12 12c-.782.78-1.806 1.171-2.829 1.171z"/><path d="m196.004 160c-1.23 0-2.445-.566-3.23-1.633-1.305-1.781-.922-4.285.859-5.594l14.586-10.703 3.805-34.391c.102-.898.504-1.738 1.145-2.383l21.973-22.055-2.723-5.457c-.984-1.98-.18-4.379 1.797-5.367 1.988-.984 4.379-.176 5.367 1.797l4 8.031c.766 1.539.465 3.391-.75 4.609l-23.012 23.098-3.844 34.746c-.125 1.109-.707 2.121-1.609 2.785l-16 11.742c-.716.521-1.544.775-2.364.775z"/><path d="m192 108c-1.602 0-3.117-.969-3.73-2.555-.797-2.059.227-4.375 2.285-5.176l14.086-5.457v-34.335c0-.984.363-1.934 1.016-2.664l4.98-5.574-4.98-5.574c-1.469-1.648-1.328-4.176.32-5.648 1.645-1.465 4.168-1.332 5.648.32l7.359 8.238c1.355 1.516 1.355 3.812 0 5.328l-6.344 7.102v35.547c0 1.652-1.016 3.133-2.555 3.73l-16.641 6.449c-.475.183-.964.269-1.444.269z"/></g><g><path d="m184.463 202.625-34.193 5.203c-1.503.229-3.037.229-4.54 0l-34.193-5.203c-6.657-1.013-11.537-6.272-11.537-12.434v-14.808c0-4.078 3.62-7.383 8.086-7.383h79.828c4.466 0 8.086 3.306 8.086 7.383v14.808c0 6.162-4.879 11.421-11.537 12.434z" fill="#b5a19c"/><path d="m148 212c-.961 0-1.922-.07-2.875-.219l-34.191-5.203c-8.653-1.312-14.934-8.207-14.934-16.387v-14.809c0-6.277 5.422-11.383 12.086-11.383h79.828c6.664 0 12.086 5.105 12.086 11.383v14.809c0 8.18-6.281 15.074-14.934 16.387l-34.195 5.203c-.953.149-1.91.219-2.871.219zm-39.914-40c-2.254 0-4.086 1.516-4.086 3.383v14.809c0 4.195 3.422 7.762 8.137 8.48l34.195 5.203c1.109.164 2.23.16 3.332 0l34.199-5.203c4.715-.719 8.137-4.285 8.137-8.48v-14.809c0-1.867-1.832-3.383-4.086-3.383z" fill="#4c241d"/></g><g><path d="m160 188-8 40h-8l-8-40" fill="#6b4f5b"/><path d="m152 232h-8c-1.906 0-3.547-1.348-3.922-3.215l-8-40c-.434-2.168.973-4.273 3.137-4.707 2.188-.449 4.277.973 4.707 3.137l7.355 36.785h1.445l7.355-36.785c.43-2.168 2.543-3.582 4.707-3.137 2.164.434 3.57 2.539 3.137 4.707l-8 40c-.374 1.867-2.015 3.215-3.921 3.215z" fill="#4c241d"/></g><path d="m179.996 188c-.602 0-1.211-.137-1.785-.422l-8-4c-1.977-.988-2.777-3.391-1.789-5.367s3.391-2.77 5.367-1.789l8 4c1.977.988 2.777 3.391 1.789 5.367-.703 1.402-2.113 2.211-3.582 2.211z" fill="#4c241d"/><path d="m116.004 188c-1.469 0-2.879-.809-3.582-2.211-.988-1.977-.188-4.379 1.789-5.367l8-4c1.977-.98 4.375-.188 5.367 1.789.988 1.977.188 4.379-1.789 5.367l-8 4c-.574.285-1.184.422-1.785.422z" fill="#4c241d"/><path d="m200.004 228c-.32 0-.648-.039-.973-.121l-16-4c-2.145-.535-3.449-2.707-2.91-4.848.531-2.145 2.707-3.457 4.848-2.91l16 4c2.145.535 3.449 2.707 2.91 4.848-.453 1.82-2.082 3.031-3.875 3.031z" fill="#4c241d"/><path d="m95.996 228c-1.793 0-3.422-1.211-3.875-3.031-.539-2.141.766-4.312 2.91-4.848l16-4c2.137-.543 4.312.766 4.848 2.91.539 2.141-.766 4.312-2.91 4.848l-16 4c-.324.082-.653.121-.973.121z" fill="#4c241d"/><g><path d="m178.966 156h-61.931c-4.989 0-9.034 4.045-9.034 9.034v2.966h80v-2.966c-.001-4.989-4.046-9.034-9.035-9.034z" fill="#6b4f5b"/><path d="m188 172h-80c-2.211 0-4-1.789-4-4v-2.965c0-7.188 5.848-13.035 13.035-13.035h61.93c7.188 0 13.035 5.848 13.035 13.035v2.965c0 2.211-1.789 4-4 4zm-75.895-8h71.789c-.48-2.281-2.508-4-4.93-4h-61.93c-2.421 0-4.448 1.719-4.929 4z" fill="#4c241d"/></g><path d="m156 108h-16c-2.211 0-4-1.789-4-4s1.789-4 4-4h16c2.211 0 4 1.789 4 4s-1.789 4-4 4z" fill="#4c241d"/><path d="m156 120h-16c-2.211 0-4-1.789-4-4s1.789-4 4-4h16c2.211 0 4 1.789 4 4s-1.789 4-4 4z" fill="#4c241d"/><path d="m156 132h-16c-2.211 0-4-1.789-4-4s1.789-4 4-4h16c2.211 0 4 1.789 4 4s-1.789 4-4 4z" fill="#4c241d"/></g></svg>