<svg id="cat" enable-background="new 0 0 300 300" height="512" viewBox="0 0 300 300" width="512" xmlns="http://www.w3.org/2000/svg"><g><circle cx="174.028" cy="112" fill="#fff4f1" r="86"/><g><circle cx="140.028" cy="158" fill="#ffded5" r="108"/><path d="m140.028 270c-61.758 0-112-50.242-112-112s50.242-112 112-112 112 50.242 112 112-50.242 112-112 112zm0-216c-57.346 0-104 46.654-104 104s46.654 104 104 104 104-46.654 104-104-46.654-104-104-104z" fill="#4c241d"/></g><g><path d="m267.972 178.03c-.001-.07-.002-.141-.003-.212-.054-4.322-3.573-7.818-7.895-7.818h-16.701c-8.475 0-15.345 6.87-15.345 15.345v28.453c0 .112-.091.202-.202.202h-63.595c-.112 0-.202.091-.202.202v15.595c0 .112.091.202.202.202h64.453c8.475 0 15.345-6.87 15.345-15.345v-28.453c0-.112.091-.202.202-.202h8 7.846c4.398.001 7.949-3.572 7.895-7.969z" fill="#fc8c29"/><path d="m228.682 234h-64.451c-2.209 0-4.203-1.994-4.203-4.203v-15.594c0-2.209 1.994-4.203 4.203-4.203h59.797v-24.654c0-10.668 8.678-19.346 19.346-19.346h16.701c6.477 0 11.812 5.279 11.895 11.768 0 0 .002.211.002.213.039 3.197-1.176 6.211-3.42 8.482-2.252 2.281-5.262 3.537-8.475 3.537h-12.049v24.654c0 10.668-8.678 19.346-19.346 19.346zm-60.654-8h60.654c6.256 0 11.346-5.09 11.346-11.346v-28.451c0-2.209 1.994-4.203 4.203-4.203h15.846c1.057 0 2.045-.412 2.781-1.158.73-.738 1.127-1.721 1.113-2.764 0-.014 0-.033 0-.049l4-.006-4-.045c-.029-2.242-1.775-3.979-3.896-3.979h-16.701c-6.256 0-11.346 5.09-11.346 11.346v28.451c0 2.209-1.994 4.203-4.203 4.203h-59.797z" fill="#4c241d"/></g><g><path d="m140.028 198c-22.091 0-40 18.804-40 42 0 7.296 1.777 14.154 4.893 20.133 11.01 3.784 22.812 5.867 35.107 5.867s24.096-2.083 35.107-5.867c3.116-5.979 4.893-12.837 4.893-20.133 0-23.196-17.909-42-40-42z" fill="#fc8c29"/><path d="m140.028 270c-12.406 0-24.656-2.047-36.406-6.084-.971-.334-1.775-1.025-2.248-1.936-3.498-6.711-5.346-14.311-5.346-21.98 0-25.365 19.738-46 44-46s44 20.635 44 46c0 7.67-1.848 15.27-5.346 21.98-.473.91-1.277 1.602-2.248 1.936-11.75 4.037-24 6.084-36.406 6.084zm-32.262-13.133c20.879 6.812 43.645 6.812 64.523 0 2.449-5.217 3.738-11.016 3.738-16.867 0-20.953-16.15-38-36-38s-36 17.047-36 38c.001 5.852 1.29 11.65 3.739 16.867zm67.369 3.266h.039z" fill="#4c241d"/></g><g><path d="m140.028 230c-11.572 0-20.952 9.85-20.952 22 0 1.374.135 10.712.365 12.016 6.667 1.287 13.545 1.984 20.587 1.984s13.92-.696 20.587-1.984c.229-1.304.365-10.643.365-12.016 0-12.15-9.38-22-20.952-22z" fill="#fff"/><path d="m140.028 270c-7.104 0-14.287-.691-21.348-2.057-1.629-.314-2.893-1.604-3.18-3.236-.34-1.939-.426-12.604-.426-12.707 0-14.336 11.193-26 24.953-26s24.953 11.664 24.953 26c0 .104-.086 10.768-.426 12.707-.287 1.633-1.551 2.922-3.18 3.236-7.059 1.366-14.243 2.057-21.346 2.057zm20.588-5.984h.039zm-37.371-3.385c11.148 1.82 22.42 1.816 33.568 0 .096-2.92.168-7.236.168-8.631 0-9.926-7.605-18-16.953-18s-16.953 8.074-16.953 18c0 1.391.072 5.693.17 8.631z" fill="#4c241d"/></g><g><path d="m119.84 126s-8-20-28-24c0 0-20 32 4 48" fill="#fc8c29"/><path d="m95.836 154c-.762 0-1.533-.217-2.215-.672-21.541-14.359-12.803-41.24-5.174-53.447.881-1.414 2.533-2.129 4.178-1.803 21.873 4.375 30.568 25.537 30.93 26.436.82 2.053-.178 4.379-2.229 5.201-2.055.814-4.373-.178-5.197-2.221-.068-.17-6.729-16.17-22.301-20.877-3.83 7.312-12.904 28.631 4.23 40.055 1.838 1.225 2.334 3.709 1.109 5.547-.77 1.156-2.038 1.781-3.331 1.781z" fill="#4c241d"/></g><g><path d="m156.028 126s8-20 28-24c0 0 20 32-4 48" fill="#fc8c29"/><path d="m180.032 154c-1.293 0-2.561-.625-3.332-1.781-1.225-1.838-.729-4.322 1.109-5.547 17.135-11.424 8.059-32.742 4.23-40.057-15.668 4.719-22.23 20.699-22.297 20.871-.824 2.047-3.15 3.039-5.201 2.229-2.051-.822-3.049-3.148-2.229-5.201.361-.898 9.057-22.061 30.93-26.436 1.627-.326 3.297.389 4.178 1.803 7.629 12.207 16.367 39.088-5.174 53.447-.681.455-1.453.672-2.214.672z" fill="#4c241d"/></g><g><path d="m146.845 118h-13.635c-27.163 0-49.183 22.02-49.183 49.183l-8 6.687c0 13.327 18.804 24.131 32.131 24.131h10.767c3.336 7.286 10.595 12 18.64 12h4.926c8.044 0 15.304-4.714 18.64-12h10.767c13.327 0 32.131-10.804 32.131-24.131l-8-6.687c-.001-27.163-22.021-49.183-49.184-49.183z" fill="#fc8c29"/><path d="m142.491 214h-4.926c-8.664 0-16.666-4.635-21.053-12h-8.354c-14.549 0-36.131-11.812-36.131-28.131 0-1.186.525-2.309 1.436-3.068l6.598-5.516c1.004-28.449 24.461-51.285 53.15-51.285h13.633c28.689 0 52.146 22.836 53.15 51.285l6.598 5.516c.91.76 1.436 1.883 1.436 3.068 0 16.318-21.582 28.131-36.131 28.131h-8.354c-4.386 7.365-12.388 12-21.052 12zm-62.309-38.389c1.674 9.541 16.641 18.389 27.977 18.389h10.766c1.564 0 2.986.912 3.637 2.336 2.688 5.871 8.578 9.664 15.004 9.664h4.926c6.426 0 12.316-3.793 15.004-9.664.65-1.424 2.072-2.336 3.637-2.336h10.766c11.336 0 26.303-8.848 27.977-18.389l-6.41-5.359c-.91-.76-1.436-1.883-1.436-3.068 0-24.914-20.27-45.184-45.184-45.184h-13.633c-24.914 0-45.184 20.27-45.184 45.184 0 1.186-.525 2.309-1.436 3.068zm119.846-8.427h.039z" fill="#4c241d"/></g><circle cx="62.028" cy="52" fill="#4c241d" r="4.529"/><circle cx="246.028" cy="240" fill="#4c241d" r="4.529"/><path d="m245.684 63.656c-1.023 0-2.047-.391-2.828-1.172l-11.312-11.312c-1.562-1.562-1.562-4.094 0-5.656s4.094-1.562 5.656 0l11.312 11.312c1.562 1.562 1.562 4.094 0 5.656-.781.782-1.804 1.172-2.828 1.172z" fill="#4c241d"/><path d="m234.372 63.656c-1.023 0-2.047-.391-2.828-1.172-1.562-1.562-1.562-4.094 0-5.656l11.312-11.312c1.562-1.562 4.094-1.562 5.656 0s1.562 4.094 0 5.656l-11.312 11.312c-.782.782-1.805 1.172-2.828 1.172z" fill="#4c241d"/><g><path d="m172.028 270h-24v-6.639c0-5.17 4.191-9.361 9.361-9.361h5.278c5.17 0 9.361 4.191 9.361 9.361z" fill="#fc8c29"/><path d="m172.028 274h-24c-2.209 0-4-1.791-4-4v-6.639c0-7.367 5.994-13.361 13.361-13.361h5.277c7.367 0 13.361 5.994 13.361 13.361v6.639c.001 2.209-1.79 4-3.999 4zm-20-8h16v-2.639c0-2.957-2.404-5.361-5.361-5.361h-5.277c-2.957 0-5.361 2.404-5.361 5.361v2.639z" fill="#4c241d"/></g><g><path d="m132.028 270h-24v-6.639c0-5.17 4.191-9.361 9.361-9.361h5.278c5.17 0 9.361 4.191 9.361 9.361z" fill="#fc8c29"/><path d="m132.028 274h-24c-2.209 0-4-1.791-4-4v-6.639c0-7.367 5.994-13.361 13.361-13.361h5.277c7.367 0 13.361 5.994 13.361 13.361v6.639c.001 2.209-1.79 4-3.999 4zm-20-8h16v-2.639c0-2.957-2.404-5.361-5.361-5.361h-5.277c-2.957 0-5.361 2.404-5.361 5.361v2.639z" fill="#4c241d"/></g><path d="m147.876 190c-6.533 0-11.848-5.314-11.848-11.848v-4.152c0-2.209 1.791-4 4-4s4 1.791 4 4v4.152c0 2.121 1.727 3.848 3.848 3.848 2.209 0 4 1.791 4 4s-1.791 4-4 4z" fill="#4c241d"/><path d="m131.381 190c-2.209 0-4-1.791-4-4s1.791-4 4-4c2.121 0 3.846-1.727 3.846-3.848v-4.152c0-2.209 1.791-4 4-4s4 1.791 4 4v4.152c0 6.534-5.314 11.848-11.846 11.848z" fill="#4c241d"/><g><path d="m142.402 170h-4.847c-.941 0-1.777-.201-2.075-.499l-2.542-2.542c-.472-.472.582-.96 2.075-.96h9.93c1.493 0 2.547.488 2.075.96l-2.542 2.542c-.296.298-1.132.499-2.074.499z" fill="#ffce56"/><path d="m142.403 174h-4.848c-1.475 0-3.523-.289-4.902-1.67l-2.543-2.543c-1.143-1.143-1.58-3.189-.963-4.684.814-1.973 2.953-3.104 5.867-3.104h9.93c2.912 0 5.051 1.131 5.865 3.104.619 1.496.18 3.547-.969 4.689l-2.533 2.537c-1.381 1.382-3.43 1.671-4.904 1.671z" fill="#4c241d"/></g><g fill="#4c241d"><path d="m156.028 158.002c-1.676 0-3.236-1.061-3.795-2.736-.699-2.096.434-4.361 2.529-5.061l12-4c2.1-.703 4.363.434 5.061 2.529.699 2.096-.434 4.361-2.529 5.061l-12 4c-.42.141-.848.207-1.266.207z"/><path d="m124.028 158.002c-.418 0-.846-.066-1.266-.207l-12-4c-2.096-.699-3.229-2.965-2.529-5.061s2.953-3.232 5.061-2.529l12 4c2.096.699 3.229 2.965 2.529 5.061-.559 1.675-2.119 2.736-3.795 2.736z"/><path d="m100.032 174c-1.211 0-2.408-.547-3.193-1.586-.439-.576-10.541-13.426-27.324-6.699-2.057.812-4.379-.178-5.201-2.229-.82-2.053.178-4.379 2.229-5.201 18.082-7.234 31.9 2.934 36.686 9.314 1.326 1.768.969 4.275-.799 5.6-.722.541-1.564.801-2.398.801z"/><path d="m72.024 198c-.762 0-1.533-.217-2.215-.672-1.838-1.225-2.334-3.709-1.109-5.547 9.082-13.625 30.424-13.781 31.328-13.781 2.207 0 3.994 1.787 3.996 3.994.004 2.207-1.783 3.998-3.99 4.006-.18 0-17.98.172-24.678 10.219-.771 1.156-2.039 1.781-3.332 1.781z"/><path d="m184.024 174c-.834 0-1.676-.26-2.396-.801-1.768-1.324-2.125-3.832-.799-5.6 4.785-6.381 18.611-16.539 36.686-9.314 2.051.822 3.049 3.148 2.229 5.201-.82 2.051-3.143 3.051-5.201 2.229-16.959-6.785-27.213 6.547-27.314 6.686-.787 1.046-1.988 1.599-3.205 1.599z"/><path d="m212.032 198c-1.293 0-2.561-.625-3.332-1.781-6.698-10.047-24.498-10.219-24.678-10.219-2.207-.008-3.994-1.799-3.99-4.006.002-2.207 1.789-3.994 3.996-3.994.904 0 22.246.156 31.328 13.781 1.225 1.838.729 4.322-1.109 5.547-.682.455-1.454.672-2.215.672z"/></g></g></svg>