<svg id="cow" enable-background="new 0 0 300 300" height="512" viewBox="0 0 300 300" width="512" xmlns="http://www.w3.org/2000/svg"><g><circle cx="180" cy="114" fill="#fff4f1" r="86"/><g><circle cx="146" cy="160" fill="#a9ba5a" r="108"/><path d="m146 272c-61.758 0-112-50.242-112-112s50.242-112 112-112 112 50.242 112 112-50.242 112-112 112zm0-216c-57.346 0-104 46.654-104 104s46.654 104 104 104 104-46.654 104-104-46.654-104-104-104z" fill="#4c241d"/></g><g><path d="m150 213.423c0 23.515 19.062 42.577 42.577 42.577h2.882c34.76-17.946 58.541-54.184 58.541-96 0-14.137-2.744-27.625-7.683-40h-96.317z" fill="#bf7e68"/><path d="m195.459 260h-2.883c-25.681 0-46.576-20.895-46.576-46.576v-93.424c0-2.209 1.791-4 4-4h96.316c1.637 0 3.107.998 3.715 2.518 5.287 13.246 7.969 27.203 7.969 41.482 0 42.076-23.262 80.223-60.705 99.555-.568.293-1.197.445-1.836.445zm-41.459-136v89.424c0 21.271 17.305 38.576 38.576 38.576h1.902c34.272-18.09 55.522-53.252 55.522-92 0-12.357-2.162-24.455-6.432-36z" fill="#4c241d"/></g><g><path d="m114 134.91s-7.51 0-11.264 7.168c-3.755 7.169-7.51 17.922-26.284 17.922 0 0-7.51-21.505 3.755-32.258s26.284-7.168 26.284-7.168" fill="#bf7e68"/><path d="m76.451 164c-1.701 0-3.217-1.076-3.777-2.682-.34-.977-8.207-24.08 4.771-36.469 12.688-12.117 29.275-8.334 29.975-8.166 2.148.514 3.475 2.67 2.961 4.82-.512 2.15-2.666 3.473-4.82 2.961-.512-.115-13.102-2.885-22.592 6.17-7.037 6.719-4.904 19.598-3.52 25.26 12.297-.902 15.594-7.455 18.791-13.807l.953-1.865c4.82-9.207 14.4-9.312 14.807-9.312 2.209 0 4 1.791 4 4 0 2.195-1.77 3.979-3.961 4-.277.008-5.238.211-7.76 5.023l-.893 1.752c-3.671 7.294-9.218 18.315-28.935 18.315z" fill="#4c241d"/></g><g><path d="m178 134.91s7.51 0 11.264 7.168c3.755 7.168 7.51 17.921 26.284 17.921 0 0 7.51-21.505-3.755-32.258-11.264-10.753-26.284-7.168-26.284-7.168" fill="#bf7e68"/><path d="m215.549 164c-19.717 0-25.264-11.021-28.936-18.314l-.893-1.752c-2.539-4.848-7.553-5.02-7.766-5.023-2.189-.051-3.955-1.855-3.93-4.047.025-2.189 1.783-3.953 3.975-3.953.406 0 9.986.105 14.807 9.312l.953 1.865c3.197 6.355 6.496 12.91 18.805 13.809 1.41-5.65 3.576-18.475-3.533-25.262-9.488-9.061-22.078-6.291-22.607-6.166-2.164.494-4.297-.84-4.801-2.984-.502-2.145.814-4.289 2.957-4.801.701-.164 17.285-3.951 29.975 8.166 12.979 12.389 5.111 35.492 4.771 36.469-.56 1.605-2.076 2.681-3.777 2.681z" fill="#4c241d"/></g><g><path d="m202 120h-112c-8.837 0-16-7.163-16-16h144c0 8.837-7.163 16-16 16z" fill="#6b4f5b"/><path d="m202 124h-112c-11.027 0-20-8.973-20-20 0-2.209 1.791-4 4-4h144c2.209 0 4 1.791 4 4 0 11.027-8.973 20-20 20zm-123.314-16c1.65 4.656 6.1 8 11.314 8h112c5.215 0 9.664-3.344 11.314-8z" fill="#4c241d"/></g><path d="m150 104h-8c-22.091 0-40 17.909-40 40v60c0 22.091 17.909 40 40 40h8c22.091 0 40-17.909 40-40v-60c0-22.091-17.909-40-40-40z" fill="#fff"/><path d="m102.038 142.53 1.008 70.546 8.378-16.387 9.374-9.336 7.886-5.122-.125-32.841-10.147-11.141-15.872-.762z" fill="#bf7e68"/><path d="m188.684 142.53-1.009 70.546-8.377-16.387-9.374-9.336-7.886-5.122.125-32.841 10.147-11.141 15.872-.762z" fill="#bf7e68"/><g fill="#4c241d"><circle cx="68" cy="54" r="4.529"/><circle cx="252" cy="242" r="4.529"/><path d="m251.656 65.656c-1.023 0-2.047-.391-2.828-1.172l-11.312-11.312c-1.562-1.562-1.562-4.094 0-5.656s4.094-1.562 5.656 0l11.312 11.312c1.562 1.562 1.562 4.094 0 5.656-.781.782-1.804 1.172-2.828 1.172z"/><path d="m240.344 65.656c-1.023 0-2.047-.391-2.828-1.172-1.562-1.562-1.562-4.094 0-5.656l11.312-11.312c1.562-1.562 4.094-1.562 5.656 0s1.562 4.094 0 5.656l-11.312 11.312c-.781.782-1.805 1.172-2.828 1.172z"/><path d="m162 188c-2.209 0-4-1.791-4-4v-26.979c0-13.796 11.225-25.021 25.021-25.021h5.381c2.209 0 4 1.791 4 4s-1.791 4-4 4h-5.381c-9.385 0-17.021 7.637-17.021 17.021v26.979c0 2.209-1.791 4-4 4z"/><path d="m130 188c-2.209 0-4-1.791-4-4v-26.979c0-9.385-7.637-17.021-17.021-17.021h-5.352c-2.209 0-4-1.791-4-4s1.791-4 4-4h5.352c13.796 0 25.021 11.225 25.021 25.021v26.979c0 2.209-1.791 4-4 4z"/><circle cx="118" cy="168" r="4"/><circle cx="174" cy="168" r="4"/><path d="m150 248h-8c-24.262 0-44-19.738-44-44v-60c0-24.262 19.738-44 44-44h8c24.262 0 44 19.738 44 44v60c0 24.262-19.738 44-44 44zm-8-140c-19.85 0-36 16.15-36 36v60c0 19.85 16.15 36 36 36h8c19.85 0 36-16.15 36-36v-60c0-19.85-16.15-36-36-36z"/></g><g><path d="m130 184c-12.608 1.594-24 15.011-24 31.035v6.081c0 8.342 5.923 14.53 12.15 12.692l23-7.548c1.492-.44 8.204-.425 9.691.044l22.865 7.212c6.265 1.976 12.294-4.227 12.294-12.648v-5.832c0-16.024-11.392-29.44-24-31.035" fill="#f4aeab"/><path d="m115.9 238.125c-2.578.002-5.064-.852-7.271-2.502-4.15-3.104-6.629-8.527-6.629-14.508v-6.08c0-17.385 12.336-33.086 27.498-35.004 2.193-.264 4.193 1.275 4.471 3.467s-1.275 4.193-3.467 4.471c-9.9 1.252-20.502 12.426-20.502 27.066v6.08c0 3.42 1.311 6.523 3.42 8.102 1.156.865 2.375 1.119 3.6.756l22.883-7.514c2.395-.709 9.924-.67 12.141.029l22.867 7.213c1.234.385 2.459.156 3.627-.701 2.137-1.564 3.463-4.682 3.463-8.133v-5.832c0-14.641-10.602-25.814-20.502-27.066-2.191-.277-3.744-2.279-3.467-4.471.279-2.191 2.297-3.723 4.471-3.467 15.161 1.918 27.497 17.619 27.497 35.004v5.832c0 6.043-2.518 11.494-6.734 14.586-3.242 2.375-7.064 3.039-10.762 1.877l-22.865-7.213c-1.086-.236-6.24-.258-7.449.004l-22.791 7.488c-1.172.346-2.344.516-3.499.516z" fill="#4c241d"/></g><g><path d="m122 204s8-4 12 4" fill="#b5a19c"/><path d="m134.004 212c-1.469.002-2.881-.809-3.582-2.211-1.879-3.76-4.984-2.992-6.67-2.193-1.979.938-4.369.113-5.328-1.857s-.174-4.336 1.787-5.316c4.652-2.32 13.121-2.707 17.367 5.789.988 1.977.188 4.379-1.789 5.367-.574.286-1.185.421-1.785.421z" fill="#4c241d"/></g><g><path d="m170 204s-8-4-12 4" fill="#b5a19c"/><path d="m157.996 212c-.6 0-1.211-.135-1.785-.422-1.977-.988-2.777-3.391-1.789-5.367 4.248-8.496 12.715-8.109 17.367-5.789 1.977.988 2.777 3.391 1.789 5.367-.982 1.963-3.367 2.766-5.334 1.805-1.689-.797-4.789-1.561-6.666 2.195-.701 1.402-2.113 2.211-3.582 2.211z" fill="#4c241d"/></g><g><path d="m168 120h-44c-5.523 0-10-4.477-10-10 0-5.523 4.477-10 10-10h44c5.523 0 10 4.477 10 10 0 5.523-4.477 10-10 10z" fill="#bf7e68"/><path d="m168 124h-44c-7.719 0-14-6.281-14-14s6.281-14 14-14h44c7.719 0 14 6.281 14 14s-6.281 14-14 14zm-44-20c-3.309 0-6 2.691-6 6s2.691 6 6 6h44c3.309 0 6-2.691 6-6s-2.691-6-6-6z" fill="#4c241d"/></g></g></svg>