<svg id="elephant" enable-background="new 0 0 300 300" height="512" viewBox="0 0 300 300" width="512" xmlns="http://www.w3.org/2000/svg"><g><circle cx="180" cy="114" fill="#fff4f1" r="86"/><g><circle cx="146" cy="160" fill="#ffce56" r="108"/><path d="m146 272c-61.758 0-112-50.242-112-112s50.242-112 112-112 112 50.242 112 112-50.242 112-112 112zm0-216c-57.346 0-104 46.652-104 104s46.654 104 104 104 104-46.652 104-104-46.654-104-104-104z" fill="#4c241d"/></g><circle cx="60" cy="50" fill="#4c241d" r="4.529"/><circle cx="252" cy="242" fill="#4c241d" r="4.529"/><path d="m251.656 65.656c-1.023 0-2.047-.391-2.828-1.172l-11.312-11.312c-1.562-1.562-1.562-4.094 0-5.656s4.094-1.562 5.656 0l11.312 11.312c1.562 1.562 1.562 4.094 0 5.656-.781.782-1.804 1.172-2.828 1.172z" fill="#4c241d"/><path d="m240.344 65.656c-1.023 0-2.047-.391-2.828-1.172-1.562-1.562-1.562-4.094 0-5.656l11.312-11.312c1.562-1.562 4.094-1.562 5.656 0s1.562 4.094 0 5.656l-11.312 11.312c-.781.782-1.805 1.172-2.828 1.172z" fill="#4c241d"/><g><path d="m146 152c-41.974 0-76 33.131-76 74 0 3.995.416 7.887 1.042 11.711 19.425 18.741 45.835 30.289 74.958 30.289s55.533-11.548 74.958-30.289c.626-3.824 1.042-7.716 1.042-11.711 0-40.869-34.026-74-76-74z" fill="#b5a19c"/><path d="m146 272c-29.137 0-56.742-11.156-77.734-31.41-.621-.598-1.031-1.383-1.17-2.23-.737-4.501-1.096-8.54-1.096-12.36 0-43.008 35.889-78 80-78s80 34.992 80 78c0 3.82-.359 7.859-1.096 12.359-.139.848-.549 1.633-1.17 2.23-20.992 20.255-48.597 31.411-77.734 31.411zm-71.215-36.25c19.369 18.227 44.606 28.25 71.215 28.25s51.846-10.023 71.215-28.25c.527-3.535.785-6.738.785-9.75 0-38.598-32.299-70-72-70s-72 31.402-72 70c0 3.012.258 6.215.785 9.75zm146.172 1.961h.039z" fill="#4c241d"/></g><g><circle cx="206" cy="96" fill="#b5a19c" r="28"/><path d="m206 128c-17.645 0-32-14.355-32-32s14.355-32 32-32 32 14.355 32 32-14.355 32-32 32zm0-56c-13.234 0-24 10.766-24 24s10.766 24 24 24 24-10.766 24-24-10.766-24-24-24z" fill="#4c241d"/></g><g><path d="m218 108v17.627c0 10.147-8.226 18.373-18.373 18.373h-5.627v-36" fill="#b5a19c"/><path d="m199.627 148h-5.627c-2.209 0-4-1.789-4-4v-36c0-2.211 1.791-4 4-4s4 1.789 4 4v32h1.627c7.926 0 14.373-6.449 14.373-14.375v-17.625c0-2.211 1.791-4 4-4s4 1.789 4 4v17.625c0 12.336-10.037 22.375-22.373 22.375z" fill="#4c241d"/></g><g><circle cx="86" cy="96" fill="#b5a19c" r="28"/><path d="m86 128c-17.645 0-32-14.355-32-32s14.355-32 32-32 32 14.355 32 32-14.355 32-32 32zm0-56c-13.234 0-24 10.766-24 24s10.766 24 24 24 24-10.766 24-24-10.766-24-24-24z" fill="#4c241d"/></g><g><path d="m74 108v17.627c0 10.147 8.226 18.373 18.373 18.373h5.627v-36" fill="#b5a19c"/><path d="m98 148h-5.627c-12.336 0-22.373-10.039-22.373-22.375v-17.625c0-2.211 1.791-4 4-4s4 1.789 4 4v17.625c0 7.926 6.447 14.375 14.373 14.375h1.627v-32c0-2.211 1.791-4 4-4s4 1.789 4 4v36c0 2.211-1.791 4-4 4z" fill="#4c241d"/></g><g><path d="m146 80c-30.928 0-56 25.072-56 56v19.12c0 18.159 14.721 32.88 32.88 32.88h46.24c18.159 0 32.88-14.721 32.88-32.88v-19.12c0-30.928-25.072-56-56-56z" fill="#b5a19c"/><path d="m169.119 192h-46.238c-20.336 0-36.881-16.543-36.881-36.879v-19.121c0-33.086 26.916-60 60-60s60 26.914 60 60v19.121c0 20.336-16.545 36.879-36.881 36.879zm-23.119-108c-28.674 0-52 23.328-52 52v19.121c0 15.926 12.955 28.879 28.881 28.879h46.238c15.926 0 28.881-12.953 28.881-28.879v-19.121c0-28.672-23.326-52-52-52z" fill="#4c241d"/></g><g><path d="m134 136v103.334c0 4.786-3.88 8.666-8.666 8.666h-26.205c-9.46 0-17.129 7.669-17.129 17.129v2.871h53.736c12.296 0 22.264-9.968 22.264-22.264v-109.736" fill="#b5a19c"/><path d="m135.736 272h-53.736c-2.209 0-4-1.789-4-4v-2.871c0-11.652 9.479-21.129 21.129-21.129h26.205c2.572 0 4.666-2.094 4.666-4.668v-103.332c0-2.211 1.791-4 4-4s4 1.789 4 4v103.332c0 6.984-5.682 12.668-12.666 12.668h-26.205c-6.859 0-12.506 5.289-13.08 12h49.688c10.07 0 18.264-8.195 18.264-18.266v-109.734c0-2.211 1.791-4 4-4s4 1.789 4 4v109.734c-.001 14.485-11.782 26.266-26.265 26.266z" fill="#4c241d"/></g><g><path d="m134 164v76l-4.047-5.665c-10.375-14.526-15.953-31.931-15.953-49.782v-20.553" fill="#fff"/><path d="m134 244c-1.268 0-2.49-.605-3.254-1.676l-4.047-5.664c-10.926-15.297-16.699-33.316-16.699-52.109v-20.551c0-2.211 1.791-4 4-4s4 1.789 4 4v20.551c0 15.172 4.131 29.793 12 42.621v-63.172c0-2.211 1.791-4 4-4s4 1.789 4 4v76c0 1.738-1.123 3.277-2.779 3.809-.403.129-.815.191-1.221.191z" fill="#4c241d"/></g><g><path d="m158 164v76l4.047-5.665c10.375-14.526 15.953-31.931 15.953-49.782v-20.553" fill="#fff"/><path d="m158 244c-.408 0-.818-.062-1.221-.191-1.656-.531-2.779-2.07-2.779-3.809v-76c0-2.211 1.791-4 4-4s4 1.789 4 4v63.172c7.867-12.828 12-27.449 12-42.621v-20.551c0-2.211 1.791-4 4-4s4 1.789 4 4v20.551c0 18.793-5.773 36.812-16.697 52.109l-4.049 5.664c-.764 1.071-1.986 1.676-3.254 1.676z" fill="#4c241d"/></g><g fill="#4c241d"><circle cx="108" cy="126" r="6"/><circle cx="184" cy="126" r="6"/><path d="m141.996 252c-.6 0-1.211-.137-1.785-.422l-8-4c-1.977-.988-2.777-3.391-1.789-5.367.988-1.973 3.389-2.773 5.367-1.789l8 4c1.977.988 2.777 3.391 1.789 5.367-.701 1.402-2.113 2.211-3.582 2.211z"/><path d="m114 260c-2.209 0-4-1.789-4-4v-8c0-2.211 1.791-4 4-4s4 1.789 4 4v8c0 2.211-1.791 4-4 4z"/><path d="m142 228h-8c-2.209 0-4-1.789-4-4s1.791-4 4-4h8c2.209 0 4 1.789 4 4s-1.791 4-4 4z"/><path d="m142 204h-8c-2.209 0-4-1.789-4-4s1.791-4 4-4h8c2.209 0 4 1.789 4 4s-1.791 4-4 4z"/><path d="m142 180h-8c-2.209 0-4-1.789-4-4s1.791-4 4-4h8c2.209 0 4 1.789 4 4s-1.791 4-4 4z"/><path d="m142 156h-8c-2.209 0-4-1.789-4-4s1.791-4 4-4h8c2.209 0 4 1.789 4 4s-1.791 4-4 4z"/></g></g></svg>