<svg id="german-sheperd-dog" enable-background="new 0 0 300 300" height="512" viewBox="0 0 300 300" width="512" xmlns="http://www.w3.org/2000/svg"><g><circle cx="180" cy="114" fill="#fff4f1" r="86"/><g><circle cx="146" cy="160" fill="#ffce56" r="108"/><path d="m146 272c-61.758 0-112-50.242-112-112s50.242-112 112-112 112 50.242 112 112-50.242 112-112 112zm0-216c-57.346 0-104 46.654-104 104s46.654 104 104 104 104-46.654 104-104-46.654-104-104-104z" fill="#4c241d"/></g><circle cx="68" cy="54" fill="#4c241d" r="4.529"/><circle cx="252" cy="242" fill="#4c241d" r="4.529"/><path d="m251.656 65.656c-1.023 0-2.047-.391-2.828-1.172l-11.312-11.312c-1.562-1.562-1.562-4.094 0-5.656s4.094-1.562 5.656 0l11.312 11.312c1.562 1.562 1.562 4.094 0 5.656-.781.782-1.804 1.172-2.828 1.172z" fill="#4c241d"/><path d="m240.344 65.656c-1.023 0-2.047-.391-2.828-1.172-1.562-1.562-1.562-4.094 0-5.656l11.312-11.312c1.562-1.562 4.094-1.562 5.656 0s1.562 4.094 0 5.656l-11.312 11.312c-.781.782-1.805 1.172-2.828 1.172z" fill="#4c241d"/><g><path d="m99.123 134.831c-5.749 8.403-9.123 18.559-9.123 29.509v88.025c16.329 9.922 35.497 15.635 56 15.635s39.671-5.713 56-15.634v-88.026c0-10.862-3.311-20.948-8.975-29.312" fill="#b5a19c"/><path d="m146 272c-20.535 0-40.619-5.607-58.078-16.217-1.193-.725-1.922-2.021-1.922-3.418v-88.025c0-11.391 3.396-22.377 9.822-31.768 1.246-1.826 3.736-2.291 5.559-1.043 1.824 1.246 2.291 3.736 1.043 5.559-5.512 8.057-8.424 17.478-8.424 27.252v85.746c15.75 9.109 33.68 13.914 52 13.914s36.25-4.805 52-13.914v-85.746c0-9.703-2.865-19.062-8.287-27.068-1.238-1.828-.76-4.314 1.07-5.555 1.826-1.238 4.318-.76 5.555 1.07 6.32 9.334 9.662 20.244 9.662 31.553v88.025c0 1.396-.729 2.693-1.922 3.418-17.459 10.61-37.543 16.217-58.078 16.217z" fill="#4c241d"/></g><g><path d="m146 228c-6.627 0-12-5.373-12-12v-16h24v16c0 6.627-5.373 12-12 12z" fill="#e66353"/><path d="m146 232c-8.822 0-16-7.178-16-16v-16c0-2.209 1.791-4 4-4h24c2.209 0 4 1.791 4 4v16c0 8.822-7.178 16-16 16zm-8-28v12c0 4.412 3.588 8 8 8s8-3.588 8-8v-12z" fill="#4c241d"/></g><g><path d="m116.578 187.804 2.536 7.574c1.663 4.966 6.689 7.988 11.855 7.126l13.406-2.235c1.167-.195 2.358-.193 3.524.003l12.385 2.089c5.485.925 10.758-2.525 12.107-7.921l1.609-6.44" fill="#b5a19c"/><path d="m129.17 206.654c-6.213 0-11.814-3.928-13.85-10.006l-2.535-7.574c-.701-2.096.428-4.361 2.523-5.062 2.098-.701 4.359.43 5.062 2.523l2.535 7.574c1.045 3.123 4.168 4.99 7.404 4.449l13.406-2.234c1.604-.27 3.234-.268 4.842.002l12.391 2.092c3.42.559 6.725-1.602 7.561-4.949l1.609-6.439c.537-2.143 2.713-3.451 4.852-2.91 2.143.535 3.445 2.707 2.91 4.852l-1.609 6.439c-1.848 7.371-9.16 12.16-16.654 10.895l-12.385-2.09c-.725-.117-1.465-.121-2.197 0l-13.408 2.234c-.826.138-1.647.204-2.457.204z" fill="#4c241d"/></g><path d="m146 220c-2.209 0-4-1.791-4-4v-24c0-2.209 1.791-4 4-4s4 1.791 4 4v24c0 2.209-1.791 4-4 4z" fill="#4c241d"/><g><path d="m148.423 188h-4.847c-.941 0-1.777-.201-2.075-.499l-2.542-2.542c-.472-.472.582-.96 2.075-.96h9.931c1.493 0 2.547.488 2.075.96l-2.542 2.542c-.297.298-1.133.499-2.075.499z" fill="#ffce56"/><path d="m148.424 192h-4.848c-1.475 0-3.523-.289-4.902-1.67l-2.543-2.543c-1.145-1.145-1.58-3.193-.961-4.688.816-1.971 2.953-3.1 5.865-3.1h9.93c2.912 0 5.049 1.129 5.865 3.1.619 1.494.184 3.543-.961 4.688l-2.543 2.543c-1.379 1.381-3.428 1.67-4.902 1.67z" fill="#4c241d"/></g><circle cx="130" cy="160" fill="#4c241d" r="4"/><circle cx="162" cy="160" fill="#4c241d" r="4"/><g><path d="m193.025 135.029c1.805-3.758 6.941-15.723 3.146-23.313-4.226-8.452-14.368-27.771-14.368-27.771s-2.592 7.745-8.693 13.282c-4.93 4.473-6.751 13.286-7.348 17.324-5.076-1.641-10.48-2.55-16.102-2.55h-7.319c-5.535 0-10.863.873-15.87 2.465-.611-4.078-2.444-12.8-7.336-17.239-6.102-5.537-8.694-13.282-8.694-13.282s-10.142 19.319-14.368 27.771c-3.725 7.45 1.161 19.133 3.05 23.115-5.749 8.403-9.123 18.559-9.123 29.509v31.66c0-24 24-28 24-28v-8c0-8.837 7.163-16 16-16s16 7.163 16 16c0-8.837 7.163-16 16-16s16 7.163 16 16v8s24 4 24 28v-31.66c0-10.861-3.311-20.948-8.975-29.311z" fill="#6b4f5b"/><path d="m202 200c-2.209 0-4-1.791-4-4 0-20.377-19.814-23.914-20.658-24.055-1.928-.32-3.342-1.99-3.342-3.945v-8c0-6.617-5.383-12-12-12s-12 5.383-12 12c0 2.209-1.791 4-4 4s-4-1.791-4-4c0-6.617-5.383-12-12-12s-12 5.383-12 12v8c0 1.955-1.414 3.625-3.342 3.945-.832.145-20.658 3.821-20.658 24.055 0 2.209-1.791 4-4 4s-4-1.791-4-4v-31.66c0-10.631 2.959-20.908 8.576-29.867-2.518-5.891-6.01-16.689-2.082-24.547 4.195-8.389 14.305-27.646 14.406-27.84.744-1.418 2.291-2.275 3.861-2.127 1.598.127 2.965 1.197 3.473 2.717.02.059 2.377 6.859 7.588 11.588 4.303 3.904 6.574 10.168 7.758 15.201 4.184-.973 8.457-1.465 12.76-1.465h7.32c4.371 0 8.723.514 12.986 1.527 1.182-5.055 3.453-11.342 7.775-15.264 5.211-4.729 7.568-11.529 7.592-11.598.514-1.514 1.883-2.58 3.477-2.703 1.582-.133 3.111.707 3.854 2.123.102.193 10.211 19.451 14.406 27.84 3.973 7.947.393 18.84-2.176 24.768 5.52 8.898 8.426 19.1 8.426 29.646v31.661c0 2.209-1.791 4-4 4zm-20-35.174c5.006 1.457 11.172 4.527 16 9.764v-10.25c0-9.703-2.865-19.062-8.287-27.068-.797-1.178-.91-2.691-.293-3.975 3.096-6.445 5.555-15.031 3.174-19.793-2.561-5.119-7.357-14.354-10.693-20.744-1.514 2.428-3.527 5.092-6.104 7.43-2.801 2.541-5.072 8.127-6.078 14.945-.172 1.164-.848 2.193-1.846 2.814-1.002.619-2.223.766-3.342.408-4.838-1.564-9.842-2.357-14.871-2.357h-7.32c-4.973 0-9.904.766-14.658 2.277-1.111.355-2.33.201-3.326-.418-.994-.619-1.666-1.643-1.84-2.801-1.018-6.787-3.287-12.346-6.068-14.869-2.576-2.338-4.59-5.002-6.104-7.43-3.336 6.391-8.133 15.625-10.693 20.744-2.352 4.703.053 13.215 3.086 19.611.611 1.287.492 2.799-.312 3.973-5.513 8.058-8.425 17.479-8.425 27.253v10.25c4.828-5.236 10.994-8.307 16-9.764v-4.826c0-11.027 8.973-20 20-20 6.535 0 12.348 3.15 16 8.012 3.652-4.861 9.465-8.012 16-8.012 11.027 0 20 8.973 20 20z" fill="#4c241d"/></g><g><path d="m110 124s-4-8 0-12" fill="#b5a19c"/><path d="m110.004 128c-1.469 0-2.881-.809-3.582-2.211-.541-1.082-5.119-10.748.75-16.617 1.562-1.562 4.094-1.562 5.656 0s1.562 4.094 0 5.656c-1.305 1.307-.223 5.438.75 7.383.988 1.977.188 4.379-1.789 5.367-.574.287-1.185.422-1.785.422z" fill="#4c241d"/></g><g><path d="m182.499 124s4-8 0-12" fill="#b5a19c"/><path d="m182.494 128c-.6 0-1.211-.135-1.785-.422-1.973-.986-2.773-3.383-1.795-5.355.908-1.85 2.102-6.049.756-7.395-1.562-1.562-1.562-4.094 0-5.656s4.094-1.562 5.656 0c5.869 5.869 1.291 15.535.75 16.617-.701 1.402-2.113 2.211-3.582 2.211z" fill="#4c241d"/></g><g><path d="m110 228s0 8-8 12" fill="#b5a19c"/><path d="m102.004 244c-1.469 0-2.881-.809-3.582-2.211-.988-1.977-.188-4.379 1.789-5.367 5.59-2.795 5.783-8.236 5.789-8.467.053-2.189 1.922-3.941 4.047-3.93 2.191.025 3.953 1.783 3.953 3.975 0 .428-.115 10.529-10.211 15.578-.574.287-1.185.422-1.785.422z" fill="#4c241d"/></g><g><path d="m121.487 235.044c-1.375 4.519-4.552 9.489-11.487 12.956" fill="#b5a19c"/><path d="m110.004 252c-1.469 0-2.881-.809-3.582-2.211-.988-1.977-.188-4.379 1.789-5.367 4.885-2.441 8.062-5.988 9.449-10.543.643-2.117 2.873-3.309 4.99-2.662 2.113.643 3.307 2.877 2.662 4.99-2.02 6.643-6.697 11.957-13.523 15.371-.574.287-1.185.422-1.785.422z" fill="#4c241d"/></g><g><path d="m182 232s1.284 5.136-.513 11.044" fill="#b5a19c"/><path d="m181.488 247.045c-.387 0-.777-.057-1.166-.176-2.113-.643-3.307-2.877-2.662-4.99 1.428-4.695.463-8.891.453-8.934-.506-2.139.807-4.299 2.943-4.82 2.141-.51 4.291.771 4.824 2.906.062.252 1.527 6.289-.568 13.176-.523 1.727-2.109 2.838-3.824 2.838z" fill="#4c241d"/></g><g fill="#4c241d"><path d="m230 172h-12c-2.209 0-4-1.791-4-4s1.791-4 4-4h12c2.209 0 4 1.791 4 4s-1.791 4-4 4z"/><path d="m218 160c-1.023 0-2.047-.391-2.828-1.172-1.562-1.562-1.562-4.094 0-5.656l4-4c1.562-1.562 4.094-1.562 5.656 0s1.562 4.094 0 5.656l-4 4c-.781.781-1.805 1.172-2.828 1.172z"/><path d="m222 188c-1.023 0-2.047-.391-2.828-1.172l-4-4c-1.562-1.562-1.562-4.094 0-5.656s4.094-1.562 5.656 0l4 4c1.562 1.562 1.562 4.094 0 5.656-.781.781-1.805 1.172-2.828 1.172z"/><path d="m74 172h-12c-2.209 0-4-1.791-4-4s1.791-4 4-4h12c2.209 0 4 1.791 4 4s-1.791 4-4 4z"/><path d="m74 160c-1.023 0-2.047-.391-2.828-1.172l-4-4c-1.562-1.562-1.562-4.094 0-5.656s4.094-1.562 5.656 0l4 4c1.562 1.562 1.562 4.094 0 5.656-.781.781-1.805 1.172-2.828 1.172z"/><path d="m70 188c-1.023 0-2.047-.391-2.828-1.172-1.562-1.562-1.562-4.094 0-5.656l4-4c1.562-1.562 4.094-1.562 5.656 0s1.562 4.094 0 5.656l-4 4c-.781.781-1.805 1.172-2.828 1.172z"/></g></g></svg>