<svg id="giraffe" enable-background="new 0 0 300 300" height="512" viewBox="0 0 300 300" width="512" xmlns="http://www.w3.org/2000/svg"><g><circle cx="248" cy="244" fill="#4c241d" r="4"/><circle cx="178" cy="114" fill="#fff4f1" r="86"/><g><circle cx="148" cy="160" fill="#a9ba5a" r="108"/><path d="m148 272c-61.758 0-112-50.242-112-112s50.242-112 112-112 112 50.242 112 112-50.242 112-112 112zm0-216c-57.348 0-104 46.654-104 104s46.652 104 104 104 104-46.654 104-104-46.652-104-104-104z" fill="#4c241d"/></g><g><path d="m104.47 258.839c13.32 5.875 28.037 9.161 43.53 9.161s30.21-3.286 43.53-9.161l-8.067-90.839h-70.927z" fill="#fc8c29"/><path d="m148 272c-15.66 0-30.852-3.197-45.145-9.502-1.57-.691-2.523-2.307-2.371-4.014l8.066-90.838c.184-2.064 1.914-3.646 3.984-3.646h70.93c2.07 0 3.801 1.582 3.984 3.646l8.066 90.838c.152 1.707-.801 3.322-2.371 4.014-14.291 6.305-29.483 9.502-45.143 9.502zm-39.289-15.705c25 10.227 53.578 10.227 78.578 0l-7.484-84.295h-63.609z" fill="#4c241d"/></g><circle cx="64" cy="56" fill="#4c241d" r="4"/><path d="m252 68c-1.023 0-2.047-.391-2.828-1.172l-12-12c-1.562-1.562-1.562-4.094 0-5.656s4.094-1.562 5.656 0l12 12c1.562 1.562 1.562 4.094 0 5.656-.781.781-1.805 1.172-2.828 1.172z" fill="#4c241d"/><path d="m240 68c-1.023 0-2.047-.391-2.828-1.172-1.562-1.562-1.562-4.094 0-5.656l12-12c1.562-1.562 4.094-1.562 5.656 0s1.562 4.094 0 5.656l-12 12c-.781.781-1.805 1.172-2.828 1.172z" fill="#4c241d"/><g><path d="m112 127.599s-8.261 0-12.391-7.885c-4.13-7.886-8.26-19.714-28.912-19.714 0 0-8.261 23.656 4.13 35.484s28.912 7.885 28.912 7.885" fill="#fc8c29"/><path d="m97.09 148.008c-6.688 0-16.637-1.623-25.023-9.631-14.094-13.451-5.516-38.631-5.145-39.695.562-1.606 2.078-2.682 3.777-2.682 21.441 0 27.477 11.992 31.473 19.93l.98 1.928c2.91 5.553 8.645 5.736 8.887 5.74 2.191.047 3.961 1.85 3.938 4.041-.023 2.193-1.785 3.959-3.977 3.959-.438 0-10.742-.113-15.934-10.029l-1.043-2.043c-3.598-7.152-7.312-14.531-21.348-15.434-1.562 6.105-4.195 20.76 3.914 28.5 10.695 10.207 25.078 6.924 25.219 6.887 2.148-.51 4.309.812 4.82 2.961.512 2.15-.812 4.307-2.961 4.82-.3.072-3.257.748-7.577.748z" fill="#4c241d"/></g><g><path d="m184 127.599s8.261 0 12.391-7.885 8.26-19.714 28.912-19.714c0 0 8.261 23.656-4.13 35.484s-28.912 7.885-28.912 7.885" fill="#fc8c29"/><path d="m198.91 148.008c-4.32 0-7.277-.676-7.578-.748-2.148-.514-3.473-2.67-2.961-4.82.512-2.148 2.684-3.471 4.82-2.961.574.127 14.613 3.23 25.219-6.887 8.109-7.74 5.477-22.395 3.914-28.5-14.035.902-17.75 8.281-21.348 15.434l-1.043 2.043c-5.191 9.916-15.496 10.029-15.934 10.029-2.211 0-4-1.791-4-4 0-2.197 1.773-3.982 3.965-4 .32-.008 5.996-.227 8.883-5.74l.98-1.928c3.996-7.938 10.031-19.93 31.473-19.93 1.699 0 3.215 1.076 3.777 2.682.371 1.064 8.949 26.244-5.145 39.695-8.385 8.008-18.334 9.631-25.022 9.631z" fill="#4c241d"/></g><g><path d="m183.446 176s15.889-16 11.917-32-3.972-4-11.917-24c-1.91-4.809-4.25-6.28-7.446-8v-22c0-3.314-2.686-6-6-6-3.314 0-6 2.686-6 6v18c-6.51.695-12.333 4-12.333 4h-7.334s-5.538-3.425-12.333-4v-18c0-3.314-2.686-6-6-6-3.314 0-6 2.686-6 6v22c-2.929 1.763-5.666 3.519-7.446 8-7.945 20-7.945 8-11.917 24s11.917 32 11.917 32c3.972 16 15.251 24 15.251 24v4c-4.078 3.589-5.958 10.65-5.958 16 0 11.046 12.99 28 26.153 28s25.515-16.954 25.515-28c0-5.064-2.261-12.477-5.958-16v-4c-.001 0 11.916-8 15.889-24z" fill="#fc8c29"/><path d="m148 252c-15.246 0-30.152-18.324-30.152-32 0-5.281 1.59-12.77 5.957-17.652v-.434c-3.473-2.994-11.34-10.932-14.863-23.916-3.379-3.691-16.156-18.975-12.188-34.963 2.039-8.213 3.246-10.07 5.516-12.354 1.223-1.232 2.898-2.92 6.566-12.158 1.844-4.631 4.656-7.072 7.164-8.742v-19.781c0-5.514 4.484-10 10-10s10 4.486 10 10v14.562c4.27.906 7.723 2.551 9.379 3.438h5.301c1.641-.826 5.148-2.43 9.32-3.375v-14.625c0-5.514 4.484-10 10-10s10 4.486 10 10v19.684c2.801 1.75 5.262 4.057 7.164 8.84 3.668 9.238 5.344 10.926 6.566 12.158 2.27 2.283 3.477 4.141 5.516 12.354 3.969 15.99-8.809 31.273-12.188 34.965-3.559 13.037-11.848 20.988-15.504 23.979v.461c3.883 4.686 5.961 12.266 5.961 17.561.001 12.342-13.507 31.998-29.515 31.998zm-22-164c-1.102 0-2 .896-2 2v22c0 1.402-.734 2.703-1.938 3.428-2.758 1.66-4.516 2.842-5.789 6.051-4.277 10.76-6.617 13.117-8.328 14.84-1.027 1.033-1.707 1.717-3.426 8.646-3.375 13.588 10.734 28.076 10.879 28.221.504.512.867 1.152 1.039 1.85 3.574 14.395 13.582 21.631 13.68 21.703 1.059.75 1.688 1.965 1.688 3.262v4c0 1.148-.496 2.242-1.355 3.002-3.023 2.658-4.602 8.551-4.602 12.998 0 8.604 11.164 24 22.152 24 10.883 0 21.516-15.186 21.516-24 0-4.072-1.938-10.455-4.719-13.104-.793-.756-1.242-1.803-1.242-2.896v-4c0-1.332.664-2.578 1.77-3.32.098-.066 10.711-7.439 14.238-21.645.172-.697.535-1.338 1.039-1.85.145-.145 14.254-14.633 10.879-28.221-1.719-6.93-2.398-7.613-3.426-8.646-1.711-1.723-4.051-4.08-8.328-14.842-1.414-3.564-2.824-4.447-5.625-5.955-1.293-.698-2.102-2.051-2.102-3.522v-22c0-1.104-.898-2-2-2s-2 .896-2 2v18c0 2.045-1.543 3.76-3.574 3.977-5.531.592-10.73 3.473-10.781 3.502-.605.342-1.285.521-1.977.521h-7.336c-.742 0-1.473-.207-2.105-.6-.039-.021-4.863-2.934-10.562-3.414-2.07-.176-3.664-1.908-3.664-3.986v-18c-.001-1.104-.899-2-2.001-2z" fill="#4c241d"/></g><g fill="#4c241d"><path d="m156 220c-1.023 0-2.047-.391-2.828-1.172-1.562-1.562-1.562-4.094 0-5.656l4-4c1.562-1.562 4.094-1.562 5.656 0s1.562 4.094 0 5.656l-4 4c-.781.781-1.805 1.172-2.828 1.172z"/><path d="m140 220c-1.023 0-2.047-.391-2.828-1.172l-4-4c-1.562-1.562-1.562-4.094 0-5.656s4.094-1.562 5.656 0l4 4c1.562 1.562 1.562 4.094 0 5.656-.781.781-1.805 1.172-2.828 1.172z"/><path d="m148 240c-10.809 0-21.887-3.818-26.938-9.285l5.875-5.43c3.54 3.828 12.594 6.715 21.063 6.715 8.461 0 17.531-2.832 21.098-6.59l5.805 5.508c-5.079 5.348-16.141 9.082-26.903 9.082z"/><path d="m156.004 196.002c-.367 0-.734-.051-1.102-.156-2.125-.607-3.355-2.82-2.75-4.945l8-28c.609-2.127 2.836-3.352 4.945-2.746 2.125.607 3.355 2.82 2.75 4.945l-8 28c-.503 1.755-2.105 2.902-3.843 2.902z"/><path d="m139.996 196.002c-1.738 0-3.34-1.146-3.844-2.902l-8-28c-.605-2.125.625-4.338 2.75-4.945 2.109-.604 4.336.619 4.945 2.746l8 28c.605 2.125-.625 4.338-2.75 4.945-.367.105-.734.156-1.101.156z"/><circle cx="134" cy="126" r="6"/><circle cx="162" cy="134" r="6"/><circle cx="176" cy="252" r="4"/><circle cx="120" cy="252" r="4"/><circle cx="148" cy="148" r="4"/><circle cx="116" cy="136" r="4"/><circle cx="184" cy="232" r="4"/><circle cx="150" cy="262" r="6"/><circle cx="178" cy="122" r="6"/><path d="m120 160h-8c-1.961 0-3.633-1.422-3.949-3.359-.312-1.936.824-3.814 2.684-4.436l12-4c2.109-.703 4.363.438 5.059 2.529.699 2.096-.434 4.361-2.527 5.061l-1.27.424c-.118 2.107-1.86 3.781-3.997 3.781z"/><path d="m184 160h-8c-2.137 0-3.879-1.674-3.996-3.781l-1.27-.424c-2.094-.699-3.227-2.965-2.527-5.061.699-2.092 2.945-3.232 5.059-2.529l12 4c1.859.621 2.996 2.5 2.684 4.436-.317 1.937-1.989 3.359-3.95 3.359z"/></g></g></svg>