<svg id="hawk-eagle" enable-background="new 0 0 300 300" height="512" viewBox="0 0 300 300" width="512" xmlns="http://www.w3.org/2000/svg"><g><circle cx="180" cy="114" fill="#fff4f1" r="86"/><g><circle cx="146" cy="160" fill="#9dc1e4" r="108"/><path d="m146 272c-61.758 0-112-50.242-112-112s50.242-112 112-112 112 50.242 112 112-50.242 112-112 112zm0-216c-57.348 0-104 46.652-104 104s46.652 104 104 104 104-46.652 104-104-46.652-104-104-104z" fill="#4c241d"/></g><g><path d="m201.939 143.339 38.326 9.117s-6.87-14.993-24.802-23.851" fill="#6b4f5b"/><path d="m240.266 156.457c-.309 0-.617-.035-.926-.109l-38.328-9.117c-2.148-.512-3.477-2.668-2.965-4.816s2.684-3.461 4.816-2.965l28.473 6.773c-3.684-4.477-9.426-9.969-17.645-14.031-1.98-.977-2.793-3.379-1.812-5.359.977-1.977 3.371-2.793 5.359-1.812 18.984 9.379 26.359 25.105 26.664 25.77.637 1.391.426 3.023-.543 4.207-.773.936-1.914 1.459-3.093 1.459z" fill="#4c241d"/></g><g><path d="m252.534 142.312c-.909-5.512-2.238-10.88-3.948-16.077-2.656-2.002-5.682-3.93-9.124-5.63l-21.462 15.395z" fill="#6b4f5b"/><path d="m252.535 146.312c-.238 0-.48-.02-.719-.066l-34.535-6.312c-1.578-.289-2.832-1.492-3.184-3.059s.266-3.191 1.57-4.125l21.461-15.395c1.199-.859 2.773-.992 4.102-.336 3.395 1.672 6.68 3.699 9.762 6.02.652.492 1.137 1.168 1.395 1.945 1.785 5.434 3.164 11.043 4.094 16.676.215 1.285-.211 2.594-1.141 3.504-.754.742-1.766 1.148-2.805 1.148zm-24.547-12.554 19.508 3.566c-.652-2.91-1.426-5.793-2.32-8.633-1.734-1.246-3.535-2.383-5.383-3.402z" fill="#4c241d"/></g><g><path d="m90.03 143.339-38.326 9.117s6.87-14.993 24.802-23.851" fill="#6b4f5b"/><path d="m51.703 156.457c-1.18 0-2.32-.523-3.094-1.461-.969-1.184-1.18-2.816-.543-4.207.305-.664 7.68-16.391 26.664-25.77 1.992-.984 4.387-.164 5.359 1.812.98 1.98.168 4.383-1.812 5.359-8.219 4.062-13.961 9.555-17.641 14.031l28.469-6.773c2.145-.496 4.305.812 4.816 2.965.512 2.148-.816 4.305-2.965 4.816l-38.328 9.117c-.308.076-.616.111-.925.111z" fill="#4c241d"/></g><g><path d="m39.434 142.312c.909-5.512 2.238-10.88 3.948-16.077 2.656-2.002 5.682-3.93 9.124-5.63l21.462 15.395z" fill="#6b4f5b"/><path d="m39.434 146.312c-1.039 0-2.051-.406-2.805-1.148-.93-.91-1.355-2.219-1.141-3.504.93-5.633 2.309-11.242 4.094-16.676.258-.773.742-1.453 1.391-1.941 3.066-2.312 6.348-4.34 9.762-6.023 1.316-.652 2.902-.527 4.102.336l21.465 15.395c1.305.934 1.922 2.559 1.57 4.125s-1.605 2.77-3.184 3.059l-34.535 6.312c-.239.046-.481.065-.719.065zm7.359-17.621c-.895 2.836-1.668 5.723-2.32 8.633l19.508-3.566-11.809-8.469c-1.852 1.023-3.652 2.16-5.379 3.402z" fill="#4c241d"/></g><g><path d="m239.061 105.209c-5.652-.294-9.427-.442-9.427-.442s-52.21-19.726-83.536 0h-.092c-31.326-19.726-83.536 0-83.536 0s-3.824.15-9.536.448c-3.114 5.279-5.794 10.842-7.986 16.648 41.602 12.544 59.291 38.137 59.291 38.137h83.536s17.731-25.555 59.287-38.11c-2.195-5.817-4.88-11.391-8.001-16.681z" fill="#b5a19c"/><path d="m187.773 164h-83.535c-1.312 0-2.543-.645-3.289-1.727-.168-.238-17.543-24.637-57.156-36.582-1.059-.316-1.941-1.062-2.43-2.059-.492-.992-.547-2.145-.156-3.184 2.25-5.957 5.039-11.77 8.285-17.27.684-1.152 1.898-1.891 3.238-1.961 4.363-.227 7.633-.367 8.949-.422 6.234-2.266 53.195-18.297 84.375-.66 31.172-17.617 78.133-1.602 84.371.656 1.305.055 4.531.195 8.848.422 1.34.07 2.555.809 3.234 1.965 3.262 5.535 6.055 11.355 8.297 17.297.391 1.039.336 2.191-.156 3.184-.488.992-1.367 1.738-2.43 2.059-39.574 11.957-56.992 36.324-57.164 36.57-.749 1.067-1.976 1.712-3.281 1.712zm-81.543-8h79.555c4.688-5.902 22.074-25.293 55.961-36.617-1.488-3.504-3.184-6.945-5.062-10.289-4.387-.219-7.195-.332-7.207-.332-.43-.016-.855-.102-1.258-.254-.5-.184-50.738-18.785-79.988-.355-1.281.797-3.074.797-4.355 0-29.305-18.461-79.488.164-79.988.355-.402.152-.824.238-1.254.254-.012 0-2.867.113-7.316.336-1.871 3.32-3.559 6.754-5.051 10.258 33.921 11.312 51.284 30.73 55.963 36.644z" fill="#4c241d"/></g><g><path d="m215.969 77.763c-20.597-3.537-49.182-5.252-69.863 6.237h-.106c-20.726-11.514-49.389-9.767-69.995-6.215-10.047 8.562-18.521 18.915-24.887 30.591 32.684 13.398 46.882 31.624 46.882 31.624h96s14.232-18.2 46.898-31.595c-6.374-11.698-14.862-22.069-24.929-30.642z" fill="#6b4f5b"/><path d="m194 144h-96c-1.234 0-2.398-.57-3.156-1.543-.133-.168-14.078-17.605-45.242-30.383-1.055-.43-1.875-1.289-2.254-2.359-.379-1.074-.285-2.258.258-3.254 6.578-12.062 15.258-22.734 25.805-31.719.547-.469 1.207-.777 1.914-.898 20.5-3.535 49.152-5.332 70.73 5.652 21.543-10.965 50.129-9.195 70.59-5.676.707.121 1.371.43 1.918.895 10.566 9.004 19.262 19.691 25.848 31.777.543 1 .637 2.18.258 3.254-.383 1.07-1.199 1.93-2.25 2.359-31.324 12.844-45.133 30.184-45.266 30.359-.758.97-1.923 1.536-3.153 1.536zm-94.145-8h92.293c4.055-4.562 17.621-18.266 43.043-29.512-5.621-9.348-12.664-17.73-20.988-24.969-19.719-3.266-46.809-4.766-66.156 5.977-1.188.664-2.801.664-3.988 0-19.379-10.766-46.527-9.25-66.289-5.953-8.305 7.223-15.332 15.586-20.945 24.914 25.437 11.25 38.98 24.969 43.03 29.543z" fill="#4c241d"/></g><g><path d="m202 108-4 27.067c0 9.352-7.581 16.933-16.933 16.933 13.77 0 24.933 11.163 24.933 24.933v8.074c0 23.745-19.248 42.993-42.992 42.993h-34.016c-23.744 0-42.992-19.248-42.992-42.992v-8.074c0-13.771 11.163-24.934 24.933-24.934-9.352 0-16.933-7.581-16.933-16.933l-4-27.067 16 12 8-12 8 12 8-12 8 12 8-12 8 12 8-12 8 12 8-12 8 12z" fill="#fff"/><path d="m163.008 232h-34.016c-25.91 0-46.992-21.082-46.992-46.992v-8.074c0-11.168 6.359-20.879 15.648-25.699-4.594-3.781-7.555-9.48-7.645-15.859l-3.961-26.789c-.238-1.605.52-3.195 1.91-4.023 1.387-.824 3.145-.738 4.445.238l12.617 9.461 5.656-8.48c1.484-2.227 5.172-2.227 6.656 0l4.672 7.008 4.672-7.008c1.484-2.227 5.172-2.227 6.656 0l4.672 7.008 4.672-7.008c1.484-2.227 5.172-2.227 6.656 0l4.672 7.008 4.672-7.008c1.484-2.227 5.172-2.227 6.656 0l4.672 7.008 4.672-7.008c1.484-2.227 5.172-2.227 6.656 0l5.656 8.48 12.617-9.461c1.297-.973 3.055-1.059 4.445-.238 1.391.828 2.148 2.418 1.91 4.023l-3.961 26.789c-.09 6.379-3.051 12.078-7.645 15.859 9.289 4.82 15.648 14.531 15.648 25.699v8.074c.004 25.91-21.078 46.992-46.988 46.992zm-48.074-80c0 2.211-1.789 4-4 4-11.543 0-20.934 9.391-20.934 20.934v8.074c0 21.5 17.492 38.992 38.992 38.992h34.016c21.5 0 38.992-17.492 38.992-38.992v-8.074c0-11.543-9.391-20.934-20.934-20.934-2.211 0-4-1.789-4-4s1.789-4 4-4c7.133 0 12.934-5.801 12.934-12.934 0-.195.016-.391.043-.586l2.578-17.445-8.223 6.164c-.879.66-1.992.93-3.074.742-1.082-.184-2.043-.809-2.652-1.723l-4.672-7.007-4.672 7.008c-1.484 2.227-5.172 2.227-6.656 0l-4.672-7.008-4.672 7.008c-1.484 2.227-5.172 2.227-6.656 0l-4.672-7.008-4.672 7.008c-1.484 2.227-5.172 2.227-6.656 0l-4.672-7.008-4.672 7.008c-1.484 2.227-5.172 2.227-6.656 0l-4.672-7.008-4.672 7.008c-.609.914-1.57 1.539-2.652 1.723-1.09.184-2.195-.082-3.074-.742l-8.223-6.164 2.578 17.445c.027.195.043.391.043.586 0 7.133 5.801 12.934 12.934 12.934 2.211-.001 4 1.788 4 3.999z" fill="#4c241d"/></g><g fill="#4c241d"><path d="m169.996 212c-.602 0-1.211-.137-1.785-.422l-22.211-11.105-22.211 11.105c-1.98.98-4.375.188-5.367-1.789-.988-1.977-.188-4.379 1.789-5.367l24-12c1.125-.562 2.453-.562 3.578 0l24 12c1.977.988 2.777 3.391 1.789 5.367-.703 1.402-2.113 2.211-3.582 2.211z"/><circle cx="68" cy="54" r="4.529"/><circle cx="252" cy="242" r="4.529"/><circle cx="123.265" cy="181.265" r="5.265"/><circle cx="168.735" cy="181.265" r="5.265"/><path d="m251.656 65.656c-1.023 0-2.047-.391-2.828-1.172l-11.312-11.312c-1.562-1.562-1.562-4.094 0-5.656s4.094-1.562 5.656 0l11.312 11.312c1.562 1.562 1.562 4.094 0 5.656-.781.782-1.804 1.172-2.828 1.172z"/><path d="m240.344 65.656c-1.023 0-2.047-.391-2.828-1.172-1.562-1.562-1.562-4.094 0-5.656l11.312-11.312c1.562-1.562 4.094-1.562 5.656 0s1.562 4.094 0 5.656l-11.312 11.312c-.781.782-1.805 1.172-2.828 1.172z"/></g><g><path d="m158 193.514c0-9.121-5.373-13.514-12-13.514s-12 4.394-12 13.514 12 42.486 12 42.486 12-33.365 12-42.486z" fill="#ffce56"/><path d="m146 240c-1.688 0-3.191-1.059-3.766-2.645-1.25-3.484-12.234-34.297-12.234-43.84 0-12.102 8.035-17.516 16-17.516s16 5.414 16 17.516c0 9.543-10.984 40.355-12.234 43.84-.575 1.586-2.078 2.645-3.766 2.645zm0-56c-5.16 0-8 3.379-8 9.516 0 4.66 4.004 18.215 8 30.234 3.996-12.02 8-25.574 8-30.234 0-6.137-2.84-9.516-8-9.516z" fill="#4c241d"/></g><path d="m162 182c-1.617 0-3.145-.988-3.746-2.594-.773-2.07.273-4.375 2.34-5.152l16-6c.449-.168.926-.254 1.406-.254h8c2.211 0 4 1.789 4 4s-1.789 4-4 4h-7.273l-15.32 5.746c-.466.172-.938.254-1.407.254z" fill="#4c241d"/><path d="m130 182c-.469 0-.941-.082-1.406-.254l-15.321-5.746h-7.273c-2.211 0-4-1.789-4-4s1.789-4 4-4h8c.48 0 .957.086 1.406.254l16 6c2.066.777 3.113 3.082 2.34 5.152-.601 1.606-2.129 2.594-3.746 2.594z" fill="#4c241d"/><path d="m162 156h-32c-2.211 0-4-1.789-4-4s1.789-4 4-4h32c2.211 0 4 1.789 4 4s-1.789 4-4 4z" fill="#4c241d"/></g></svg>