<svg id="horse" enable-background="new 0 0 300 300" height="512" viewBox="0 0 300 300" width="512" xmlns="http://www.w3.org/2000/svg"><g><circle cx="180" cy="114" fill="#fff4f1" r="86"/><g><circle cx="146" cy="160" fill="#ffce56" r="108"/><path d="m146 272c-61.758 0-112-50.242-112-112s50.242-112 112-112 112 50.242 112 112-50.242 112-112 112zm0-216c-57.346 0-104 46.654-104 104s46.654 104 104 104 104-46.654 104-104-46.654-104-104-104z" fill="#4c241d"/></g><g><path d="m251.29 136h-4.484c-8.29 0-16.333-2.821-22.806-8s-14.516-8-22.806-8h-55.194v148c59.647 0 108-48.353 108-108 0-8.253-.957-16.278-2.71-24z" fill="#bf7e68"/><path d="m146 272c-2.209 0-4-1.791-4-4v-148c0-2.209 1.791-4 4-4h55.193c9.166 0 18.152 3.152 25.307 8.877 5.74 4.594 12.951 7.123 20.307 7.123h4.484c1.869 0 3.488 1.293 3.9 3.115 1.864 8.213 2.809 16.586 2.809 24.885 0 61.758-50.242 112-112 112zm4-148v139.924c55.498-2.111 100-47.918 100-103.924 0-6.658-.656-13.371-1.951-20h-1.242c-9.166 0-18.152-3.152-25.307-8.877-5.74-4.594-12.951-7.123-20.307-7.123z" fill="#4c241d"/></g><g><path d="m166 102.58s6.759 0 10.138-6.452c3.379-6.451 6.758-16.128 23.655-16.128 0 0 6.759 19.355-3.379 29.032s-23.655 6.452-23.655 6.452" fill="#bf7e68"/><path d="m178.184 120.002c-3.623 0-6.104-.566-6.354-.627-2.148-.512-3.477-2.67-2.963-4.818.514-2.15 2.682-3.461 4.818-2.963.451.098 11.588 2.537 19.967-5.455 6.119-5.842 4.4-16.854 3.148-22.018-10.578.893-13.463 6.623-16.26 12.18l-.859 1.684c-4.453 8.498-13.307 8.596-13.682 8.596-2.209 0-4-1.791-4-4 0-2.195 1.768-3.977 3.957-4 .268-.008 4.49-.211 6.639-4.309l.801-1.568c3.348-6.653 8.407-16.704 26.397-16.704 1.701 0 3.215 1.076 3.777 2.682.311.889 7.471 21.918-4.395 33.242-7.036 6.717-15.382 8.078-20.991 8.078z" fill="#4c241d"/></g><g><path d="m143.337 96.086c-6.698.434-12.876 2.582-18.205 5.981-2.254-.663-5.315-2.205-7.271-5.938-3.378-6.452-6.757-16.129-23.654-16.129 0 0-6.759 19.355 3.379 29.032 4.63 4.42 9.954 6.135 14.384 6.708-3.79 6.371-5.97 13.813-5.97 21.63v53.072c0 8.556 5.011 15.889 12.243 19.354 2.256 1.081 3.757 3.278 3.757 5.78v20.424h48v-20.424c0-2.502 1.501-4.699 3.757-5.78 7.232-3.465 12.243-10.797 12.243-19.354v-54.442c0-22.973-19.366-41.422-42.663-39.914z" fill="#bf7e68"/><path d="m170 240h-48c-2.209 0-4-1.791-4-4v-20.424c0-.9-.568-1.732-1.484-2.172-8.955-4.291-14.516-13.09-14.516-22.963v-53.07c0-6.494 1.381-12.916 4.027-18.844-4.234-1.324-7.988-3.533-11.203-6.604-11.865-11.323-4.705-32.353-4.394-33.241.562-1.606 2.076-2.682 3.777-2.682 17.99 0 23.049 10.051 26.396 16.703l.801 1.57c.783 1.494 1.902 2.617 3.342 3.355 5.617-3.213 11.914-5.119 18.334-5.535 12.307-.82 24.037 3.391 33.006 11.799 8.842 8.29 13.914 19.993 13.914 32.108v54.441c0 9.873-5.561 18.672-14.514 22.963-.918.439-1.486 1.271-1.486 2.172v20.424c0 2.209-1.791 4-4 4zm-44-8h40v-16.424c0-4.012 2.311-7.607 6.031-9.387 6.148-2.947 9.969-8.98 9.969-15.748v-54.441c0-10.059-4.043-19.389-11.387-26.271-7.336-6.877-16.93-10.305-27.018-9.65-5.838.377-11.328 2.182-16.312 5.361-.977.619-2.176.789-3.277.465-4.283-1.258-7.633-3.996-9.688-7.92l-.859-1.684c-2.797-5.557-5.682-11.287-16.26-12.18-1.252 5.164-2.971 16.176 3.148 22.018 3.271 3.121 7.354 5.018 12.135 5.635 1.336.172 2.496 1.006 3.086 2.217.588 1.211.529 2.639-.16 3.795-3.537 5.947-5.408 12.719-5.408 19.586v53.07c0 6.768 3.82 12.801 9.971 15.748 3.719 1.779 6.029 5.375 6.029 9.387z" fill="#4c241d"/></g><g><path d="m148.062 260h-4.125c-12.115 0-21.937-9.822-21.937-21.938v-5.391c0-4.789 3.882-8.671 8.671-8.671h30.658c4.789 0 8.671 3.882 8.671 8.671v5.391c0 12.116-9.822 21.938-21.938 21.938z" fill="#6b4f5b"/><path d="m148.062 264h-4.125c-14.302 0-25.937-11.635-25.937-25.938v-5.391c0-6.988 5.684-12.672 12.672-12.672h30.656c6.988 0 12.672 5.684 12.672 12.672v5.391c0 14.303-11.635 25.938-25.938 25.938zm-17.39-36c-2.576 0-4.672 2.096-4.672 4.672v5.391c0 9.891 8.047 17.938 17.938 17.938h4.125c9.891 0 17.938-8.047 17.938-17.938v-5.391c0-2.576-2.096-4.672-4.672-4.672z" fill="#4c241d"/></g><g fill="#4c241d"><circle cx="68" cy="54" r="4.529"/><circle cx="252" cy="242" r="4.529"/><path d="m251.656 65.656c-1.023 0-2.047-.391-2.828-1.172l-11.312-11.312c-1.562-1.562-1.562-4.094 0-5.656s4.094-1.562 5.656 0l11.312 11.312c1.562 1.562 1.562 4.094 0 5.656-.781.782-1.804 1.172-2.828 1.172z"/><path d="m240.344 65.656c-1.023 0-2.047-.391-2.828-1.172-1.562-1.562-1.562-4.094 0-5.656l11.312-11.312c1.562-1.562 4.094-1.562 5.656 0s1.562 4.094 0 5.656l-11.312 11.312c-.781.782-1.805 1.172-2.828 1.172z"/><path d="m158 228c-2.209 0-4-1.791-4-4v-74.979c0-13.796 11.225-25.021 25.021-25.021h5.381c2.209 0 4 1.791 4 4s-1.791 4-4 4h-5.381c-9.385 0-17.021 7.637-17.021 17.021v74.979c0 2.209-1.791 4-4 4z"/><path d="m134 228c-2.209 0-4-1.791-4-4v-74.979c0-9.385-7.637-17.021-17.021-17.021h-5.352c-2.209 0-4-1.791-4-4s1.791-4 4-4h5.352c13.796 0 25.021 11.225 25.021 25.021v74.979c0 2.209-1.791 4-4 4z"/></g><g><path d="m158.281 237.945c-.469 1.992-1.781 4.055-4.781 5.555" fill="#b5a19c"/><path d="m153.504 247.5c-1.469 0-2.881-.809-3.582-2.211-.988-1.977-.188-4.379 1.789-5.367 2.027-1.014 2.498-2.137 2.676-2.893.506-2.152 2.662-3.486 4.811-2.979 2.15.506 3.484 2.66 2.979 4.811-.582 2.469-2.248 5.896-6.887 8.217-.575.287-1.186.422-1.786.422z" fill="#4c241d"/></g><g><path d="m133.5 237.945c.469 1.992 1.781 4.055 4.781 5.555" fill="#b5a19c"/><path d="m138.277 247.5c-.6 0-1.211-.135-1.785-.422-4.639-2.32-6.305-5.748-6.887-8.217-.506-2.15.828-4.305 2.979-4.811 2.148-.504 4.305.828 4.811 2.979.178.756.648 1.879 2.676 2.893 1.977.988 2.777 3.391 1.789 5.367-.702 1.402-2.114 2.211-3.583 2.211z" fill="#4c241d"/></g><path d="m154 220h-16v-60c0-4.418 3.582-8 8-8 4.418 0 8 3.582 8 8z" fill="#fff"/><g><path d="m106.192 99.896c-4.546-3.437-9.801-9.508-11.986-19.896" fill="#bf7e68"/><path d="m106.188 103.896c-.84 0-1.688-.264-2.408-.811-4.775-3.611-10.992-10.404-13.486-22.262-.455-2.162.928-4.283 3.09-4.738 2.156-.451 4.283.93 4.738 3.09 1.594 7.578 5.121 13.475 10.482 17.531 1.764 1.332 2.111 3.84.777 5.602-.785 1.042-1.983 1.588-3.193 1.588z" fill="#4c241d"/></g><g><path d="m190 96s.703 7.908-13.648 13.954" fill="#bf7e68"/><path d="m176.354 113.955c-1.561 0-3.045-.92-3.688-2.449-.857-2.035.098-4.381 2.133-5.238 11.045-4.652 11.207-10.033 11.207-10.086.014-2.135 1.699-3.986 3.832-4.074 2.193-.154 3.957 1.412 4.146 3.539.098 1.105.482 11.016-16.08 17.992-.508.215-1.033.316-1.55.316z" fill="#4c241d"/></g><g><path d="m186 148-12 4h12" fill="#bf7e68"/><path d="m186 156h-12c-1.961 0-3.635-1.422-3.949-3.359-.312-1.936.822-3.814 2.684-4.436l12-4 2.531 7.59-1.266.422z" fill="#4c241d"/></g><g><path d="m106 148 12 4h-12" fill="#bf7e68"/><path d="m118 156h-12c-2.209 0-4-1.791-4-4 0-.729.195-1.412.535-2-.551-.957-.707-2.135-.33-3.266.697-2.092 2.957-3.234 5.061-2.529l12 4c1.861.621 2.996 2.5 2.684 4.436-.315 1.937-1.989 3.359-3.95 3.359z" fill="#4c241d"/></g><g><path d="m126 96s9.353 31.616-9.873 44.433c0 0 14.963-.433 22.963-24.433 0 0 10.586 6.202 6.586 18.202 0 0 9.791-6.202 9.791-18.202 0 0 4.469 23.204 18.532 20 0 0-12-24-8-40z" fill="#6b4f5b"/><path d="m116.127 144.434c-1.736 0-3.281-1.123-3.811-2.785-.543-1.699.107-3.553 1.592-4.543 16.52-11.016 8.34-39.688 8.254-39.975-.354-1.209-.119-2.518.637-3.525.756-1.01 1.941-1.606 3.201-1.606h40c1.232 0 2.395.568 3.152 1.539s1.027 2.236.729 3.432c-3.59 14.359 7.584 37.016 7.697 37.242.549 1.098.562 2.389.037 3.498s-1.529 1.916-2.727 2.189c-4.053.928-8.01.232-11.432-2-3.312-2.162-5.785-5.506-7.594-8.908-3.311 5.527-7.748 8.402-8.045 8.59-1.43.904-3.271.814-4.605-.229-1.332-1.043-1.865-2.811-1.33-4.416 1.467-4.398.35-7.721-1.189-9.975-9.158 20.771-23.781 21.449-24.451 21.469-.039.003-.078.003-.115.003zm39.344-32.432c1.893 0 3.553 1.344 3.922 3.236.635 3.24 3.283 12.174 8.016 15.67-2.986-7.545-6.98-20.006-6.088-30.908h-30.289c1.066 5.613 2.164 15 .123 24.146 1.479-2.564 2.893-5.666 4.141-9.412.381-1.143 1.258-2.055 2.387-2.479 1.135-.422 2.393-.312 3.43.293 2.865 1.678 6.906 5.488 8.631 10.973 1.006-2.076 1.725-4.588 1.725-7.521 0-2.061 1.564-3.779 3.615-3.979.129-.013.258-.019.387-.019z" fill="#4c241d"/></g></g></svg>