<svg id="hyena" enable-background="new 0 0 300 300" height="512" viewBox="0 0 300 300" width="512" xmlns="http://www.w3.org/2000/svg"><g><circle cx="180" cy="114" fill="#fff4f1" r="86"/><g><circle cx="146" cy="160" fill="#ffded5" r="108"/><path d="m146 272c-61.758 0-112-50.242-112-112s50.242-112 112-112 112 50.242 112 112-50.242 112-112 112zm0-216c-57.348 0-104 46.652-104 104s46.652 104 104 104 104-46.652 104-104-46.652-104-104-104z" fill="#4c241d"/></g><g><path d="m190 222.913v-58.913h-88v58.913c-4.812 3.162-8 8.591-8 14.779v16.974c15.427 8.492 33.146 13.334 52 13.334s36.573-4.842 52-13.334v-16.974c0-6.188-3.188-11.617-8-14.779z" fill="#bf7e68"/><path d="m146 272c-18.844 0-37.492-4.781-53.93-13.832-1.277-.703-2.07-2.047-2.07-3.504v-16.973c0-6.566 2.953-12.699 8-16.801v-56.89c0-2.211 1.789-4 4-4h88c2.211 0 4 1.789 4 4v56.891c5.047 4.102 8 10.234 8 16.801v16.973c0 1.457-.793 2.801-2.07 3.504-16.438 9.05-35.086 13.831-53.93 13.831zm-48-19.73c14.746 7.68 31.289 11.73 48 11.73s33.254-4.051 48-11.73v-14.578c0-4.613-2.316-8.887-6.195-11.434-1.125-.738-1.805-1.996-1.805-3.344v-54.914h-80v54.914c0 1.348-.68 2.605-1.805 3.344-3.879 2.547-6.195 6.82-6.195 11.434zm100 2.394h.039z" fill="#4c241d"/></g><g><path d="m114 128 12.896-31.5s4.299 0 8.597 13.5l12.896-18s12.896 4.5 8.597 18l17.194-13.5s8.597 13.5 0 27" fill="#bf7e68"/><path d="m114 132c-.508 0-1.02-.094-1.516-.297-2.043-.84-3.023-3.176-2.188-5.219l12.895-31.5c.617-1.504 2.078-2.484 3.703-2.484 2.16 0 5.922 1.355 9.652 9.16l8.59-11.988c1.031-1.445 2.906-2.027 4.566-1.449 4.148 1.445 10.367 5.707 11.852 13.105l10.156-7.973c.883-.699 2.027-1 3.141-.797 1.113.188 2.094.84 2.703 1.793.406.641 9.852 15.828 0 31.297-1.184 1.867-3.66 2.41-5.523 1.227-1.863-1.188-2.414-3.66-1.227-5.523 4.539-7.125 3.371-14.262 1.875-18.59l-13.227 10.383c-1.383 1.09-3.305 1.141-4.75.141-1.441-1-2.062-2.824-1.531-4.5 2.039-6.398-.984-9.922-3.531-11.668l-10.898 15.211c-.883 1.23-2.375 1.863-3.875 1.621-1.492-.234-2.727-1.293-3.188-2.734-1.191-3.746-2.328-6.227-3.27-7.859l-10.707 26.16c-.636 1.545-2.128 2.483-3.702 2.483z" fill="#4c241d"/></g><g><path d="m174.572 140.546s3.106-7.65 3.428-16.546c.262-7.244 1.007-18 11.335-26.557 4.516-3.742 11.243-3.131 15.116 1.273 7.28 8.278 17.613 22.565 13.549 33.284-6.072 16.018-29.17 19.206-29.17 19.206" fill="#6b4f5b"/><path d="m188.828 155.207c-1.965 0-3.676-1.449-3.953-3.449-.305-2.184 1.219-4.203 3.402-4.512.211-.031 20.84-3.09 25.98-16.664 2.469-6.512-2.199-17.164-12.812-29.227-2.453-2.789-6.738-3.164-9.559-.836-8.594 7.125-9.613 15.93-9.891 23.625-.34 9.492-3.582 17.57-3.719 17.906-.832 2.047-3.16 3.031-5.207 2.203s-3.031-3.16-2.207-5.207c.027-.07 2.852-7.16 3.141-15.191.246-6.809.703-19.484 12.781-29.492 6.113-5.066 15.387-4.297 20.668 1.711 9.066 10.309 18.906 25.152 14.289 37.344-6.836 18.031-31.324 21.609-32.363 21.75-.183.027-.37.039-.55.039z" fill="#4c241d"/></g><g><path d="m118.917 140.546s-3.106-7.65-3.428-16.546c-.262-7.244-1.007-18-11.335-26.557-4.516-3.742-11.243-3.131-15.116 1.273-7.28 8.278-17.613 22.565-13.549 33.284 6.072 16.018 29.17 19.206 29.17 19.206" fill="#6b4f5b"/><path d="m104.664 155.207c-.18 0-.363-.012-.551-.039-1.039-.141-25.531-3.719-32.367-21.75-4.617-12.191 5.223-27.035 14.289-37.344 5.281-6.008 14.551-6.789 20.668-1.711 12.078 10.008 12.535 22.684 12.781 29.492.293 8.094 3.109 15.117 3.141 15.188.832 2.043-.156 4.379-2.203 5.211-2.031.828-4.375-.152-5.211-2.203-.137-.336-3.379-8.414-3.719-17.906-.277-7.695-1.297-16.5-9.891-23.625-2.816-2.328-7.105-1.957-9.559.836-10.612 12.062-15.28 22.714-12.812 29.226 5.141 13.574 25.773 16.633 25.984 16.664 2.184.309 3.707 2.328 3.402 4.512-.276 2-1.987 3.449-3.952 3.449z" fill="#4c241d"/></g><g><path d="m174 192 25.19-17.19c4.36-4.36-1.19-8.643-1.19-14.81l8-1.631c0-8.807-4.976-16.857-12.852-20.796l-30.238-15.119c-3.228-1.614-6.788-2.455-10.398-2.455h-13.023c-3.609 0-7.169.84-10.398 2.455l-30.238 15.119c-7.877 3.939-12.853 11.99-12.853 20.796l8 1.631c0 7.063-4.789 14.568.726 18.981l23.274 13.019" fill="#bf7e68"/><path d="m117.996 196c-.66 0-1.332-.164-1.949-.508l-23.273-13.02c-.191-.109-.375-.23-.543-.367-5.648-4.516-4.262-10.883-3.148-15.996.215-.996.426-1.969.59-2.906l-4.469-.914c-1.864-.379-3.204-2.016-3.204-3.918 0-10.391 5.773-19.73 15.062-24.375l30.238-15.121c3.77-1.883 7.98-2.875 12.188-2.875h13.023c4.207 0 8.418.992 12.188 2.875l30.238 15.121c9.29 4.645 15.063 13.984 15.063 24.375 0 1.902-1.34 3.539-3.203 3.918l-4.168.852c.207.598.449 1.207.691 1.828 1.285 3.242 3.227 8.141-1.301 12.668-.176.176-.367.336-.574.477l-25.191 17.191c-1.816 1.238-4.312.781-5.559-1.051-1.246-1.824-.773-4.312 1.051-5.559l24.848-16.957c.441-.508.41-1-.711-3.824-.84-2.121-1.883-4.758-1.883-7.914 0-1.902 1.34-3.539 3.203-3.918l4.531-.926c-1-6.012-4.785-11.211-10.375-14.004l-30.238-15.121c-2.66-1.328-5.637-2.031-8.609-2.031h-13.023c-2.973 0-5.949.703-8.609 2.031l-30.238 15.121c-5.59 2.793-9.375 7.992-10.375 14.004l4.531.926c1.862.379 3.202 2.016 3.202 3.918 0 2.742-.586 5.438-1.102 7.812-1.051 4.816-1.188 6.648.121 7.867l22.934 12.828c1.926 1.078 2.617 3.516 1.539 5.445-.734 1.31-2.094 2.048-3.496 2.048z" fill="#4c241d"/></g><g><ellipse cx="146" cy="196" fill="#6b4f5b" rx="28" ry="32"/><path d="m146 232c-17.645 0-32-16.148-32-36s14.355-36 32-36 32 16.148 32 36-14.355 36-32 36zm0-64c-13.234 0-24 12.562-24 28s10.766 28 24 28 24-12.562 24-28-10.766-28-24-28z" fill="#4c241d"/></g><g><path d="m118 144c8.837 0 16-7.163 16-16 0-4.418 3.582-8 8-8h8c4.418 0 8 3.582 8 8 0 8.837 7.163 16 16 16l-16 44h-24z" fill="#b5a19c"/><path d="m158 192h-24c-1.684 0-3.184-1.051-3.758-2.633l-16-44c-.449-1.227-.266-2.594.48-3.66.75-1.07 1.973-1.707 3.277-1.707 6.617 0 12-5.383 12-12s5.383-12 12-12h8c6.617 0 12 5.383 12 12s5.383 12 12 12c1.305 0 2.527.637 3.277 1.707.746 1.066.93 2.434.48 3.66l-16 44c-.572 1.582-2.072 2.633-3.756 2.633zm-21.199-8h18.398l13.363-36.75c-8.394-2.375-14.562-10.105-14.562-19.25 0-2.207-1.793-4-4-4h-8c-2.207 0-4 1.793-4 4 0 9.145-6.168 16.875-14.562 19.25z" fill="#4c241d"/></g><g fill="#4c241d"><circle cx="68" cy="54" r="4.529"/><circle cx="252" cy="242" r="4.529"/><path d="m251.656 65.656c-1.023 0-2.047-.391-2.828-1.172l-11.312-11.312c-1.562-1.562-1.562-4.094 0-5.656s4.094-1.562 5.656 0l11.312 11.312c1.562 1.562 1.562 4.094 0 5.656-.781.782-1.804 1.172-2.828 1.172z"/></g><g><path d="m174 144c-8.837 0-23.585 4-28 4s-19.163-4-28-4-16 7.163-16 16c0 8.836 7.163 16 16 16 .983 0 1.936-.12 2.87-.289-1.82 3.714-2.87 7.874-2.87 12.289 0 15.464 12.536 28 28 28s28-12.536 28-28c0-4.415-1.05-8.575-2.87-12.289.934.17 1.887.289 2.87.289 8.837 0 16-7.164 16-16 0-8.837-7.163-16-16-16z" fill="#6b4f5b"/><path d="m146 220c-17.645 0-32-14.355-32-32 0-2.797.363-5.543 1.082-8.211-9.652-1.418-17.082-9.754-17.082-19.789 0-11.027 8.973-20 20-20 5.555 0 13.066 1.43 19.102 2.582 3.66.695 7.449 1.418 8.898 1.418s5.238-.723 8.898-1.418c6.036-1.152 13.547-2.582 19.102-2.582 11.027 0 20 8.973 20 20 0 10.035-7.43 18.371-17.082 19.789.719 2.668 1.082 5.414 1.082 8.211 0 17.645-14.355 32-32 32zm-25.129-48.289c1.242 0 2.43.578 3.191 1.59.91 1.203 1.062 2.816.402 4.172-1.636 3.332-2.464 6.875-2.464 10.527 0 13.234 10.766 24 24 24s24-10.766 24-24c0-3.652-.828-7.195-2.465-10.527-.66-1.355-.508-2.969.402-4.172.906-1.203 2.414-1.797 3.898-1.527.703.129 1.422.227 2.164.227 6.617 0 12-5.383 12-12s-5.383-12-12-12c-4.801 0-11.898 1.352-17.605 2.441-4.574.87-8.187 1.558-10.394 1.558s-5.82-.688-10.395-1.559c-5.707-1.089-12.804-2.441-17.605-2.441-6.617 0-12 5.383-12 12s5.383 12 12 12c.742 0 1.461-.098 2.164-.227.234-.043.473-.062.707-.062z" fill="#4c241d"/></g><path d="m240.344 65.656c-1.023 0-2.047-.391-2.828-1.172-1.562-1.562-1.562-4.094 0-5.656l11.312-11.312c1.562-1.562 4.094-1.562 5.656 0s1.562 4.094 0 5.656l-11.312 11.312c-.781.782-1.805 1.172-2.828 1.172z" fill="#4c241d"/><g><path d="m134 196 4 4" fill="#ffce56"/><path d="m138 204c-1.023 0-2.047-.391-2.828-1.172l-4-4c-1.562-1.562-1.562-4.094 0-5.656s4.094-1.562 5.656 0l4 4c1.562 1.562 1.562 4.094 0 5.656-.781.781-1.805 1.172-2.828 1.172z" fill="#4c241d"/></g><g><path d="m158 196-4 4" fill="#ffce56"/><path d="m154 204c-1.023 0-2.047-.391-2.828-1.172-1.562-1.562-1.562-4.094 0-5.656l4-4c1.562-1.562 4.094-1.562 5.656 0s1.562 4.094 0 5.656l-4 4c-.781.781-1.805 1.172-2.828 1.172z" fill="#4c241d"/></g><path d="m162 168c-1.676 0-3.234-1.059-3.793-2.734-.699-2.098.434-4.363 2.527-5.059l12-4c2.113-.703 4.359.434 5.059 2.527.699 2.098-.434 4.363-2.527 5.059l-12 4c-.422.141-.848.207-1.266.207z" fill="#4c241d"/><path d="m130 168c-.418 0-.844-.066-1.266-.207l-12-4c-2.094-.695-3.227-2.961-2.527-5.059.699-2.094 2.945-3.23 5.059-2.527l12 4c2.094.695 3.227 2.961 2.527 5.059-.559 1.675-2.117 2.734-3.793 2.734z" fill="#4c241d"/><g><path d="m198 108s-5.149 5.149-7.185 13.381" fill="#bf7e68"/><path d="m190.82 125.379c-.32 0-.641-.039-.965-.117-2.145-.531-3.453-2.699-2.922-4.844 2.277-9.203 7.996-15.004 8.238-15.246 1.562-1.562 4.094-1.562 5.656 0 1.559 1.559 1.562 4.082.012 5.645-.043.043-4.418 4.559-6.141 11.523-.448 1.82-2.081 3.039-3.878 3.039z" fill="#4c241d"/></g><g><path d="m94.815 108s5.149 5.149 7.185 13.381" fill="#bf7e68"/><path d="m101.996 125.379c-1.797 0-3.43-1.219-3.879-3.039-1.719-6.957-6.086-11.469-6.129-11.512-1.562-1.562-1.562-4.094 0-5.656s4.094-1.562 5.656 0c.242.242 5.961 6.043 8.238 15.246.531 2.145-.777 4.312-2.922 4.844-.323.078-.644.117-.964.117z" fill="#4c241d"/></g><path d="m114 266.02c-2.211 0-4-1.789-4-4v-10.02c0-2.211 1.789-4 4-4s4 1.789 4 4v10.02c0 2.21-1.789 4-4 4z" fill="#4c241d"/><path d="m178 265.559c-2.211 0-4-1.789-4-4v-9.559c0-2.211 1.789-4 4-4s4 1.789 4 4v9.559c0 2.211-1.789 4-4 4z" fill="#4c241d"/></g></svg>