<svg id="kangaroo" enable-background="new 0 0 300 300" height="512" viewBox="0 0 300 300" width="512" xmlns="http://www.w3.org/2000/svg"><g><circle cx="180" cy="114" fill="#fff4f1" r="86"/><g><circle cx="146" cy="160" fill="#c1dbdc" r="108"/><path d="m146 272c-61.758 0-112-50.242-112-112s50.242-112 112-112 112 50.242 112 112-50.242 112-112 112zm0-216c-57.346 0-104 46.654-104 104s46.654 104 104 104c57.348 0 104-46.654 104-104s-46.652-104-104-104z" fill="#4c241d"/></g><circle cx="68" cy="54" fill="#4c241d" r="4.529"/><circle cx="252" cy="242" fill="#4c241d" r="4.529"/><path d="m251.656 65.656c-1.023 0-2.047-.391-2.828-1.172l-11.312-11.312c-1.562-1.562-1.562-4.094 0-5.656s4.094-1.562 5.656 0l11.312 11.312c1.562 1.562 1.562 4.094 0 5.656-.781.782-1.804 1.172-2.828 1.172z" fill="#4c241d"/><path d="m240.344 65.656c-1.023 0-2.047-.391-2.828-1.172-1.562-1.562-1.562-4.094 0-5.656l11.312-11.312c1.562-1.562 4.094-1.562 5.656 0s1.562 4.094 0 5.656l-11.312 11.312c-.781.782-1.805 1.172-2.828 1.172z" fill="#4c241d"/><g><path d="m182 230.52v-58.52h-72v58.52c-9.453 3.959-16.56 12.278-19.007 22.416 16.113 9.559 34.913 15.064 55.007 15.064s38.894-5.505 55.007-15.063c-2.447-10.139-9.554-18.458-19.007-22.417z" fill="#bf7e68"/><path d="m146 272c-20.09 0-39.816-5.402-57.049-15.623-1.51-.895-2.26-2.672-1.848-4.379 2.514-10.414 9.488-19.221 18.896-24.029v-55.969c0-2.209 1.791-4 4-4h72c2.211 0 4 1.791 4 4v55.969c9.406 4.807 16.379 13.615 18.895 24.029.414 1.707-.336 3.484-1.848 4.379-17.23 10.221-36.956 15.623-57.046 15.623zm-50.277-20.961c15.345 8.488 32.66 12.961 50.277 12.961s34.93-4.473 50.277-12.961c-2.676-7.559-8.43-13.732-15.824-16.83-1.484-.623-2.453-2.078-2.453-3.689v-54.52h-64v54.52c0 1.611-.967 3.066-2.455 3.689-7.395 3.1-13.147 9.271-15.822 16.83z" fill="#4c241d"/></g><g><path d="m128.016 125.523s-2.528-33.843-37.914-41.867c0 0-9.21 33.361 24.462 59.475" fill="#bf7e68"/><path d="m114.562 147.131c-.857 0-1.721-.273-2.449-.84-35.383-27.439-26.273-62.23-25.867-63.699.566-2.062 2.67-3.318 4.74-2.836 37.832 8.578 40.99 45.102 41.018 45.469.166 2.203-1.488 4.123-3.689 4.287-2.238.158-4.117-1.484-4.287-3.682-.098-1.225-2.617-28.477-30.779-37.195-1.131 9.072-1.053 32.086 23.768 51.336 1.746 1.354 2.064 3.865.709 5.611-.788 1.018-1.97 1.549-3.164 1.549z" fill="#4c241d"/></g><g><path d="m199.767 80.952c-.112.025-.216.057-.327.083-35.673 8.246-38.236 42.005-38.236 42.005l1.899 2.502c-5.139-4.275-11.033-6.743-17.325-6.743-19.878.001-35.778 23.34-35.778 53.201 0 17.81 5.543 30.429 14.388 40.281 5.186 11.475 12.836 18.767 21.39 18.767s16.204-7.292 21.39-18.767c8.845-9.852 14.832-22.471 14.832-40.281 0-11.982-2.857-22.146-7.248-31.109l.134.176c34.249-26.395 24.881-60.115 24.881-60.115z" fill="#bf7e68"/><path d="m145.777 235.047c-9.707 0-18.711-7.482-24.775-20.555-10.094-11.463-15.002-25.369-15.002-42.492 0-32.074 17.473-57.199 39.777-57.199 4.199 0 8.363.961 12.328 2.818 2.41-10.422 11.02-33.682 40.434-40.48 2.086-.484 4.508.682 5.082 2.744.402 1.447 9.246 34.994-23.824 62.381 4.172 9.517 6.203 19.279 6.203 29.736 0 16.799-5.055 30.705-15.445 42.492-6.063 13.072-15.071 20.555-24.778 20.555zm0-112.246c-17.521 0-31.777 22.07-31.777 49.199 0 15.504 4.246 27.453 13.365 37.609.273.305.5.65.668 1.025 4.715 10.43 11.182 16.412 17.744 16.412 6.566 0 13.035-5.982 17.746-16.412.168-.375.395-.721.668-1.025 9.293-10.351 13.809-22.652 13.809-37.609 0-10.359-2.238-19.959-6.84-29.348-.906-1.842-.27-4.068 1.469-5.154.266-.166.547-.297.828-.395 24.281-19.326 24.312-42.129 23.172-51.162-25.391 7.898-30.371 30.027-31.262 35.971l.922 1.213c1.227 1.619 1.047 3.904-.422 5.309-1.477 1.402-3.77 1.482-5.324.184-4.637-3.86-9.605-5.817-14.766-5.817z" fill="#4c241d"/></g><g fill="#4c241d"><path d="m179.035 127.318c-1.047 0-2.09-.408-2.875-1.219-1.535-1.588-1.492-4.121.094-5.656 12.898-12.475 16.73-30.234 17.777-37.291.242-1.621 1.453-2.934 3.047-3.307.031-.008.406-.098.438-.104 2.16-.457 4.281.928 4.734 3.094.223 1.064 0 2.119-.539 2.969-1.465 8.656-6.082 27.029-19.895 40.389-.777.752-1.781 1.125-2.781 1.125z"/><path d="m110.477 126.953c-1.016 0-2.031-.385-2.811-1.154-13.875-13.699-18.281-32.719-19.531-40.26-.361-2.18 1.111-4.238 3.291-4.6 2.168-.363 4.238 1.111 4.6 3.291 1.123 6.771 5.053 23.822 17.262 35.877 1.572 1.551 1.588 4.084.035 5.656-.782.794-1.815 1.19-2.846 1.19z"/><path d="m146 232c-2.211 0-4-1.791-4-4v-12c0-2.209 1.789-4 4-4s4 1.791 4 4v12c0 2.209-1.789 4-4 4z"/><path d="m148.656 216h-5.312c-5.152 0-9.344-4.193-9.344-9.346v-2.654c0-2.209 1.789-4 4-4s4 1.791 4 4v2.654c0 .742.602 1.346 1.344 1.346h5.312c.742 0 1.344-.604 1.344-1.346v-2.654c0-2.209 1.789-4 4-4s4 1.791 4 4v2.654c0 5.153-4.191 9.346-9.344 9.346z"/><path d="m182 244c-2.211 0-4-1.791-4-4v-12c0-2.209 1.789-4 4-4s4 1.791 4 4v12c0 2.209-1.789 4-4 4z"/><circle cx="128" cy="162" r="6"/><circle cx="164" cy="162" r="6"/><path d="m42.004 184c-1.469 0-2.881-.809-3.582-2.211-.988-1.977-.188-4.379 1.789-5.367l22.25-11.125 3.617-18.082c.242-1.209 1.029-2.24 2.133-2.793l8-4c1.984-.986 4.381-.186 5.367 1.789.988 1.977.188 4.379-1.789 5.367l-6.25 3.125-3.617 18.082c-.242 1.209-1.029 2.24-2.133 2.793l-24 12c-.574.287-1.185.422-1.785.422z"/><path d="m78 188c-.42 0-.848-.066-1.266-.205l-24-8c-2.096-.699-3.229-2.965-2.529-5.061.697-2.092 2.961-3.232 5.061-2.529l20.709 6.902 6.447-12.896c.678-1.356 2.062-2.211 3.578-2.211h12c2.209 0 4 1.791 4 4s-1.791 4-4 4h-9.527l-6.895 13.789c-.693 1.387-2.099 2.211-3.578 2.211z"/><path d="m240.246 215.125c-.602 0-1.211-.135-1.785-.422l-14.25-7.125c-.949-.475-1.672-1.307-2.004-2.312l-3.27-9.799-17.723-3.545c-2.164-.434-3.57-2.541-3.137-4.707l4-20c.434-2.168 2.539-3.574 4.707-3.137 2.164.434 3.57 2.541 3.137 4.707l-3.215 16.076 16.078 3.217c1.406.281 2.555 1.295 3.008 2.656l3.477 10.43 12.77 6.383c1.977.988 2.777 3.391 1.789 5.367-.703 1.402-2.113 2.211-3.582 2.211z"/><path d="m237.996 212c-1.867 0-3.539-1.314-3.918-3.215l-4-20c-.117-.582-.102-1.182.043-1.756l3.449-13.803-10.398-10.398c-1.562-1.562-1.562-4.094 0-5.656s4.094-1.562 5.656 0l12 12c.992.994 1.395 2.436 1.051 3.799l-3.781 15.127 3.824 19.117c.434 2.166-.973 4.273-3.137 4.707-.265.053-.531.078-.789.078z"/></g><g><path d="m232 160h-12c-5.523 0-10-4.477-10-10v-4c0-5.523 4.477-10 10-10h12c5.523 0 10 4.477 10 10v4c0 5.523-4.477 10-10 10z" fill="#a9ba5a"/><path d="m232 164h-12c-7.719 0-14-6.281-14-14v-4c0-7.719 6.281-14 14-14h12c7.719 0 14 6.281 14 14v4c0 7.719-6.281 14-14 14zm-12-24c-3.309 0-6 2.691-6 6v4c0 3.309 2.691 6 6 6h12c3.309 0 6-2.691 6-6v-4c0-3.309-2.691-6-6-6z" fill="#4c241d"/></g><g><path d="m216 168h-16c-5.523 0-10-4.477-10-10 0-5.523 4.477-10 10-10h16c5.523 0 10 4.477 10 10 0 5.523-4.477 10-10 10z" fill="#a9ba5a"/><path d="m216 172h-16c-7.719 0-14-6.281-14-14s6.281-14 14-14h16c7.719 0 14 6.281 14 14s-6.281 14-14 14zm-16-20c-3.309 0-6 2.691-6 6s2.691 6 6 6h16c3.309 0 6-2.691 6-6s-2.691-6-6-6z" fill="#4c241d"/></g></g></svg>