<svg id="penguin" enable-background="new 0 0 300 300" height="512" viewBox="0 0 300 300" width="512" xmlns="http://www.w3.org/2000/svg"><g><circle cx="180" cy="114" fill="#fff4f1" r="86"/><g><circle cx="146" cy="160" fill="#c1dbdc" r="108"/><path d="m146 272c-61.758 0-112-50.242-112-112s50.242-112 112-112 112 50.242 112 112-50.242 112-112 112zm0-216c-57.346 0-104 46.654-104 104s46.654 104 104 104c57.348 0 104-46.654 104-104s-46.652-104-104-104z" fill="#4c241d"/></g><g><path d="m210 148.258v-10.451c0-34.461-26.483-64.113-60.906-65.734-36.753-1.731-67.094 27.555-67.094 63.927v12.258l-22.331 27.734c-3.888 4.828-.451 12.008 5.748 12.008h16.583v58.984c17.913 13.202 40.041 21.016 64 21.016s46.087-7.814 64-21.016v-58.984h16.583c6.199 0 9.636-7.18 5.748-12.008z" fill="#6b4f5b"/><path d="m146 272c-24.072 0-47.023-7.537-66.373-21.795-1.023-.754-1.627-1.949-1.627-3.221v-54.984h-12.582c-4.422 0-8.355-2.479-10.266-6.467-1.908-3.988-1.371-8.605 1.402-12.051l21.446-26.634v-10.848c0-18.771 7.482-36.246 21.068-49.209 13.58-12.953 31.48-19.602 50.213-18.715 36.293 1.709 64.719 32.338 64.719 69.731v9.041l21.449 26.637c2.77 3.443 3.309 8.061 1.398 12.049s-5.843 6.466-10.265 6.466h-12.582v54.984c0 1.271-.605 2.467-1.629 3.221-19.348 14.258-42.297 21.795-66.371 21.795zm-60-27.061c17.617 12.477 38.318 19.061 60 19.061 21.68 0 42.383-6.584 60-19.061v-56.939c0-2.209 1.789-4 4-4h16.582c1.922 0 2.773-1.344 3.051-1.922.273-.576.789-2.082-.418-3.578l-22.332-27.734c-.57-.711-.883-1.596-.883-2.508v-10.451c0-33.111-25.078-60.23-57.094-61.738-16.637-.812-32.338 5.082-44.316 16.512-11.988 11.437-18.59 26.857-18.59 43.419v12.258c0 .912-.312 1.797-.885 2.508l-22.33 27.734c-1.205 1.498-.693 3.002-.416 3.58.275.576 1.127 1.92 3.049 1.92h16.582c2.209 0 4 1.791 4 4z" fill="#4c241d"/></g><g fill="#4c241d"><circle cx="68" cy="54" r="4.529"/><circle cx="252" cy="242" r="4.529"/><path d="m251.656 65.656c-1.023 0-2.047-.391-2.828-1.172l-11.312-11.312c-1.562-1.562-1.562-4.094 0-5.656s4.094-1.562 5.656 0l11.312 11.312c1.562 1.562 1.562 4.094 0 5.656-.781.782-1.804 1.172-2.828 1.172z"/><path d="m240.344 65.656c-1.023 0-2.047-.391-2.828-1.172-1.562-1.562-1.562-4.094 0-5.656l11.312-11.312c1.562-1.562 4.094-1.562 5.656 0s1.562 4.094 0 5.656l-11.312 11.312c-.781.782-1.805 1.172-2.828 1.172z"/></g><g><path d="m171.846 124c-12.235 0-25.846 10.745-25.846 24 0-13.255-13.611-24-25.846-24s-22.154 10.745-22.154 24v108.747c14.463 7.19 30.753 11.253 48 11.253s33.537-4.063 48-11.253v-108.747c0-13.255-9.918-24-22.154-24z" fill="#fff"/><path d="m146 272c-17.455 0-34.205-3.928-49.781-11.672-1.359-.676-2.219-2.064-2.219-3.582v-108.746c0-15.439 11.732-28 26.154-28 9.734 0 20.268 5.717 25.846 14.537 5.578-8.82 16.113-14.537 25.848-14.537 14.422 0 26.152 12.561 26.152 28v108.746c0 1.518-.859 2.906-2.219 3.582-15.574 7.744-32.324 11.672-49.781 11.672zm-44-17.764c13.828 6.48 28.617 9.764 44 9.764s30.176-3.283 44-9.764v-106.236c0-11.027-8.145-20-18.152-20-9.895 0-21.848 8.922-21.848 20 0 2.209-1.789 4-4 4s-4-1.791-4-4c0-11.078-11.951-20-21.846-20-10.01 0-18.154 8.973-18.154 20zm92 2.51h.039z" fill="#4c241d"/></g><g><circle cx="146" cy="166" fill="#ffce56" r="10"/><path d="m146 180c-7.719 0-14-6.281-14-14s6.281-14 14-14 14 6.281 14 14-6.281 14-14 14zm0-20c-3.309 0-6 2.691-6 6s2.691 6 6 6 6-2.691 6-6-2.691-6-6-6z" fill="#4c241d"/></g><circle cx="116" cy="146" fill="#4c241d" r="6"/><circle cx="176" cy="146" fill="#4c241d" r="6"/><g><path d="m144.227 145.477-16.351 13.626c-1.99 1.658-.817 4.897 1.773 4.897h32.701c2.59 0 3.763-3.239 1.773-4.897l-16.351-13.626c-1.026-.855-2.518-.855-3.545 0z" fill="#ffce56"/><path d="m162.352 168h-32.703c-2.885 0-5.383-1.752-6.365-4.465-.98-2.713-.184-5.658 2.033-7.504l16.348-13.627c.004 0 .004-.002.004-.002 2.508-2.09 6.156-2.09 8.664 0l16.355 13.629c2.215 1.848 3.012 4.793 2.027 7.506-.981 2.711-3.481 4.463-6.363 4.463zm-29.303-8h25.904l-12.953-10.795z" fill="#4c241d"/></g><path d="m210 164c-2.211 0-4-1.791-4-4v-24c0-2.209 1.789-4 4-4s4 1.791 4 4v24c0 2.209-1.789 4-4 4z" fill="#4c241d"/><path d="m82 168c-2.209 0-4-1.791-4-4v-24c0-2.209 1.791-4 4-4s4 1.791 4 4v24c0 2.209-1.791 4-4 4z" fill="#4c241d"/><path d="m194 128h-22.152c-2.211 0-4-1.791-4-4s1.789-4 4-4h22.152c2.211 0 4 1.791 4 4s-1.789 4-4 4z" fill="#4c241d"/><path d="m120.154 128h-22.154c-2.209 0-4-1.791-4-4s1.791-4 4-4h22.154c2.209 0 4 1.791 4 4s-1.791 4-4 4z" fill="#4c241d"/></g></svg>