<svg id="raccoon" enable-background="new 0 0 300 300" height="512" viewBox="0 0 300 300" width="512" xmlns="http://www.w3.org/2000/svg"><g><circle cx="180" cy="114" fill="#fff4f1" r="86"/><g><circle cx="146" cy="160" fill="#f4aeab" r="108"/><path d="m146 272c-61.758 0-112-50.242-112-112s50.242-112 112-112 112 50.242 112 112-50.242 112-112 112zm0-216c-57.348 0-104 46.652-104 104s46.652 104 104 104 104-46.652 104-104-46.652-104-104-104z" fill="#4c241d"/></g><g fill="#4c241d"><circle cx="66" cy="52" r="4"/><circle cx="250" cy="240" r="4"/><path d="m250 68c-1.023 0-2.047-.391-2.828-1.172l-12-12c-1.562-1.562-1.562-4.094 0-5.656s4.094-1.562 5.656 0l12 12c1.562 1.562 1.562 4.094 0 5.656-.781.781-1.805 1.172-2.828 1.172z"/><path d="m238 68c-1.023 0-2.047-.391-2.828-1.172-1.562-1.562-1.562-4.094 0-5.656l12-12c1.562-1.562 4.094-1.562 5.656 0s1.562 4.094 0 5.656l-12 12c-.781.781-1.805 1.172-2.828 1.172z"/></g><g><path d="m97.328 160s-31.664-20-19.328-68c0 0 35.776 24 44 48" fill="#fff"/><path d="m97.32 164c-.73 0-1.465-.199-2.129-.617-.355-.227-8.824-5.66-15.613-17.379-6.191-10.68-12.16-28.895-5.453-55 .324-1.258 1.238-2.277 2.449-2.742 1.211-.461 2.574-.309 3.652.418 1.508 1.008 36.996 25.035 45.559 50.023.715 2.09-.398 4.363-2.488 5.082-2.102.699-4.367-.398-5.082-2.488-5.945-17.355-27.832-35.199-37.637-42.523-7.691 40.238 17.762 57.121 18.898 57.852 1.855 1.191 2.402 3.66 1.219 5.52-.761 1.198-2.054 1.854-3.375 1.854z" fill="#4c241d"/></g><g><path d="m86 196-20-4 24-24" fill="#ccc"/><path d="m86.004 200c-.262 0-.523-.023-.789-.078l-20-4c-1.445-.289-2.617-1.352-3.043-2.762-.426-1.414-.043-2.945 1-3.988l24-24c1.562-1.562 4.094-1.562 5.656 0s1.562 4.094 0 5.656l-18.715 18.715 12.672 2.535c2.164.434 3.57 2.539 3.137 4.707-.379 1.903-2.051 3.215-3.918 3.215z" fill="#4c241d"/></g><g><path d="m206 196 20-4-24-24" fill="#ccc"/><path d="m205.996 200c-1.867 0-3.539-1.312-3.918-3.215-.434-2.168.973-4.273 3.137-4.707l12.672-2.535-18.715-18.715c-1.562-1.562-1.562-4.094 0-5.656s4.094-1.562 5.656 0l24 24c1.043 1.043 1.426 2.574 1 3.988-.426 1.41-1.598 2.473-3.043 2.762l-20 4c-.265.055-.531.078-.789.078z" fill="#4c241d"/></g><g><path d="m146 200c-22.091 0-40 18.804-40 42 0 7.296 1.777 14.154 4.893 20.133 11.011 3.784 22.812 5.867 35.107 5.867s24.096-2.083 35.107-5.867c3.116-5.979 4.893-12.837 4.893-20.133 0-23.196-17.909-42-40-42z" fill="#ccc"/><path d="m146 272c-12.414 0-24.664-2.047-36.406-6.086-.969-.332-1.773-1.023-2.246-1.934-3.5-6.71-5.348-14.312-5.348-21.98 0-25.363 19.738-46 44-46s44 20.637 44 46c0 7.668-1.848 15.27-5.348 21.98-.473.91-1.277 1.602-2.246 1.934-11.742 4.039-23.992 6.086-36.406 6.086zm-32.258-13.133c20.859 6.812 43.656 6.812 64.516 0 2.453-5.219 3.742-11.015 3.742-16.867 0-20.953-16.148-38-36-38s-36 17.047-36 38c0 5.852 1.289 11.648 3.742 16.867zm67.363 3.266h.039z" fill="#4c241d"/></g><g><path d="m146 240c-11.046 0-20 9.85-20 22 0 1.374.129 2.712.348 4.016 6.364 1.288 12.929 1.984 19.652 1.984s13.288-.696 19.652-1.984c.219-1.304.348-2.643.348-4.016 0-12.15-8.954-22-20-22z" fill="#fff"/><path d="m146 272c-6.805 0-13.688-.695-20.445-2.062-1.625-.332-2.879-1.625-3.152-3.262-.27-1.613-.402-3.145-.402-4.676 0-14.336 10.766-26 24-26s24 11.664 24 26c0 1.531-.133 3.062-.402 4.676-.273 1.637-1.527 2.93-3.152 3.262-6.759 1.367-13.642 2.062-20.447 2.062zm19.652-5.984h.039zm-35.64-3.383c10.617 1.812 21.359 1.812 31.977 0 .008-.211.012-.422.012-.633 0-9.926-7.176-18-16-18s-16 8.074-16 18c-.001.211.003.422.011.633z" fill="#4c241d"/></g><g><path d="m194.672 160s31.664-20 19.328-68c0 0-35.776 24-44 48" fill="#fff"/><path d="m194.676 164c-1.328 0-2.625-.66-3.387-1.863-1.176-1.867-.621-4.332 1.238-5.512 1.18-.758 26.578-17.645 18.895-57.848-9.805 7.332-31.699 25.188-37.637 42.52-.719 2.09-2.984 3.191-5.082 2.488-2.09-.719-3.203-2.992-2.488-5.082 8.562-24.988 44.051-49.016 45.559-50.023 1.078-.727 2.441-.879 3.652-.418 1.211.465 2.125 1.484 2.449 2.742 6.707 26.105.738 44.32-5.453 55-6.789 11.719-15.258 17.152-15.613 17.379-.664.418-1.403.617-2.133.617z" fill="#4c241d"/></g><g><path d="m192.235 142.157c-1.949-4.982-4.804-9.422-8.326-13.171 7.44-20.752 30.091-36.986 30.091-36.986-15.019 3.004-34.546 19.539-43.342 27.59-5.171-2.307-10.847-3.59-16.746-3.59h-15.824c-5.899 0-11.575 1.283-16.746 3.59-8.796-8.051-28.323-24.586-43.342-27.59 0 0 22.651 16.234 30.09 36.986-3.522 3.749-6.376 8.189-8.326 13.171l-25.764 65.843 19.627 5.608c5.491 1.569 10.492 4.511 14.53 8.55 6.302 6.302 14.85 9.843 23.762 9.843h28.161c8.912 0 17.46-3.541 23.762-9.843 4.038-4.038 9.039-6.981 14.53-8.55l19.628-5.608z" fill="#ccc"/><path d="m160.082 236h-28.164c-10.043 0-19.488-3.91-26.59-11.016-3.551-3.547-7.973-6.152-12.797-7.527l-19.629-5.609c-1.086-.312-1.988-1.062-2.488-2.074-.5-1.008-.551-2.184-.141-3.23l25.766-65.844c1.793-4.582 4.289-8.789 7.438-12.543-7.684-18.328-27.598-32.754-27.809-32.906-1.531-1.098-2.086-3.113-1.336-4.844.746-1.723 2.57-2.703 4.453-2.328 14.727 2.945 32.801 17.391 43.371 26.852 5.125-1.945 10.473-2.93 15.934-2.93h15.82c5.461 0 10.809.984 15.934 2.93 10.57-9.461 28.645-23.906 43.371-26.852 1.852-.395 3.703.605 4.453 2.328.75 1.727.195 3.746-1.336 4.844-.207.148-20.141 14.625-27.809 32.906 3.148 3.754 5.645 7.965 7.438 12.543l25.766 65.844c.41 1.047.359 2.223-.141 3.23-.5 1.012-1.402 1.762-2.488 2.074l-19.629 5.609c-4.824 1.375-9.246 3.98-12.797 7.527-7.102 7.106-16.547 11.016-26.59 11.016zm-80.754-30.637 15.398 4.398c6.129 1.75 11.75 5.059 16.258 9.566 5.594 5.594 13.027 8.672 20.934 8.672h28.164c7.906 0 15.34-3.078 20.934-8.672 4.508-4.508 10.129-7.816 16.258-9.566l15.398-4.398-24.164-61.75c-1.73-4.422-4.258-8.422-7.516-11.891-1.027-1.098-1.355-2.676-.848-4.09 2.727-7.602 7.301-14.57 12.133-20.445-7.879 5.539-14.957 11.727-18.922 15.352-1.172 1.082-2.875 1.355-4.328.703-4.824-2.152-9.91-3.242-15.117-3.242h-15.82c-5.207 0-10.293 1.09-15.117 3.242-1.453.652-3.156.379-4.328-.703-3.965-3.625-11.043-9.812-18.922-15.352 4.832 5.875 9.406 12.844 12.133 20.445.508 1.414.18 2.992-.848 4.09-3.258 3.469-5.785 7.469-7.516 11.891z" fill="#4c241d"/></g><g><path d="m182 188h-7.908c-11.097 0-20.092-8.995-20.092-20.092v-15.908h-16v15.908c0 11.096-8.995 20.092-20.092 20.092h-7.908l-36 20 19.627 5.607c5.581 1.595 10.588 4.673 14.725 8.743 6.283 6.181 14.746 9.649 23.567 9.649h27.177c9.119 0 18.172-3.173 24.572-9.668 4.068-4.128 9.134-7.133 14.704-8.725l19.628-5.606z" fill="#fff"/><path d="m159.098 236h-27.18c-9.926 0-19.289-3.836-26.371-10.797-3.773-3.715-8.277-6.395-13.016-7.746l-19.629-5.609c-1.559-.445-2.691-1.785-2.875-3.391-.188-1.609.617-3.168 2.031-3.953l36-20c.594-.332 1.262-.504 1.942-.504h7.91c8.871 0 16.09-7.219 16.09-16.094v-15.906c0-2.211 1.789-4 4-4h16c2.211 0 4 1.789 4 4v15.906c0 8.875 7.219 16.094 16.09 16.094h7.91c.68 0 1.348.172 1.941.504l36 20c1.414.785 2.219 2.344 2.031 3.953-.184 1.605-1.316 2.945-2.875 3.391l-19.629 5.609c-4.895 1.395-9.375 4.055-12.953 7.684-6.796 6.902-16.788 10.859-27.417 10.859zm-74.715-29.191 10.344 2.953c6.023 1.723 11.707 5.09 16.43 9.738 5.574 5.48 12.949 8.5 20.762 8.5h27.18c8.5 0 16.414-3.09 21.719-8.477 4.547-4.609 10.238-7.984 16.457-9.762l10.344-2.953-26.654-14.808h-6.875c-13.285 0-24.09-10.809-24.09-24.094v-11.906h-8v11.906c0 13.285-10.805 24.094-24.09 24.094h-6.875z" fill="#4c241d"/></g><g><path d="m150.065 208h-8.13c-1.579 0-2.981-.602-3.481-1.496l-4.263-7.625c-.792-1.416.976-2.879 3.481-2.879h16.657c2.504 0 4.272 1.463 3.481 2.879l-4.263 7.625c-.501.894-1.903 1.496-3.482 1.496z" fill="#6b4f5b"/><path d="m150.066 212h-8.133c-3.078 0-5.75-1.359-6.973-3.543l-4.262-7.625c-.949-1.699-.93-3.711.055-5.387 1.247-2.125 3.899-3.445 6.919-3.445h16.656c3.02 0 5.672 1.32 6.918 3.445.984 1.676 1.004 3.688.055 5.387l-4.262 7.625c-1.223 2.184-3.894 3.543-6.973 3.543zm-8.445-8.023c.09.012.191.023.312.023h8.133c.121 0 .223-.012.309-.023l2.227-3.977h-13.203z" fill="#4c241d"/></g><circle cx="120" cy="170" fill="#4c241d" r="6"/><circle cx="172" cy="170" fill="#4c241d" r="6"/><path d="m199.781 171.328-22.992-15.328h-61.578l-22.992 15.328-4.438-6.656 24-16c.656-.438 1.43-.672 2.219-.672h64c.789 0 1.562.234 2.219.672l24 16z" fill="#4c241d"/></g></svg>