<svg id="shark" enable-background="new 0 0 300 300" height="512" viewBox="0 0 300 300" width="512" xmlns="http://www.w3.org/2000/svg"><g><circle cx="242" cy="244" fill="#4c241d" r="4"/><circle cx="172" cy="114" fill="#fff4f1" r="86"/><g><circle cx="142" cy="160" fill="#9dc1e4" r="108"/><path d="m142 272c-61.758 0-112-50.242-112-112s50.242-112 112-112 112 50.242 112 112-50.243 112-112 112zm0-216c-57.346 0-104 46.652-104 104s46.654 104 104 104 104-46.652 104-104-46.655-104-104-104z" fill="#4c241d"/></g><g fill="#4c241d"><circle cx="58" cy="56" r="4"/><path d="m246 68c-1.023 0-2.047-.391-2.828-1.172l-12-12c-1.562-1.562-1.562-4.094 0-5.656s4.094-1.562 5.656 0l12 12c1.562 1.562 1.562 4.094 0 5.656-.781.781-1.805 1.172-2.828 1.172z"/><path d="m234 68c-1.023 0-2.047-.391-2.828-1.172-1.562-1.562-1.562-4.094 0-5.656l12-12c1.562-1.562 4.094-1.562 5.656 0s1.562 4.094 0 5.656l-12 12c-.781.781-1.805 1.172-2.828 1.172z"/><path d="m206.5 212.75c-7.057 0-13.521-3.418-17.5-9-3.977 5.582-10.441 9-17.5 9-8.283 0-15.688-4.625-19.326-12.07-.971-1.988-.146-4.383 1.838-5.352 1.988-.977 4.381-.145 5.35 1.836 2.285 4.68 6.938 7.586 12.139 7.586 5.447 0 10.334-3.246 12.447-8.266.865-2.047 2.848-3.367 5.053-3.367s4.188 1.32 5.051 3.363c2.115 5.023 7.002 8.27 12.449 8.27 5.439 0 10.322-3.238 12.441-8.246.861-2.031 3.207-2.988 5.242-2.125 2.033.859 2.986 3.207 2.125 5.242-3.374 7.977-11.149 13.129-19.809 13.129z"/><circle cx="166" cy="236" r="4"/><circle cx="86" cy="96" r="4"/><circle cx="178" cy="72" r="4"/><circle cx="54" cy="164" r="4"/></g><g><path d="m154 96v-8c0-13.255-10.745-24-24-24v32z" fill="#b5a19c"/><path d="m154 100h-24c-2.209 0-4-1.789-4-4v-32c0-2.211 1.791-4 4-4 15.439 0 28 12.562 28 28v8c0 2.211-1.791 4-4 4zm-20-8h16v-4c0-9.66-6.883-17.738-16-19.598z" fill="#4c241d"/></g><g><path d="m102 159.996v20c0 6.627 5.373 12 12 12l24-16-12 28 12 32-24-20c-22.091 0-40-17.909-40-40v-23.996c0-26.509 21.489-55.999 47.998-56l62.77-.003c13.774-.001 31.431 2.517 44.299 7.429l36.933 12.57-16 12h-20l-8 16 16 4c-2.451 4.903-7.463 8-12.944 8h-127.056" fill="#b5a19c"/><path d="m138 239.996c-.912 0-1.822-.312-2.561-.926l-22.916-19.098c-23.582-.781-42.523-20.21-42.523-43.976v-23.996c0-27.746 22.715-60 51.998-60l62.77-.004c15.531 0 33.479 3.02 45.725 7.691l36.797 12.523c1.404.477 2.428 1.691 2.662 3.156.232 1.465-.365 2.938-1.551 3.828l-16 12c-.693.52-1.535.801-2.4.801h-17.527l-4.664 9.328 11.162 2.793c1.176.293 2.156 1.105 2.664 2.207.506 1.102.486 2.375-.057 3.461-3.15 6.297-9.48 10.211-16.521 10.211h-119.058v20c0 4.039 3.008 7.387 6.902 7.926l22.879-15.254c1.469-.98 3.412-.879 4.777.254 1.359 1.133 1.814 3.023 1.117 4.648l-11.367 26.523 11.438 30.496c.637 1.703.049 3.617-1.43 4.668-.695.494-1.508.74-2.316.74zm46.767-140-62.769.004c-20.346 0-43.998 22.715-43.998 52v23.996c0 19.852 16.15 36 36 36 .936 0 1.842.328 2.561.926l12.385 10.324-6.691-17.844c-.361-.969-.336-2.035.07-2.98l6.699-15.633-12.805 8.535c-.656.438-1.43.672-2.219.672-8.822 0-16-7.176-16-16v-20c-2.209 0-4-1.789-4-4s1.791-4 4-4h127.057c2.08 0 4.051-.602 5.713-1.684l-9.74-2.438c-1.176-.293-2.156-1.105-2.664-2.207-.506-1.102-.486-2.375.057-3.461l8-16c.678-1.355 2.062-2.211 3.578-2.211h18.666l8.873-6.656-29.762-10.129c-11.548-4.401-28.376-7.214-43.011-7.214z" fill="#4c241d"/></g><circle cx="222" cy="116" fill="#4c241d" r="4"/><path d="m202 132c-2.209 0-4-1.789-4-4v-16c0-2.211 1.791-4 4-4s4 1.789 4 4v16c0 2.211-1.791 4-4 4z" fill="#4c241d"/><path d="m190 132c-2.209 0-4-1.789-4-4v-16c0-2.211 1.791-4 4-4s4 1.789 4 4v16c0 2.211-1.791 4-4 4z" fill="#4c241d"/><path d="m178 132c-2.209 0-4-1.789-4-4v-16c0-2.211 1.791-4 4-4s4 1.789 4 4v16c0 2.211-1.791 4-4 4z" fill="#4c241d"/><g><path d="m174 144v8c0 13.255-10.745 24-24 24v-32" fill="#b5a19c"/><path d="m150 180c-2.209 0-4-1.789-4-4v-32c0-2.211 1.791-4 4-4s4 1.789 4 4v27.598c9.117-1.859 16-9.938 16-19.598v-8c0-2.211 1.791-4 4-4s4 1.789 4 4v8c0 15.438-12.561 28-28 28z" fill="#4c241d"/></g><g><circle cx="106" cy="240" fill="#c1dbdc" r="8"/><path d="m106 252c-6.617 0-12-5.383-12-12s5.383-12 12-12 12 5.383 12 12-5.383 12-12 12zm0-16c-2.205 0-4 1.793-4 4s1.795 4 4 4 4-1.793 4-4-1.795-4-4-4z" fill="#4c241d"/></g><g><circle cx="206" cy="180" fill="#c1dbdc" r="8"/><path d="m206 192c-6.617 0-12-5.383-12-12s5.383-12 12-12 12 5.383 12 12-5.383 12-12 12zm0-16c-2.205 0-4 1.793-4 4s1.795 4 4 4 4-1.793 4-4-1.795-4-4-4z" fill="#4c241d"/></g><g><circle cx="94" cy="64" fill="#c1dbdc" r="8"/><path d="m94 76c-6.617 0-12-5.383-12-12s5.383-12 12-12 12 5.383 12 12-5.383 12-12 12zm0-16c-2.205 0-4 1.793-4 4s1.795 4 4 4 4-1.793 4-4-1.795-4-4-4z" fill="#4c241d"/></g></g></svg>