<svg id="antilope-ram" enable-background="new 0 0 300 300" height="512" viewBox="0 0 300 300" width="512" xmlns="http://www.w3.org/2000/svg"><g><circle cx="183.98" cy="114" fill="#fff4f1" r="86"/><g><circle cx="149.98" cy="160" fill="#a9ba5a" r="108"/><path d="m149.98 272c-61.758 0-112-50.242-112-112s50.242-112 112-112 112 50.242 112 112-50.242 112-112 112zm0-216c-57.348 0-104 46.654-104 104s46.652 104 104 104 104-46.654 104-104-46.652-104-104-104z" fill="#4c241d"/></g><g><path d="m189.98 203.056v-51.056h-80v51.056c0 5.882-1.369 11.683-4 16.944s-4 11.062-4 16.944v19.803c14.463 7.19 30.753 11.253 48 11.253s33.537-4.063 48-11.253v-19.803c0-5.882-1.369-11.683-4-16.944s-4-11.062-4-16.944z" fill="#ffe8dc"/><path d="m149.98 272c-17.457 0-34.207-3.928-49.781-11.672-1.359-.676-2.219-2.064-2.219-3.582v-19.803c0-6.465 1.527-12.941 4.422-18.73 2.34-4.686 3.578-9.928 3.578-15.158v-51.055c0-2.209 1.789-4 4-4h80c2.211 0 4 1.791 4 4v51.055c0 5.23 1.238 10.473 3.578 15.158 2.895 5.789 4.422 12.266 4.422 18.73v19.803c0 1.518-.859 2.906-2.219 3.582-15.573 7.744-32.323 11.672-49.781 11.672zm-44-17.764c13.824 6.48 28.617 9.764 44 9.764s30.176-3.283 44-9.764v-17.293c0-5.23-1.238-10.471-3.578-15.156-2.895-5.789-4.422-12.268-4.422-18.732v-47.055h-72v47.055c0 6.465-1.527 12.943-4.422 18.732-2.34 4.686-3.578 9.926-3.578 15.156zm92 2.51h.039z" fill="#4c241d"/></g><g><path d="m185.661 133.5s5.531 2.346 10.536-1.76 11.13-10.852 24.956-4.986c0 0-1.189 18.184-12.844 22.584s-21.597-2.933-21.597-2.933" fill="#ffe8dc"/><path d="m200.613 154.75c-9.188 0-15.91-4.857-16.277-5.127-1.777-1.311-2.156-3.814-.844-5.594 1.312-1.775 3.816-2.154 5.594-.844.324.232 8.426 5.951 17.809 2.41 6.211-2.344 8.953-10.848 9.895-16.201-8.473-2.68-12.512.748-16.762 4.352l-1.297 1.086c-5.43 4.455-11.758 3.57-14.633 2.35-2.031-.861-2.984-3.209-2.121-5.244.859-2.021 3.188-2.965 5.199-2.139.387.15 3.559 1.254 6.48-1.15l1.199-1.004c5.133-4.352 12.879-10.932 27.859-4.572 1.566.664 2.539 2.246 2.43 3.941-.055.848-1.516 20.816-15.422 26.066-3.195 1.205-6.269 1.67-9.109 1.67z" fill="#4c241d"/></g><g><path d="m113.153 133.5s-5.531 2.346-10.536-1.76-11.13-10.852-24.956-4.986c0 0 1.189 18.184 12.844 22.584s21.597-2.933 21.597-2.933" fill="#ffe8dc"/><path d="m98.199 154.75c-2.84 0-5.914-.465-9.109-1.67-13.906-5.25-15.367-25.219-15.422-26.066-.109-1.695.863-3.277 2.43-3.941 14.973-6.352 22.738.223 27.863 4.576l1.195 1c2.941 2.416 6.133 1.285 6.488 1.146 2.027-.789 4.363.188 5.184 2.211.824 2.025-.102 4.324-2.113 5.176-2.883 1.221-9.203 2.105-14.637-2.35l-1.289-1.084c-4.254-3.604-8.285-7.035-16.766-4.354.941 5.354 3.684 13.857 9.895 16.201 9.383 3.543 17.484-2.178 17.824-2.422 1.785-1.283 4.285-.9 5.582.879s.922 4.264-.848 5.57c-.367.271-7.089 5.128-16.277 5.128z" fill="#4c241d"/></g><circle cx="71.98" cy="54" fill="#4c241d" r="4.529"/><circle cx="255.98" cy="242" fill="#4c241d" r="4.529"/><path d="m255.637 65.656c-1.023 0-2.047-.391-2.828-1.172l-11.312-11.312c-1.562-1.562-1.562-4.094 0-5.656s4.094-1.562 5.656 0l11.312 11.312c1.562 1.562 1.562 4.094 0 5.656-.781.782-1.805 1.172-2.828 1.172z" fill="#4c241d"/><path d="m244.324 65.656c-1.023 0-2.047-.391-2.828-1.172-1.562-1.562-1.562-4.094 0-5.656l11.312-11.312c1.562-1.562 4.094-1.562 5.656 0s1.562 4.094 0 5.656l-11.312 11.312c-.781.782-1.804 1.172-2.828 1.172z" fill="#4c241d"/><g><path d="m109.981 148.832v10.204c0 7.475 3.534 14.752 9.906 18.563 6.259 3.745 10.094 10.541 10.094 17.878v20.523h40v-20.409c0-7.33 3.791-14.129 10-17.935l.185-.114c6.094-3.735 9.815-10.408 9.815-17.603v-11.106c0-18.131-14.565-32.83-32.534-32.832l-14.926-.001c-17.971-.002-32.541 14.698-32.54 32.832z" fill="#ffe8dc"/><path d="m169.98 220h-40c-2.211 0-4-1.791-4-4v-20.521c0-5.904-3.121-11.439-8.148-14.447-7.309-4.375-11.852-12.803-11.852-21.996v-10.203c0-9.832 3.797-19.078 10.691-26.033 6.903-6.964 16.079-10.8 25.845-10.8h.004l14.926.002c20.145.002 36.535 16.525 36.535 36.832v11.105c0 8.527-4.492 16.578-11.727 21.014-5.172 3.17-8.273 8.736-8.273 14.637v20.41c-.001 2.209-1.79 4-4.001 4zm-36-8h32v-16.41c0-8.666 4.562-16.844 11.91-21.344 5.059-3.104 8.09-8.543 8.09-14.307v-11.105c0-15.896-12.801-28.83-28.535-28.832l-14.925-.002h-.004c-7.613 0-14.773 2.994-20.164 8.43-5.398 5.447-8.371 12.693-8.371 20.402v10.203c0 6.396 3.051 12.193 7.961 15.133 7.426 4.443 12.039 12.609 12.039 21.311v16.521z" fill="#4c241d"/></g><g><path d="m173.98 156h-1.917c-7.778 0-14.083 6.305-14.083 14.083v12.372c-.867 13.11 12.867 19.482 12 32.592.382 16.084-18.294 12.809-28.486 12.953-6.358.001-11.514-5.799-11.514-12.953-.866-13.11 12-19.046 12-32.592v-12.371c0-7.778-6.305-14.083-14.083-14.083h-1.917" fill="#bf7e68"/><path d="m151.371 232.184c-1.766 0-3.496-.053-5.145-.104-1.672-.049-3.254-.107-4.672-.08-8.613 0-15.574-7.605-15.574-16.953-.52-7.719 3.191-13.467 6.465-18.537 2.848-4.408 5.535-8.572 5.535-14.057v-12.371c0-5.559-4.523-10.082-10.082-10.082h-1.918c-2.211 0-4-1.791-4-4s1.789-4 4-4h1.918c9.969 0 18.082 8.111 18.082 18.082v12.371c0 7.842-3.621 13.449-6.812 18.396-2.977 4.609-5.551 8.592-5.195 13.934.008 5.201 3.379 9.217 7.523 9.217 1.461-.023 3.172.027 4.973.084 6.375.201 14.293.438 17.637-2.881 1.328-1.32 1.941-3.303 1.875-6.061.352-5.57-2.285-9.564-5.336-14.188-3.367-5.094-7.18-10.865-6.656-18.766l-.008-12.107c0-9.971 8.113-18.082 18.082-18.082h1.918c2.211 0 4 1.791 4 4s-1.789 4-4 4h-1.918c-5.559 0-10.082 4.523-10.082 10.082v12.371c-.352 5.475 2.285 9.469 5.336 14.092 3.367 5.094 7.18 10.865 6.656 18.766.125 4.645-1.301 8.658-4.23 11.568-4.575 4.546-11.688 5.306-18.372 5.306z" fill="#4c241d"/></g><path d="m145.98 200h8v12h-8z" fill="#4c241d"/><circle cx="125.98" cy="168" fill="#4c241d" r="4"/><circle cx="173.98" cy="168" fill="#4c241d" r="4"/><g><path d="m141.98 122.009-4.362-22.692c-.559-1.634-1.7-2.917-3.1-3.691l-29.131-14.745c-1.851-1.019-4.05-.811-5.658.346l-35.131 17.63-33.853-10.857 34.465 26.674c.593.563 1.453.67 2.147.332l35.604-18.223 15.444 9.303 3.365 26.026" fill="#bf7e68"/><path d="m121.766 136.111c-1.98 0-3.703-1.471-3.965-3.486l-3.117-24.109-11.883-7.158-33.621 17.208c-2.188 1.07-4.758.729-6.535-.82l-34.348-26.582c-1.535-1.189-1.996-3.309-1.09-5.027.902-1.717 2.895-2.535 4.762-1.945l32.297 10.357 33.426-16.771c2.855-1.898 6.602-2.062 9.621-.402l29.012 14.684c2.461 1.357 4.219 3.451 5.078 5.967.059.176.109.355.145.537l4.363 22.691c.414 2.17-1.004 4.268-3.176 4.684-2.18.414-4.262-1.004-4.684-3.172l-4.297-22.355c-.234-.541-.645-.992-1.172-1.283l-29-14.678c-.656-.348-1.203-.199-1.512.023-.172.125-.355.234-.547.33l-35.133 17.629c-.938.471-2.016.559-3.016.234l-12.199-3.912 15.586 12.062 34.375-17.594c1.23-.627 2.703-.582 3.887.135l15.441 9.303c1.047.629 1.746 1.701 1.906 2.912l3.367 26.025c.281 2.191-1.266 4.197-3.457 4.48-.171.024-.346.033-.514.033zm-53.793-24.332c0 .002.004.004.004.004s-.004-.002-.004-.004z" fill="#4c241d"/></g><g fill="#4c241d"><path d="m102.586 99.541c-2.211 0-4-1.791-4-4v-13.67c0-2.209 1.789-4 4-4s4 1.791 4 4v13.67c0 2.209-1.789 4-4 4z"/><path d="m119.047 109.953c-1.539 0-3.004-.893-3.664-2.391-.891-2.021.027-4.383 2.047-5.271l16.699-7.352c2.047-.902 4.383.029 5.273 2.049.891 2.021-.027 4.383-2.047 5.271l-16.699 7.352c-.527.233-1.074.342-1.609.342z"/><path d="m66.078 117.18c-2.109 0-3.875-1.65-3.988-3.783l-.75-13.834c-.121-2.207 1.57-4.092 3.777-4.211 2.098-.143 4.09 1.57 4.207 3.777l.75 13.834c.121 2.207-1.57 4.092-3.777 4.211-.07.004-.145.006-.219.006z"/><path d="m153.98 204h-8c-2.211 0-4-1.791-4-4s1.789-4 4-4h8c2.211 0 4 1.791 4 4s-1.789 4-4 4z"/><path d="m149.98 220c-.613 0-1.227-.141-1.789-.422l-8-4c-1.977-.988-2.777-3.391-1.789-5.367.992-1.975 3.395-2.779 5.367-1.789l6.215 3.107 6.09-3.031c1.973-.98 4.379-.176 5.363 1.797.984 1.977.18 4.379-1.801 5.363l-7.875 3.922c-.558.279-1.171.42-1.781.42z"/></g><g><path d="m158.017 122.009 4.362-22.692c.559-1.634 1.7-2.917 3.1-3.691l29.131-14.745c1.851-1.019 4.05-.811 5.658.346l35.132 17.63 33.853-10.857-34.465 26.674c-.593.563-1.453.67-2.147.332l-35.604-18.223-15.444 9.303-3.365 26.026" fill="#bf7e68"/><path d="m178.234 136.111c-.168 0-.344-.01-.516-.033-2.191-.283-3.738-2.289-3.457-4.479l3.363-26.025c.156-1.211.859-2.285 1.906-2.914l15.445-9.303c1.184-.721 2.656-.766 3.887-.135l34.375 17.594 15.59-12.064-12.207 3.914c-.996.324-2.082.236-3.016-.234l-35.129-17.629c-.191-.094-.371-.203-.543-.328-.312-.223-.867-.385-1.398-.088l-29.246 14.809c-.414.23-.812.674-1.047 1.215l-4.297 22.355c-.418 2.168-2.516 3.602-4.684 3.172-2.172-.416-3.59-2.514-3.176-4.684l4.363-22.691c.035-.182.086-.361.145-.537.859-2.518 2.621-4.613 4.953-5.9l29.258-14.812c2.902-1.604 6.637-1.434 9.504.463l33.426 16.773 32.297-10.357c1.859-.59 3.859.229 4.762 1.945.906 1.719.445 3.838-1.09 5.027l-34.352 26.584c-1.766 1.543-4.332 1.893-6.461.855l-33.695-17.246-11.883 7.158-3.113 24.107c-.26 2.018-1.983 3.488-3.964 3.488z" fill="#4c241d"/></g><path d="m197.41 99.541c-2.211 0-4-1.791-4-4v-13.67c0-2.209 1.789-4 4-4s4 1.791 4 4v13.67c0 2.209-1.789 4-4 4z" fill="#4c241d"/><path d="m180.949 109.953c-.535 0-1.082-.109-1.609-.342l-16.699-7.352c-2.02-.889-2.938-3.25-2.047-5.271.891-2.02 3.227-2.951 5.273-2.049l16.699 7.352c2.02.889 2.938 3.25 2.047 5.271-.66 1.499-2.125 2.391-3.664 2.391z" fill="#4c241d"/><path d="m233.922 117.18c-.074 0-.145-.002-.219-.006-2.207-.119-3.898-2.004-3.781-4.209l.746-13.834c.121-2.207 2.047-3.914 4.211-3.779 2.207.119 3.898 2.004 3.781 4.209l-.746 13.834c-.117 2.132-1.883 3.785-3.992 3.785z" fill="#4c241d"/></g></svg>