<svg id="bull-horns" enable-background="new 0 0 300 300" height="512" viewBox="0 0 300 300" width="512" xmlns="http://www.w3.org/2000/svg"><g><circle cx="184.25" cy="114" fill="#fff4f1" r="86"/><g><circle cx="150.25" cy="160" fill="#a9ba5a" r="108"/><path d="m150.25 272c-61.758 0-112-50.242-112-112s50.242-112 112-112 112 50.242 112 112-50.242 112-112 112zm0-216c-57.348 0-104 46.652-104 104s46.652 104 104 104 104-46.652 104-104-46.652-104-104-104z" fill="#4c241d"/></g><g><path d="m150.25 128.409v139.591c59.647 0 108-48.353 108-108 0-27.666-10.415-52.891-27.522-72h-40.069c-22.317 0-40.409 18.092-40.409 40.409z" fill="#bf7e68"/><path d="m150.25 272c-2.211 0-4-1.789-4-4v-139.59c0-24.488 19.922-44.41 44.41-44.41h40.066c1.137 0 2.223.484 2.98 1.332 18.406 20.559 28.543 47.074 28.543 74.668.001 61.758-50.241 112-111.999 112zm40.41-180c-20.078 0-36.41 16.332-36.41 36.41v135.516c55.496-2.113 100-47.922 100-103.926 0-25.027-8.984-49.105-25.332-68z" fill="#4c241d"/></g><g><path d="m206.25 173.167c0-24.597-27.281-61.667-56-61.667s-56 37.07-56 61.667 27.281 30.833 56 30.833 56-6.236 56-30.833z" fill="#bf7e68"/><path d="m150.25 208c-39.812 0-60-11.719-60-34.832 0-13.008 6.965-29.348 18.172-42.637 12.348-14.637 27.59-23.031 41.828-23.031s29.48 8.395 41.828 23.031c11.207 13.289 18.172 29.629 18.172 42.637 0 23.113-20.188 34.832-60 34.832zm0-92.5c-26.812 0-52 35.977-52 57.668 0 17.805 17.496 26.832 52 26.832s52-9.027 52-26.832c0-21.691-25.188-57.668-52-57.668z" fill="#4c241d"/></g><circle cx="60.25" cy="46" fill="#4c241d" r="4.529"/><circle cx="256.25" cy="242" fill="#4c241d" r="4.529"/><path d="m255.906 65.656c-1.023 0-2.047-.391-2.828-1.172l-11.312-11.312c-1.562-1.562-1.562-4.094 0-5.656s4.094-1.562 5.656 0l11.312 11.312c1.562 1.562 1.562 4.094 0 5.656-.781.782-1.804 1.172-2.828 1.172z" fill="#4c241d"/><path d="m244.594 65.656c-1.023 0-2.047-.391-2.828-1.172-1.562-1.562-1.562-4.094 0-5.656l11.312-11.312c1.562-1.562 4.094-1.562 5.656 0s1.562 4.094 0 5.656l-11.312 11.312c-.781.782-1.805 1.172-2.828 1.172z" fill="#4c241d"/><g><path d="m160.25 240h-20c-7.732 0-14-6.268-14-14 0-7.732 6.268-14 14-14h20c7.732 0 14 6.268 14 14 0 7.732-6.268 14-14 14z" fill="#bf7e68"/><path d="m160.25 244h-20c-9.926 0-18-8.074-18-18s8.074-18 18-18h20c9.926 0 18 8.074 18 18s-8.074 18-18 18zm-20-28c-5.516 0-10 4.484-10 10s4.484 10 10 10h20c5.516 0 10-4.484 10-10s-4.484-10-10-10z" fill="#4c241d"/></g><g><path d="m126 123.5c0-4.419-3.581-8.001-8-8.003l-55.585-.021c17.306 0 31.305-14.16 31.043-31.525-.171-11.381-9.597-20.475-20.979-20.475h-3.017v20.953c0 3.892-3.155 7.047-7.047 7.047h-8.411c-13.257-.001-24.004 10.746-24.004 24.003 0 13.254 10.742 24 23.996 24.003l60.004.018 24 24-3.75 20.5c-12.608 1.594-24 15.011-24 31.035v6.081c0 8.342 5.923 14.53 12.15 12.692l23-7.548c1.492-.44 8.204-.425 9.691.044l22.865 7.212c6.265 1.976 12.294-4.227 12.294-12.648v-5.832c0-16.024-11.392-29.44-24-31.035l-4.25-20.501 24-24 60.004-.018c13.254-.003 23.996-10.749 23.996-24.003 0-13.257-10.747-24.003-24.003-24.003h-8.411c-3.892 0-7.047-3.155-7.047-7.047v-20.954h-3.017c-11.382 0-20.807 9.094-20.979 20.475-.262 17.366 13.737 31.525 31.043 31.525l-55.586.022c-4.419.002-8 3.584-8 8.003" fill="#6b4f5b"/><path d="m120.148 238.125c-2.578 0-5.062-.852-7.27-2.5-4.152-3.105-6.629-8.527-6.629-14.508v-6.082c0-16.246 10.773-31.023 24.559-34.453l2.879-15.738-21.343-21.344-58.348-.016c-15.437-.004-27.996-12.566-27.996-28.004 0-15.441 12.562-28.004 28.004-28.004h8.41c1.68 0 3.047-1.367 3.047-3.047v-20.952c0-2.211 1.789-4 4-4h3.02c13.57 0 24.773 10.953 24.977 24.414.141 9.469-3.434 18.395-10.074 25.133-.859.871-1.754 1.691-2.684 2.461l33.3.011c6.617.004 12 5.391 12 12.004 0 2.211-1.789 4-4 4s-4-1.789-4-4c0-2.207-1.797-4-4.004-4.004l-55.582-.02c-2.211 0-4-1.793-4-4 0-2.211 1.793-4 4-4 7.301 0 14.145-2.863 19.27-8.066s7.883-12.09 7.773-19.402c-.133-8.789-7.219-16-15.996-16.504v16.926c0 6.09-4.957 11.047-11.047 11.047h-8.41c-11.031 0-20.004 8.972-20.004 20.003 0 11.027 8.973 20 19.996 20.004l60.004.016c1.062 0 2.078.422 2.828 1.172l24 24c.93.93 1.344 2.254 1.105 3.547l-3.75 20.5c-.312 1.715-1.703 3.031-3.434 3.25-9.898 1.25-20.5 12.426-20.5 27.066v6.082c0 3.418 1.309 6.523 3.418 8.102 1.16.867 2.367 1.109 3.598.754l22.891-7.516c2.402-.707 9.93-.664 12.137.035l22.867 7.207c1.234.398 2.457.16 3.629-.699 2.133-1.566 3.461-4.68 3.461-8.133v-5.832c0-14.641-10.602-25.816-20.5-27.066-1.699-.215-3.07-1.484-3.418-3.156l-4.25-20.5c-.273-1.32.137-2.688 1.09-3.641l24-24c.75-.75 1.766-1.172 2.828-1.172l60.004-.016c11.023-.004 19.996-8.976 19.996-20.004 0-11.031-8.973-20.004-20.004-20.004h-8.41c-6.09 0-11.047-4.957-11.047-11.047v-16.925c-8.777.504-15.863 7.715-15.996 16.504-.109 7.312 2.648 14.199 7.773 19.402s11.969 8.066 19.27 8.066c2.207 0 4 1.789 4 4 0 2.207-1.789 4-4 4l-55.586.02c-2.203.004-4 1.797-4 4.004 0 2.211-1.789 4-4 4s-4-1.789-4-4c0-6.613 5.383-12 11.996-12.004l33.305-.012c-.93-.77-1.824-1.59-2.684-2.461-6.641-6.738-10.215-15.664-10.074-25.133.203-13.461 11.406-24.414 24.977-24.414h3.02c2.211 0 4 1.789 4 4v20.954c0 1.68 1.367 3.047 3.047 3.047h8.41c15.441 0 28.004 12.562 28.004 28.004 0 15.438-12.559 28-27.996 28.004l-58.348.016-21.301 21.301 3.266 15.766c13.82 3.398 24.629 18.195 24.629 34.469v5.832c0 6.043-2.516 11.496-6.73 14.586-3.25 2.375-7.074 3.043-10.766 1.879l-22.867-7.211c-1.078-.238-6.234-.258-7.453 0l-22.789 7.488c-1.173.346-2.341.514-3.498.514z" fill="#4c241d"/></g><g><path d="m126.25 204s8-4 12 4" fill="#b5a19c"/><path d="m138.254 212c-1.469 0-2.879-.809-3.582-2.211-1.887-3.766-4.992-2.992-6.672-2.191-1.973.934-4.367.117-5.324-1.859-.961-1.969-.176-4.336 1.785-5.316 4.664-2.328 13.117-2.699 17.367 5.789.988 1.977.188 4.379-1.789 5.367-.574.284-1.184.421-1.785.421z" fill="#4c241d"/></g><g><path d="m174.25 204s-8-4-12 4" fill="#b5a19c"/><path d="m162.246 212c-.602 0-1.211-.137-1.785-.422-1.977-.988-2.777-3.391-1.789-5.367 4.25-8.492 12.703-8.117 17.367-5.789 1.977.988 2.777 3.391 1.789 5.367-.984 1.965-3.359 2.773-5.336 1.805-1.676-.793-4.777-1.57-6.664 2.195-.703 1.402-2.113 2.211-3.582 2.211z" fill="#4c241d"/></g><g fill="#4c241d"><circle cx="122.25" cy="168" r="4"/><circle cx="178.25" cy="168" r="4"/><path d="m81.461 119.477h-32c-2.211 0-4-1.789-4-4s1.789-4 4-4h32c2.211 0 4 1.789 4 4s-1.789 4-4 4z"/><path d="m62.25 128c-2.211 0-4-1.789-4-4v-8c0-2.211 1.789-4 4-4s4 1.789 4 4v8c0 2.211-1.789 4-4 4z"/><path d="m78.25 128c-2.211 0-4-1.789-4-4v-8c0-2.211 1.789-4 4-4s4 1.789 4 4v8c0 2.211-1.789 4-4 4z"/><path d="m94.25 128c-2.211 0-4-1.789-4-4v-8c0-2.211 1.789-4 4-4s4 1.789 4 4v8c0 2.211-1.789 4-4 4z"/><path d="m110 127.5c-2.211 0-4-1.789-4-4v-8c0-2.211 1.789-4 4-4s4 1.789 4 4v8c0 2.211-1.789 4-4 4z"/><path d="m190.25 128c-2.211 0-4-1.789-4-4v-8c0-2.211 1.789-4 4-4s4 1.789 4 4v8c0 2.211-1.789 4-4 4z"/><path d="m206.25 128c-2.211 0-4-1.789-4-4v-8c0-2.211 1.789-4 4-4s4 1.789 4 4v8c0 2.211-1.789 4-4 4z"/><path d="m222.25 128c-2.211 0-4-1.789-4-4v-8c0-2.211 1.789-4 4-4s4 1.789 4 4v8c0 2.211-1.789 4-4 4z"/><path d="m238 127.5c-2.211 0-4-1.789-4-4v-8c0-2.211 1.789-4 4-4s4 1.789 4 4v8c0 2.211-1.789 4-4 4z"/><path d="m250 119.5h-28c-2.211 0-4-1.789-4-4s1.789-4 4-4h28c2.211 0 4 1.789 4 4s-1.789 4-4 4z"/><path d="m150 147.5c-2.211 0-4-1.789-4-4v-32c0-2.211 1.789-4 4-4s4 1.789 4 4v32c0 2.211-1.789 4-4 4z"/></g></g></svg>