<svg id="bulldog" enable-background="new 0 0 300 300" height="512" viewBox="0 0 300 300" width="512" xmlns="http://www.w3.org/2000/svg"><g><circle cx="248" cy="244" fill="#4c241d" r="4"/><circle cx="178" cy="114" fill="#fff4f1" r="86"/><g><circle cx="148" cy="160" fill="#fc8c29" r="108"/><path d="m148 272c-61.758 0-112-50.242-112-112s50.242-112 112-112 112 50.242 112 112-50.242 112-112 112zm0-216c-57.348 0-104 46.652-104 104s46.652 104 104 104 104-46.652 104-104-46.652-104-104-104z" fill="#4c241d"/></g><g><path d="m175.986 167.919-56.26.162c-22.02.064-43.789 17.9-43.726 39.919l4.075 36.083c18.611 15.016 42.293 23.991 68.069 23.917s49.407-9.186 67.93-24.309l3.926-35.691c-.063-22.019-21.995-40.144-44.014-40.081z" fill="#fff"/><path d="m147.836 272c-25.496 0-50.441-8.801-70.273-24.805-.82-.66-1.344-1.617-1.465-2.664l-4.074-36.082c-.016-.145-.023-.293-.023-.438-.066-23.328 22.23-43.855 47.715-43.93l56.258-.164h.129c25.02 0 47.832 20.973 47.898 44.07 0 .148-.008.301-.023.449l-3.926 35.691c-.113 1.043-.633 1.996-1.445 2.66-19.828 16.184-44.844 25.137-70.449 25.211-.107.002-.217.002-.322.002zm-63.973-30.02c18.199 14.219 40.844 22.02 63.973 22.02h.297c23.234-.066 45.945-8.008 64.145-22.391l3.722-33.816c-.199-18.828-19.137-35.875-39.898-35.875-.035 0-.07 0-.105 0l-56.258.164c-18.742.055-39.652 15.316-39.738 35.695z" fill="#4c241d"/></g><g fill="#4c241d"><circle cx="64" cy="56" r="4"/><path d="m252 68c-1.023 0-2.047-.391-2.828-1.172l-12-12c-1.562-1.562-1.562-4.094 0-5.656s4.094-1.562 5.656 0l12 12c1.562 1.562 1.562 4.094 0 5.656-.781.781-1.805 1.172-2.828 1.172z"/><path d="m240 68c-1.023 0-2.047-.391-2.828-1.172-1.562-1.562-1.562-4.094 0-5.656l12-12c1.562-1.562 4.094-1.562 5.656 0s1.562 4.094 0 5.656l-12 12c-.781.781-1.805 1.172-2.828 1.172z"/></g><g><path d="m125.561 122.78s-15.637-5.616-19.913-17.532c-3.671-10.23-6.773-24.552-25.982-30.958-6.085-2.029-12.787 1.14-14.806 7.229-3.611 10.893-2.08 42.054 7.778 54.481 15.141 19.086 28 12 28 12" fill="#fff"/><path d="m94.371 153.297c-6.207 0-15.27-2.715-24.863-14.812-11.109-13.996-12.156-47.027-8.445-58.223 1.289-3.891 4.035-7.051 7.734-8.902 3.797-1.902 8.098-2.199 12.137-.867 19.27 6.43 24.004 20.32 27.461 30.465.344 1.008.68 1.992 1.02 2.941 3.574 9.957 17.367 15.07 17.508 15.121 2.074.754 3.148 3.043 2.398 5.121-.746 2.074-3.043 3.148-5.109 2.406-.711-.258-17.469-6.41-22.328-19.945-.355-.988-.703-2.012-1.062-3.066-3.238-9.504-6.91-20.277-22.418-25.453-1.992-.664-4.137-.52-6.023.43-1.785.895-3.105 2.41-3.723 4.266-3.215 9.703-1.949 39.312 7.117 50.738 12.648 15.941 22.582 11.164 22.996 10.949 1.938-.977 4.355-.246 5.375 1.684s.336 4.301-1.574 5.355c-.283.155-3.381 1.792-8.201 1.792z" fill="#4c241d"/></g><g><path d="m100.639 120s-8-8-12-20" fill="#bf7e68"/><path d="m100.637 124c-1.023 0-2.043-.391-2.824-1.172-.355-.355-8.719-8.812-12.965-21.562-.699-2.098.434-4.363 2.527-5.059 2.109-.707 4.363.434 5.059 2.527 3.633 10.895 10.969 18.367 11.039 18.441 1.555 1.566 1.551 4.098-.012 5.656-.781.778-1.805 1.169-2.824 1.169z" fill="#4c241d"/></g><g><path d="m171.078 122.78s15.637-5.616 19.913-17.532c3.671-10.23 6.773-24.552 25.982-30.958 6.085-2.029 12.787 1.14 14.806 7.229 3.611 10.893 2.08 42.054-7.778 54.481-15.141 19.086-28 12-28 12" fill="#fff"/><path d="m202.27 153.297c-4.82 0-7.918-1.637-8.199-1.793-1.938-1.066-2.641-3.5-1.574-5.434 1.07-1.938 3.496-2.637 5.434-1.574.363.184 10.305 4.945 22.938-10.98 9.066-11.43 10.332-41.039 7.113-50.738-.617-1.855-1.938-3.371-3.723-4.266-1.891-.949-4.027-1.102-6.02-.426-15.516 5.172-19.184 15.949-22.422 25.457-.355 1.051-.707 2.07-1.059 3.059-4.859 13.535-21.617 19.688-22.328 19.945-2.066.742-4.363-.332-5.109-2.406-.75-2.078.324-4.367 2.398-5.121.141-.051 13.934-5.164 17.508-15.121.34-.945.672-1.926 1.016-2.934 3.457-10.145 8.188-24.043 27.465-30.469 4.031-1.344 8.344-1.039 12.133.863 3.699 1.852 6.445 5.012 7.734 8.902 3.711 11.191 2.668 44.223-8.441 58.223-9.595 12.094-18.657 14.813-24.864 14.813z" fill="#4c241d"/></g><g><path d="m208 180c0-33.137-12-64-60-64s-60 30.863-60 64 26.863 52 60 52 60-18.863 60-52z" fill="#fff"/><path d="m148 236c-37.684 0-64-23.027-64-56 0-45.121 21.531-68 64-68s64 22.879 64 68c0 32.973-26.316 56-64 56zm0-116c-37.684 0-56 19.625-56 60 0 33.156 28.125 48 56 48s56-14.844 56-48c0-40.375-18.316-60-56-60z" fill="#4c241d"/></g><g><path d="m114.186 194.846c4.249 18.616 14.319 25.154 26.902 25.154h13.691c12.874 0 23.197-6.845 27.303-26.466" fill="#f4aeab"/><path d="m154.781 224h-13.691c-16.16 0-26.523-9.508-30.801-28.262-.492-2.156.855-4.301 3.008-4.789 2.172-.512 4.301.859 4.789 3.008 3.434 15.039 10.742 22.043 23.004 22.043h13.691c7.949 0 19.02-2.414 23.387-23.285.449-2.16 2.539-3.555 4.734-3.094 2.16.453 3.547 2.57 3.094 4.734-4.113 19.672-14.617 29.645-31.215 29.645z" fill="#4c241d"/></g><circle cx="170" cy="150" fill="#4c241d" r="6"/><circle cx="126" cy="150" fill="#4c241d" r="6"/><path d="m120.273 189.046 8.964-22.202c1.67-4.136 5.683-6.844 10.144-6.844h17.195c4.482 0 8.511 2.734 10.166 6.9l8.8 22.146" fill="#f4aeab"/><g><path d="m148 236c-6.627 0-12-5.373-12-12v-24c0-2.209 1.791-4 4-4h16c2.209 0 4 1.791 4 4v24c0 6.627-5.373 12-12 12z" fill="#e66353"/><path d="m148 240c-8.824 0-16-7.176-16-16v-24c0-4.41 3.59-8 8-8h16c4.41 0 8 3.59 8 8v24c0 8.824-7.176 16-16 16zm-8-40v24c0 4.41 3.59 8 8 8s8-3.59 8-8v-24z" fill="#4c241d"/></g><g><path d="m188 188c-8 12-15.944 16-23.738 16h-4.716c-6.479 0-11.545-5.521-11.545-12 0 6.479-5.252 12-11.731 12h-4.716c-7.794 0-19.553-8-23.553-16" fill="#f4aeab"/><path d="m164.262 208h-4.715c-4.59 0-8.723-2.059-11.57-5.324-2.883 3.266-7.062 5.324-11.707 5.324h-4.719c-9.266 0-22.449-8.852-27.129-18.211-.988-1.977-.188-4.379 1.789-5.367 1.973-.98 4.375-.188 5.367 1.789 3.285 6.574 13.738 13.789 19.973 13.789h4.719c4.191 0 7.73-3.664 7.73-8 0-2.211 1.789-4 4-4s4 1.789 4 4c0 4.41 3.387 8 7.547 8h4.715c4.691 0 11.914-1.473 20.41-14.219 1.223-1.84 3.703-2.332 5.547-1.109 1.84 1.227 2.336 3.707 1.109 5.547-7.976 11.965-16.828 17.781-27.066 17.781z" fill="#4c241d"/></g><path d="m120.273 193.047c-.5 0-1.008-.094-1.496-.289-2.051-.828-3.039-3.16-2.215-5.207l9.039-22.387c2.25-5.566 7.582-9.164 13.582-9.164h17.59c6.043 0 11.383 3.625 13.613 9.238l8.875 22.332c.812 2.051-.188 4.379-2.242 5.195-2.047.809-4.375-.188-5.195-2.242l-8.875-22.332c-1.008-2.547-3.434-4.191-6.176-4.191h-17.59c-2.723 0-5.141 1.633-6.164 4.156l-9.035 22.387c-.629 1.559-2.129 2.504-3.711 2.504z" fill="#4c241d"/><path d="m156 168h-16c-.988 0-1.941-.367-2.68-1.027l-3.641-3.281 5.359-5.945 2.496 2.254h12.957l2.438-2.145 5.281 6.008-3.57 3.141c-.73.64-1.667.995-2.64.995z" fill="#4c241d"/><g><path d="m161.245 147.954h24" fill="#bf7e68"/><path d="m185.246 151.953h-24c-2.211 0-4-1.789-4-4s1.789-4 4-4h24c2.211 0 4 1.789 4 4s-1.789 4-4 4z" fill="#4c241d"/></g><g><path d="m112 148h24" fill="#bf7e68"/><path d="m136 152h-24c-2.211 0-4-1.789-4-4s1.789-4 4-4h24c2.211 0 4 1.789 4 4s-1.789 4-4 4z" fill="#4c241d"/></g><path d="m144 164h8v28h-8z" fill="#4c241d"/><g><path d="m196 120s8-8 12-20" fill="#bf7e68"/><path d="m196.004 124c-1.02 0-2.043-.391-2.824-1.168-1.562-1.559-1.566-4.09-.012-5.656.07-.074 7.406-7.547 11.039-18.441.699-2.094 2.949-3.234 5.059-2.527 2.094.695 3.227 2.961 2.527 5.059-4.246 12.75-12.609 21.207-12.965 21.562-.781.78-1.801 1.171-2.824 1.171z" fill="#4c241d"/></g><path d="m148 224c-2.211 0-4-1.789-4-4v-20c0-2.211 1.789-4 4-4s4 1.789 4 4v20c0 2.211-1.789 4-4 4z" fill="#4c241d"/><path d="m184 264c-2.211 0-4-1.789-4-4v-12c0-2.211 1.789-4 4-4s4 1.789 4 4v12c0 2.211-1.789 4-4 4z" fill="#4c241d"/><path d="m112 264c-2.211 0-4-1.789-4-4v-12c0-2.211 1.789-4 4-4s4 1.789 4 4v12c0 2.211-1.789 4-4 4z" fill="#4c241d"/></g></svg>