<svg id="camel" enable-background="new 0 0 300 300" height="512" viewBox="0 0 300 300" width="512" xmlns="http://www.w3.org/2000/svg"><g><circle cx="180" cy="110" fill="#fff4f1" r="86"/><g><circle cx="146" cy="156" fill="#ffce56" r="108"/><path d="m146 268c-61.758 0-112-50.242-112-112s50.242-112 112-112 112 50.242 112 112-50.242 112-112 112zm0-216c-57.346 0-104 46.652-104 104s46.654 104 104 104c57.348 0 104-46.652 104-104s-46.652-104-104-104z" fill="#4c241d"/></g><circle cx="68" cy="50" fill="#4c241d" r="4.529"/><circle cx="252" cy="238" fill="#4c241d" r="4.529"/><path d="m251.656 61.656c-1.023 0-2.047-.391-2.828-1.172l-11.312-11.312c-1.562-1.562-1.562-4.094 0-5.656s4.094-1.562 5.656 0l11.312 11.312c1.562 1.562 1.562 4.094 0 5.656-.781.782-1.804 1.172-2.828 1.172z" fill="#4c241d"/><path d="m240.344 61.656c-1.023 0-2.047-.391-2.828-1.172-1.562-1.562-1.562-4.094 0-5.656l11.312-11.312c1.562-1.562 4.094-1.562 5.656 0s1.562 4.094 0 5.656l-11.312 11.312c-.781.782-1.805 1.172-2.828 1.172z" fill="#4c241d"/><g><path d="m186 118.379v-11.443c0-19.294-15.641-34.936-34.936-34.936h-10.128c-19.295 0-34.936 15.642-34.936 34.936v11.443c-20.221 11.108-36 30.062-36 51.621l12 72.983c17.913 13.203 40.041 21.017 64 21.017s46.087-7.814 64-21.017l12-72.983c0-21.559-15.779-40.513-36-51.621z" fill="#bf7e68"/><path d="m146 268c-24.076 0-47.027-7.535-66.373-21.797-.84-.617-1.404-1.539-1.574-2.57l-12-72.984c-.035-.215-.053-.43-.053-.649 0-20.473 13.734-40.965 36-53.953v-9.109c0-21.469 17.467-38.938 38.938-38.938h10.125c21.468 0 38.937 17.469 38.937 38.938v9.109c22.266 12.984 36 33.48 36 53.953 0 .219-.02.434-.055.648l-12 72.984c-.168 1.031-.73 1.953-1.57 2.57-19.348 14.263-42.301 21.798-66.375 21.798zm-60.32-27.289c17.685 12.625 38.506 19.289 60.32 19.289 21.816 0 42.637-6.664 60.32-19.289l11.68-71.031c-.152-18.078-13.121-36.367-33.926-47.797-1.281-.699-2.074-2.043-2.074-3.504v-11.441c0-17.059-13.879-30.938-30.938-30.938h-10.125c-17.058 0-30.937 13.879-30.937 30.938v11.441c0 1.461-.795 2.805-2.074 3.504-20.803 11.43-33.773 29.723-33.924 47.797zm136.32-70.711h.039z" fill="#4c241d"/></g><g><path d="m106.364 116.802h16.316c1.333-11.705 11.258-20.802 23.32-20.802s21.987 9.097 23.32 20.802h16.68" fill="#bf7e68"/><path d="m186 120.801h-16.68c-2.035 0-3.746-1.527-3.973-3.547-1.12-9.836-9.437-17.254-19.347-17.254-9.908 0-18.225 7.418-19.346 17.254-.23 2.02-1.941 3.547-3.975 3.547h-16.316c-2.209 0-4-1.789-4-4s1.791-4 4-4h12.982c3.005-12.078 13.895-20.801 26.655-20.801 12.762 0 23.652 8.723 26.656 20.801h13.344c2.211 0 4 1.789 4 4s-1.789 4-4 4z" fill="#4c241d"/></g><g><path d="m162.153 144.218s7.376-1.411 9.717-9.157c2.342-7.746 4.01-19.013 22.45-22.539 0 0 11.415 19.712 2.371 32.389s-24.469 11.978-24.469 11.978" fill="#bf7e68"/><path d="m172.672 160.898c-.344 0-.562-.008-.629-.012-2.207-.102-3.918-1.969-3.816-4.176.102-2.211 2.117-3.969 4.176-3.816.551.02 13.422.375 21.031-10.309 5.711-8 1.172-20.188-1.273-25.473-11.922 3.195-13.93 10.254-15.875 17.098l-.586 2.008c-3.004 9.949-12.398 11.852-12.797 11.93-2.16.395-4.266-1.008-4.68-3.18-.41-2.156.992-4.238 3.141-4.672.277-.059 5.109-1.191 6.68-6.391l.547-1.887c2.234-7.855 5.613-19.723 24.98-23.426 1.664-.316 3.359.453 4.211 1.926.52.895 12.586 22.109 2.168 36.715-9.216 12.919-24.001 13.665-27.278 13.665z" fill="#4c241d"/></g><g><path d="m128.177 144.218s-7.376-1.411-9.717-9.157c-2.342-7.746-4.01-19.013-22.45-22.539 0 0-11.415 19.712-2.371 32.389s24.469 11.978 24.469 11.978" fill="#bf7e68"/><path d="m117.656 160.898c-3.273 0-18.057-.742-27.273-13.664-10.422-14.605 1.646-35.82 2.166-36.715.854-1.469 2.549-2.242 4.211-1.926 19.363 3.699 22.744 15.57 24.98 23.422l.547 1.891c1.598 5.281 6.592 6.375 6.643 6.383 2.168.414 3.592 2.512 3.178 4.68-.416 2.172-2.496 3.586-4.682 3.18-.396-.078-9.787-1.98-12.795-11.93l-.586-2.012c-1.947-6.84-3.957-13.898-15.875-17.094-2.447 5.285-6.984 17.473-1.275 25.473 7.693 10.785 20.912 10.32 21.031 10.309 2.162-.164 4.076 1.605 4.178 3.816.1 2.207-1.607 4.074-3.814 4.176-.069.004-.288.011-.634.011z" fill="#4c241d"/></g><g><path d="m187.601 168h-4.7c-4.748-16.974-14.776-28-28.767-28h-16.267c-13.992 0-24.019 11.026-28.767 28h-4.7c-3.534 0-6.399 2.865-6.399 6.398v7.203c0 3.534 2.865 6.398 6.399 6.398h1.713c-.059 1.466-.111 2.938-.111 4.446 0 17.963 7.131 29.619 16 39.554h48c8.869-9.936 16-21.591 16-39.554 0-1.507-.052-2.979-.111-4.446h1.713c3.534 0 6.399-2.865 6.399-6.398v-7.203c-.003-3.533-2.868-6.398-6.402-6.398z" fill="#bf7e68"/><path d="m170 236h-48c-1.141 0-2.225-.484-2.984-1.336-7.922-8.879-17.016-21.699-17.016-42.219 0-.242.002-.484.004-.723-4.584-1.085-8.004-5.21-8.004-10.12v-7.203c0-5.735 4.664-10.399 10.398-10.399h1.734c5.826-17.844 17.273-28 31.734-28h16.266c14.461 0 25.91 10.156 31.738 28h1.73c5.734 0 10.398 4.664 10.398 10.398v7.203c0 4.91-3.422 9.035-8.004 10.121.004.238.004.48.004.723 0 20.516-9.094 33.34-17.016 42.219-.755.852-1.841 1.336-2.982 1.336zm-46.189-8h44.377c7.016-8.133 13.812-18.781 13.812-35.555 0-1.453-.051-2.875-.105-4.285-.043-1.09.359-2.145 1.113-2.93s1.793-1.23 2.883-1.23h1.711c1.324 0 2.398-1.074 2.398-2.398v-7.203c0-1.324-1.074-2.398-2.398-2.398h-4.699c-1.793 0-3.367-1.195-3.852-2.922-2.621-9.368-9.344-25.079-24.918-25.079h-16.266c-15.574 0-22.295 15.711-24.916 25.078-.482 1.727-2.057 2.922-3.852 2.922h-4.701c-1.322 0-2.398 1.074-2.398 2.398v7.203c0 1.324 1.076 2.398 2.398 2.398h1.713c1.088 0 2.131.445 2.885 1.23s1.156 1.84 1.111 2.93c-.057 1.41-.107 2.832-.107 4.285 0 16.779 6.797 27.423 13.811 35.556z" fill="#4c241d"/></g><g><path d="m156 196c-3.923 0-16.077 0-20 0-7.732 0-14 6.38-14 14.25v47.5c0 7.87 6.268 14.25 14 14.25 3.923 0 7.458-1.652 10-4.298 2.542 2.646 6.077 4.298 10 4.298 7.732 0 14-6.38 14-14.25v-47.5c0-7.87-6.268-14.25-14-14.25z" fill="#f4aeab"/><path d="m156 276c-3.617 0-7.062-1.074-10-3.082-2.938 2.008-6.383 3.082-10 3.082-9.926 0-18-8.188-18-18.25v-47.5c0-10.062 8.074-18.25 18-18.25h20c9.926 0 18 8.188 18 18.25v47.5c0 10.062-8.074 18.25-18 18.25zm-10-12.297c1.09 0 2.129.441 2.883 1.227 1.902 1.98 4.43 3.07 7.117 3.07 5.516 0 10-4.598 10-10.25v-47.5c0-5.652-4.484-10.25-10-10.25h-20c-5.514 0-10 4.598-10 10.25v47.5c0 5.652 4.486 10.25 10 10.25 2.688 0 5.215-1.09 7.117-3.07.754-.785 1.793-1.227 2.883-1.227z" fill="#4c241d"/></g><g fill="#4c241d"><path d="m150 232h-8c-.988 0-1.941-.367-2.68-1.027l-3.639-3.281c-1.641-1.48-1.773-4.008-.293-5.652 1.479-1.641 4.014-1.762 5.65-.293l2.496 2.254h4.957l2.438-2.145c1.652-1.457 4.18-1.301 5.645.363 1.457 1.656 1.297 4.184-.363 5.645l-3.57 3.141c-.731.64-1.668.995-2.641.995z"/><path d="m146 248c-2.211 0-4-1.789-4-4v-16c0-2.211 1.789-4 4-4s4 1.789 4 4v16c0 2.211-1.789 4-4 4z"/><path d="m134 260c-8.344 0-15.195-6.262-15.938-14.566-.197-2.199 1.428-4.145 3.629-4.34 2.195-.234 4.145 1.43 4.34 3.629.365 4.082 3.865 7.277 7.969 7.277 4.41 0 8-3.59 8-8 0-2.211 1.789-4 4-4s4 1.789 4 4c0 8.824-7.176 16-16 16z"/><path d="m157.984 260c-8.344 0-15.195-6.262-15.938-14.566-.195-2.199 1.43-4.145 3.629-4.34 2.242-.207 4.145 1.434 4.34 3.629.363 4.082 3.863 7.277 7.969 7.277 4.41 0 8-3.59 8-8 0-2.211 1.789-4 4-4s4 1.789 4 4c0 8.824-7.175 16-16 16z"/><path d="m186 192h-16c-2.211 0-4-1.789-4-4s1.789-4 4-4h16c2.211 0 4 1.789 4 4s-1.789 4-4 4z"/><path d="m122 192h-16c-2.209 0-4-1.789-4-4s1.791-4 4-4h16c2.209 0 4 1.789 4 4s-1.791 4-4 4z"/><circle cx="118" cy="192" r="4"/><circle cx="174" cy="192" r="4"/><path d="m186 260c-2.211 0-4-1.789-4-4v-24c0-2.211 1.789-4 4-4s4 1.789 4 4v24c0 2.211-1.789 4-4 4z"/><path d="m106 260c-2.209 0-4-1.789-4-4v-24c0-2.211 1.791-4 4-4s4 1.789 4 4v24c0 2.211-1.791 4-4 4z"/></g></g></svg>