<svg id="crocodile-aligator" enable-background="new 0 0 300 300" height="512" viewBox="0 0 300 300" width="512" xmlns="http://www.w3.org/2000/svg"><g><circle cx="180" cy="114" fill="#fff4f1" r="86"/><g><circle cx="146" cy="160" fill="#9dc1e4" r="108"/><path d="m146 272c-61.758 0-112-50.242-112-112s50.242-112 112-112 112 50.242 112 112-50.242 112-112 112zm0-216c-57.346 0-104 46.652-104 104s46.654 104 104 104 104-46.652 104-104-46.654-104-104-104z" fill="#4c241d"/></g><circle cx="68" cy="54" fill="#4c241d" r="4.529"/><circle cx="256" cy="246" fill="#4c241d" r="4.529"/><path d="m251.656 65.656c-1.023 0-2.047-.391-2.828-1.172l-11.312-11.312c-1.562-1.562-1.562-4.094 0-5.656s4.094-1.562 5.656 0l11.312 11.312c1.562 1.562 1.562 4.094 0 5.656-.781.782-1.804 1.172-2.828 1.172z" fill="#4c241d"/><path d="m240.344 65.656c-1.023 0-2.047-.391-2.828-1.172-1.562-1.562-1.562-4.094 0-5.656l11.312-11.312c1.562-1.562 4.094-1.562 5.656 0s1.562 4.094 0 5.656l-11.312 11.312c-.781.782-1.805 1.172-2.828 1.172z" fill="#4c241d"/><g><path d="m198 65.334c-15.427-8.492-33.146-13.334-52-13.334s-36.573 4.842-52 13.334l-12 30.666 12 60h104l12-60z" fill="#a9ba5a"/><path d="m198 160h-104c-1.906 0-3.549-1.348-3.922-3.215l-12-60c-.15-.75-.082-1.531.197-2.242l12-30.664c.34-.871.977-1.598 1.795-2.047 16.438-9.051 35.086-13.832 53.93-13.832s37.492 4.781 53.93 13.832c.818.449 1.455 1.176 1.795 2.047l12 30.664c.279.711.348 1.492.197 2.242l-12 60c-.373 1.867-2.016 3.215-3.922 3.215zm-100.721-8h97.441l11.127-55.633-11.039-28.211c-14.947-7.957-31.79-12.156-48.808-12.156s-33.861 4.199-48.809 12.156l-11.039 28.211z" fill="#4c241d"/></g><g><path d="m98 164h-48v-11.106c0-9.33 7.564-16.894 16.894-16.894h27.106" fill="#a9ba5a"/><path d="m98 168h-48c-2.209 0-4-1.789-4-4v-11.105c0-11.52 9.373-20.895 20.895-20.895h27.105c2.209 0 4 1.789 4 4s-1.791 4-4 4h-27.105c-7.11 0-12.895 5.785-12.895 12.895v7.105h44c2.209 0 4 1.789 4 4s-1.791 4-4 4z" fill="#4c241d"/></g><g><path d="m182 192h48v-11.106c0-9.33-7.564-16.894-16.894-16.894h-27.106" fill="#a9ba5a"/><path d="m230 196h-48c-2.209 0-4-1.789-4-4s1.791-4 4-4h44v-7.105c0-7.109-5.785-12.895-12.895-12.895h-27.105c-2.209 0-4-1.789-4-4s1.791-4 4-4h27.105c11.521 0 20.895 9.375 20.895 20.895v11.105c0 2.211-1.791 4-4 4z" fill="#4c241d"/></g><g><path d="m210 156c0-22.092-28.654-40-64-40s-64 17.908-64 40c0 11.183 7.375 21.269 19.22 28.522 3.682 2.254 6.272 5.927 6.883 10.202l1.231 8.617c.432 3.025 1.834 5.828 3.994 7.989l5.245 5.245c2.221 2.221 3.638 5.118 4.027 8.234l2.573 20.584c.472 3.775 3.681 6.608 7.485 6.608h13.342 13.341c3.804 0 7.013-2.833 7.485-6.608l2.573-20.584c.39-3.116 1.807-6.014 4.027-8.234l5.245-5.245c2.161-2.161 3.562-4.964 3.994-7.989l1.231-8.617c.611-4.274 3.2-7.947 6.883-10.202 11.846-7.253 19.221-17.339 19.221-28.522z" fill="#a9ba5a"/><path d="m159.342 256h-26.684c-5.809 0-10.732-4.348-11.453-10.113l-2.572-20.582c-.279-2.223-1.305-4.32-2.887-5.902l-5.246-5.246c-2.756-2.754-4.576-6.395-5.125-10.25l-1.23-8.617c-.428-2.984-2.254-5.664-5.012-7.355-13.629-8.345-21.133-19.685-21.133-31.935 0-24.262 30.504-44 68-44s68 19.738 68 44c0 12.25-7.504 23.59-21.131 31.934-2.76 1.691-4.586 4.371-5.014 7.355l-1.23 8.617c-.549 3.855-2.369 7.496-5.125 10.25l-5.246 5.246c-1.582 1.582-2.607 3.68-2.887 5.902l-2.572 20.582c-.721 5.766-5.645 10.114-11.453 10.114zm-13.342-136c-33.084 0-60 16.148-60 36 0 9.359 6.146 18.277 17.311 25.113 4.797 2.938 7.986 7.691 8.752 13.043l1.23 8.617c.309 2.156 1.324 4.188 2.863 5.727l5.246 5.246c2.834 2.832 4.67 6.582 5.168 10.566l2.572 20.582c.223 1.77 1.732 3.105 3.516 3.105h26.684c1.783 0 3.293-1.336 3.516-3.105l2.572-20.582c.498-3.984 2.334-7.734 5.168-10.566l5.246-5.246c1.539-1.539 2.555-3.57 2.863-5.727l1.23-8.617c.766-5.352 3.955-10.105 8.754-13.043 11.163-6.836 17.309-15.754 17.309-25.113 0-19.852-26.916-36-60-36z" fill="#4c241d"/></g><g><path d="m156 130s5.262-2.801 10.631-11.401c5.369-8.599 9.369-8.599 17.369-8.599s12 28 12 28" fill="#a9ba5a"/><path d="m195.994 142c-1.957 0-3.668-1.438-3.953-3.434-1.67-11.648-5.652-23.602-8.195-24.59-7.555.023-9.627.023-13.822 6.738-5.77 9.246-11.508 12.477-12.145 12.816-1.949 1.031-4.375.297-5.41-1.652-1.031-1.938-.307-4.344 1.617-5.391.137-.078 4.568-2.664 9.152-10.008 6.543-10.479 12.508-10.479 20.762-10.479 9.979 0 14.283 19.695 15.959 31.434.312 2.188-1.205 4.211-3.393 4.527-.191.027-.382.039-.572.039z" fill="#4c241d"/></g><g><path d="m140 130s-5.262-2.801-10.631-11.401c-5.369-8.599-9.369-8.599-17.369-8.599s-12 28-12 28" fill="#a9ba5a"/><path d="m100.006 142c-.189 0-.381-.012-.572-.039-2.188-.316-3.705-2.34-3.393-4.527 1.676-11.739 5.98-31.434 15.959-31.434 8.254 0 14.219 0 20.762 10.48 4.633 7.422 9.109 9.984 9.154 10.008 1.914 1.07 2.627 3.492 1.576 5.418-1.053 1.926-3.434 2.652-5.371 1.625-.637-.34-6.375-3.57-12.145-12.816-4.195-6.715-6.267-6.715-13.976-6.715-2.389.965-6.371 12.918-8.041 24.566-.285 1.996-1.996 3.434-3.953 3.434z" fill="#4c241d"/></g><path d="m125.996 152c-.6 0-1.211-.137-1.785-.422l-7.154-3.578h-3.057c-2.209 0-4-1.789-4-4s1.791-4 4-4h4c.621 0 1.234.145 1.789.422l8 4c1.977.988 2.777 3.391 1.789 5.367-.701 1.402-2.113 2.211-3.582 2.211z" fill="#4c241d"/><path d="m166.004 152c-1.469 0-2.881-.809-3.582-2.211-.988-1.977-.188-4.379 1.789-5.367l8-4c.555-.277 1.168-.422 1.789-.422h4c2.209 0 4 1.789 4 4s-1.791 4-4 4h-3.057l-7.154 3.578c-.574.285-1.185.422-1.785.422z" fill="#4c241d"/><g><path d="m166 183.033c-2.918-3.532-10.759-6.067-20-6.067s-17.082 2.535-20 6.067" fill="#a9ba5a"/><path d="m166.002 187.035c-1.152 0-2.295-.496-3.086-1.453-1.848-2.238-8.404-4.617-16.916-4.617s-15.068 2.379-16.916 4.617c-1.406 1.703-3.922 1.941-5.631.539-1.703-1.406-1.943-3.93-.537-5.633 3.83-4.641 12.676-7.523 23.084-7.523s19.254 2.883 23.084 7.523c1.406 1.703 1.166 4.227-.537 5.633-.746.613-1.649.914-2.545.914z" fill="#4c241d"/></g><g fill="#4c241d"><path d="m154 200h-16c-2.209 0-4-1.789-4-4s1.791-4 4-4h16c2.209 0 4 1.789 4 4s-1.791 4-4 4z"/><path d="m138 240c-2.209 0-4-1.789-4-4v-4c0-2.211 1.791-4 4-4s4 1.789 4 4v4c0 2.211-1.791 4-4 4z"/><path d="m154 240c-2.209 0-4-1.789-4-4v-4c0-2.211 1.791-4 4-4s4 1.789 4 4v4c0 2.211-1.791 4-4 4z"/><path d="m158.004 104c-1.469 0-2.881-.809-3.582-2.211l-2.895-5.789h-11.055l-2.895 5.789c-.988 1.977-3.389 2.777-5.367 1.789-1.977-.988-2.777-3.391-1.789-5.367l4-8c.679-1.356 2.063-2.211 3.579-2.211h16c1.516 0 2.9.855 3.578 2.211l4 8c.988 1.977.188 4.379-1.789 5.367-.574.285-1.185.422-1.785.422z"/><path d="m150 84h-8c-2.209 0-4-1.789-4-4s1.791-4 4-4h8c2.209 0 4 1.789 4 4s-1.791 4-4 4z"/><path d="m150 72h-8c-2.209 0-4-1.789-4-4s1.791-4 4-4h8c2.209 0 4 1.789 4 4s-1.791 4-4 4z"/><path d="m150 212h-8c-2.209 0-4-1.789-4-4s1.791-4 4-4h8c2.209 0 4 1.789 4 4s-1.791 4-4 4z"/><path d="m50 176c-2.209 0-4-1.789-4-4v-8c0-2.211 1.791-4 4-4s4 1.789 4 4v8c0 2.211-1.791 4-4 4z"/><path d="m62 176c-2.209 0-4-1.789-4-4v-8c0-2.211 1.791-4 4-4s4 1.789 4 4v8c0 2.211-1.791 4-4 4z"/><path d="m74 176c-2.209 0-4-1.789-4-4v-8c0-2.211 1.791-4 4-4s4 1.789 4 4v8c0 2.211-1.791 4-4 4z"/><path d="m206 204c-2.209 0-4-1.789-4-4v-8c0-2.211 1.791-4 4-4s4 1.789 4 4v8c0 2.211-1.791 4-4 4z"/><path d="m218 204c-2.209 0-4-1.789-4-4v-8c0-2.211 1.791-4 4-4s4 1.789 4 4v8c0 2.211-1.791 4-4 4z"/><path d="m230 204c-2.209 0-4-1.789-4-4v-8c0-2.211 1.791-4 4-4s4 1.789 4 4v8c0 2.211-1.791 4-4 4z"/></g></g></svg>