<svg id="dragon-dinosaur" enable-background="new 0 0 300 300" height="512" viewBox="0 0 300 300" width="512" xmlns="http://www.w3.org/2000/svg"><g><circle cx="180" cy="112" fill="#fff4f1" r="86"/><g><circle cx="146" cy="158" fill="#6b4f5b" r="108"/><path d="m146 270c-61.758 0-112-50.242-112-112s50.242-112 112-112 112 50.242 112 112-50.242 112-112 112zm0-216c-57.348 0-104 46.652-104 104s46.652 104 104 104 104-46.652 104-104-46.652-104-104-104z" fill="#4c241d"/></g><circle cx="68" cy="52" fill="#4c241d" r="4.529"/><circle cx="256" cy="244" fill="#4c241d" r="4.529"/><path d="m251.656 63.656c-1.023 0-2.047-.391-2.828-1.172l-11.312-11.312c-1.562-1.562-1.562-4.094 0-5.656s4.094-1.562 5.656 0l11.312 11.312c1.562 1.562 1.562 4.094 0 5.656-.781.782-1.804 1.172-2.828 1.172z" fill="#4c241d"/><path d="m240.344 63.656c-1.023 0-2.047-.391-2.828-1.172-1.562-1.562-1.562-4.094 0-5.656l11.312-11.312c1.562-1.562 4.094-1.562 5.656 0s1.562 4.094 0 5.656l-11.312 11.312c-.781.782-1.805 1.172-2.828 1.172z" fill="#4c241d"/><g><path d="m198 63.334c-15.427-8.492-33.146-13.334-52-13.334s-36.573 4.842-52 13.334l-12 30.666 12 60h104l12-60z" fill="#e66353"/><path d="m198 158h-104c-1.906 0-3.547-1.348-3.922-3.215l-12-60c-.152-.75-.082-1.531.195-2.242l12-30.664c.344-.871.976-1.598 1.797-2.047 16.438-9.051 35.086-13.832 53.93-13.832s37.492 4.781 53.93 13.832c.82.449 1.453 1.176 1.797 2.047l12 30.664c.277.711.348 1.492.195 2.242l-12 60c-.375 1.867-2.016 3.215-3.922 3.215zm-100.723-8h97.445l11.125-55.633-11.039-28.211c-14.949-7.957-31.788-12.156-48.808-12.156s-33.859 4.199-48.809 12.156l-11.039 28.211z" fill="#4c241d"/></g><g><path d="m118.84 129.77c-21.767 6.385-36.84 20.207-36.84 36.23 0 11.183 7.375 21.269 19.22 28.522 3.682 2.254 6.272 5.927 6.883 10.202l1.231 8.617c.432 3.025 1.834 5.828 3.994 7.989l5.245 5.245c2.221 2.221 3.638 5.118 4.027 8.234l2.573 28.584c.472 3.775 3.681 6.608 7.485 6.608h13.342 13.341c3.804 0 7.013-2.833 7.485-6.608l2.573-28.584c.39-3.116 1.807-6.014 4.027-8.234l5.245-5.245c2.161-2.161 3.562-4.964 3.994-7.989l1.231-8.617c.611-4.274 3.2-7.947 6.883-10.202 11.846-7.253 19.221-17.339 19.221-28.522 0-14.986-13.185-28.046-32.699-34.898" fill="#e66353"/><path d="m159.34 274h-26.68c-5.812 0-10.738-4.348-11.453-10.117l-2.59-28.715c-.262-2.086-1.289-4.184-2.871-5.766l-5.246-5.246c-2.758-2.758-4.578-6.398-5.125-10.254l-1.234-8.613c-.426-2.984-2.25-5.664-5.008-7.355-13.629-8.344-21.133-19.684-21.133-31.934 0-17.262 15.59-32.988 39.715-40.07 2.133-.613 4.344.594 4.965 2.715.621 2.117-.594 4.34-2.715 4.965-20.633 6.054-33.965 18.769-33.965 32.39 0 9.359 6.148 18.277 17.309 25.113 4.797 2.934 7.988 7.691 8.754 13.043l1.234 8.617c.305 2.156 1.32 4.188 2.859 5.727l5.246 5.246c2.836 2.832 4.668 6.586 5.168 10.566l2.59 28.719c.203 1.637 1.715 2.969 3.5 2.969h26.68c1.785 0 3.297-1.332 3.516-3.102l2.559-28.449c.516-4.117 2.348-7.871 5.184-10.703l5.246-5.246c1.539-1.539 2.555-3.57 2.859-5.723l1.234-8.621c.766-5.352 3.957-10.109 8.758-13.043 11.156-6.836 17.304-15.754 17.304-25.113 0-12.695-11.504-24.621-30.023-31.125-2.086-.73-3.184-3.016-2.449-5.098.73-2.09 3.016-3.195 5.098-2.449 21.819 7.66 35.374 22.477 35.374 38.672 0 12.25-7.504 23.59-21.129 31.934-2.762 1.691-4.586 4.371-5.012 7.355l-1.234 8.617c-.547 3.852-2.367 7.492-5.125 10.25l-5.246 5.246c-1.582 1.582-2.609 3.68-2.887 5.902l-2.559 28.445c-.73 5.903-5.656 10.251-11.468 10.251z" fill="#4c241d"/></g><g fill="#4c241d"><path d="m182.004 174c-1.469 0-2.879-.809-3.582-2.211-.988-1.977-.188-4.379 1.789-5.367l8-4c1.973-.98 4.375-.188 5.367 1.789.988 1.977.188 4.379-1.789 5.367l-8 4c-.574.285-1.184.422-1.785.422z"/><path d="m166.004 197.035c-1.152 0-2.297-.496-3.09-1.453-1.848-2.238-8.402-4.617-16.914-4.617s-15.066 2.379-16.914 4.617c-1.406 1.695-3.926 1.938-5.633.539-1.703-1.406-1.945-3.93-.539-5.633 3.832-4.641 12.676-7.523 23.086-7.523s19.254 2.883 23.086 7.523c1.406 1.703 1.164 4.227-.539 5.633-.746.613-1.649.914-2.543.914z"/><path d="m154 206h-16c-2.211 0-4-1.789-4-4s1.789-4 4-4h16c2.211 0 4 1.789 4 4s-1.789 4-4 4z"/><path d="m138 242c-1.023 0-2.047-.391-2.828-1.172l-4-4c-1.562-1.562-1.562-4.094 0-5.656s4.094-1.562 5.656 0l4 4c1.562 1.562 1.562 4.094 0 5.656-.781.781-1.805 1.172-2.828 1.172z"/><path d="m154 242c-1.023 0-2.047-.391-2.828-1.172-1.562-1.562-1.562-4.094 0-5.656l4-4c1.562-1.562 4.094-1.562 5.656 0s1.562 4.094 0 5.656l-4 4c-.781.781-1.805 1.172-2.828 1.172z"/><path d="m150 218h-8c-2.211 0-4-1.789-4-4s1.789-4 4-4h8c2.211 0 4 1.789 4 4s-1.789 4-4 4z"/></g><g><path d="m162 138 20-48v52" fill="#fc8c29"/><path d="m182 146c-2.211 0-4-1.789-4-4v-32l-12.309 29.539c-.852 2.043-3.191 3.008-5.23 2.152-2.039-.848-3.004-3.191-2.152-5.23l20-48c.73-1.758 2.574-2.781 4.477-2.383 1.866.375 3.214 2.016 3.214 3.922v52c0 2.211-1.789 4-4 4z" fill="#4c241d"/></g><g><path d="m130 138-20-48v52" fill="#fc8c29"/><path d="m110 146c-2.211 0-4-1.789-4-4v-52c0-1.906 1.348-3.547 3.215-3.922 1.902-.398 3.746.625 4.477 2.383l20 48c.852 2.039-.113 4.383-2.152 5.23-2.031.852-4.379-.109-5.23-2.152l-12.31-29.539v32c0 2.211-1.789 4-4 4z" fill="#4c241d"/></g><path d="m162 174c-1.023 0-2.047-.391-2.828-1.172-1.562-1.562-1.562-4.094 0-5.656l16-16c.75-.75 1.766-1.172 2.828-1.172h40c2.211 0 4 1.789 4 4s-1.789 4-4 4h-38.344l-14.828 14.828c-.781.781-1.805 1.172-2.828 1.172z" fill="#4c241d"/><path d="m109.996 174c-.602 0-1.211-.137-1.785-.422l-8-4c-1.977-.988-2.777-3.391-1.789-5.367.992-1.977 3.391-2.77 5.367-1.789l8 4c1.977.988 2.777 3.391 1.789 5.367-.703 1.402-2.113 2.211-3.582 2.211z" fill="#4c241d"/><path d="m130 174c-1.023 0-2.047-.391-2.828-1.172l-14.828-14.828h-38.344c-2.211 0-4-1.789-4-4s1.789-4 4-4h40c1.062 0 2.078.422 2.828 1.172l16 16c1.562 1.562 1.562 4.094 0 5.656-.781.781-1.805 1.172-2.828 1.172z" fill="#4c241d"/><g><path d="m126 258 12-4h16l13.344 6.416" fill="#e66353"/><path d="m165.609 264.023-12.519-6.023h-14.441l-11.383 3.793-2.531-7.586 12-4c.41-.137.835-.207 1.265-.207h16c.602 0 1.191.137 1.734.395l13.344 6.418z" fill="#4c241d"/></g><path d="m154.004 106c-1.293 0-2.562-.625-3.332-1.781l-4.672-7.008-4.672 7.008c-1.227 1.836-3.707 2.328-5.547 1.109-1.84-1.227-2.336-3.707-1.109-5.547l8-12c1.484-2.227 5.172-2.227 6.656 0l8 12c1.227 1.84.73 4.32-1.109 5.547-.684.453-1.453.672-2.215.672z" fill="#4c241d"/><path d="m146 166c-1.336 0-2.586-.668-3.328-1.781l-8-12c-1.227-1.84-.73-4.32 1.109-5.547s4.32-.73 5.547 1.109l4.672 7.008 4.672-7.008c1.223-1.84 3.699-2.336 5.547-1.109 1.84 1.227 2.336 3.707 1.109 5.547l-8 12c-.742 1.113-1.992 1.781-3.328 1.781z" fill="#4c241d"/><path d="m154.004 130c-1.293 0-2.562-.625-3.332-1.781l-4.672-7.008-4.672 7.008c-1.227 1.836-3.707 2.328-5.547 1.109-1.84-1.227-2.336-3.707-1.109-5.547l8-12c1.484-2.227 5.172-2.227 6.656 0l8 12c1.227 1.84.73 4.32-1.109 5.547-.684.453-1.453.672-2.215.672z" fill="#4c241d"/><path d="m154.004 82c-1.293 0-2.562-.625-3.332-1.781l-4.672-7.008-4.672 7.008c-1.227 1.836-3.707 2.328-5.547 1.109-1.84-1.227-2.336-3.707-1.109-5.547l8-12c1.484-2.227 5.172-2.227 6.656 0l8 12c1.227 1.84.73 4.32-1.109 5.547-.684.453-1.453.672-2.215.672z" fill="#4c241d"/><g><path d="m138 58 8-16 8 16" fill="#e66353"/><path d="m154.004 62c-1.469 0-2.879-.809-3.582-2.211l-4.422-8.844-4.422 8.844c-.992 1.977-3.395 2.77-5.367 1.789-1.977-.988-2.777-3.391-1.789-5.367l8-16c1.359-2.711 5.797-2.711 7.156 0l8 16c.988 1.977.188 4.379-1.789 5.367-.574.285-1.184.422-1.785.422z" fill="#4c241d"/></g><path d="m142 162h8v24h-8z" fill="#4c241d"/></g></svg>