<svg id="fox" enable-background="new 0 0 300 300" height="512" viewBox="0 0 300 300" width="512" xmlns="http://www.w3.org/2000/svg"><g><circle cx="180" cy="114" fill="#fff4f1" r="86"/><g><circle cx="146" cy="160" fill="#eaeaea" r="108"/><path d="m146 272c-61.758 0-112-50.242-112-112s50.242-112 112-112 112 50.242 112 112-50.242 112-112 112zm0-216c-57.346 0-104 46.654-104 104s46.654 104 104 104 104-46.654 104-104-46.654-104-104-104z" fill="#4c241d"/></g><g fill="#4c241d"><circle cx="68" cy="54" r="4.529"/><circle cx="252" cy="242" r="4.529"/><path d="m251.656 65.656c-1.023 0-2.047-.391-2.828-1.172l-11.312-11.312c-1.562-1.562-1.562-4.094 0-5.656s4.094-1.562 5.656 0l11.312 11.312c1.562 1.562 1.562 4.094 0 5.656-.781.782-1.804 1.172-2.828 1.172z"/><path d="m240.344 65.656c-1.023 0-2.047-.391-2.828-1.172-1.562-1.562-1.562-4.094 0-5.656l11.312-11.312c1.562-1.562 4.094-1.562 5.656 0s1.562 4.094 0 5.656l-11.312 11.312c-.781.782-1.805 1.172-2.828 1.172z"/></g><g><path d="m98 160s-32-20-20-68c0 0 36 24 44 48" fill="#ffce56"/><path d="m97.99 164c-.721 0-1.451-.197-2.109-.607-.361-.227-8.908-5.652-15.824-17.357-6.312-10.682-12.465-28.895-5.938-55.006.316-1.262 1.225-2.291 2.438-2.76 1.217-.471 2.582-.314 3.662.402 1.518 1.012 37.238 25.049 45.576 50.062.699 2.096-.434 4.361-2.529 5.061-2.104.703-4.363-.436-5.061-2.529-5.777-17.332-27.732-35.156-37.586-42.48-7.375 40.221 18.363 57.1 19.514 57.83 1.859 1.182 2.42 3.648 1.246 5.514-.762 1.206-2.061 1.87-3.389 1.87z" fill="#4c241d"/></g><g><path d="m146 200c-22.091 0-40 18.804-40 42 0 7.296 1.777 14.154 4.893 20.133 11.011 3.784 22.812 5.867 35.107 5.867s24.096-2.083 35.107-5.867c3.116-5.979 4.893-12.837 4.893-20.133 0-23.196-17.909-42-40-42z" fill="#fc8c29"/><path d="m146 272c-12.406 0-24.656-2.047-36.406-6.084-.971-.334-1.775-1.025-2.248-1.936-3.498-6.71-5.346-14.31-5.346-21.98 0-25.365 19.738-46 44-46s44 20.635 44 46c0 7.67-1.848 15.27-5.346 21.98-.473.91-1.277 1.602-2.248 1.936-11.75 4.037-24 6.084-36.406 6.084zm-32.262-13.133c20.879 6.812 43.645 6.812 64.523 0 2.45-5.217 3.739-11.015 3.739-16.867 0-20.953-16.15-38-36-38s-36 17.047-36 38c0 5.852 1.289 11.65 3.738 16.867zm67.369 3.266h.039z" fill="#4c241d"/></g><g><path d="m146 240c-11.572 0-20.952 9.85-20.952 22 0 1.374.135 2.712.365 4.016 6.667 1.288 13.544 1.984 20.587 1.984s13.92-.696 20.587-1.984c.229-1.304.365-2.643.365-4.016 0-12.15-9.38-22-20.952-22z" fill="#ffce56"/><path d="m146 272c-7.104 0-14.287-.691-21.348-2.057-1.629-.314-2.893-1.604-3.18-3.236s-.426-3.172-.426-4.707c0-14.336 11.193-26 24.953-26s24.953 11.664 24.953 26c0 1.535-.139 3.074-.426 4.707s-1.551 2.922-3.18 3.236c-7.059 1.366-14.242 2.057-21.346 2.057zm20.588-5.984h.039zm-37.531-3.411c11.254 1.852 22.633 1.852 33.887 0 .006-.203.01-.404.01-.605 0-9.926-7.605-18-16.953-18s-16.953 8.074-16.953 18c-.001.201.003.402.009.605z" fill="#4c241d"/></g><g><path d="m195.307 160s30.693-20 18.693-68c0 0-34.693 24-42.693 48" fill="#ffce56"/><path d="m195.311 164c-1.307 0-2.588-.639-3.355-1.816-1.203-1.846-.686-4.318 1.154-5.527 1.102-.729 25.713-17.58 18.301-57.752-9.605 7.426-30.57 25.146-36.309 42.361-.697 2.094-2.957 3.232-5.061 2.529-2.096-.699-3.229-2.965-2.529-5.061 8.326-24.979 42.752-49.014 44.213-50.023 1.08-.746 2.457-.918 3.686-.453 1.229.463 2.152 1.498 2.471 2.771 12.547 50.189-19.039 71.441-20.391 72.322-.675.44-1.432.649-2.18.649z" fill="#4c241d"/></g><g><path d="m192.235 142.157c-1.949-4.982-4.804-9.422-8.326-13.171 7.44-20.752 30.091-36.986 30.091-36.986-15.019 3.004-34.546 19.539-43.342 27.59-5.171-2.307-10.847-3.59-16.746-3.59h-15.824c-5.899 0-11.575 1.283-16.746 3.59-8.796-8.051-28.323-24.586-43.342-27.59 0 0 22.651 16.234 30.09 36.986-3.522 3.749-6.376 8.189-8.326 13.171l-25.764 65.843 19.627 5.608c5.491 1.569 10.492 4.511 14.53 8.55 6.302 6.302 14.85 9.843 23.762 9.843h28.161c8.912 0 17.46-3.541 23.762-9.843 4.038-4.038 9.039-6.981 14.53-8.55l19.628-5.608z" fill="#fc8c29"/><path d="m160.08 236h-28.16c-10.045 0-19.488-3.912-26.59-11.016-3.551-3.549-7.979-6.152-12.801-7.531l-19.629-5.607c-1.082-.309-1.984-1.061-2.484-2.07s-.551-2.184-.141-3.232l25.766-65.844c1.793-4.584 4.289-8.791 7.436-12.541-7.686-18.333-27.598-32.759-27.807-32.907-1.531-1.098-2.09-3.117-1.34-4.846.752-1.729 2.607-2.697 4.455-2.328 14.723 2.943 32.799 17.389 43.369 26.852 5.123-1.945 10.471-2.93 15.934-2.93h15.824c5.463 0 10.811.984 15.934 2.93 10.57-9.463 28.646-23.908 43.369-26.852 1.857-.367 3.703.602 4.453 2.328s.193 3.744-1.336 4.844c-.209.15-20.137 14.625-27.809 32.908 3.146 3.75 5.643 7.957 7.436 12.541l25.766 65.844c.41 1.049.359 2.223-.141 3.232s-1.402 1.762-2.484 2.07l-19.627 5.607c-4.824 1.379-9.252 3.982-12.803 7.533-7.102 7.103-16.545 11.015-26.59 11.015zm-80.752-30.639 15.398 4.4c6.125 1.75 11.748 5.057 16.26 9.564 5.592 5.594 13.025 8.674 20.934 8.674h28.16c7.908 0 15.342-3.08 20.934-8.672 4.512-4.51 10.135-7.816 16.262-9.566l15.396-4.4-24.162-61.748c-1.732-4.424-4.26-8.424-7.516-11.889-1.027-1.094-1.355-2.674-.85-4.088 2.727-7.604 7.301-14.574 12.133-20.447-7.879 5.539-14.953 11.723-18.918 15.352-1.176 1.072-2.877 1.355-4.33.701-4.826-2.15-9.912-3.242-15.117-3.242h-15.824c-5.205 0-10.291 1.092-15.117 3.242-1.455.654-3.154.371-4.33-.701-3.965-3.629-11.039-9.812-18.918-15.352 4.832 5.873 9.406 12.844 12.133 20.447.506 1.414.178 2.994-.85 4.088-3.256 3.465-5.783 7.465-7.516 11.889z" fill="#4c241d"/></g><g><path d="m108.157 222.157c6.302 6.302 14.85 9.843 23.762 9.843h28.161c8.912 0 17.46-3.541 23.762-9.843 4.038-4.038 9.039-6.981 14.53-8.55l19.628-5.607-36-20-36 12-36-12-36 20 19.627 5.608c5.491 1.569 10.492 4.511 14.53 8.549z" fill="#fff"/><path d="m160.08 236h-28.16c-10.045 0-19.488-3.912-26.59-11.016-3.553-3.549-7.979-6.154-12.801-7.531l-19.629-5.607c-1.555-.443-2.689-1.781-2.875-3.389-.184-1.607.617-3.168 2.031-3.953l36-20c.984-.545 2.146-.652 3.209-.299l34.735 11.578 34.734-11.578c1.066-.35 2.229-.246 3.209.299l36 20c1.414.785 2.215 2.346 2.031 3.953-.186 1.607-1.32 2.945-2.875 3.389l-19.627 5.607c-4.824 1.379-9.252 3.982-12.803 7.533-7.101 7.102-16.544 11.014-26.589 11.014zm-75.695-29.193 10.342 2.955c6.125 1.75 11.748 5.057 16.26 9.564v.002c5.592 5.592 13.025 8.672 20.934 8.672h28.16c7.908 0 15.342-3.08 20.934-8.672 4.512-4.51 10.135-7.816 16.262-9.566l10.34-2.955-26.02-14.455-34.33 11.443c-.824.273-1.707.273-2.531 0l-34.33-11.443z" fill="#4c241d"/></g><g><path d="m150.172 204h-8.344c-1.621 0-3.06-.586-3.572-1.455l-4.376-7.419c-.813-1.378 1.002-2.801 3.572-2.801h17.095c2.57 0 4.385 1.423 3.572 2.801l-4.376 7.419c-.511.869-1.95 1.455-3.571 1.455z" fill="#6b4f5b"/><path d="m150.172 208h-8.344c-3.086 0-5.775-1.312-7.02-3.426l-4.373-7.416c-.984-1.666-1.002-3.66-.045-5.336 1.23-2.156 3.938-3.496 7.062-3.496h17.094c3.125 0 5.832 1.34 7.062 3.496.957 1.676.939 3.67-.047 5.34l-4.373 7.414c-1.241 2.112-3.93 3.424-7.016 3.424zm-8.797-8.041c.117.023.271.041.453.041h8.344c.182 0 .336-.018.453-.041l2.143-3.633h-13.535z" fill="#4c241d"/></g><path d="m146 220c-2.209 0-4-1.791-4-4v-12c0-2.209 1.791-4 4-4s4 1.791 4 4v12c0 2.209-1.791 4-4 4z" fill="#4c241d"/><circle cx="120" cy="170" fill="#4c241d" r="6"/><circle cx="172" cy="170" fill="#4c241d" r="6"/></g></svg>