<svg id="frog" enable-background="new 0 0 300 300" height="512" viewBox="0 0 300 300" width="512" xmlns="http://www.w3.org/2000/svg"><g><circle cx="180" cy="114" fill="#fff4f1" r="86"/><g><circle cx="146" cy="160" fill="#c1dbdc" r="108"/><path d="m146 272c-61.758 0-112-50.242-112-112s50.242-112 112-112 112 50.242 112 112-50.242 112-112 112zm0-216c-57.346 0-104 46.652-104 104s46.654 104 104 104 104-46.652 104-104-46.654-104-104-104z" fill="#4c241d"/></g><g><path d="m70 236.718c19.515 19.334 46.359 31.282 76 31.282s56.485-11.948 76-31.282l-8-56.718h-136z" fill="#a9ba5a"/><path d="m146 272c-29.707 0-57.697-11.52-78.814-32.441-.898-.887-1.322-2.148-1.146-3.398l8-56.719c.278-1.973 1.966-3.442 3.96-3.442h136c1.994 0 3.682 1.469 3.961 3.441l8 56.719c.176 1.25-.248 2.512-1.146 3.398-21.118 20.922-49.108 32.442-78.815 32.442zm-71.756-36.734c19.436 18.546 44.836 28.734 71.756 28.734s52.32-10.188 71.756-28.734l-7.231-51.266h-129.05z" fill="#4c241d"/></g><g fill="#4c241d"><circle cx="60" cy="46" r="4.529"/><circle cx="252" cy="242" r="4.529"/><circle cx="156" cy="242" r="4.529"/><path d="m251.656 65.656c-1.023 0-2.047-.391-2.828-1.172l-11.312-11.312c-1.562-1.562-1.562-4.094 0-5.656s4.094-1.562 5.656 0l11.312 11.312c1.562 1.562 1.562 4.094 0 5.656-.781.782-1.804 1.172-2.828 1.172z"/><path d="m240.344 65.656c-1.023 0-2.047-.391-2.828-1.172-1.562-1.562-1.562-4.094 0-5.656l11.312-11.312c1.562-1.562 4.094-1.562 5.656 0s1.562 4.094 0 5.656l-11.312 11.312c-.781.782-1.805 1.172-2.828 1.172z"/></g><g><path d="m210.696 160.042c4.514-4.677 7.304-11.029 7.304-18.042 0-14.359-11.641-26-26-26-14.198 0-25.718 11.386-25.976 25.522-6.389-.963-13.082-1.522-20.024-1.522s-13.635.559-20.024 1.522c-.258-14.136-11.778-25.522-25.976-25.522-14.359 0-26 11.641-26 26 0 7.013 2.79 13.365 7.304 18.042-7.123 6.395-11.304 13.897-11.304 21.958 0 23.196 34.026 42 76 42s76-18.804 76-42c0-8.061-4.181-15.563-11.304-21.958z" fill="#a9ba5a"/><path d="m146 228c-44.859 0-80-20.207-80-46 0-7.832 3.389-15.453 9.844-22.23-3.791-5.129-5.844-11.313-5.844-17.77 0-16.543 13.457-30 30-30 14.721 0 27.15 10.867 29.559 25 11.016-1.328 21.867-1.328 32.883 0 2.408-14.133 14.838-25 29.559-25 16.543 0 30 13.457 30 30 0 6.457-2.053 12.641-5.844 17.77 6.454 6.777 9.843 14.398 9.843 22.23 0 25.793-35.141 46-80 46zm-46-108c-12.131 0-22 9.871-22 22 0 5.715 2.195 11.137 6.182 15.266.754.781 1.16 1.836 1.121 2.918-.039 1.086-.518 2.109-1.326 2.836-4.551 4.085-9.977 10.695-9.977 18.98 0 20.598 32.973 38 72 38s72-17.402 72-38c0-8.285-5.426-14.895-9.977-18.98-.809-.727-1.287-1.75-1.326-2.836-.039-1.082.367-2.137 1.121-2.918 3.987-4.129 6.182-9.551 6.182-15.266 0-12.129-9.869-22-22-22-11.9 0-21.76 9.688-21.977 21.598-.021 1.152-.539 2.238-1.42 2.98-.881.746-2.041 1.062-3.178.902-12.992-1.969-25.859-1.969-38.852 0-1.133.164-2.295-.156-3.178-.902-.881-.742-1.398-1.828-1.42-2.98-.215-11.91-10.075-21.598-21.975-21.598z" fill="#4c241d"/></g><g><path d="m179.299 136.103c-.834 1.792-1.299 3.79-1.299 5.897 0 7.732 6.268 14 14 14s14-6.268 14-14c0-1.61-.272-3.157-.772-4.597" fill="#fff"/><path d="m192 160c-9.926 0-18-8.074-18-18 0-2.648.562-5.199 1.672-7.586.932-2.004 3.316-2.859 5.314-1.938 2.002.93 2.871 3.309 1.939 5.312-.615 1.32-.926 2.738-.926 4.211 0 5.516 4.486 10 10 10s10-4.484 10-10c0-1.129-.186-2.234-.551-3.285-.725-2.09.381-4.367 2.469-5.09 2.076-.734 4.365.379 5.09 2.465.658 1.898.992 3.887.992 5.91.001 9.927-8.073 18.001-17.999 18.001z" fill="#4c241d"/></g><g><path d="m87.1 136.551c-.708 1.675-1.1 3.516-1.1 5.449 0 7.732 6.268 14 14 14s14-6.268 14-14c0-1.88-.371-3.674-1.043-5.312" fill="#fff"/><path d="m100 160c-9.926 0-18-8.074-18-18 0-2.422.477-4.781 1.414-7.004.857-2.035 3.201-2.992 5.24-2.129 2.035.855 2.99 3.203 2.131 5.238-.521 1.235-.785 2.547-.785 3.895 0 5.516 4.486 10 10 10s10-4.484 10-10c0-1.316-.25-2.594-.744-3.793-.838-2.043.139-4.383 2.182-5.219 2.047-.852 4.383.137 5.221 2.18.89 2.172 1.341 4.469 1.341 6.832 0 9.926-8.074 18-18 18z" fill="#4c241d"/></g><path d="m215.736 169.273c-1.184 0-2.357-.523-3.146-1.527-3.268-4.156-7.867-7.965-13.674-11.316-1.914-1.105-2.568-3.551-1.463-5.465 1.102-1.922 3.555-2.57 5.463-1.465 6.693 3.867 12.062 8.34 15.963 13.301 1.365 1.738 1.064 4.25-.672 5.617-.732.578-1.605.855-2.471.855z" fill="#4c241d"/><path d="m72.535 175.199c-.582 0-1.172-.125-1.73-.395-1.99-.957-2.83-3.348-1.873-5.336 3.615-7.527 10.568-14.422 20.111-19.941 1.908-1.109 4.355-.453 5.465 1.457 1.105 1.914.453 4.359-1.459 5.465-8.145 4.711-13.99 10.41-16.906 16.48-.688 1.434-2.12 2.27-3.608 2.27z" fill="#4c241d"/><path d="m154 188c-2.209 0-4-1.789-4-4v-8c0-2.211 1.791-4 4-4s4 1.789 4 4v8c0 2.211-1.791 4-4 4z" fill="#4c241d"/><path d="m138 188c-2.209 0-4-1.789-4-4v-8c0-2.211 1.791-4 4-4s4 1.789 4 4v8c0 2.211-1.791 4-4 4z" fill="#4c241d"/><g><path d="m93.865 212.505c13.613 7.107 31.928 11.495 52.135 11.495 19.751 0 37.684-4.199 51.198-11.025-2.476-.516-4.99-1.174-7.568-2.112-38.47-13.989-40.569-17.486-80.438-3.497-5.526 1.939-10.471 3.983-15.327 5.139z" fill="#ffce56"/><path d="m146 228c-20.057 0-39.23-4.242-53.986-11.949-1.48-.773-2.324-2.383-2.117-4.039.205-1.656 1.418-3.012 3.043-3.398 3.307-.789 6.797-2.066 10.492-3.418 1.441-.531 2.918-1.07 4.439-1.602 36.73-12.895 42.92-11.355 73.934.129 2.824 1.047 5.873 2.176 9.193 3.383 2.145.777 4.439 1.418 7.016 1.953 1.666.348 2.93 1.711 3.15 3.395.223 1.688-.645 3.328-2.162 4.094-14.627 7.386-33.449 11.452-53.002 11.452zm-40.916-14.891c12.006 4.477 26.174 6.891 40.916 6.891 14.123 0 27.781-2.234 39.498-6.387-2.285-.84-4.436-1.637-6.471-2.391-29.643-10.969-33.455-12.387-68.51-.082-1.484.523-2.928 1.051-4.336 1.566-.367.134-.732.271-1.097.403z" fill="#4c241d"/></g><path d="m74 132h52v8h-52z" fill="#4c241d"/><path d="m166 132h52v8h-52z" fill="#4c241d"/><circle cx="102" cy="140" fill="#4c241d" r="4"/><circle cx="190" cy="140" fill="#4c241d" r="4"/><g><path d="m190 232c-4.418 0-8 3.582-8 8s3.582 8 8 8 8-3.582 8-8" fill="#ffce56"/><path d="m190 252c-6.617 0-12-5.383-12-12s5.383-12 12-12c2.209 0 4 1.789 4 4s-1.791 4-4 4c-2.205 0-4 1.793-4 4s1.795 4 4 4 4-1.793 4-4c0-2.211 1.791-4 4-4s4 1.789 4 4c0 6.617-5.383 12-12 12z" fill="#4c241d"/></g><g><path d="m122 252c-5.908 0-10.792 4.279-11.788 9.901 7.424 2.609 15.218 4.423 23.284 5.354.295-1.042.504-2.12.504-3.256 0-6.626-5.373-11.999-12-11.999z" fill="#ffce56"/><path d="m133.5 271.258c-.154 0-.309-.008-.463-.027-8.256-.953-16.381-2.824-24.152-5.555-1.848-.648-2.955-2.543-2.613-4.473 1.355-7.648 7.97-13.203 15.728-13.203 8.822 0 16 7.176 16 16 0 1.387-.209 2.766-.654 4.348-.492 1.738-2.078 2.91-3.846 2.91zm-18.039-11.84c4.709 1.445 9.541 2.555 14.439 3.316-.609-3.812-3.92-6.734-7.9-6.734-2.68 0-5.088 1.332-6.539 3.418z" fill="#4c241d"/></g><g><circle cx="90" cy="228" fill="#a9ba5a" r="4"/><path d="m90 236c-4.412 0-8-3.59-8-8s3.588-8 8-8 8 3.59 8 8-3.588 8-8 8zm0-8h.039zm0 0h.039zm0 0h.039zm0 0h.039zm0-.004h.039zm0 0h.039zm0 0h.039zm0 0h.039z" fill="#4c241d"/></g></g></svg>