<svg id="bat" enable-background="new 0 0 300 300" height="512" viewBox="0 0 300 300" width="512" xmlns="http://www.w3.org/2000/svg"><g><circle cx="168" cy="114" fill="#fff4f1" r="86"/><g><circle cx="134" cy="160" fill="#6b4f5b" r="108"/><path d="m134 272c-61.758 0-112-50.242-112-112s50.242-112 112-112 112 50.242 112 112-50.242 112-112 112zm0-216c-57.347 0-104 46.654-104 104s46.652 104 104 104 104-46.654 104-104-46.652-104-104-104z" fill="#4c241d"/></g><circle cx="56" cy="54" fill="#4c241d" r="4.529"/><circle cx="240" cy="242" fill="#4c241d" r="4.529"/><path d="m239.657 65.656c-1.023 0-2.047-.391-2.828-1.172l-11.312-11.312c-1.562-1.562-1.562-4.094 0-5.656s4.094-1.562 5.656 0l11.312 11.312c1.562 1.562 1.562 4.094 0 5.656-.782.782-1.805 1.172-2.828 1.172z" fill="#4c241d"/><path d="m228.344 65.656c-1.023 0-2.047-.391-2.828-1.172-1.562-1.562-1.562-4.094 0-5.656l11.312-11.312c1.562-1.562 4.094-1.562 5.656 0s1.562 4.094 0 5.656l-11.312 11.312c-.781.782-1.805 1.172-2.828 1.172z" fill="#4c241d"/><g><path d="m134 171.366c-9.922-8.477-57.504-43.711-104-14.123 0 0 31.866-2.451 36.768 31.866 0 0 34.317 0 29.415 34.317 0 0 12.603-14.239 37.817-10.037" fill="#bd53b5"/><path d="m96.184 227.414c-.574 0-1.152-.123-1.691-.377-1.594-.748-2.516-2.438-2.27-4.178 1.281-8.959-.254-16.033-4.562-21.027-7.383-8.555-20.766-8.723-20.902-8.723-1.98-.01-3.668-1.471-3.949-3.434-4.293-30.082-31.348-28.514-32.516-28.443-1.836.145-3.512-1-4.086-2.736-.574-1.738.102-3.645 1.645-4.627 51.16-32.553 103 9.551 108.746 14.457 1.68 1.436 1.879 3.961.441 5.639-1.434 1.686-3.961 1.877-5.637.443-4.871-4.162-45.754-37.42-88.395-19.496 10.195 2.859 23.172 10.457 27.172 30.426 5.469.617 16.262 2.883 23.492 11.217 4.266 4.922 6.59 11.094 6.945 18.42 6.75-4.016 18.105-8.189 34.039-5.529 2.18.363 3.652 2.424 3.289 4.604-.359 2.178-2.43 3.641-4.602 3.287-22.527-3.744-33.715 8.244-34.18 8.758-.78.858-1.87 1.319-2.979 1.319z" fill="#4c241d"/></g><path d="m70.438 190.705-7.336-3.191c11.973-27.502 54.406-27.559 56.148-27.525l-.055 8c-.39-.046-38.89.048-48.757 22.716z" fill="#4c241d"/><path d="m102.242 220.076-7.93-1.066c4.25-31.641 27.23-51.951 28.207-52.801l5.254 6.031c-.214.19-21.695 19.262-25.531 47.836z" fill="#4c241d"/><g><path d="m171.008 171.494c9.826-8.395 56.947-43.287 102.992-13.986 0 0-31.557-2.427-36.412 31.557 0 0-33.984 0-29.13 33.984 0 0-12.481-14.101-37.451-9.939" fill="#bd53b5"/><path d="m208.457 227.049c-1.117 0-2.219-.471-2.996-1.35-.441-.486-11.48-12.354-33.797-8.645-2.184.369-4.242-1.109-4.602-3.287-.363-2.18 1.109-4.24 3.289-4.604 15.762-2.619 26.984 1.48 33.68 5.449.363-7.236 2.668-13.334 6.887-18.201 7.156-8.248 17.832-10.502 23.262-11.117 3.953-19.701 16.734-27.246 26.82-30.104-42.164-17.631-82.574 15.23-87.395 19.344-1.676 1.434-4.199 1.242-5.641-.443-1.434-1.678-1.234-4.203.445-5.639 5.691-4.859 57.039-46.574 107.738-14.32 1.547.986 2.227 2.898 1.645 4.641-.582 1.744-2.27 2.885-4.102 2.723-1.086-.076-27.895-1.623-32.141 28.133-.281 1.971-1.969 3.436-3.961 3.436-.121 0-13.359.166-20.66 8.625-4.258 4.938-5.777 11.934-4.512 20.795.25 1.748-.68 3.453-2.281 4.195-.537.248-1.111.369-1.678.369z" fill="#4c241d"/></g><path d="m233.832 191.168c-9.867-22.664-48.348-22.555-48.762-22.717l-.055-8c1.777.043 44.18.021 56.152 27.525z" fill="#4c241d"/><path d="m202.028 220.539c-3.84-28.574-25.316-47.648-25.531-47.838l5.254-6.031c.977.85 23.953 21.162 28.207 52.803z" fill="#4c241d"/><g><path d="m183.634 145.012c-12.563 3.856-12.867 11.823-13.907 17.391-.386 2.065-1.321 3.572-2.344 4.656-3.206-1.897-6.9-3.059-10.895-3.059h-8.977c-3.7 0-7.129 1.02-10.17 2.666-.891-1.051-1.684-2.419-2.029-4.263-1.04-5.568-1.344-13.535-13.907-17.391 0 0-9.443 12.848-4.114 22.357 2.877 5.135 7.338 7.685 10.84 8.956-1.329 2.795-2.132 5.886-2.132 9.187v39.148c0 6.263 5.077 11.34 11.34 11.34h29.32c6.263 0 11.34-5.077 11.34-11.34v-39.148c0-3.178-.731-6.171-1.969-8.886 3.603-1.149 8.592-3.681 11.717-9.257 5.33-9.509-4.113-22.357-4.113-22.357z" fill="#bd53b5"/><path d="m166.66 240h-29.32c-8.457 0-15.34-6.881-15.34-15.34v-39.148c0-2.395.352-4.771 1.051-7.102-3.941-2.16-7.102-5.25-9.246-9.086-6.516-11.623 3.93-26.072 4.379-26.682 1.004-1.371 2.766-1.959 4.395-1.455 13.902 4.266 15.488 13.582 16.434 19.146l.195 1.123c2.703-.969 5.484-1.457 8.305-1.457h8.977c3.145 0 6.293.621 9.277 1.814.012-.049.02-.098.027-.148l.234-1.332c.945-5.564 2.531-14.881 16.434-19.146 1.617-.504 3.387.084 4.395 1.455.449.609 10.898 15.059 4.379 26.684-2.715 4.848-6.574 7.781-10.137 9.553.602 2.172.902 4.391.902 6.633v39.148c-.001 8.459-6.884 15.34-15.341 15.34zm-43.605-90.127c-2.285 4.066-4.914 10.822-2.273 15.541 1.863 3.324 4.793 5.729 8.715 7.148 1.059.385 1.906 1.199 2.336 2.242.43 1.041.398 2.217-.086 3.234-1.16 2.441-1.746 4.955-1.746 7.473v39.148c0 4.047 3.293 7.34 7.34 7.34h29.32c4.047 0 7.34-3.293 7.34-7.34v-39.148c0-2.455-.543-4.887-1.609-7.227-.473-1.041-.48-2.234-.016-3.281.461-1.045 1.352-1.842 2.441-2.189 2.941-.939 6.969-2.984 9.438-7.398 2.648-4.719.02-11.475-2.27-15.543-6.555 2.893-7.293 7.234-8.07 11.803l-.254 1.461c-.48 2.566-1.613 4.811-3.367 6.668-1.285 1.365-3.336 1.652-4.949.695-2.801-1.658-5.781-2.5-8.855-2.5h-8.977c-2.809 0-5.59.734-8.27 2.184-1.664.9-3.73.512-4.953-.932-1.504-1.773-2.484-3.832-2.91-6.117l-.254-1.459c-.778-4.569-1.516-8.91-8.071-11.803z" fill="#4c241d"/></g><g fill="#4c241d"><path d="m154 220h-4c-7.441 0-13.715-5.107-15.492-12h-8.508v-8h12c2.211 0 4 1.791 4 4 0 4.412 3.59 8 8 8h4c4.41 0 8-3.588 8-8v-.998c0-2.188 1.758-3.969 3.945-4l12-.168.109 8-8.328.115c-1.386 7.42-7.909 13.051-15.726 13.051z"/><circle cx="146" cy="200" r="4"/><circle cx="158" cy="200" r="4"/><path d="m158 192.002c-1.566 0-3.055-.93-3.695-2.469-.848-2.041.121-4.381 2.164-5.229l4.977-2.064c2.035-.838 4.375.121 5.227 2.162.848 2.041-.121 4.381-2.164 5.229l-4.977 2.064c-.5.207-1.02.307-1.532.307z"/><path d="m145.981 192.002c-.512 0-1.031-.1-1.531-.307l-4.977-2.064c-2.043-.848-3.012-3.188-2.164-5.229s3.199-3.002 5.227-2.162l4.977 2.064c2.043.848 3.012 3.188 2.164 5.229-.642 1.539-2.13 2.469-3.696 2.469z"/></g><g><path d="m101.815 97.875-1.577-1.711c-2.492-2.703-6.703-2.874-9.406-.382s-2.874 6.703-.382 9.406l1.577 1.711c-5.902.223-27.746 2.69-34.142 26.801 0 0 9.852-10.591 22.011-.676 0 0 11.42-10.528 20.316 2.396 0 0 8.412-13.791 22.202-5.379-7.265-14.428 7.163-21.693 7.163-21.693-12.159-9.916-.739-20.444-.739-20.444-8.896-12.924 2.46-21.884 2.46-21.884-24.55 4.418-28.782 25.99-29.483 31.855z" fill="#bd53b5"/><path d="m100.215 139.41c-1.312 0-2.551-.637-3.301-1.723-1.938-2.82-4.09-4.389-6.391-4.66-4.102-.479-7.895 2.918-7.934 2.953-1.469 1.322-3.699 1.389-5.223.143-9.156-7.465-16.258-.02-16.555.301-1.25 1.346-3.254 1.662-4.863.777-1.605-.887-2.402-2.754-1.934-4.527 4.762-17.934 18.199-26.486 31.105-28.992-1.102-3.766-.074-8.006 3-10.842 3.07-2.834 7.379-3.52 11.047-2.109 3.543-12.66 13.156-25.361 31.422-28.648 1.781-.322 3.602.621 4.355 2.295s.27 3.646-1.172 4.783c-.832.676-8.133 7.045-1.641 16.477 1.129 1.639.883 3.859-.582 5.209-.02.02-3.719 3.561-3.57 7.65.082 2.316 1.473 4.588 4.125 6.752 1.051.855 1.598 2.188 1.449 3.533-.148 1.348-.969 2.529-2.176 3.139-1.789.926-10.535 6.107-5.391 16.322.801 1.596.449 3.529-.863 4.74-1.316 1.211-3.273 1.402-4.793.473-9.746-5.945-15.637 2.344-16.719 4.066-.715 1.143-1.961 1.857-3.309 1.887-.027.001-.055.001-.086.001zm-10.508-14.43c.547 0 1.102.029 1.668.092 3.227.361 6.156 1.746 8.746 4.127 3.691-3.627 9.363-6.811 16.316-5.686-.309-4.33.906-8.473 3.629-12.121 1.07-1.438 2.246-2.633 3.352-3.596-2.184-2.787-3.336-5.834-3.438-9.096-.145-4.83 2.094-8.807 3.922-11.229-2.789-5.264-2.949-10.113-1.859-14.17-12.973 6.84-15.699 20.383-16.254 25.045-.188 1.551-1.254 2.852-2.742 3.332-1.465.482-3.109.057-4.172-1.092l-1.578-1.711c-.996-1.082-2.68-1.15-3.754-.154-1.078.992-1.145 2.676-.152 3.754l1.578 1.709c1.059 1.148 1.352 2.807.754 4.248-.602 1.441-1.984 2.402-3.543 2.463-4.695.176-18.414 1.799-26.285 14.168 4.141-.762 8.949-.201 13.973 3.004 2.261-1.434 5.753-3.087 9.839-3.087z" fill="#4c241d"/></g><path d="m181.028 104.258c-.348-2.824-1.215-4.072-1.863-4.387-.605-.293-1.641-.057-2.836.66-1.16.703-2.609.775-3.824.184-1.223-.592-2.07-1.754-2.234-3.1-.305-2.449-1.129-3.689-1.797-4.033-.781-.4-2.043.193-2.547.469l-1.316.719c-1.938 1.057-4.371.346-5.43-1.596-1.059-1.939-.344-4.369 1.594-5.428l1.32-.721c3.48-1.895 7.043-2.096 10.035-.559 2.117 1.088 3.766 2.955 4.836 5.424 2.027-.332 3.945-.064 5.691.781 3.426 1.664 5.656 5.307 6.27 10.258l-3.927.858z" fill="#4c241d"/><path d="m193.028 136.258c-.348-2.824-1.215-4.072-1.863-4.387-.605-.293-1.641-.057-2.836.66-1.16.703-2.609.775-3.824.184-1.223-.592-2.07-1.754-2.234-3.1-.305-2.449-1.129-3.689-1.797-4.033-.777-.402-2.043.193-2.547.469l-1.316.719c-1.938 1.055-4.371.346-5.43-1.596-1.059-1.939-.344-4.369 1.594-5.428l1.32-.721c3.48-1.893 7.047-2.096 10.035-.559 2.117 1.088 3.766 2.955 4.836 5.424 2.035-.33 3.945-.062 5.691.781 3.426 1.664 5.656 5.307 6.27 10.258l-3.927.858z" fill="#4c241d"/></g></svg>