<svg id="goat" enable-background="new 0 0 300 300" height="512" viewBox="0 0 300 300" width="512" xmlns="http://www.w3.org/2000/svg"><g><circle cx="180" cy="114" fill="#fff4f1" r="86"/><g><circle cx="146" cy="160" fill="#a9ba5a" r="108"/><path d="m146 272c-61.758 0-112-50.242-112-112s50.242-112 112-112 112 50.242 112 112-50.242 112-112 112zm0-216c-57.346 0-104 46.652-104 104s46.654 104 104 104 104-46.652 104-104-46.654-104-104-104z" fill="#4c241d"/></g><g><path d="m186 203.056v-51.056h-80v51.056c0 5.882-1.369 11.683-4 16.944s-4 11.062-4 16.944v19.803c14.463 7.19 30.753 11.253 48 11.253s33.537-4.063 48-11.253v-19.803c0-5.882-1.369-11.683-4-16.944s-4-11.062-4-16.944z" fill="#fff"/><path d="m146 272c-17.455 0-34.205-3.926-49.781-11.672-1.359-.676-2.219-2.062-2.219-3.582v-19.801c0-6.469 1.529-12.949 4.422-18.734 2.342-4.68 3.578-9.922 3.578-15.156v-51.055c0-2.211 1.791-4 4-4h80c2.209 0 4 1.789 4 4v51.055c0 5.234 1.236 10.477 3.578 15.156 2.893 5.785 4.422 12.266 4.422 18.734v19.801c0 1.52-.859 2.906-2.219 3.582-15.576 7.746-32.326 11.672-49.781 11.672zm-44-17.766c13.828 6.48 28.617 9.766 44 9.766s30.172-3.285 44-9.766v-17.289c0-5.234-1.236-10.477-3.578-15.156-2.893-5.785-4.422-12.266-4.422-18.734v-47.055h-72v47.055c0 6.469-1.529 12.949-4.422 18.734-2.342 4.68-3.578 9.922-3.578 15.156zm92 2.512h.039z" fill="#4c241d"/></g><g><path d="m181.68 133.5s5.531 2.346 10.536-1.76 11.13-10.852 24.956-4.986c0 0-1.189 18.184-12.844 22.584s-21.597-2.933-21.597-2.933" fill="#fff"/><path d="m196.629 154.75c-9.186 0-15.906-4.855-16.271-5.125-1.777-1.312-2.156-3.816-.844-5.594 1.309-1.777 3.812-2.16 5.594-.844.322.234 8.414 5.961 17.807 2.406 6.594-2.488 9.031-11.508 9.867-16.207-8.461-2.672-12.492.762-16.734 4.359l-1.293 1.086c-5.43 4.457-11.758 3.574-14.637 2.352-2.033-.863-2.982-3.211-2.119-5.246.855-2.02 3.18-2.977 5.199-2.137.391.148 3.553 1.246 6.482-1.152l1.193-1.004c5.133-4.352 12.887-10.926 27.861-4.574 1.566.664 2.539 2.246 2.43 3.945-.057.848-1.516 20.816-15.424 26.062-3.195 1.208-6.271 1.673-9.111 1.673z" fill="#4c241d"/></g><g><path d="m109.172 133.5s-5.531 2.346-10.536-1.76-11.13-10.852-24.956-4.986c0 0 1.189 18.184 12.844 22.584s21.597-2.933 21.597-2.933" fill="#fff"/><path d="m94.225 154.75c-2.84 0-5.916-.465-9.113-1.672-13.906-5.246-15.367-25.215-15.424-26.062-.109-1.699.863-3.281 2.43-3.945 14.977-6.352 22.727.219 27.859 4.57l1.197 1.004c3.047 2.504 6.4 1.184 6.436 1.172 2.033-.855 4.383.09 5.244 2.121.863 2.031-.084 4.383-2.119 5.246-2.883 1.223-9.205 2.109-14.635-2.355l-1.295-1.082c-4.25-3.605-8.285-7.027-16.762-4.352.941 5.352 3.686 13.855 9.895 16.199 9.391 3.547 17.486-2.172 17.826-2.418 1.783-1.285 4.283-.898 5.58.879s.924 4.266-.848 5.57c-.365.27-7.086 5.125-16.271 5.125z" fill="#4c241d"/></g><g fill="#4c241d"><circle cx="60" cy="46" r="4.529"/><circle cx="252" cy="242" r="4.529"/><path d="m251.656 65.656c-1.023 0-2.047-.391-2.828-1.172l-11.312-11.312c-1.562-1.562-1.562-4.094 0-5.656s4.094-1.562 5.656 0l11.312 11.312c1.562 1.562 1.562 4.094 0 5.656-.781.782-1.804 1.172-2.828 1.172z"/><path d="m240.344 65.656c-1.023 0-2.047-.391-2.828-1.172-1.562-1.562-1.562-4.094 0-5.656l11.312-11.312c1.562-1.562 4.094-1.562 5.656 0s1.562 4.094 0 5.656l-11.312 11.312c-.781.782-1.805 1.172-2.828 1.172z"/></g><g><path d="m106 148.832v10.204c0 7.475 3.534 14.752 9.906 18.563 6.26 3.745 10.094 10.541 10.094 17.879v20.522h40v-20.409c0-7.33 3.791-14.129 10-17.935l.185-.114c6.094-3.735 9.815-10.408 9.815-17.603v-11.106c0-18.131-14.565-32.83-32.534-32.832l-14.925-.001c-17.972-.002-32.541 14.698-32.541 32.832z" fill="#fff"/><path d="m166 220h-40c-2.209 0-4-1.789-4-4v-20.523c0-5.902-3.121-11.438-8.148-14.445-7.309-4.372-11.852-12.802-11.852-21.997v-10.203c0-20.309 16.393-36.832 36.541-36.832h14.926c20.144.004 36.533 16.527 36.533 36.832v11.109c0 8.527-4.492 16.582-11.725 21.012-5.175 3.172-8.275 8.738-8.275 14.637v20.41c0 2.211-1.791 4-4 4zm-36-8h32v-16.41c0-8.664 4.564-16.844 11.91-21.344 5.061-3.102 8.09-8.539 8.09-14.305v-11.109c0-15.895-12.801-28.828-28.533-28.832h-14.926c-15.738 0-28.541 12.934-28.541 28.832v10.203c0 6.398 3.049 12.195 7.959 15.129 7.428 4.445 12.041 12.613 12.041 21.312z" fill="#4c241d"/></g><g><path d="m170 156h-1.917c-7.778 0-14.083 6.305-14.083 14.083v12.372c-.867 13.11 12.867 19.482 12 32.592.382 16.084-18.294 12.809-28.486 12.953-6.359 0-11.514-5.8-11.514-12.954-.866-13.11 12-19.046 12-32.592v-12.371c0-7.778-6.305-14.083-14.083-14.083h-1.917" fill="#fff"/><path d="m147.383 232.184c-1.762 0-3.492-.055-5.141-.102-1.672-.051-3.262-.102-4.672-.082-8.611 0-15.57-7.605-15.57-16.953-.52-7.719 3.191-13.465 6.465-18.535 2.848-4.41 5.535-8.574 5.535-14.059v-12.371c0-5.559-4.523-10.082-10.082-10.082h-1.918c-2.209 0-4-1.789-4-4s1.791-4 4-4h1.918c9.971 0 18.082 8.113 18.082 18.082v12.371c0 7.844-3.619 13.449-6.814 18.398-2.977 4.609-5.547 8.59-5.193 13.93.008 5.203 3.379 9.219 7.521 9.219 1.455-.023 3.168.027 4.971.086 6.377.184 14.299.434 17.641-2.883 1.328-1.32 1.941-3.305 1.877-6.062.352-5.566-2.285-9.562-5.34-14.188-3.363-5.094-7.176-10.863-6.654-18.766l-.009-12.105c0-9.969 8.111-18.082 18.082-18.082h1.918c2.209 0 4 1.789 4 4s-1.791 4-4 4h-1.918c-5.559 0-10.082 4.523-10.082 10.082v12.371c-.354 5.473 2.283 9.469 5.338 14.094 3.363 5.094 7.176 10.863 6.654 18.766.125 4.645-1.301 8.656-4.23 11.566-4.576 4.543-11.692 5.305-18.379 5.305z" fill="#4c241d"/></g><path d="m142 200h8v12h-8z" fill="#4c241d"/><circle cx="122" cy="168" fill="#4c241d" r="4"/><circle cx="170" cy="168" fill="#4c241d" r="4"/><path d="m150 204h-8c-2.209 0-4-1.789-4-4s1.791-4 4-4h8c2.209 0 4 1.789 4 4s-1.791 4-4 4z" fill="#4c241d"/><g><path d="m146 252-12-24h24z" fill="#d6d6d6"/><path d="m146 256c-1.516 0-2.9-.855-3.578-2.211l-12-24c-.619-1.238-.553-2.711.176-3.891s2.015-1.898 3.402-1.898h24c1.387 0 2.674.719 3.402 1.898s.795 2.652.176 3.891l-12 24c-.678 1.356-2.062 2.211-3.578 2.211zm-5.527-24 5.527 11.055 5.527-11.055z" fill="#4c241d"/></g><path d="m146 220c-.613 0-1.227-.141-1.789-.422l-8-4c-1.977-.988-2.777-3.391-1.789-5.367s3.389-2.773 5.367-1.789l6.215 3.109 6.09-3.035c1.975-.992 4.379-.18 5.363 1.801.984 1.977.18 4.379-1.797 5.363l-7.877 3.922c-.562.277-1.172.418-1.783.418z" fill="#4c241d"/><path d="" style="fill:#fff;stroke:#4c241d;stroke-width:8;stroke-linecap:round;stroke-linejoin:round;stroke-miterlimit:10"/><g><path d="m120.732 136c-.165-6.617-2.163-17.518-3.856-24.541-1.784-7.107-4.096-14.195-7.636-20.597-3.498-6.417-8.022-12.289-13.828-16.999-5.916-4.572-13.162-7.329-20.92-8.793 7.803-.187 15.985.954 23.509 4.575 7.385 3.728 13.721 9.401 19.381 15.588 12.137 13.267 20.618 29.626 20.618 50.767" fill="#eaeaea"/><path d="m120.73 140c-2.162 0-3.941-1.727-3.996-3.898-.15-5.984-2-16.453-3.748-23.703-2.031-8.098-4.336-14.336-7.248-19.598-3.51-6.441-7.828-11.758-12.848-15.832-4.925-3.805-11.39-6.504-19.14-7.969-2.012-.379-3.41-2.215-3.244-4.254s1.844-3.625 3.891-3.676c9.514-.188 18.018 1.445 25.338 4.969 7.012 3.543 13.535 8.773 20.598 16.496 14.579 15.934 21.667 33.422 21.667 53.465 0 2.211-1.791 4-4 4s-4-1.789-4-4c0-17.953-6.402-33.676-19.57-48.066-2.15-2.348-4.232-4.438-6.279-6.293 1.654 2.281 3.189 4.719 4.6 7.309 3.244 5.867 5.793 12.715 8.004 21.539 1.801 7.457 3.805 18.562 3.977 25.41.057 2.211-1.689 4.043-3.898 4.102-.035-.001-.07-.001-.104-.001z" fill="#4c241d"/></g><g><path d="m171.276 136c.165-6.617 2.163-17.518 3.856-24.541 1.784-7.107 4.096-14.195 7.636-20.597 3.498-6.417 8.022-12.289 13.828-16.999 5.916-4.572 13.162-7.329 20.92-8.793-7.803-.187-15.985.954-23.509 4.575-7.385 3.728-13.721 9.401-19.381 15.588-12.138 13.267-20.618 29.626-20.618 50.767" fill="#eaeaea"/><path d="m171.277 140c-.033 0-.068 0-.102 0-2.209-.059-3.955-1.891-3.898-4.102.172-6.848 2.176-17.953 3.967-25.375 2.221-8.855 4.768-15.707 8.023-21.594 1.406-2.582 2.936-5.012 4.584-7.285-2.043 1.852-4.125 3.941-6.273 6.289-13.168 14.391-19.57 30.113-19.57 48.066 0 2.211-1.791 4-4 4s-4-1.789-4-4c0-20.043 7.088-37.531 21.668-53.465 7.062-7.723 13.586-12.953 20.529-16.461 7.393-3.555 15.902-5.188 25.406-5.004 2.047.051 3.725 1.637 3.891 3.676s-1.232 3.875-3.244 4.254c-7.75 1.465-14.215 4.164-19.215 8.027-4.943 4.016-9.264 9.332-12.764 15.75-2.922 5.285-5.227 11.527-7.268 19.656-1.738 7.215-3.588 17.684-3.738 23.668-.054 2.173-1.834 3.9-3.996 3.9z" fill="#4c241d"/></g></g></svg>