<svg id="gorilla-monkey" enable-background="new 0 0 300 300" height="512" viewBox="0 0 300 300" width="512" xmlns="http://www.w3.org/2000/svg"><g><circle cx="252" cy="242" fill="#4c241d" r="4.529"/><circle cx="180" cy="114" fill="#fff4f1" r="86"/><g><circle cx="146" cy="160" fill="#ffec95" r="108"/><path d="m146 272c-61.758 0-112-50.242-112-112s50.242-112 112-112 112 50.242 112 112-50.242 112-112 112zm0-216c-57.348 0-104 46.654-104 104s46.652 104 104 104 104-46.654 104-104-46.652-104-104-104z" fill="#4c241d"/></g><g><path d="m232.785 224.28c-4.752-20.77-23.306-36.28-45.516-36.28h-82.537c-22.211 0-40.764 15.51-45.516 36.28 19.678 26.524 51.22 43.72 86.784 43.72s67.106-17.196 86.785-43.72z" fill="#6b4f5b"/><path d="m146 272c-35.293 0-68.934-16.949-89.996-45.338-.699-.939-.949-2.135-.688-3.275 5.309-23.19 25.629-39.387 49.414-39.387h82.539c23.785 0 44.105 16.197 49.414 39.387.262 1.141.012 2.336-.688 3.275-21.061 28.389-54.702 45.338-89.995 45.338zm-82.441-48.605c19.621 25.46 50.296 40.605 82.441 40.605s62.82-15.145 82.441-40.605c-5.078-18.577-21.753-31.395-41.171-31.395h-82.54c-19.418 0-36.093 12.818-41.171 31.395z" fill="#4c241d"/></g><circle cx="68" cy="54" fill="#4c241d" r="4.529"/><path d="m251.656 65.656c-1.023 0-2.047-.391-2.828-1.172l-11.312-11.312c-1.562-1.562-1.562-4.094 0-5.656s4.094-1.562 5.656 0l11.312 11.312c1.562 1.562 1.562 4.094 0 5.656-.781.782-1.804 1.172-2.828 1.172z" fill="#4c241d"/><path d="m240.344 65.656c-1.023 0-2.047-.391-2.828-1.172-1.562-1.562-1.562-4.094 0-5.656l11.312-11.312c1.562-1.562 4.094-1.562 5.656 0s1.562 4.094 0 5.656l-11.312 11.312c-.781.782-1.805 1.172-2.828 1.172z" fill="#4c241d"/><g><circle cx="90" cy="140" fill="#6b4f5b" r="20"/><path d="m90 164c-13.234 0-24-10.766-24-24s10.766-24 24-24 24 10.766 24 24-10.766 24-24 24zm0-40c-8.824 0-16 7.178-16 16s7.176 16 16 16 16-7.178 16-16-7.176-16-16-16z" fill="#4c241d"/></g><g><circle cx="202" cy="140" fill="#6b4f5b" r="20"/><path d="m202 164c-13.234 0-24-10.766-24-24s10.766-24 24-24 24 10.766 24 24-10.766 24-24 24zm0-40c-8.824 0-16 7.178-16 16s7.176 16 16 16 16-7.178 16-16-7.176-16-16-16z" fill="#4c241d"/></g><g><path d="m158.696 80.424-12.696 1.679-12.696-1.679c-5.059-.669-10.264-.609-15.183.633-16.299 4.115-26.904 17.814-26.904 34.079l-5.217 61.618c0 28.05 28.304 39.246 60 39.246 31.696 0 60-11.196 60-39.246l-5.217-61.618c0-16.265-10.605-29.965-26.904-34.079-4.919-1.242-10.124-1.302-15.183-.633z" fill="#6b4f5b"/><path d="m146 220c-40.074 0-64-16.166-64-43.246l5.234-61.955c-.016-17.846 12.008-33.102 29.906-37.621 5.047-1.275 10.664-1.521 16.688-.719l12.172 1.609 12.172-1.609c6.027-.797 11.641-.555 16.688.719 17.898 4.52 29.922 19.775 29.922 37.959l5.203 61.279c.015 27.418-23.911 43.584-63.985 43.584zm-18.922-136c-2.844 0-5.512.312-7.977.936-14.285 3.605-23.883 15.744-23.883 30.201l-5.234 61.955c.016 32.367 42.879 34.908 56.016 34.908s56-2.541 56-35.246l-5.203-61.279c-.016-14.795-9.613-26.934-23.898-30.539-4.055-1.025-8.656-1.211-13.68-.547l-12.695 1.68c-.344.047-.703.047-1.047 0l-12.695-1.68c-1.97-.26-3.872-.389-5.704-.389z" fill="#4c241d"/></g><g><path d="m183.172 144h-74.345c-3.771 0-6.828-3.057-6.828-6.828v-9.63c0-8.584 6.959-15.542 15.542-15.542h56.915c8.584 0 15.542 6.959 15.542 15.542v9.63c.002 3.771-3.055 6.828-6.826 6.828z" fill="#fff"/><path d="m183.172 148h-74.344c-5.969 0-10.828-4.857-10.828-10.828v-9.629c0-10.775 8.766-19.543 19.543-19.543h56.914c10.777 0 19.543 8.768 19.543 19.543v9.629c0 5.971-4.859 10.828-10.828 10.828zm-65.629-32c-6.363 0-11.543 5.178-11.543 11.543v9.629c0 1.559 1.27 2.828 2.828 2.828h74.344c1.559 0 2.828-1.27 2.828-2.828v-9.629c0-6.365-5.18-11.543-11.543-11.543z" fill="#4c241d"/></g><g><path d="m118 172 6.222 32.868c0 12.776 9.75 23.132 21.778 23.132 12.028 0 21.778-10.357 21.778-23.132l6.222-33.046-28-15.822z" fill="#6b4f5b"/><path d="m146 232c-14.09 0-25.578-11.961-25.773-26.744l-6.156-32.512c-.316-1.678.465-3.371 1.945-4.217l28-16c1.223-.701 2.723-.703 3.953-.01l28 15.822c1.488.842 2.277 2.539 1.961 4.223l-6.156 32.691c-.196 14.786-11.684 26.747-25.774 26.747zm-23.539-57.941 5.691 30.064c.047.246.07.494.07.744 0 10.551 7.977 19.133 17.777 19.133s17.777-8.582 17.777-19.133c0-.248.023-.496.07-.74l5.691-30.23-23.527-13.295z" fill="#4c241d"/></g><g><path d="m118 172.178c7.219-3.64 17.092-4.833 28-4.833 10.9 0 20.783 1.198 28 4.833v-13.765c0-12.378-10.035-22.413-22.413-22.413h-11.175c-12.377 0-22.412 10.035-22.412 22.413z" fill="#fff"/><path d="m174 176.178c-.617 0-1.23-.143-1.801-.428-5.883-2.963-14.453-4.404-26.199-4.404-11.75 0-20.32 1.441-26.199 4.404-1.234.623-2.719.564-3.898-.166-1.184-.729-1.902-2.018-1.902-3.406v-13.766c-.001-14.564 11.847-26.412 26.413-26.412h11.172c14.566 0 26.414 11.848 26.414 26.412v13.766c0 1.389-.719 2.678-1.902 3.406-.641.395-1.368.594-2.098.594zm-28-12.832c9.762 0 17.684.967 24 2.941v-7.875c0-10.152-8.262-18.412-18.414-18.412h-11.172c-10.152 0-18.414 8.26-18.414 18.412v7.875c6.312-1.975 14.234-2.941 24-2.941z" fill="#4c241d"/></g><g fill="#4c241d"><path d="m146 100c-2.211 0-4-1.791-4-4v-12c0-2.209 1.789-4 4-4s4 1.791 4 4v12c0 2.209-1.789 4-4 4z"/><circle cx="132" cy="154" r="4.529"/><circle cx="160" cy="154" r="4.529"/><circle cx="180.529" cy="246" r="4.529"/><circle cx="112" cy="246" r="4.529"/><path d="m161.996 132.002c-1.766 0-3.383-1.18-3.859-2.967-.57-2.135.695-4.328 2.828-4.898l8-2.143c2.137-.572 4.332.693 4.898 2.828.57 2.135-.695 4.328-2.828 4.898l-8 2.143c-.347.094-.695.139-1.039.139z"/><path d="m130.004 132.002c-.344 0-.691-.045-1.039-.139l-8-2.143c-2.133-.57-3.398-2.764-2.828-4.898s2.773-3.398 4.898-2.828l8 2.143c2.133.57 3.398 2.764 2.828 4.898-.476 1.787-2.093 2.967-3.859 2.967z"/><path d="m94 256c-2.211 0-4-1.791-4-4v-8c0-2.209 1.789-4 4-4s4 1.791 4 4v8c0 2.209-1.789 4-4 4z"/><path d="m198 256c-2.211 0-4-1.791-4-4v-8c0-2.209 1.789-4 4-4s4 1.791 4 4v8c0 2.209-1.789 4-4 4z"/></g></g></svg>