<svg id="hedgehog" enable-background="new 0 0 300 300" height="512" viewBox="0 0 300 300" width="512" xmlns="http://www.w3.org/2000/svg"><g><circle cx="180" cy="114" fill="#fff4f1" r="86"/><g><circle cx="146" cy="160" fill="#a9ba5a" r="108"/><path d="m146 272c-61.758 0-112-50.242-112-112s50.242-112 112-112 112 50.242 112 112-50.242 112-112 112zm0-216c-57.348 0-104 46.652-104 104s46.652 104 104 104 104-46.652 104-104-46.652-104-104-104z" fill="#4c241d"/></g><g><path d="m242 156-20-4 16-20-24 8 4-20-23.667 6.667 11.667-22.667-22.149 15.173c-.222-.143-.454-.271-.677-.411l2.826-14.762-16.333 8 4.333-32-19.333 28-4.667-28-12 28-8-36-4 36-16-20v28l-16-16 4 24-24-20 8 28h-12l4 16-20-12s12 27.485 12 28c0 .347-16 4-16 4l27.314 23.4c6.256 32.245 34.613 56.6 68.686 56.6 36.291 0 66.125-27.618 69.646-62.982l.354-.018 26-9-16-8z" fill="#6b4f5b"/><path d="m146 252c-34.875 0-65.07-24.5-72.332-58.457l-26.27-22.504c-1.148-.984-1.645-2.531-1.281-3.996.363-1.469 1.52-2.605 2.992-2.941 4.059-.926 8.453-1.965 11.508-2.723-2.426-5.723-7.102-16.492-10.281-23.777-.699-1.594-.285-3.457 1.023-4.605 1.312-1.152 3.211-1.32 4.699-.426l11.719 7.031-1.656-6.633c-.301-1.195-.031-2.461.727-3.43.757-.973 1.922-1.539 3.152-1.539h6.695l-6.543-22.902c-.48-1.688.195-3.492 1.664-4.449 1.477-.957 3.395-.844 4.746.277l15.719 13.102-2.227-13.371c-.285-1.715.57-3.418 2.113-4.215 1.543-.789 3.426-.504 4.66.73l9.172 9.172v-18.344c0-1.699 1.074-3.211 2.676-3.773 1.602-.566 3.383-.051 4.449 1.273l9.965 12.461 2.934-26.402c.219-1.945 1.809-3.445 3.762-3.555 1.848-.102 3.695 1.219 4.121 3.129l5.305 23.883 7.113-16.59c.699-1.629 2.371-2.621 4.152-2.398 1.766.215 3.176 1.562 3.469 3.316l3.043 18.254 13.719-19.871c1.055-1.52 3.012-2.121 4.738-1.457 1.727.668 2.766 2.434 2.52 4.266l-3.328 24.578 9.605-4.707c1.359-.664 2.988-.504 4.188.414 1.203.922 1.785 2.445 1.5 3.934l-1.195 6.223 15.004-10.277c1.516-1.035 3.539-.91 4.906.301 1.375 1.211 1.75 3.203.91 4.832l-7.457 14.492 14.816-4.176c1.336-.367 2.777-.031 3.805.918 1.02.945 1.477 2.352 1.203 3.719l-2.648 13.242 17.461-5.82c1.688-.562 3.535.051 4.547 1.504 1.016 1.457.949 3.402-.156 4.789l-11.895 14.867 13.555 2.711c1.547.309 2.766 1.5 3.117 3.035.348 1.539-.242 3.141-1.504 4.086l-10.82 8.117 10.211 5.105c1.438.719 2.309 2.234 2.203 3.84s-1.164 2.992-2.684 3.52l-23.996 8.305c-4.965 36.619-36.02 63.912-73.313 63.912zm-87.375-81.879 21.289 18.238c.688.59 1.152 1.391 1.324 2.277 6 30.923 33.239 53.364 64.762 53.364 34.066 0 62.297-25.527 65.664-59.375.188-1.887 1.672-3.371 3.535-3.582l16.512-5.715-7.5-3.75c-1.238-.621-2.07-1.84-2.195-3.219s.477-2.727 1.586-3.559l8.84-6.633-11.227-2.246c-1.367-.273-2.496-1.242-2.973-2.555-.477-1.309-.238-2.777.633-3.867l7.539-9.422-11.148 3.715c-1.348.461-2.844.148-3.914-.793-1.066-.945-1.555-2.387-1.273-3.785l2.719-13.594-17.379 4.898c-1.523.414-3.172-.082-4.184-1.32-1.008-1.234-1.188-2.945-.457-4.363l4.418-8.586-9.082 6.223c-1.316.902-3.051.93-4.398.082-.023-.016-.629-.379-.652-.395-1.406-.875-2.133-2.523-1.82-4.152l1.32-6.891-9.137 4.477c-1.312.645-2.895.52-4.098-.352-1.199-.863-1.82-2.316-1.625-3.777l2.09-15.434-9.832 14.242c-.926 1.336-2.578 1.996-4.164 1.629-1.59-.352-2.805-1.637-3.074-3.246l-2.422-14.535-6.625 15.453c-.684 1.594-2.285 2.566-4.047 2.41-1.73-.164-3.156-1.422-3.535-3.117l-2.777-12.5-1.34 12.074c-.18 1.609-1.309 2.949-2.863 3.402-1.555.445-3.227-.078-4.238-1.344l-8.877-11.096v16.598c0 1.617-.973 3.078-2.469 3.695-1.496.629-3.211.281-4.359-.867l-7.176-7.172 1.949 11.688c.273 1.648-.504 3.293-1.957 4.125-1.445.828-3.262.676-4.551-.395l-14.023-11.691 4.434 15.52c.344 1.207.102 2.504-.652 3.508-.758 1-1.941 1.59-3.195 1.59h-6.875l2.754 11.031c.395 1.566-.199 3.219-1.496 4.184-1.305.957-3.055 1.047-4.441.215l-9.281-5.57c7.338 16.893 7.338 17.221 7.338 18.139 0 2.977 0 3.449-11.375 6.121z" fill="#4c241d"/></g><g><path d="m120.882 136c-18.299 9.212-30.882 28.115-30.882 50 0 30.928 25.072 56 56 56s56-25.072 56-56c0-21.885-12.583-40.788-30.882-50" fill="#f4aeab"/><path d="m146 246c-33.086 0-60-26.914-60-60 0-22.773 12.676-43.301 33.086-53.574 1.961-.992 4.375-.203 5.371 1.777.992 1.973.199 4.375-1.777 5.371-17.692 8.903-28.68 26.692-28.68 46.426 0 28.672 23.328 52 52 52s52-23.328 52-52c0-19.734-10.988-37.523-28.68-46.426-1.977-.996-2.77-3.398-1.777-5.371.992-1.98 3.406-2.77 5.371-1.777 20.41 10.273 33.086 30.801 33.086 53.574 0 33.086-26.914 60-60 60z" fill="#4c241d"/></g><g><path d="m210 165.6c0-11.929-9.671-21.6-21.6-21.6-11.753 0-18.66 9.4-18.862 21.086-6.626-3.344-14.372-5.086-22.562-5.086-8.722 0-17.243 1.939-24.482 5.727 0-.043.006-.083.006-.127 0-11.929-6.971-21.6-18.9-21.6s-21.6 9.671-21.6 21.6c0 11.14 10.787 20.305 21.93 21.47-1.227 3.764-1.93 7.885-1.93 12.399 0 25.775 28.823 56.531 43.643 56.531 14.769 0 44.357-30.756 44.357-56.532 0-4.523-.642-8.652-1.774-12.422 11.086-1.234 21.774-10.358 21.774-21.446z" fill="#f4aeab"/><path d="m145.645 260c-18.106 0-47.645-33.816-47.645-60.531 0-3.168.32-6.277.961-9.285-10.781-2.965-20.961-12.246-20.961-24.582 0-14.118 11.484-25.602 25.602-25.602 11.664 0 20.285 7.879 22.398 19.766 12.324-4.734 27.773-5 40.137-.496 2.285-11.59 10.855-19.27 22.262-19.27 14.117 0 25.601 11.484 25.601 25.602 0 12.27-10.156 21.562-20.891 24.551.594 3.012.891 6.129.891 9.316 0 28.465-31.547 60.531-48.355 60.531zm-42.043-112c-9.707 0-17.602 7.895-17.602 17.602 0 9.316 9.484 16.566 18.344 17.492 1.203.125 2.285.785 2.941 1.797.656 1.016.82 2.27.449 3.418-1.152 3.527-1.734 7.281-1.734 11.16 0 24.492 28.141 52.531 39.645 52.531 11.71 0 40.355-28.039 40.355-52.531 0-3.938-.539-7.73-1.605-11.27-.34-1.137-.16-2.367.496-3.359.652-.988 1.715-1.637 2.895-1.77 8.797-.977 18.215-8.23 18.215-17.469 0-9.707-7.895-17.602-17.602-17.602-10.75 0-14.723 9.242-14.859 17.156-.023 1.375-.754 2.645-1.934 3.355-1.172.711-2.641.773-3.867.145-6.039-3.047-13.215-4.656-20.762-4.656-8.215 0-16.039 1.824-22.629 5.27-1.238.648-2.73.602-3.926-.121-1.199-.727-1.93-2.023-1.93-3.422 0-.125.012-.316.023-.441-.015-8.445-4.62-17.285-14.913-17.285z" fill="#4c241d"/></g><g><path d="m107.6 176c-4.713 0-9.6-4.477-9.6-10s3.821-10 8.533-10c4.713 0 7.467 4.477 7.467 10" fill="#ffded5"/><path d="m107.602 180c-7.247 0-13.602-6.543-13.602-14 0-7.719 5.625-14 12.535-14 6.645 0 11.465 5.887 11.465 14 0 2.211-1.789 4-4 4s-4-1.789-4-4c0-2.074-.723-6-3.465-6-2.457 0-4.535 2.746-4.535 6 0 3.324 3.062 6 5.602 6 2.211 0 4 1.789 4 4s-1.79 4-4 4z" fill="#4c241d"/></g><g><path d="m184.4 176c4.713 0 9.6-4.477 9.6-10s-3.821-10-8.533-10-7.467 4.477-7.467 10" fill="#ffded5"/><path d="m184.398 180c-2.211 0-4-1.789-4-4s1.789-4 4-4c2.539 0 5.602-2.676 5.602-6 0-3.254-2.078-6-4.535-6-2.742 0-3.465 3.926-3.465 6 0 2.211-1.789 4-4 4s-4-1.789-4-4c0-8.113 4.82-14 11.465-14 6.91 0 12.535 6.281 12.535 14 0 7.457-6.355 14-13.602 14z" fill="#4c241d"/></g><g fill="#4c241d"><circle cx="68" cy="54" r="4.529"/><circle cx="248" cy="254" r="4.529"/><path d="m251.656 65.656c-1.023 0-2.047-.391-2.828-1.172l-11.312-11.312c-1.562-1.562-1.562-4.094 0-5.656s4.094-1.562 5.656 0l11.312 11.312c1.562 1.562 1.562 4.094 0 5.656-.781.782-1.804 1.172-2.828 1.172z"/><path d="m240.344 65.656c-1.023 0-2.047-.391-2.828-1.172-1.562-1.562-1.562-4.094 0-5.656l11.312-11.312c1.562-1.562 4.094-1.562 5.656 0s1.562 4.094 0 5.656l-11.312 11.312c-.781.782-1.805 1.172-2.828 1.172z"/><circle cx="120" cy="198" r="6"/><circle cx="172" cy="198" r="6"/></g><g><path d="m108.86 248h-13.72c-2.839 0-5.14-2.301-5.14-5.14v-4.86c0-5.523 4.477-10 10-10h4c5.523 0 10 4.477 10 10v4.86c0 2.839-2.301 5.14-5.14 5.14z" fill="#f4aeab"/><path d="m108.859 252h-13.718c-5.039 0-9.141-4.102-9.141-9.141v-4.859c0-7.719 6.281-14 14-14h4c7.719 0 14 6.281 14 14v4.859c0 5.039-4.102 9.141-9.141 9.141zm-8.859-20c-3.309 0-6 2.691-6 6v4.859c0 .629.512 1.141 1.141 1.141h13.719c.629 0 1.141-.512 1.141-1.141v-4.859c0-3.309-2.691-6-6-6z" fill="#4c241d"/></g><g><path d="m196.86 248h-13.72c-2.839 0-5.14-2.301-5.14-5.14v-4.86c0-5.523 4.477-10 10-10h4c5.523 0 10 4.477 10 10v4.86c0 2.839-2.301 5.14-5.14 5.14z" fill="#f4aeab"/><path d="m196.859 252h-13.719c-5.039 0-9.141-4.102-9.141-9.141v-4.859c0-7.719 6.281-14 14-14h4c7.719 0 14 6.281 14 14v4.859c.001 5.039-4.101 9.141-9.14 9.141zm-8.859-20c-3.309 0-6 2.691-6 6v4.859c0 .629.512 1.141 1.141 1.141h13.719c.629 0 1.141-.512 1.141-1.141v-4.859c0-3.309-2.691-6-6-6z" fill="#4c241d"/></g><g><ellipse cx="146" cy="234" fill="#6b4f5b" rx="12" ry="6"/><path d="m146 244c-9.27 0-16-4.207-16-10s6.73-10 16-10 16 4.207 16 10-6.73 10-16 10zm-7.766-10c.914.777 3.617 2 7.766 2s6.852-1.223 7.766-2c-.914-.777-3.617-2-7.766-2s-6.852 1.223-7.766 2zm15.832.332h.039z" fill="#4c241d"/></g><path d="m142 240h8v16h-8z" fill="#4c241d"/><path d="m190 252c-2.211 0-4-1.789-4-4v-8c0-2.211 1.789-4 4-4s4 1.789 4 4v8c0 2.211-1.789 4-4 4z" fill="#4c241d"/><path d="m102 252c-2.211 0-4-1.789-4-4v-8c0-2.211 1.789-4 4-4s4 1.789 4 4v8c0 2.211-1.789 4-4 4z" fill="#4c241d"/></g></svg>