<svg id="hippo" enable-background="new 0 0 300 300" height="512" viewBox="0 0 300 300" width="512" xmlns="http://www.w3.org/2000/svg"><g><circle cx="180" cy="114" fill="#fff4f1" r="86"/><g><circle cx="146" cy="160" fill="#ffded5" r="108"/><path d="m146 272c-61.758 0-112-50.242-112-112s50.242-112 112-112 112 50.242 112 112-50.242 112-112 112zm0-216c-57.346 0-104 46.654-104 104s46.654 104 104 104 104-46.654 104-104-46.654-104-104-104z" fill="#4c241d"/></g><g><path d="m150 213.423c0 23.515 19.062 42.577 42.577 42.577h2.882c34.76-17.946 58.541-54.184 58.541-96 0-14.137-2.744-27.625-7.683-40h-96.317z" fill="#b5a19c"/><path d="m195.459 260h-2.883c-25.681 0-46.576-20.895-46.576-46.576v-93.424c0-2.209 1.791-4 4-4h96.316c1.637 0 3.107.998 3.715 2.518 5.287 13.246 7.969 27.203 7.969 41.482 0 42.076-23.262 80.223-60.705 99.555-.568.293-1.197.445-1.836.445zm-41.459-136v89.424c0 21.271 17.305 38.576 38.576 38.576h1.902c34.272-18.09 55.522-53.252 55.522-92 0-12.357-2.162-24.455-6.432-36z" fill="#4c241d"/></g><g fill="#4c241d"><circle cx="68" cy="54" r="4.529"/><circle cx="252" cy="242" r="4.529"/><path d="m251.656 65.656c-1.023 0-2.047-.391-2.828-1.172l-11.312-11.312c-1.562-1.562-1.562-4.094 0-5.656s4.094-1.562 5.656 0l11.312 11.312c1.562 1.562 1.562 4.094 0 5.656-.781.782-1.804 1.172-2.828 1.172z"/><path d="m240.344 65.656c-1.023 0-2.047-.391-2.828-1.172-1.562-1.562-1.562-4.094 0-5.656l11.312-11.312c1.562-1.562 4.094-1.562 5.656 0s1.562 4.094 0 5.656l-11.312 11.312c-.781.782-1.805 1.172-2.828 1.172z"/></g><g><path d="m190.373 117.144-10.462-5.878 6.612-17.047c1.909-4.921 7.733-7.01 12.334-4.425 4.601 2.585 5.846 8.647 2.636 12.836z" fill="#b5a19c"/><path d="m190.371 121.145c-.668 0-1.342-.166-1.957-.514l-10.461-5.879c-1.736-.975-2.49-3.076-1.77-4.934l6.611-17.047c1.328-3.426 4.074-6.104 7.535-7.344 3.459-1.242 7.279-.92 10.486.881 3.205 1.801 5.467 4.898 6.207 8.498.738 3.6-.119 7.338-2.354 10.256l-11.121 14.516c-.779 1.018-1.967 1.567-3.176 1.567zm-5.475-11.666 4.412 2.479 9.01-11.76c.836-1.09 1.145-2.434.867-3.781-.275-1.348-1.088-2.461-2.287-3.135-1.201-.67-2.574-.789-3.867-.324-1.295.465-2.281 1.426-2.779 2.709z" fill="#4c241d"/></g><g><path d="m100.822 117.144 10.462-5.878-6.612-17.047c-1.909-4.921-7.733-7.01-12.334-4.425-4.601 2.585-5.846 8.647-2.636 12.836z" fill="#b5a19c"/><path d="m100.824 121.145c-1.209 0-2.396-.549-3.178-1.566l-11.121-14.514c-2.234-2.918-3.094-6.654-2.354-10.256.738-3.602 3-6.699 6.207-8.5 3.203-1.797 7.025-2.121 10.484-.883 3.461 1.242 6.209 3.92 7.537 7.346l6.611 17.047c.721 1.857-.033 3.959-1.77 4.934l-10.461 5.879c-.613.347-1.287.513-1.955.513zm-4.25-28.467c-.785 0-1.561.203-2.275.604-1.201.676-2.014 1.789-2.291 3.137-.277 1.346.031 2.689.867 3.779l9.012 11.76 4.412-2.479-5.355-13.812c-.498-1.283-1.484-2.244-2.779-2.709-.524-.188-1.06-.28-1.591-.28z" fill="#4c241d"/></g><g><path d="m168 232h-44c-7.732 0-14-6.268-14-14 0-7.732 6.268-14 14-14h44c7.732 0 14 6.268 14 14 0 7.732-6.268 14-14 14z" fill="#b5a19c"/><path d="m168 236h-44c-9.926 0-18-8.074-18-18s8.074-18 18-18h44c9.926 0 18 8.074 18 18s-8.074 18-18 18zm-44-28c-5.514 0-10 4.486-10 10s4.486 10 10 10h44c5.514 0 10-4.486 10-10s-4.486-10-10-10z" fill="#4c241d"/></g><g><path d="m118 236c-4.418 0-8-3.582-8-8v-8h16v8c0 4.418-3.582 8-8 8z" fill="#fff"/><path d="m118 240c-6.617 0-12-5.383-12-12v-8c0-2.209 1.791-4 4-4h16c2.209 0 4 1.791 4 4v8c0 6.617-5.383 12-12 12zm-4-16v4c0 2.205 1.795 4 4 4s4-1.795 4-4v-4z" fill="#4c241d"/></g><g><path d="m174 236c-4.418 0-8-3.582-8-8v-8h16v8c0 4.418-3.582 8-8 8z" fill="#fff"/><path d="m174 240c-6.617 0-12-5.383-12-12v-8c0-2.209 1.791-4 4-4h16c2.209 0 4 1.791 4 4v8c0 6.617-5.383 12-12 12zm-4-16v4c0 2.205 1.795 4 4 4s4-1.795 4-4v-4z" fill="#4c241d"/></g><g><path d="m216 170c0-9.553-6.869-19.555-18-26v-16.403c0-10.823-8.774-19.597-19.597-19.597-4.047 0-60.759 0-64.806 0-10.823 0-19.597 8.774-19.597 19.597v16.403c-11.131 6.445-18 16.447-18 26s6.869 18.212 18 24.657v13.343h104v-13.343c11.131-6.445 18-15.104 18-24.657z" fill="#b5a19c"/><path d="m198 212h-104c-2.209 0-4-1.791-4-4v-11.086c-11.629-7.318-18-16.81-18-26.914 0-10.422 6.842-21.076 18-28.244v-14.158c0-13.012 10.586-23.598 23.598-23.598h64.805c13.011 0 23.597 10.586 23.597 23.598v14.158c11.158 7.168 18 17.822 18 28.244 0 10.104-6.371 19.596-18 26.914v11.086c0 2.209-1.791 4-4 4zm-100-8h96v-9.344c0-1.428.76-2.746 1.996-3.461 10.32-5.974 16.004-13.502 16.004-21.195 0-8.186-6.133-16.822-16.004-22.539-1.236-.715-1.996-2.033-1.996-3.461v-16.402c0-8.6-6.998-15.598-15.598-15.598h-64.805c-8.6 0-15.598 6.998-15.598 15.598v16.402c0 1.428-.76 2.746-1.996 3.461-9.87 5.717-16.003 14.353-16.003 22.539 0 7.693 5.684 15.221 16.004 21.195 1.236.715 1.996 2.034 1.996 3.461z" fill="#4c241d"/></g><g><path d="m119.314 166.669c-18.912 1.891-33.314 17.805-33.314 36.811v7.213c0 9.895 8.885 17.234 18.226 15.055l34.5-8.953c2.239-.522 12.305-.505 14.536.052l34.297 8.555c9.397 2.344 18.44-5.014 18.44-15.003v-6.918c0-19.006-14.402-34.92-33.314-36.811" fill="#b5a19c"/><path d="m100.908 230.121c-4.17 0-8.211-1.398-11.553-4.051-4.673-3.709-7.355-9.314-7.355-15.377v-7.213c0-21.15 15.871-38.686 36.916-40.793 2.199-.201 4.16 1.385 4.379 3.582.219 2.199-1.385 4.158-3.582 4.379-16.94 1.696-29.713 15.811-29.713 32.832v7.213c0 3.607 1.578 6.928 4.328 9.109 2.566 2.035 5.838 2.777 8.988 2.051l34.406-8.93c2.975-.701 13.715-.658 16.508.041l34.299 8.555c3.156.789 6.475.074 9.078-1.961 2.791-2.182 4.393-5.52 4.393-9.16v-6.918c0-17.021-12.773-31.137-29.713-32.832-2.197-.221-3.801-2.18-3.582-4.379.221-2.197 2.18-3.787 4.379-3.582 21.045 2.108 36.916 19.643 36.916 40.793v6.918c0 6.121-2.723 11.758-7.469 15.465-4.561 3.562-10.363 4.809-15.939 3.418l-34.299-8.555c-1.752-.402-10.869-.432-12.66-.035l-34.404 8.928c-1.44.338-2.889.502-4.321.502z" fill="#4c241d"/></g><g><path d="m122 180s8-4 12 4" fill="#b5a19c"/><path d="m134.004 188c-1.469.002-2.881-.809-3.582-2.211-1.879-3.758-4.984-2.99-6.67-2.193-1.982.936-4.371.115-5.328-1.857-.959-1.971-.174-4.336 1.787-5.316 4.652-2.324 13.119-2.705 17.367 5.789.988 1.977.188 4.379-1.789 5.367-.574.286-1.185.421-1.785.421z" fill="#4c241d"/></g><g><path d="m166 180s-8-4-12 4" fill="#b5a19c"/><path d="m153.996 188c-.6 0-1.211-.135-1.785-.422-1.977-.988-2.777-3.391-1.789-5.367 4.25-8.494 12.713-8.113 17.367-5.789 1.977.988 2.777 3.391 1.789 5.367-.982 1.967-3.367 2.766-5.334 1.805-1.689-.797-4.789-1.562-6.666 2.195-.701 1.402-2.113 2.211-3.582 2.211z" fill="#4c241d"/></g><circle cx="126" cy="148" fill="#4c241d" r="4"/><circle cx="166" cy="148" fill="#4c241d" r="4"/><path d="m102 148h-8c-2.209 0-4-1.791-4-4s1.791-4 4-4h8c2.209 0 4 1.791 4 4s-1.791 4-4 4z" fill="#4c241d"/><path d="m198 148h-8c-2.209 0-4-1.791-4-4s1.791-4 4-4h8c2.209 0 4 1.791 4 4s-1.791 4-4 4z" fill="#4c241d"/><g><path d="m106 268h-12.862c-6.151 0-11.138-4.987-11.138-11.138v-4.862h12.862c6.152 0 11.138 4.987 11.138 11.138z" fill="#a9ba5a"/><path d="m106 272h-12.861c-8.348 0-15.139-6.791-15.139-15.139v-4.861c0-2.209 1.791-4 4-4h12.861c8.348 0 15.139 6.791 15.139 15.139v4.861c0 2.209-1.791 4-4 4zm-20-16v.861c0 3.936 3.203 7.139 7.139 7.139h8.861v-.861c0-3.936-3.203-7.139-7.139-7.139z" fill="#4c241d"/></g><g><path d="m106 268h12.862c6.152 0 11.138-4.987 11.138-11.138v-4.862h-12.862c-6.152 0-11.138 4.987-11.138 11.138z" fill="#a9ba5a"/><path d="m118.861 272h-12.861c-2.209 0-4-1.791-4-4v-4.861c0-8.348 6.791-15.139 15.139-15.139h12.861c2.209 0 4 1.791 4 4v4.861c0 8.348-6.791 15.139-15.139 15.139zm-8.861-8h8.861c3.936 0 7.139-3.203 7.139-7.139v-.861h-8.861c-3.936 0-7.139 3.203-7.139 7.139z" fill="#4c241d"/></g><g><path d="m78 252h12.862c6.152 0 11.138-4.987 11.138-11.138v-4.862h-12.862c-6.151 0-11.138 4.987-11.138 11.138z" fill="#a9ba5a"/><path d="m90.861 256h-12.861c-2.209 0-4-1.791-4-4v-4.861c0-8.348 6.791-15.139 15.139-15.139h12.861c2.209 0 4 1.791 4 4v4.861c0 8.348-6.791 15.139-15.139 15.139zm-8.861-8h8.861c3.936 0 7.139-3.203 7.139-7.139v-.861h-8.861c-3.936 0-7.139 3.203-7.139 7.139z" fill="#4c241d"/></g><g><path d="m78 252h-12.862c-6.151 0-11.138-4.987-11.138-11.138v-4.862h12.862c6.151 0 11.138 4.987 11.138 11.138z" fill="#a9ba5a"/><path d="m78 256h-12.861c-8.348 0-15.139-6.791-15.139-15.139v-4.861c0-2.209 1.791-4 4-4h12.861c8.348 0 15.139 6.791 15.139 15.139v4.861c0 2.209-1.791 4-4 4zm-20-16v.861c0 3.936 3.203 7.139 7.139 7.139h8.861v-.861c0-3.936-3.203-7.139-7.139-7.139z" fill="#4c241d"/></g></g></svg>