<svg id="husky" enable-background="new 0 0 300 300" height="512" viewBox="0 0 300 300" width="512" xmlns="http://www.w3.org/2000/svg"><g><circle cx="180" cy="114" fill="#fff4f1" r="86"/><g><circle cx="146" cy="160" fill="#9dc1e4" r="108"/><path d="m146 272c-61.758 0-112-50.242-112-112s50.242-112 112-112 112 50.242 112 112-50.242 112-112 112zm0-216c-57.346 0-104 46.652-104 104s46.654 104 104 104 104-46.652 104-104-46.654-104-104-104z" fill="#4c241d"/></g><g><path d="m154 154c0-26.51 2.496-80 14.545-80s25.455 21.49 25.455 48-13.405 48-25.455 48-14.545 10.51-14.545-16z" fill="#eaeaea"/><path d="m157.492 176.055c-1.25 0-2.502-.309-3.701-1.203-3.242-2.414-3.791-7.325-3.791-20.852 0-38.32 3.217-84 18.545-84 15.416 0 29.455 24.785 29.455 52s-14.039 52-29.455 52c-2.658 0-4.777.633-6.646 1.191-1.401.418-2.901.864-4.407.864zm1.471-7.207h.041zm9.582-90.848c-4.422.797-10.545 27.652-10.545 76 0 7.078.215 11.707.641 13.809.326-.094.67-.195.969-.285 2.156-.641 5.107-1.523 8.936-1.523 8.639 0 21.455-18.477 21.455-44s-12.817-44.001-21.456-44.001z" fill="#4c241d"/></g><g><path d="m142 154c0-26.51-2.496-80-14.545-80s-25.455 21.49-25.455 48 13.405 48 25.455 48 14.545 10.51 14.545-16z" fill="#eaeaea"/><path d="m138.508 176.055c-1.506 0-3.006-.445-4.406-.863-1.869-.559-3.988-1.191-6.646-1.191-15.417-.001-29.456-24.786-29.456-52.001s14.039-52 29.455-52c15.328 0 18.545 45.68 18.545 84 0 13.527-.549 18.438-3.791 20.852-1.199.894-2.451 1.203-3.701 1.203zm-11.053-98.055c-8.639 0-21.455 18.477-21.455 44s12.816 44 21.455 44c3.828 0 6.779.883 8.936 1.523.299.09.643.191.969.285.426-2.102.641-6.73.641-13.809-.001-48.347-6.124-75.202-10.546-75.999z" fill="#4c241d"/></g><circle cx="68" cy="54" fill="#4c241d" r="4.529"/><circle cx="252" cy="242" fill="#4c241d" r="4.529"/><g><path d="m146 268c20.445 0 39.562-5.685 55.86-15.554l-7.86-22.446 3.375-66.11c-1.531-30.24-24.078-53.89-51.375-53.89s-49.844 23.65-51.375 53.89l3.375 66.11-7.86 22.446c16.298 9.869 35.415 15.554 55.86 15.554z" fill="#fff"/><path d="m146 272c-20.475 0-40.506-5.578-57.932-16.133-1.617-.98-2.328-2.957-1.703-4.742l7.6-21.707-3.334-65.324c-.008-.133-.008-.27 0-.406 1.637-32.348 25.959-57.688 55.369-57.688s53.732 25.34 55.369 57.688c.008.137.008.273 0 .406l-3.334 65.324 7.6 21.707c.625 1.785-.086 3.762-1.703 4.742-17.426 10.555-37.457 16.133-57.932 16.133zm-50.994-21.344c15.506 8.739 33.066 13.344 50.994 13.344s35.488-4.605 50.994-13.344l-6.77-19.336c-.172-.488-.246-1.008-.219-1.523l3.363-65.902c-1.509-27.997-22.282-49.895-47.368-49.895s-45.859 21.898-47.369 49.895l3.363 65.902c.027.516-.047 1.035-.219 1.523z" fill="#4c241d"/></g><g><path d="m158 162c5.569 4.558 11.786 7.938 11.977 16.979.382 18.105-4.106 41.972-10.814 51.021h-25.527c-6.707-9.048-11.196-32.916-10.814-51.021.185-8.79 5.871-12.396 11.177-16.979" fill="#eaeaea"/><path d="m159.164 234h-25.527c-1.268 0-2.459-.602-3.213-1.617-7.645-10.309-11.973-35.789-11.602-53.488.203-9.586 5.807-14.262 10.748-18.391l1.816-1.531c1.668-1.445 4.195-1.262 5.641.414 1.443 1.672 1.26 4.195-.414 5.641-.635.551-1.277 1.086-1.914 1.617-4.5 3.758-7.752 6.473-7.877 12.422-.359 17.008 3.738 38.012 8.969 46.934h21.219c5.23-8.922 9.328-29.926 8.967-46.934-.117-5.598-2.994-8.102-8.07-12.043-.814-.633-1.633-1.27-2.439-1.93-1.711-1.398-1.961-3.918-.562-5.629s3.922-1.961 5.629-.559c.754.613 1.52 1.207 2.279 1.797 5.137 3.988 10.961 8.512 11.164 18.195.373 17.691-3.955 43.172-11.6 53.484-.755 1.016-1.946 1.618-3.214 1.618z" fill="#4c241d"/></g><path d="m251.656 65.656c-1.023 0-2.047-.391-2.828-1.172l-11.312-11.312c-1.562-1.562-1.562-4.094 0-5.656s4.094-1.562 5.656 0l11.312 11.312c1.562 1.562 1.562 4.094 0 5.656-.781.782-1.804 1.172-2.828 1.172z" fill="#4c241d"/><path d="m240.344 65.656c-1.023 0-2.047-.391-2.828-1.172-1.562-1.562-1.562-4.094 0-5.656l11.312-11.312c1.562-1.562 4.094-1.562 5.656 0s1.562 4.094 0 5.656l-11.312 11.312c-.781.782-1.805 1.172-2.828 1.172z" fill="#4c241d"/><path d="m146 218c-2.209 0-4-1.789-4-4v-20c0-2.211 1.791-4 4-4s4 1.789 4 4v20c0 2.211-1.791 4-4 4z" fill="#4c241d"/><g><path d="m148.423 196h-4.847c-.941 0-1.777-.201-2.075-.499l-2.542-2.542c-.472-.472.582-.96 2.075-.96h9.931c1.493 0 2.547.488 2.075.96l-2.542 2.542c-.297.298-1.133.499-2.075.499z" fill="#ffce56"/><path d="m148.424 200h-4.848c-1.484 0-3.543-.293-4.922-1.691l-2.521-2.516c-1.146-1.145-1.582-3.199-.961-4.695.818-1.969 2.955-3.098 5.863-3.098h9.93c2.908 0 5.045 1.129 5.863 3.098.619 1.492.188 3.539-.953 4.688l-2.551 2.547c-1.357 1.374-3.416 1.667-4.9 1.667z" fill="#4c241d"/></g><g fill="#4c241d"><circle cx="126" cy="154" r="4"/><circle cx="72" cy="160" r="6"/><circle cx="58" cy="178" r="4"/><circle cx="62" cy="138" r="4"/><circle cx="78" cy="110" r="4"/><circle cx="82" cy="214" r="4"/><circle cx="86" cy="94" r="4"/><circle cx="82" cy="138" r="4"/><circle cx="226" cy="122" r="4"/><circle cx="146" cy="66" r="4"/><circle cx="210" cy="202" r="4"/><circle cx="238" cy="150" r="4"/><circle cx="212" cy="136" r="6"/><circle cx="206" cy="90" r="4"/><circle cx="226" cy="166" r="4"/><circle cx="230" cy="198" r="4"/><circle cx="74" cy="190" r="4"/><circle cx="166" cy="154" r="4"/><path d="m158 218h-24c-1.061 0-2.078-.422-2.828-1.172l-10.828-10.828h-6.344c-2.209 0-4-1.789-4-4s1.791-4 4-4h8c1.061 0 2.078.422 2.828 1.172l10.828 10.828h20.688l10.828-10.828c.75-.75 1.768-1.172 2.828-1.172h8c2.209 0 4 1.789 4 4s-1.791 4-4 4h-6.344l-10.828 10.828c-.75.75-1.767 1.172-2.828 1.172z"/><path d="m174 120.848c-2.209 0-4-1.789-4-4v-14.848c0-2.211 1.791-4 4-4s4 1.789 4 4v14.848c0 2.211-1.791 4-4 4z"/><path d="m118 120.848c-2.209 0-4-1.789-4-4v-14.848c0-2.211 1.791-4 4-4s4 1.789 4 4v14.848c0 2.211-1.791 4-4 4z"/><path d="m174 150h-12c-2.209 0-4-1.789-4-4s1.791-4 4-4h12c2.209 0 4 1.789 4 4s-1.791 4-4 4z"/><path d="m130 150h-12c-2.209 0-4-1.789-4-4s1.791-4 4-4h12c2.209 0 4 1.789 4 4s-1.791 4-4 4z"/></g></g></svg>