<svg id="bear" enable-background="new 0 0 300 300" height="512" viewBox="0 0 300 300" width="512" xmlns="http://www.w3.org/2000/svg"><g><circle cx="180" cy="114" fill="#fff4f1" r="86"/><g><circle cx="146" cy="160" fill="#fff" r="108"/><path d="m146 272c-61.758 0-112-50.242-112-112s50.242-112 112-112 112 50.242 112 112-50.242 112-112 112zm0-216c-57.346 0-104 46.654-104 104s46.654 104 104 104 104-46.654 104-104-46.654-104-104-104z" fill="#4c241d"/></g><g><path d="m146 152c-41.974 0-76 33.131-76 74 0 3.995.416 7.887 1.042 11.711 19.425 18.741 45.835 30.289 74.958 30.289s55.533-11.548 74.958-30.289c.626-3.824 1.042-7.716 1.042-11.711 0-40.869-34.026-74-76-74z" fill="#bf7e68"/><path d="m146 272c-29.133 0-56.74-11.154-77.734-31.41-.621-.6-1.031-1.381-1.17-2.232-.737-4.497-1.096-8.54-1.096-12.358 0-43.01 35.889-78 80-78s80 34.99 80 78c0 3.818-.359 7.861-1.096 12.357-.139.852-.549 1.633-1.17 2.232-20.994 20.257-48.601 31.411-77.734 31.411zm-71.215-36.248c19.371 18.227 44.608 28.248 71.215 28.248s51.844-10.021 71.215-28.248c.527-3.539.785-6.74.785-9.752 0-38.598-32.299-70-72-70s-72 31.402-72 70c0 3.012.258 6.213.785 9.752zm146.172 1.959h.039z" fill="#4c241d"/></g><g><path d="m210.814 156.887-6.494-38.962c4.244-4.365 6.541-10.636 5.379-17.43-1.353-7.907-7.582-14.433-15.438-16.055-12.908-2.664-24.261 7.122-24.261 19.56h-48c0-12.438-11.353-22.224-24.262-19.56-7.856 1.621-14.085 8.148-15.438 16.055-1.162 6.794 1.134 13.065 5.379 17.43l-6.494 38.962c-3.761 22.569 13.643 43.113 36.523 43.113h56.585c22.879 0 40.283-20.544 36.521-43.113z" fill="#bf7e68"/><path d="m174.293 204h-56.586c-12.084 0-23.492-5.287-31.303-14.508s-11.15-21.344-9.164-33.264l6.18-37.072c-4.422-5.393-6.262-12.326-5.062-19.334 1.639-9.588 9.104-17.344 18.572-19.299 7.229-1.486 14.598.277 20.219 4.861 4.574 3.727 7.562 8.91 8.52 14.615h40.664c.957-5.705 3.945-10.889 8.52-14.615 5.621-4.584 12.992-6.354 20.219-4.861 9.469 1.955 16.934 9.711 18.572 19.299 1.199 7.008-.641 13.941-5.062 19.334l6.18 37.072c1.986 11.92-1.354 24.043-9.164 33.264s-19.221 14.508-31.305 14.508zm-72.258-116.004c-1.148 0-2.314.121-3.488.363-6.172 1.273-11.232 6.541-12.303 12.811-.883 5.156.686 10.246 4.303 13.967.887.912 1.287 2.191 1.078 3.447l-6.494 38.961c-1.6 9.594 1.09 19.354 7.377 26.775s15.472 11.68 25.199 11.68h56.586c9.727 0 18.912-4.258 25.199-11.68s8.977-17.182 7.377-26.775l-6.494-38.961c-.209-1.256.191-2.535 1.078-3.447 3.617-3.721 5.186-8.811 4.303-13.967-1.07-6.27-6.131-11.537-12.303-12.811-4.939-1.02-9.746.129-13.549 3.227-3.752 3.057-5.904 7.582-5.904 12.414 0 2.209-1.791 4-4 4h-48c-2.209 0-4-1.791-4-4 0-4.832-2.152-9.357-5.904-12.414-2.901-2.361-6.385-3.59-10.061-3.59z" fill="#4c241d"/></g><g fill="#4c241d"><circle cx="68" cy="54" r="4.529"/><circle cx="252" cy="242" r="4.529"/><path d="m251.656 65.656c-1.023 0-2.047-.391-2.828-1.172l-11.312-11.312c-1.562-1.562-1.562-4.094 0-5.656s4.094-1.562 5.656 0l11.312 11.312c1.562 1.562 1.562 4.094 0 5.656-.781.782-1.804 1.172-2.828 1.172z"/><path d="m240.344 65.656c-1.023 0-2.047-.391-2.828-1.172-1.562-1.562-1.562-4.094 0-5.656l11.312-11.312c1.562-1.562 4.094-1.562 5.656 0s1.562 4.094 0 5.656l-11.312 11.312c-.781.782-1.805 1.172-2.828 1.172z"/><path d="m142 164h8v12h-8z"/><path d="m158 184.002c-.418 0-.846-.066-1.266-.207l-10.734-3.578-10.734 3.578c-2.107.709-4.361-.436-5.061-2.529-.699-2.096.434-4.361 2.529-5.061l12-4c.824-.273 1.707-.273 2.531 0l12 4c2.096.699 3.229 2.965 2.529 5.061-.558 1.675-2.118 2.736-3.794 2.736z"/><circle cx="118" cy="140" r="4"/><circle cx="174" cy="140" r="4"/></g><g><path d="m178 240-4 24" fill="#fff"/><path d="m174.004 268c-.217 0-.439-.018-.662-.055-2.178-.363-3.65-2.424-3.287-4.604l4-24c.365-2.176 2.418-3.656 4.604-3.287 2.178.363 3.65 2.424 3.287 4.604l-4 24c-.327 1.955-2.022 3.342-3.942 3.342z" fill="#4c241d"/></g><g><path d="m114 240 4 24" fill="#fff"/><path d="m117.996 268c-1.922 0-3.615-1.387-3.941-3.342l-4-24c-.363-2.18 1.109-4.24 3.287-4.604 2.197-.367 4.24 1.111 4.604 3.287l4 24c.363 2.18-1.109 4.24-3.287 4.604-.223.037-.446.055-.663.055z" fill="#4c241d"/></g><g><path d="m150.065 160h-8.13c-1.579 0-2.981-.201-3.481-.499l-4.263-2.542c-.792-.472.976-.96 3.481-.96h16.657c2.504 0 4.272.488 3.481.96l-4.263 2.542c-.501.298-1.903.499-3.482.499z" fill="#ffce56"/><path d="m150.064 164h-8.129c-2.486 0-4.346-.357-5.529-1.062l-4.264-2.543c-1.545-.922-2.471-3.029-1.994-4.764.883-3.219 4.484-3.631 7.523-3.631h16.656c3.039 0 6.641.412 7.523 3.631.477 1.736-.451 3.848-2.002 4.768l-4.256 2.539c-1.182.705-3.041 1.062-5.528 1.062z" fill="#4c241d"/></g><path d="m130 108h-16c-2.209 0-4-1.791-4-4s1.791-4 4-4h16c2.209 0 4 1.791 4 4s-1.791 4-4 4z" fill="#4c241d"/><path d="m178 108h-16c-2.209 0-4-1.791-4-4s1.791-4 4-4h16c2.209 0 4 1.791 4 4s-1.791 4-4 4z" fill="#4c241d"/><path d="m90 236c-1.023 0-2.047-.391-2.828-1.172-1.562-1.562-1.562-4.094 0-5.656l5.172-5.172-5.172-5.172c-1.217-1.217-1.52-3.076-.75-4.617l4-8c.99-1.975 3.385-2.781 5.367-1.789 1.977.988 2.777 3.391 1.789 5.367l-2.711 5.422 5.961 5.961c1.562 1.562 1.562 4.094 0 5.656l-8 8c-.781.781-1.805 1.172-2.828 1.172z" fill="#4c241d"/><path d="m202 240c-2.209 0-4-1.791-4-4v-8c0-.621.145-1.234.422-1.789l2.711-5.422-5.961-5.961c-1.562-1.562-1.562-4.094 0-5.656s4.094-1.562 5.656 0l8 8c1.217 1.217 1.52 3.076.75 4.617l-3.578 7.154v7.057c0 2.209-1.791 4-4 4z" fill="#4c241d"/><g><path d="m174 192v8.212c0 8.72-7.069 15.788-15.788 15.788h-24.423c-8.72 0-15.788-7.069-15.788-15.788v-8.212" fill="#bf7e68"/><path d="m158.211 220h-24.422c-10.912 0-19.789-8.877-19.789-19.789v-8.211c0-2.209 1.791-4 4-4s4 1.791 4 4v8.211c0 6.5 5.289 11.789 11.789 11.789h24.422c6.5 0 11.789-5.289 11.789-11.789v-8.211c0-2.209 1.791-4 4-4s4 1.791 4 4v8.211c0 10.912-8.877 19.789-19.789 19.789z" fill="#4c241d"/></g></g></svg>