<svg id="koala" enable-background="new 0 0 300 300" height="512" viewBox="0 0 300 300" width="512" xmlns="http://www.w3.org/2000/svg"><g><circle cx="180" cy="114" fill="#fff4f1" r="86"/><g><circle cx="146" cy="160" fill="#f4aeab" r="108"/><path d="m146 272c-61.758 0-112-50.242-112-112s50.242-112 112-112 112 50.242 112 112-50.242 112-112 112zm0-216c-57.346 0-104 46.654-104 104s46.654 104 104 104 104-46.654 104-104-46.654-104-104-104z" fill="#4c241d"/></g><g fill="#4c241d"><circle cx="68" cy="54" r="4.529"/><circle cx="252" cy="242" r="4.529"/><path d="m251.656 65.656c-1.023 0-2.047-.391-2.828-1.172l-11.312-11.312c-1.562-1.562-1.562-4.094 0-5.656s4.094-1.562 5.656 0l11.312 11.312c1.562 1.562 1.562 4.094 0 5.656-.781.782-1.804 1.172-2.828 1.172z"/><path d="m240.344 65.656c-1.023 0-2.047-.391-2.828-1.172-1.562-1.562-1.562-4.094 0-5.656l11.312-11.312c1.562-1.562 4.094-1.562 5.656 0s1.562 4.094 0 5.656l-11.312 11.312c-.781.782-1.805 1.172-2.828 1.172z"/></g><g><path d="m98 256.747c14.463 7.19 30.753 11.253 48 11.253s33.537-4.063 48-11.253v-40.747h-96z" fill="#fff"/><path d="m146 272c-17.455 0-34.205-3.928-49.781-11.672-1.359-.676-2.219-2.064-2.219-3.582v-40.746c0-2.209 1.791-4 4-4h96c2.209 0 4 1.791 4 4v40.746c0 1.518-.859 2.906-2.219 3.582-15.576 7.744-32.326 11.672-49.781 11.672zm-44-17.764c13.828 6.48 28.617 9.764 44 9.764s30.172-3.283 44-9.764v-34.236h-88z" fill="#4c241d"/></g><path d="m138 236h-12c-2.209 0-4-1.791-4-4s1.791-4 4-4h12c2.209 0 4 1.791 4 4s-1.791 4-4 4z" fill="#4c241d"/><path d="m138 248h-12c-2.209 0-4-1.791-4-4s1.791-4 4-4h12c2.209 0 4 1.791 4 4s-1.791 4-4 4z" fill="#4c241d"/><path d="m166 236h-12c-2.209 0-4-1.791-4-4s1.791-4 4-4h12c2.209 0 4 1.791 4 4s-1.791 4-4 4z" fill="#4c241d"/><path d="m166 248h-12c-2.209 0-4-1.791-4-4s1.791-4 4-4h12c2.209 0 4 1.791 4 4s-1.791 4-4 4z" fill="#4c241d"/><g><path d="m182 224h-11.634c-4.621 0-8.366 3.746-8.366 8.366v11.267c0 4.621 3.746 8.366 8.366 8.366h25.857c7.609 0 13.777-6.168 13.777-13.777v-2.222c0-15.464-12.536-28-28-28h-72c-15.464 0-28 12.536-28 28v2.223c0 7.609 6.168 13.777 13.777 13.777h25.857c4.621 0 8.366-3.746 8.366-8.366v-11.267c0-4.621-3.746-8.366-8.366-8.366h-11.634" fill="#fff"/><path d="m196.223 256h-25.855c-6.818 0-12.367-5.549-12.367-12.367v-11.266c0-6.818 5.549-12.367 12.367-12.367h11.632c2.209 0 4 1.791 4 4s-1.791 4-4 4h-11.633c-2.408 0-4.367 1.959-4.367 4.367v11.266c0 2.408 1.959 4.367 4.367 4.367h25.855c5.391 0 9.777-4.387 9.777-9.777v-2.223c0-13.234-10.766-24-24-24h-72c-13.234 0-24 10.766-24 24v2.223c0 5.391 4.387 9.777 9.777 9.777h25.855c2.408 0 4.367-1.959 4.367-4.367v-11.266c0-2.408-1.959-4.367-4.367-4.367h-11.631c-2.209 0-4-1.791-4-4s1.791-4 4-4h11.633c6.818 0 12.367 5.549 12.367 12.367v11.266c0 6.818-5.549 12.367-12.367 12.367h-25.856c-9.802 0-17.777-7.975-17.777-17.777v-2.223c0-17.645 14.355-32 32-32h72c17.645 0 32 14.355 32 32v2.223c0 9.802-7.975 17.777-17.777 17.777z" fill="#4c241d"/></g><g><path d="m122 124.743c-1.078-12.497-11.973-21.745-24.335-20.656l-20.764 1.83c-8.978.791-15.621 8.791-14.838 17.867l1.278 14.824c1.112 12.888 12.348 22.426 25.096 21.302l17.559-1.548" fill="#eaeaea"/><path d="m86.383 164c-6.332 0-12.41-2.209-17.334-6.342-5.617-4.717-9.059-11.361-9.691-18.707l-1.279-14.824c-.973-11.254 7.314-21.211 18.471-22.193l20.764-1.83c7.025-.605 13.832 1.541 19.23 6.074 5.471 4.594 8.824 11.064 9.441 18.221.191 2.201-1.439 4.139-3.641 4.328-2.209.219-4.139-1.439-4.328-3.641-.434-5.023-2.783-9.562-6.617-12.781-3.762-3.158-8.529-4.678-13.383-4.232l-20.764 1.83c-6.771.598-11.797 6.67-11.205 13.537l1.279 14.824c.451 5.215 2.889 9.926 6.867 13.268 3.904 3.277 8.834 4.828 13.893 4.395l17.559-1.547c2.209-.182 4.143 1.434 4.336 3.633.193 2.201-1.434 4.143-3.633 4.336l-17.559 1.547c-.805.069-1.607.104-2.406.104z" fill="#4c241d"/></g><g><path d="m170 124.743c1.078-12.497 11.973-21.745 24.335-20.656l20.764 1.83c8.978.791 15.621 8.791 14.838 17.867l-1.278 14.824c-1.112 12.888-12.348 22.426-25.096 21.302l-17.559-1.548" fill="#eaeaea"/><path d="m205.617 164c-.799 0-1.6-.035-2.406-.105l-17.559-1.547c-2.199-.193-3.826-2.135-3.633-4.336.193-2.199 2.143-3.82 4.336-3.633l17.559 1.547c5.049.438 9.988-1.115 13.893-4.395 3.979-3.342 6.416-8.053 6.867-13.268l1.279-14.824c.592-6.867-4.434-12.939-11.205-13.537l-20.764-1.83c-4.873-.43-9.621 1.074-13.383 4.232-3.834 3.219-6.184 7.758-6.617 12.781-.189 2.201-2.143 3.857-4.328 3.641-2.201-.189-3.832-2.127-3.641-4.328.617-7.156 3.971-13.627 9.441-18.221 5.402-4.533 12.234-6.703 19.23-6.074l20.764 1.83c11.156.982 19.443 10.939 18.471 22.193l-1.279 14.824c-.633 7.346-4.074 13.99-9.691 18.707-4.924 4.134-11.004 6.343-17.334 6.343z" fill="#4c241d"/></g><g><path d="m206 165.243c0 27.923-31.567 42.757-58.454 42.757s-60.718-14.834-60.718-42.757 26.753-57.243 60.718-57.243c36.23 0 58.454 29.319 58.454 57.243z" fill="#fff"/><path d="m147.547 212c-31.125 0-64.719-17.877-64.719-46.758 0-35.051 34.168-61.242 64.719-61.242 30.035 0 62.453 23.414 62.453 61.242 0 29.268-31.754 46.758-62.453 46.758zm0-100c-32.463 0-56.719 28.109-56.719 53.242 0 26.439 33.846 38.758 56.719 38.758 22.611 0 54.453-12.025 54.453-38.758 0-32.887-28.266-53.242-54.453-53.242z" fill="#4c241d"/></g><circle cx="116" cy="150" fill="#4c241d" r="6"/><circle cx="176" cy="150" fill="#4c241d" r="6"/><g><path d="m154.614 196h-17.227c-7.034 0-12.385-4.774-11.229-10.018l5.026-22.793c.915-4.149 5.664-7.189 11.229-7.189h7.175c5.565 0 10.314 3.041 11.229 7.189l5.026 22.793c1.156 5.244-4.195 10.018-11.229 10.018z" fill="#6b4f5b"/><path d="m154.613 200h-17.227c-5.213 0-10.018-2.109-12.857-5.641-2.182-2.717-2.992-5.998-2.277-9.238l5.025-22.793c1.318-5.984 7.684-10.328 15.135-10.328h7.176c7.451 0 13.816 4.344 15.135 10.328l5.025 22.793c.715 3.24-.096 6.521-2.277 9.238-2.84 3.532-7.645 5.641-12.858 5.641zm-12.201-40c-4.025 0-6.883 2.059-7.322 4.051l-5.025 22.793c-.188.85.049 1.691.701 2.504 1.031 1.283 3.311 2.652 6.621 2.652h17.227c3.311 0 5.59-1.369 6.621-2.652.652-.812.889-1.654.701-2.504l-5.025-22.793c-.439-1.992-3.297-4.051-7.322-4.051z" fill="#4c241d"/></g><circle cx="138" cy="184" fill="#4c241d" r="4"/><circle cx="154" cy="184" fill="#4c241d" r="4"/><g><path d="m107.714 119.429s-5.714-7.429-21.714-3.429" fill="#eaeaea"/><path d="m107.717 123.428c-1.17 0-2.33-.512-3.117-1.49-.295-.336-4.896-5.244-17.629-2.057-2.141.541-4.312-.768-4.852-2.91-.535-2.145.768-4.316 2.91-4.852 18.332-4.584 25.557 4.48 25.855 4.869 1.348 1.752 1.02 4.262-.73 5.609-.726.561-1.586.831-2.437.831z" fill="#4c241d"/></g><g><path d="m186 119.429s5.714-7.429 21.714-3.429" fill="#eaeaea"/><path d="m186.006 123.365c-.881 0-1.766-.287-2.494-.879-1.68-1.369-2.004-3.781-.682-5.498.297-.391 7.518-9.451 25.855-4.869 2.143.535 3.445 2.707 2.91 4.852s-2.709 3.453-4.852 2.91c-12.902-3.229-17.451 1.848-17.639 2.066-.797.93-1.948 1.418-3.098 1.418z" fill="#4c241d"/></g></g></svg>