<svg id="lazy" enable-background="new 0 0 300 300" height="512" viewBox="0 0 300 300" width="512" xmlns="http://www.w3.org/2000/svg"><g><circle cx="178" cy="114" fill="#fff4f1" r="86"/><g><circle cx="148" cy="160" fill="#a9ba5a" r="108"/><path d="m148 272c-61.758 0-112-50.242-112-112s50.242-112 112-112 112 50.242 112 112-50.242 112-112 112zm0-216c-57.348 0-104 46.654-104 104s46.652 104 104 104 104-46.654 104-104-46.652-104-104-104z" fill="#4c241d"/></g><g><path d="m148.188 52.005c-31.3 19.173-52.188 53.683-52.188 93.077v22.918l121.599-6.08c23.378-1.169 38.388-25.575 28.637-46.855-17.026-37.159-54.517-62.986-98.048-63.06z" fill="#b5a19c"/><path d="m96 172c-1.023 0-2.012-.393-2.758-1.102-.793-.755-1.242-1.802-1.242-2.898v-22.918c0-39.668 20.223-75.738 54.098-96.488.633-.391 1.41-.646 2.098-.59 43.598.074 83.512 25.744 101.676 65.395 5.105 11.145 4.344 24.078-2.039 34.596-6.438 10.604-17.664 17.303-30.035 17.92l-121.598 6.08c-.067.003-.134.005-.2.005zm53.312-115.988c-30.898 19.375-49.312 52.586-49.312 89.07v18.713l117.398-5.869c9.715-.486 18.535-5.75 23.594-14.082 5.082-8.371 5.668-18.254 1.605-27.113-16.71-36.477-53.238-60.211-93.285-60.719z" fill="#4c241d"/></g><g><path d="m112 156v44 29.328c0 3.685 2.987 6.672 6.672 6.672h18.679c5.465 0 9.525-5.061 8.339-10.396l-5.69-25.604v-48" fill="#b5a19c"/><path d="m137.352 240h-18.68c-5.883 0-10.672-4.787-10.672-10.672v-73.328c0-2.209 1.789-4 4-4s4 1.791 4 4v73.328c0 1.473 1.199 2.672 2.672 2.672h18.68c1.383 0 2.676-.619 3.543-1.699.867-1.082 1.191-2.477.891-3.832l-5.691-25.602c-.064-.285-.095-.576-.095-.867v-48c0-2.209 1.789-4 4-4s4 1.791 4 4v47.561l5.598 25.176c.828 3.736-.07 7.588-2.465 10.572-2.395 2.98-5.957 4.691-9.781 4.691z" fill="#4c241d"/></g><g fill="#4c241d"><path d="m116 248c-2.211 0-4-1.791-4-4v-8c0-2.209 1.789-4 4-4s4 1.791 4 4v8c0 2.209-1.789 4-4 4z"/><path d="m128 252c-2.211 0-4-1.791-4-4v-12c0-2.209 1.789-4 4-4s4 1.791 4 4v12c0 2.209-1.789 4-4 4z"/><path d="m140 252c-2.211 0-4-1.791-4-4v-12c0-2.209 1.789-4 4-4s4 1.791 4 4v12c0 2.209-1.789 4-4 4z"/><circle cx="64" cy="56" r="4"/><path d="m252 68c-1.023 0-2.047-.391-2.828-1.172l-12-12c-1.562-1.562-1.562-4.094 0-5.656s4.094-1.562 5.656 0l12 12c1.562 1.562 1.562 4.094 0 5.656-.781.781-1.805 1.172-2.828 1.172z"/><path d="m240 68c-1.023 0-2.047-.391-2.828-1.172-1.562-1.562-1.562-4.094 0-5.656l12-12c1.562-1.562 4.094-1.562 5.656 0s1.562 4.094 0 5.656l-12 12c-.781.781-1.805 1.172-2.828 1.172z"/></g><g><path d="m169.78 116h-59.56c-21.108 0-38.22 17.112-38.22 38.22v29.427c0 15.659 12.694 28.353 28.353 28.353h79.295c15.658 0 28.352-12.694 28.352-28.353v-29.427c0-21.108-17.112-38.22-38.22-38.22z" fill="#b5a19c"/><path d="m179.648 216h-79.297c-17.839 0-32.351-14.514-32.351-32.352v-29.428c0-23.281 18.938-42.22 42.219-42.22h59.562c23.281 0 42.219 18.939 42.219 42.221v29.428c0 17.837-14.512 32.351-32.352 32.351zm-69.429-96c-18.867 0-34.219 15.352-34.219 34.221v29.428c0 13.427 10.926 24.351 24.352 24.351h79.297c13.425 0 24.351-10.924 24.351-24.352v-29.428c0-18.868-15.352-34.22-34.219-34.22z" fill="#4c241d"/></g><g><path d="m176 207.036v5.929c0 3.886-3.15 7.036-7.036 7.036h-57.929c-3.886 0-7.036-3.15-7.036-7.036v-5.929" fill="#b5a19c"/><path d="m168.965 224h-57.93c-6.086 0-11.035-4.951-11.035-11.035v-5.93c0-2.209 1.789-4 4-4s4 1.791 4 4v5.93c0 1.674 1.363 3.035 3.035 3.035h57.93c1.672 0 3.035-1.361 3.035-3.035v-5.93c0-2.209 1.789-4 4-4s4 1.791 4 4v5.93c0 6.084-4.949 11.035-11.035 11.035z" fill="#4c241d"/></g><g><path d="m179.539 168h-79.078c-6.882 0-12.461-5.579-12.461-12.461 0-6.511 5.013-11.925 11.505-12.424l40.495-3.115 40.495 3.115c6.492.499 11.505 5.913 11.505 12.424 0 6.882-5.579 12.461-12.461 12.461z" fill="#6b4f5b"/><path d="m179.539 172h-79.078c-9.078 0-16.461-7.385-16.461-16.461 0-8.547 6.676-15.756 15.195-16.412l40.496-3.115c.211-.016.406-.016.617 0l40.496 3.115c8.52.656 15.195 7.865 15.195 16.412.001 9.076-7.382 16.461-16.46 16.461zm-39.539-27.988-40.188 3.092c-4.382.337-7.812 4.042-7.812 8.435 0 4.666 3.797 8.461 8.461 8.461h79.078c4.664 0 8.461-3.795 8.461-8.461 0-4.393-3.43-8.098-7.812-8.436z" fill="#4c241d"/></g><g><path d="m153.098 188h-26.197c-3.665 0-6.5-3.613-6.046-7.704l2.477-22.292c.381-3.43 2.973-6.004 6.046-6.004h21.243c3.073 0 5.664 2.574 6.046 6.004l2.477 22.292c.455 4.091-2.381 7.704-6.046 7.704z" fill="#6b4f5b"/><path d="m153.098 192h-26.195c-2.773 0-5.355-1.18-7.27-3.318-2.109-2.357-3.113-5.574-2.754-8.826l2.477-22.293c.609-5.453 4.918-9.562 10.023-9.562h21.242c5.105 0 9.414 4.109 10.023 9.561l2.477 22.293c.359 3.254-.645 6.471-2.754 8.828-1.914 2.137-4.496 3.317-7.269 3.317zm-23.719-36c-1.008 0-1.918 1.074-2.07 2.447l-2.477 22.289c-.109.979.176 1.955.762 2.607.266.299.711.656 1.309.656h26.195c.598 0 1.043-.357 1.309-.656.586-.652.871-1.629.762-2.609l-2.477-22.289c-.152-1.371-1.062-2.445-2.07-2.445z" fill="#4c241d"/></g><path d="m176 160.002c-.496 0-1-.094-1.484-.287l-10-4c-2.051-.822-3.051-3.148-2.23-5.201.82-2.051 3.16-3.043 5.199-2.229l10 4c2.051.822 3.051 3.148 2.23 5.201-.625 1.563-2.129 2.516-3.715 2.516z" fill="#4c241d"/><path d="m104 160.002c-1.586 0-3.09-.953-3.715-2.516-.82-2.053.18-4.379 2.23-5.201l10-4c2.031-.812 4.379.178 5.199 2.229.82 2.053-.18 4.379-2.23 5.201l-10 4c-.484.193-.988.287-1.484.287z" fill="#4c241d"/><path d="m172 192h-64c-6.617 0-12-5.383-12-12 0-2.209 1.789-4 4-4s4 1.791 4 4c0 2.205 1.793 4 4 4h64c2.207 0 4-1.795 4-4 0-2.209 1.789-4 4-4s4 1.791 4 4c0 6.617-5.383 12-12 12z" fill="#4c241d"/><circle cx="132" cy="176" fill="#4c241d" r="4"/><circle cx="148" cy="176" fill="#4c241d" r="4"/><circle cx="208" cy="44" fill="#4c241d" r="4"/><g><path d="m208 124v84 29.328c0 3.685 2.987 6.672 6.672 6.672h18.679c5.465 0 9.525-5.061 8.339-10.396l-5.69-25.604v-88" fill="#b5a19c"/><path d="m233.352 248h-18.68c-5.883 0-10.672-4.787-10.672-10.672v-113.328c0-2.209 1.789-4 4-4s4 1.791 4 4v113.328c0 1.473 1.199 2.672 2.672 2.672h18.68c1.383 0 2.676-.619 3.543-1.699.867-1.082 1.191-2.477.891-3.832l-5.691-25.602c-.064-.285-.095-.576-.095-.867v-88c0-2.209 1.789-4 4-4s4 1.791 4 4v87.561l5.598 25.176c.828 3.736-.07 7.588-2.465 10.572-2.395 2.98-5.957 4.691-9.781 4.691z" fill="#4c241d"/></g><path d="m212 260c-2.211 0-4-1.791-4-4v-12c0-2.209 1.789-4 4-4s4 1.791 4 4v12c0 2.209-1.789 4-4 4z" fill="#4c241d"/><path d="m224 260c-2.211 0-4-1.791-4-4v-12c0-2.209 1.789-4 4-4s4 1.791 4 4v12c0 2.209-1.789 4-4 4z" fill="#4c241d"/><path d="m236 256c-2.211 0-4-1.791-4-4v-8c0-2.209 1.789-4 4-4s4 1.791 4 4v8c0 2.209-1.789 4-4 4z" fill="#4c241d"/><g><path d="m182.827 103c.264-3.138 2.06-7.59 7.755-13.378l6.375 6.273s1.193-8.864 12.546-12.751" fill="#b5a19c"/><path d="m182.832 107c-.109 0-.223-.004-.336-.014-2.203-.184-3.836-2.117-3.652-4.318.41-4.943 3.402-10.275 8.887-15.852 1.551-1.574 4.082-1.596 5.656-.045l2.172 2.137c2.105-3.359 5.895-7.234 12.648-9.549 2.09-.715 4.363.398 5.082 2.49.715 2.09-.398 4.363-2.488 5.08-8.703 2.977-9.844 9.291-9.887 9.559-.246 1.473-1.293 2.719-2.715 3.18-1.426.469-2.984.127-4.047-.92l-3.395-3.342c-2.957 3.648-3.805 6.266-3.945 7.926-.171 2.09-1.921 3.668-3.98 3.668z" fill="#4c241d"/></g></g></svg>