<svg id="leopard" enable-background="new 0 0 300 300" height="512" viewBox="0 0 300 300" width="512" xmlns="http://www.w3.org/2000/svg"><g><circle cx="248" cy="242" fill="#4c241d" r="4"/><circle cx="178" cy="112" fill="#fff4f1" r="86"/><g><circle cx="148" cy="158" fill="#b5a19c" r="108"/><path d="m148 270c-61.758 0-112-50.242-112-112s50.242-112 112-112 112 50.242 112 112-50.242 112-112 112zm0-216c-57.346 0-104 46.652-104 104s46.654 104 104 104 104-46.652 104-104-46.654-104-104-104z" fill="#4c241d"/></g><g><path d="m176.13 190h-56.26c-22.02 0-39.87 17.85-39.87 39.87v12.017c18.567 15.069 42.223 24.113 68 24.113s49.433-9.044 68-24.113v-12.017c0-22.02-17.85-39.87-39.87-39.87z" fill="#ffce56"/><path d="m148 270c-25.609 0-50.654-8.883-70.521-25.008-.936-.758-1.479-1.898-1.479-3.105v-12.016c0-24.191 19.68-43.871 43.869-43.871h56.262c24.189 0 43.869 19.68 43.869 43.871v12.016c0 1.207-.543 2.348-1.479 3.105-19.867 16.125-44.912 25.008-70.521 25.008zm-64-30.039c18.203 14.227 40.854 22.039 64 22.039s45.797-7.812 64-22.039v-10.09c0-19.781-16.092-35.871-35.869-35.871h-56.262c-19.777 0-35.869 16.09-35.869 35.871zm132 1.926h.039z" fill="#4c241d"/></g><g><path d="m136 214s-4 4-12 12 4 32 12 12 16-20 16-20z" fill="#fc8c29"/><path d="m128.836 249.77c-4.008 0-7.67-3.039-9.809-8.145-2.396-5.719-2.664-13.645 2.145-18.453l12-12c.994-.992 2.439-1.398 3.799-1.051l16 4c1.959.488 3.246 2.363 3 4.367-.248 2.004-1.949 3.512-3.967 3.512.18.004-5.779 1.211-12.289 17.484-2.715 6.789-6.354 10.246-10.814 10.285-.022.001-.044.001-.065.001zm8.391-31.34-10.398 10.398c-1.609 1.609-1.938 5.188-.797 8.695.928 2.855 2.373 4.176 2.82 4.246-.02-.004 1.527-.488 3.434-5.254 3.32-8.301 6.758-13.551 9.828-16.863z" fill="#4c241d"/></g><g><path d="m104 202s0 4-4 12-8 20 4 12 12.92-12.262 12.92-12.262z" fill="#fc8c29"/><path d="m97.969 232.645c-1.367 0-2.711-.395-3.893-1.438-2.129-1.883-4.203-5.895 2.346-18.996 3.398-6.793 3.578-10.262 3.58-10.293.064-1.555 1.021-2.969 2.455-3.566s3.084-.352 4.232.688l12.92 11.738c1.057.961 1.521 2.41 1.221 3.805-.379 1.758-2.562 6.715-14.611 14.746-1.569 1.046-4.973 3.316-8.25 3.316zm2.041-6.454h.039zm6.293-16.695c-.639 1.781-1.518 3.879-2.725 6.293-1.6 3.199-2.605 5.859-3.131 7.723.391-.23.834-.508 1.334-.84 5.635-3.758 8.531-6.531 9.977-8.219z" fill="#4c241d"/></g><circle cx="64" cy="54" fill="#4c241d" r="4"/><path d="m252 66c-1.023 0-2.047-.391-2.828-1.172l-12-12c-1.562-1.562-1.562-4.094 0-5.656s4.094-1.562 5.656 0l12 12c1.562 1.562 1.562 4.094 0 5.656-.781.781-1.805 1.172-2.828 1.172z" fill="#4c241d"/><path d="m240 66c-1.023 0-2.047-.391-2.828-1.172-1.562-1.562-1.562-4.094 0-5.656l12-12c1.562-1.562 4.094-1.562 5.656 0s1.562 4.094 0 5.656l-12 12c-.781.781-1.805 1.172-2.828 1.172z" fill="#4c241d"/><g><path d="m212 94c7.754 17.36-11.263 49.6-11.263 49.6l-15.509-22.32z" fill="#fc8c29"/><path d="m200.736 147.602c-1.307 0-2.535-.641-3.285-1.719l-15.508-22.32c-1.096-1.578-.916-3.711.43-5.082l26.771-27.281c.926-.945 2.248-1.379 3.564-1.137 1.301.234 2.404 1.098 2.943 2.305 8.498 19.027-10.65 51.879-11.471 53.266-.691 1.176-1.936 1.914-3.297 1.965-.047.003-.098.003-.147.003zm-10.334-25.883 9.9 14.25c4.492-9.008 10.205-23.352 9.494-34.012z" fill="#4c241d"/></g><g><path d="m80 94c-7.754 17.36 13.914 49.6 13.914 49.6l15.509-22.32z" fill="#fc8c29"/><path d="m93.914 147.602c-.01 0-.021 0-.031 0-1.32-.012-2.551-.672-3.289-1.77-.936-1.391-22.805-34.301-14.246-53.465.525-1.176 1.588-2.027 2.852-2.285 1.262-.262 2.574.109 3.52.984l29.422 27.281c1.463 1.355 1.703 3.578.566 5.215l-15.508 22.32c-.749 1.079-1.977 1.72-3.286 1.72zm-11.572-45.973c-.51 10.832 6.518 25.672 11.76 34.691l10.053-14.469z" fill="#4c241d"/></g><g><path d="m194.61 126.115c7.755-6.162 17.39-17.553 17.39-32.115l-35.279 15.234c-8.863-6.3-18.555-10.274-28.721-10.274-10.537 0-20.573 4.249-29.695 10.955l-38.305-15.915c0 15.599 12.655 27.555 20.364 33.347-17.291 21.135-16.364 50.157-16.364 62.653 0 7.44 22.026 28 64 28s64-20.56 64-28c0-12.74.486-42.588-17.39-63.885z" fill="#ffce56"/><path d="m148 222c-42.184 0-68-20.719-68-32l-.004-1.809c-.041-12.984-.127-39.309 14.805-60.156-8.147-6.824-18.801-18.691-18.801-34.035 0-1.336.668-2.586 1.779-3.328s2.521-.875 3.756-.367l36.256 15.062c19.625-13.559 39.656-13.836 59.375-.684l33.248-14.355c1.236-.531 2.658-.406 3.783.328 1.125.742 1.803 1.996 1.803 3.344 0 15.492-9.521 26.824-15.877 32.66 15.914 21.574 15.889 49.918 15.877 62.355v.985c0 11.281-25.816 32-68 32zm-63.199-121.672c2.766 10.918 12.055 19.379 17.965 23.82.871.656 1.438 1.637 1.568 2.719s-.186 2.172-.875 3.012c-15.59 19.059-15.504 45.555-15.463 58.285l.004 1.836c.15 4.746 19.814 24 60 24 40.184 0 59.85-19.254 60-24.004v-.988c.014-13.203.039-40.676-16.453-60.32-.695-.824-1.025-1.898-.918-2.973.109-1.074.646-2.059 1.492-2.73 4.053-3.219 12.67-11.219 15.18-22.598l-28.994 12.52c-1.289.547-2.762.398-3.904-.41-18.127-12.891-35.68-12.613-53.729.641-1.133.832-2.611 1-3.904.473z" fill="#4c241d"/></g><g><path d="m130.518 162.386c-6.257 4.583-10.272 11.803-10.491 20.593-.45 18.105 4.843 33.972 12.751 43.021h30.101c7.909-9.048 13.202-24.916 12.751-43.021-.225-9.041-4.467-16.421-11.033-20.979" fill="#fff"/><path d="m162.879 230h-30.102c-1.154 0-2.252-.5-3.012-1.367-9.057-10.363-14.193-27.465-13.736-45.754.242-9.746 4.549-18.172 12.125-23.719 1.787-1.312 4.287-.914 5.59.863 1.307 1.781.918 4.285-.863 5.59-5.531 4.051-8.676 10.254-8.855 17.465-.381 15.285 3.668 29.98 10.635 38.922h26.336c6.967-8.941 11.016-23.637 10.635-38.918-.186-7.434-3.492-13.754-9.314-17.797-1.814-1.258-2.264-3.75-1.004-5.566 1.256-1.812 3.75-2.273 5.566-1.004 7.855 5.453 12.502 14.262 12.748 24.168.457 18.285-4.68 35.387-13.736 45.75-.761.867-1.859 1.367-3.013 1.367z" fill="#4c241d"/></g><path d="m176 198c-12.033 0-22.537-5.008-28-12.391-5.463 7.383-15.967 12.391-28 12.391v-8c13.01 0 24-7.328 24-16 0-2.211 1.791-4 4-4s4 1.789 4 4c0 8.672 10.99 16 24 16z" fill="#4c241d"/><g><path d="m150.71 161.909h-5.42c-1.053 0-1.987-.381-2.32-.945l-2.842-4.819c-.528-.895.651-1.819 2.32-1.819h11.104c1.669 0 2.848.924 2.32 1.819l-2.842 4.819c-.333.564-1.267.945-2.32.945z" fill="#ffce56"/><path d="m150.709 165.91h-5.418c-2.529 0-4.682-1.086-5.762-2.902l-2.848-4.832c-.898-1.523-.912-3.344-.037-4.875 1.049-1.836 3.271-2.977 5.803-2.977h11.105c2.531 0 4.754 1.141 5.803 2.977.875 1.531.861 3.352-.037 4.875l-2.842 4.82c-1.085 1.828-3.238 2.914-5.767 2.914z" fill="#4c241d"/></g><g><path d="m116 146 12 4" fill="#ffce56"/><path d="m128 154c-.418 0-.846-.066-1.266-.207l-12-4c-2.096-.695-3.229-2.961-2.529-5.059.699-2.094 2.953-3.234 5.061-2.527l12 4c2.096.695 3.229 2.961 2.529 5.059-.559 1.675-2.119 2.734-3.795 2.734z" fill="#4c241d"/></g><g fill="#4c241d"><path d="m168 154c-1.676 0-3.236-1.059-3.795-2.734-.699-2.098.434-4.363 2.529-5.059l12-4c2.104-.707 4.363.434 5.061 2.527.699 2.098-.434 4.363-2.529 5.059l-12 4c-.42.141-.848.207-1.266.207z"/><path d="m148 182c-2.209 0-4-1.789-4-4v-12c0-2.211 1.791-4 4-4s4 1.789 4 4v12c0 2.211-1.791 4-4 4z"/><path d="m174.805 178.664c-1.338 0-2.645-.672-3.402-1.891-1.164-1.875-.592-4.34 1.283-5.504 1.451-.906 35.855-21.949 57.812-4.395 1.727 1.383 2.006 3.898.625 5.625-1.377 1.723-3.9 2.004-5.621.625-17.535-14.035-48.283 4.742-48.592 4.938-.656.407-1.387.602-2.105.602z"/><path d="m220.004 194c-1.359 0-2.684-.691-3.434-1.941-8.535-14.227-31.887-6.922-38.84-4.34-2.062.773-4.371-.285-5.141-2.359-.77-2.07.287-4.371 2.359-5.141 8.414-3.121 36.777-11.785 48.48 7.723 1.137 1.895.523 4.352-1.371 5.488-.643.386-1.352.57-2.053.57z"/><path d="m120.826 177.285c-.646 0-1.301-.156-1.908-.488-7.119-3.871-31.496-15.594-46.381-3.672-1.723 1.379-4.244 1.094-5.621-.625-1.381-1.727-1.102-4.242.625-5.625 18.742-14.988 46.992-1.57 55.201 2.898 1.941 1.055 2.658 3.484 1.602 5.426-.727 1.332-2.1 2.086-3.518 2.086z"/><path d="m78.035 194c-.701 0-1.41-.184-2.055-.57-1.895-1.137-2.508-3.594-1.371-5.488 10.771-17.945 35.66-12.027 45.857-8.645 2.098.695 3.234 2.957 2.539 5.055-.695 2.094-2.953 3.223-5.055 2.539-8.373-2.773-28.684-7.82-36.482 5.168-.749 1.25-2.073 1.941-3.433 1.941z"/></g><g><path d="m149.81 99.047c-.604-.028-1.203-.087-1.81-.087-5.585 0-11.023 1.222-16.265 3.343 2.319 1.923 4.265 4.481 4.265 7.697 0 8 4 12 12 8 0 0-1.747-10.656 1.81-18.953z" fill="#fc8c29"/><path d="m142.418 123.562c-2.227 0-3.922-.648-5.139-1.398-2.408-1.488-5.279-4.809-5.279-12.164 0-1.516-.947-3.066-2.816-4.613-1.086-.898-1.617-2.301-1.402-3.691.215-1.395 1.146-2.57 2.451-3.098 6.443-2.613 12.941-4.008 19.203-3.578l.557.031c1.311.059 2.51.758 3.207 1.871s.805 2.496.287 3.703c-3.041 7.086-1.553 16.637-1.537 16.734.275 1.727-.598 3.438-2.16 4.219-2.917 1.457-5.36 1.984-7.372 1.984zm-3.9-19.324c1.158 2.172 1.482 4.188 1.482 5.762 0 3.277.801 4.934 1.486 5.359.377.23 1.111.301 2.215.035-.211-2.953-.273-7.547.689-12.242-1.939.2-3.9.563-5.872 1.086z" fill="#4c241d"/></g><g><path d="m107.316 257.96c2.605-2.502 4.684-5.653 4.684-7.96 0-4.418-7.582-8-12-8-3.406 0-6.296 4.5-7.449 8.589 4.701 2.823 9.635 5.278 14.765 7.371z" fill="#fc8c29"/><path d="m107.316 261.961c-.51 0-1.021-.098-1.512-.297-5.352-2.184-10.504-4.758-15.314-7.645-1.547-.93-2.279-2.781-1.789-4.516 1.615-5.726 5.737-11.503 11.299-11.503 6.369 0 16 4.785 16 12 0 4.66-4.135 9.137-5.912 10.844-.76.73-1.758 1.117-2.772 1.117zm-9.785-13.113c2.812 1.562 5.738 3.012 8.742 4.328 1.186-1.508 1.717-2.73 1.727-3.176-.174-1.281-4.721-4-8-4-.426.059-1.51 1.055-2.469 2.848z" fill="#4c241d"/></g><g><path d="m157.842 254.013c3.481-.133 6.075-6.213 5.942-9.694s-6.213-6.075-9.694-5.942-6.195 3.062-6.062 6.542c.132 3.482 6.333 9.227 9.814 9.094z" fill="#fc8c29"/><path d="m157.727 258.016c-3.756 0-7.365-2.961-8.766-4.258-1.434-1.328-4.783-4.832-4.932-8.684-.104-2.75.869-5.379 2.74-7.398s4.416-3.188 7.168-3.293c2.5-.121 5.598.711 8.158 2.094 3.549 1.922 5.568 4.652 5.686 7.691.094 2.469-.709 5.594-2.096 8.156-1.922 3.551-4.652 5.57-7.691 5.684-.09.004-.18.008-.267.008zm.037-8h.039zm-3.371-7.641c-.051 0-.1 0-.15 0-.615.023-1.186.285-1.605.738-.418.453-.637 1.039-.611 1.656.271 1.441 3.852 4.801 5.541 5.211.893-.66 2.293-3.566 2.219-5.508-.373-.601-3.349-2.097-5.394-2.097z" fill="#4c241d"/></g><g><path d="m216 229.87c0-5.063-.981-9.887-2.703-14.343-1.994 3.15-5.086 6.474-9.297 6.474-8 0-16 12-4 16 5.216 1.738 10.429 3.476 14.659 4.886.438-.344.908-.648 1.341-1z" fill="#fc8c29"/><path d="m214.658 246.887c-.426 0-.852-.066-1.266-.207l-14.658-4.887c-9.406-3.133-9.051-10.074-8.717-12.129 1.026-6.324 7.43-11.664 13.983-11.664 2.477 0 4.584-2.508 5.918-4.613.807-1.273 2.262-1.98 3.77-1.84 1.504.148 2.795 1.129 3.34 2.539 1.972 5.102 2.972 10.414 2.972 15.785v12.016c0 1.207-.545 2.348-1.48 3.105-.297.242-.604.465-.912.688l-.484.359c-.714.555-1.585.848-2.466.848zm1.342-5h.039zm-4.584-18.395c-2.728 1.973-5.361 2.508-7.416 2.508-2.795 0-5.732 2.766-6.086 4.945-.082.504-.33 2.031 3.352 3.262l10.734 3.578v-7.914c0-2.141-.195-4.269-.584-6.379z" fill="#4c241d"/></g><path d="" style="fill:#fff;stroke:#4c241d;stroke-width:8;stroke-linecap:round;stroke-linejoin:round;stroke-miterlimit:10"/><path d="m184.004 250c-.1 0-.201-.004-.303-.012-.707-.051-6.986-.648-9.59-5.242-1.051-1.848-1.85-4.965.311-9.285 2.41-4.82.711-6.68.637-6.754-1.705-1.406-1.875-3.859-.471-5.566 1.404-1.703 3.996-1.883 5.705-.477 2.492 2.051 5.568 7.809 1.285 16.375-.576 1.148-.539 1.707-.51 1.762.266.473 1.938 1.098 3.256 1.211 2.189.195 3.828 2.121 3.648 4.312-.169 2.09-1.906 3.676-3.968 3.676z" fill="#4c241d"/><g><path d="m152.561 132.407s8 0 8-8 4-8 4-8" fill="#ffce56"/><path d="m152.561 136.406c-2.209 0-4-1.789-4-4 0-2.195 1.77-3.98 3.961-4 1.844-.047 4.039-.785 4.039-4 0-11.863 7.674-12 8-12 2.209 0 4 1.789 4 4 0 1.953-1.398 3.578-3.25 3.93-.211.309-.75 1.367-.75 4.07 0 8.805-7.176 12-12 12z" fill="#4c241d"/></g></g></svg>