<svg id="lion" enable-background="new 0 0 300 300" height="512" viewBox="0 0 300 300" width="512" xmlns="http://www.w3.org/2000/svg"><g><circle cx="180" cy="114" fill="#fff4f1" r="86"/><g><circle cx="146" cy="160" fill="#9dc1e4" r="108"/><path d="m146 272c-61.758 0-112-50.242-112-112s50.242-112 112-112 112 50.242 112 112-50.242 112-112 112zm0-216c-57.346 0-104 46.654-104 104s46.654 104 104 104 104-46.654 104-104-46.654-104-104-104z" fill="#4c241d"/></g><circle cx="68" cy="54" fill="#4c241d" r="4.529"/><circle cx="252" cy="242" fill="#4c241d" r="4.529"/><path d="m251.656 65.656c-1.023 0-2.047-.391-2.828-1.172l-11.312-11.312c-1.562-1.562-1.562-4.094 0-5.656s4.094-1.562 5.656 0l11.312 11.312c1.562 1.562 1.562 4.094 0 5.656-.781.782-1.804 1.172-2.828 1.172z" fill="#4c241d"/><g><path d="m152.428 180h-12.856c-31.796 0-57.572 25.776-57.572 57.572v9.412c17.913 13.202 40.041 21.016 64 21.016s46.087-7.814 64-21.016v-9.412c0-31.796-25.776-57.572-57.572-57.572z" fill="#ffce56"/><path d="m146 272c-24.072 0-47.023-7.537-66.373-21.795-1.023-.754-1.627-1.949-1.627-3.221v-9.412c0-33.951 27.621-61.572 61.572-61.572h12.855c33.952 0 61.573 27.621 61.573 61.572v9.412c0 1.271-.604 2.467-1.627 3.221-19.35 14.258-42.301 21.795-66.373 21.795zm-60-27.061c17.617 12.477 38.318 19.061 60 19.061s42.383-6.584 60-19.061v-7.367c0-29.539-24.033-53.572-53.572-53.572h-12.855c-29.54 0-53.573 24.033-53.573 53.572zm124 2.045h.039z" fill="#4c241d"/></g><path d="m240.344 65.656c-1.023 0-2.047-.391-2.828-1.172-1.562-1.562-1.562-4.094 0-5.656l11.312-11.312c1.562-1.562 4.094-1.562 5.656 0s1.562 4.094 0 5.656l-11.312 11.312c-.781.782-1.805 1.172-2.828 1.172z" fill="#4c241d"/><g><path d="m154 256c9.052-20.279 44.975-23.667 65.384-55.044 13.845-21.286-1.202-68.085-8.526-89.962-13.578-40.559-64.858-18.994-64.858-18.994s-50.37-21.565-63.948 18.994c-7.323 21.877-22.371 68.676-8.526 89.962 20.409 31.377 71.422 34.765 80.474 55.044z" fill="#bf7e68"/><path d="m154 260c-1.578 0-3.01-.928-3.652-2.369-3.539-7.928-15.828-13.346-30.061-19.617-18.023-7.943-38.449-16.945-50.113-34.877-13.568-20.859-2.807-60.879 8.086-93.412 3.807-11.375 10.658-19.35 20.359-23.701 18.416-8.26 41.227-.67 47.393 1.676 6.26-2.346 29.672-10.018 48.367-1.559 9.678 4.379 16.498 12.312 20.271 23.584 10.893 32.533 21.654 72.553 8.086 93.412-11.406 17.537-27.027 26.5-40.809 34.406-11.043 6.338-20.58 11.809-24.275 20.088-.642 1.441-2.074 2.369-3.652 2.369zm-36.24-169.725c-5.369 0-10.893.811-15.891 3.059-7.566 3.402-12.957 9.771-16.023 18.93-5.482 16.377-22.168 66.215-8.965 86.51 10.363 15.936 29.633 24.428 46.633 31.92 12.639 5.57 23.895 10.531 30.322 17.828 5.537-7.26 14.287-12.281 24.109-17.916 12.998-7.459 27.73-15.912 38.084-31.832 13.203-20.295-3.482-70.133-8.965-86.51-3.035-9.064-8.404-15.396-15.959-18.822-18.117-8.223-43.303 2.141-43.559 2.248-.996.414-2.125.414-3.117-.012-.177-.074-12.908-5.403-26.669-5.403z" fill="#4c241d"/></g><g><path d="m163.353 108h-34.706c-9.835 0-38.647 37.895-38.647 54.81 0 13.912 10.765 25.19 24.045 25.19h63.909c13.28 0 24.045-11.278 24.045-25.19.001-16.915-28.811-54.81-38.646-54.81z" fill="#ffce56"/><path d="m177.955 192h-63.91c-15.465 0-28.045-13.094-28.045-29.189 0-18.139 29.494-58.811 42.646-58.811h34.707c13.153 0 42.647 40.672 42.647 58.811 0 16.095-12.58 29.189-28.045 29.189zm-49.309-80c-6.312.158-34.646 34.291-34.646 50.811 0 11.683 8.992 21.189 20.045 21.189h63.91c11.053 0 20.045-9.506 20.045-21.189 0-16.52-28.334-50.652-34.648-50.811z" fill="#4c241d"/></g><g><path d="m178 180v10.669c0 9.572-10.346 17.331-23.108 17.331h-17.784c-12.762 0-23.108-7.759-23.108-17.331v-10.669" fill="#ffce56"/><path d="m154.893 212h-17.785c-14.948 0-27.108-9.57-27.108-21.332v-10.668c0-2.209 1.791-4 4-4s4 1.791 4 4v10.668c0 7.227 8.75 13.332 19.107 13.332h17.785c10.358 0 19.108-6.105 19.108-13.332v-10.668c0-2.209 1.791-4 4-4s4 1.791 4 4v10.668c0 11.762-12.16 21.332-27.107 21.332z" fill="#4c241d"/></g><g><path d="m148.423 164h-4.847c-.941 0-1.777-.201-2.075-.499l-2.542-2.542c-.472-.472.582-.96 2.075-.96h9.931c1.493 0 2.547.488 2.075.96l-2.542 2.542c-.297.298-1.133.499-2.075.499z" fill="#ffce56"/><path d="m148.424 168h-4.848c-1.475 0-3.523-.289-4.902-1.67l-2.543-2.543c-1.145-1.145-1.58-3.193-.961-4.688.816-1.971 2.953-3.1 5.865-3.1h9.93c2.912 0 5.049 1.129 5.865 3.1.619 1.494.184 3.543-.961 4.688l-2.543 2.543c-1.379 1.381-3.428 1.67-4.902 1.67z" fill="#4c241d"/></g><g fill="#4c241d"><path d="m146 184c-2.209 0-4-1.791-4-4v-12c0-2.209 1.791-4 4-4s4 1.791 4 4v12c0 2.209-1.791 4-4 4z"/><path d="m158 184h-24c-2.209 0-4-1.791-4-4s1.791-4 4-4h22.344l2.828-2.828c1.562-1.562 4.094-1.562 5.656 0s1.562 4.094 0 5.656l-4 4c-.75.75-1.767 1.172-2.828 1.172z"/><path d="m126.002 148.002c-.342 0-.689-.045-1.037-.139l-8-2.143c-2.133-.57-3.4-2.764-2.828-4.898.572-2.133 2.754-3.412 4.898-2.828l8 2.143c2.133.57 3.4 2.764 2.828 4.898-.478 1.787-2.093 2.967-3.861 2.967z"/><path d="m165.998 148.002c-1.768 0-3.383-1.18-3.861-2.967-.572-2.135.695-4.328 2.828-4.898l8-2.143c2.145-.584 4.326.695 4.898 2.828.572 2.135-.695 4.328-2.828 4.898l-8 2.143c-.347.094-.695.139-1.037.139z"/></g><g><path d="m189.567 107.157s10.509-5.719 21.005-6.274c4.361-.231 8.031 3.25 7.78 7.609-.42 7.314-2.377 18.336-10.096 22.025" fill="#ffce56"/><path d="m208.258 134.518c-1.492 0-2.924-.838-3.611-2.275-.953-1.992-.109-4.381 1.885-5.334 6.045-2.889 7.498-12.922 7.826-18.645.053-.896-.27-1.742-.904-2.381-.689-.693-1.678-1.061-2.67-1.006-9.48.502-19.207 5.74-19.305 5.793-1.938 1.057-4.369.338-5.426-1.602-1.057-1.941-.338-4.369 1.602-5.426.461-.252 11.436-6.158 22.707-6.754 3.303-.168 6.471 1.049 8.762 3.352 2.23 2.24 3.404 5.332 3.223 8.482-.525 9.143-3.098 20.975-12.365 25.404-.558.267-1.144.392-1.724.392z" fill="#4c241d"/></g><g><path d="m103.031 107.157s-10.509-5.719-21.005-6.274c-4.361-.231-8.031 3.25-7.78 7.609.42 7.314 2.377 18.336 10.096 22.025" fill="#ffce56"/><path d="m84.34 134.518c-.58.002-1.166-.125-1.723-.391-9.268-4.43-11.84-16.262-12.365-25.406-.18-3.15.996-6.242 3.227-8.482 2.289-2.303 5.506-3.543 8.758-3.35 11.271.596 22.246 6.502 22.707 6.754 1.939 1.055 2.654 3.48 1.602 5.422-1.053 1.939-3.484 2.658-5.422 1.607-.098-.053-9.879-5.297-19.309-5.795-.996-.059-1.979.312-2.668 1.004-.637.641-.959 1.486-.906 2.383.328 5.723 1.781 15.756 7.826 18.645 1.994.953 2.838 3.342 1.885 5.334-.688 1.437-2.12 2.275-3.612 2.275z" fill="#4c241d"/></g><g><path d="m130 229.467s6.936 18.305 4 26.533c0 0 12-4.422 16-17.688" fill="#bf7e68"/><path d="m134 260c-1.035 0-2.051-.402-2.814-1.156-1.104-1.094-1.475-2.725-.953-4.188 1.779-4.984-1.492-17.227-3.973-23.771-.783-2.066.258-4.375 2.322-5.158 2.066-.791 4.375.258 5.158 2.322.561 1.48 4.266 11.543 4.877 20.486 2.836-2.377 5.943-6.037 7.553-11.377.639-2.115 2.873-3.307 4.984-2.676 2.115.639 3.312 2.869 2.676 4.984-4.523 15.002-17.881 20.078-18.447 20.287-.451.167-.918.247-1.383.247z" fill="#4c241d"/></g></g></svg>