<svg id="long-ear-cat" enable-background="new 0 0 300 300" height="512" viewBox="0 0 300 300" width="512" xmlns="http://www.w3.org/2000/svg"><g><circle cx="179.014" cy="114" fill="#fff4f1" r="86"/><g><circle cx="146.986" cy="160" fill="#a9ba5a" r="108"/><path d="m146.986 272c-61.758 0-112-50.242-112-112s50.242-112 112-112 112 50.242 112 112-50.242 112-112 112zm0-216c-57.348 0-104 46.652-104 104s46.652 104 104 104 104-46.652 104-104-46.652-104-104-104z" fill="#4c241d"/></g><g><path d="m163.029 136s-6.908-34.872 41.427-54.048c0 0-11.922 13.336-7.497 24.491 5.628 14.185 11.199 29.795-5.315 40.838" fill="#f4aeab"/><path d="m191.646 151.281c-1.293 0-2.559-.625-3.328-1.777-1.23-1.836-.734-4.32 1.102-5.547 13.293-8.891 9.969-20.547 3.82-36.039-2.258-5.691-1.176-11.645.844-16.637-31.582 17.824-27.348 42.793-27.129 43.961.406 2.164-1.008 4.258-3.172 4.676-2.125.414-4.25-.98-4.676-3.141-.078-.383-6.973-38.371 43.871-58.543 1.727-.684 3.688-.09 4.75 1.426s.941 3.566-.285 4.953c-2.855 3.215-9.629 13.137-6.766 20.352 5.129 12.934 12.883 32.473-6.812 45.641-.684.456-1.453.675-2.219.675z" fill="#4c241d"/></g><g><path d="m197.901 112s-4 8-12 8" fill="#bf7e68"/><path d="m185.9 124c-2.211 0-4-1.789-4-4s1.789-4 4-4c5.367 0 8.402-5.754 8.434-5.812 1.008-1.957 3.43-2.734 5.371-1.742 1.961.996 2.758 3.375 1.773 5.344-.207.417-5.226 10.21-15.578 10.21z" fill="#4c241d"/></g><g><path d="m102.986 258.626c13.443 6.007 28.324 9.374 44 9.374s30.557-3.367 44-9.374v-26.056c0-22.406-18.164-40.57-40.57-40.57h-6.86c-22.406 0-40.57 18.164-40.57 40.57z" fill="#f4aeab"/><path d="m146.986 272c-15.844 0-31.199-3.27-45.633-9.723-1.441-.645-2.367-2.074-2.367-3.652v-26.055c0-24.574 19.996-44.57 44.57-44.57h6.859c24.574 0 44.57 19.996 44.57 44.57v26.055c0 1.578-.926 3.008-2.367 3.652-14.433 6.453-29.788 9.723-45.632 9.723zm-40-16.004c12.707 5.312 26.152 8.004 40 8.004s27.293-2.691 40-8.004v-23.426c0-20.164-16.406-36.57-36.57-36.57h-6.859c-20.164 0-36.57 16.406-36.57 36.57v23.426z" fill="#4c241d"/></g><g><path d="m130.986 136s6.908-34.872-41.427-54.048c0 0 11.922 13.336 7.497 24.491-5.628 14.185-11.199 29.795 5.315 40.838" fill="#f4aeab"/><path d="m102.369 151.281c-.766 0-1.535-.219-2.219-.676-19.695-13.168-11.941-32.707-6.812-45.641 2.863-7.215-3.91-17.137-6.766-20.352-1.227-1.387-1.348-3.438-.285-4.953s3.031-2.109 4.75-1.426c50.844 20.172 43.949 58.16 43.871 58.543-.426 2.168-2.531 3.59-4.699 3.145-2.16-.426-3.566-2.52-3.148-4.68.223-1.191 4.438-26.145-27.129-43.961 2.02 4.992 3.102 10.945.844 16.637-6.148 15.492-9.473 27.148 3.82 36.039 1.836 1.227 2.332 3.711 1.102 5.547-.77 1.153-2.04 1.778-3.329 1.778z" fill="#4c241d"/></g><g><path d="m203.004 177.183c0-27.163-22.02-49.183-49.183-49.183h-13.635c-27.163 0-49.183 22.02-49.183 49.183l-8 6.687c0 13.327 18.804 24.131 32.131 24.131h1.927c.863 11.187 10.193 20 21.6 20h16.629c11.407 0 20.738-8.813 21.6-20h1.982c13.327 0 32.131-10.804 32.131-24.131z" fill="#f4aeab"/><path d="m155.291 232h-16.629c-12.074 0-22.441-8.551-25.039-20.039-14.484-.773-34.617-12.332-34.617-28.094 0-1.184.527-2.309 1.434-3.07l6.602-5.512c1-28.449 24.457-51.285 53.145-51.285h13.637c28.691 0 52.148 22.836 53.148 51.285l6.602 5.512c.906.762 1.434 1.887 1.434 3.07 0 15.781-20.188 27.352-34.676 28.094-2.604 11.492-12.967 20.039-25.041 20.039zm-68.133-46.391c1.676 9.543 16.641 18.391 27.977 18.391h1.926c2.09 0 3.828 1.609 3.988 3.691.707 9.145 8.441 16.309 17.613 16.309h16.629c9.172 0 16.906-7.164 17.613-16.309.16-2.082 1.898-3.691 3.988-3.691h1.98c11.336 0 26.305-8.848 27.98-18.391l-6.414-5.355c-.906-.762-1.434-1.887-1.434-3.07 0-24.914-20.27-45.184-45.184-45.184h-13.637c-24.914 0-45.18 20.27-45.18 45.184 0 1.184-.527 2.309-1.434 3.07zm119.848-8.425h.039z" fill="#4c241d"/></g><g fill="#4c241d"><circle cx="67.014" cy="54" r="4.529"/><circle cx="251.014" cy="242" r="4.529"/><path d="m250.67 65.656c-1.023 0-2.047-.391-2.828-1.172l-11.312-11.312c-1.562-1.562-1.562-4.094 0-5.656s4.094-1.562 5.656 0l11.312 11.312c1.562 1.562 1.562 4.094 0 5.656-.781.782-1.805 1.172-2.828 1.172z"/><path d="m239.357 65.656c-1.023 0-2.047-.391-2.828-1.172-1.562-1.562-1.562-4.094 0-5.656l11.312-11.312c1.562-1.562 4.094-1.562 5.656 0s1.562 4.094 0 5.656l-11.312 11.312c-.781.782-1.804 1.172-2.828 1.172z"/><path d="m165.014 168c-1.676 0-3.234-1.059-3.793-2.734-.699-2.098.434-4.363 2.527-5.059l12-4c2.109-.703 4.363.434 5.059 2.527.699 2.098-.434 4.363-2.527 5.059l-12 4c-.423.141-.849.207-1.266.207z"/><path d="m129.014 168c-.418 0-.844-.066-1.266-.207l-12-4c-2.094-.695-3.227-2.961-2.527-5.059.699-2.094 2.949-3.23 5.059-2.527l12 4c2.094.695 3.227 2.961 2.527 5.059-.559 1.675-2.118 2.734-3.793 2.734z"/><path d="m105.017 184c-1.211 0-2.406-.547-3.195-1.586-.438-.574-10.527-13.422-27.324-6.699-2.031.82-4.379-.176-5.199-2.23-.82-2.051.18-4.379 2.23-5.199 18.07-7.219 31.898 2.938 36.684 9.316 1.328 1.766.969 4.273-.801 5.598-.719.538-1.559.8-2.395.8z"/><path d="m77.01 208c-.762 0-1.531-.219-2.215-.672-1.84-1.227-2.336-3.707-1.109-5.547 9.081-13.625 30.425-13.781 31.328-13.781 2.207 0 3.992 1.785 3.996 3.992s-1.785 4-3.988 4.008c-.18 0-17.98.172-24.68 10.219-.77 1.156-2.039 1.781-3.332 1.781z"/><path d="m189.01 184c-.836 0-1.676-.262-2.395-.801-1.77-1.324-2.129-3.832-.801-5.598 4.785-6.387 18.617-16.555 36.684-9.316 2.051.82 3.051 3.148 2.23 5.199-.824 2.055-3.168 3.051-5.199 2.23-16.953-6.785-27.215 6.551-27.316 6.684-.785 1.051-1.985 1.602-3.203 1.602z"/><path d="m217.017 208c-1.293 0-2.562-.625-3.332-1.781-6.699-10.047-24.5-10.219-24.68-10.219-2.203-.008-3.992-1.801-3.988-4.008s1.789-3.992 3.996-3.992c.902 0 22.246.156 31.328 13.781 1.227 1.84.73 4.32-1.109 5.547-.683.453-1.453.672-2.215.672z"/><path d="m154.986 192h-16c-1.723 0-3.25-1.102-3.793-2.734l-4-12c-.699-2.098.434-4.363 2.527-5.059 2.117-.707 4.359.434 5.059 2.527l3.09 9.266h10.234l3.09-9.266c.699-2.094 2.949-3.234 5.059-2.527 2.094.695 3.227 2.961 2.527 5.059l-4 12c-.543 1.632-2.07 2.734-3.793 2.734z"/><path d="m158.986 208h-5.125c-5.996 0-10.875-4.879-10.875-10.875v-9.125c0-2.211 1.789-4 4-4s4 1.789 4 4v9.125c0 1.586 1.289 2.875 2.875 2.875h5.125c2.211 0 4 1.789 4 4s-1.789 4-4 4z"/><path d="m140.111 208h-5.125c-2.211 0-4-1.789-4-4s1.789-4 4-4h5.125c1.586 0 2.875-1.289 2.875-2.875v-9.125c0-2.211 1.789-4 4-4s4 1.789 4 4v9.125c0 5.996-4.879 10.875-10.875 10.875z"/></g><g><path d="m94.497 114.382c1.31 2.08 5.14 7.118 11.489 7.118" fill="#bf7e68"/><path d="m105.986 125.5c-8.316 0-13.172-6.285-14.875-8.984-1.176-1.871-.613-4.34 1.254-5.52 1.883-1.168 4.34-.613 5.52 1.254.992 1.578 3.77 5.25 8.102 5.25 2.211 0 4 1.789 4 4s-1.79 4-4.001 4z" fill="#4c241d"/></g><path d="m122.986 268c-2.211 0-4-1.789-4-4v-16c0-1.516.855-2.898 2.211-3.578l8-4c1.977-.984 4.375-.188 5.367 1.789.988 1.977.188 4.379-1.789 5.367l-5.789 2.895v13.527c0 2.211-1.789 4-4 4z" fill="#4c241d"/><path d="m170.986 268c-2.211 0-4-1.789-4-4v-13.527l-5.789-2.895c-1.977-.988-2.777-3.391-1.789-5.367s3.391-2.773 5.367-1.789l8 4c1.355.68 2.211 2.062 2.211 3.578v16c0 2.211-1.789 4-4 4z" fill="#4c241d"/></g></svg>