<svg id="mandrill" enable-background="new 0 0 300 300" height="512" viewBox="0 0 300 300" width="512" xmlns="http://www.w3.org/2000/svg"><g><circle cx="180" cy="114" fill="#fff4f1" r="86"/><g><circle cx="146" cy="160" fill="#a9ba5a" r="108"/><path d="m146 272c-61.758 0-112-50.242-112-112s50.242-112 112-112 112 50.242 112 112-50.242 112-112 112zm0-216c-57.346 0-104 46.652-104 104s46.654 104 104 104 104-46.652 104-104-46.654-104-104-104z" fill="#4c241d"/></g><g><path d="m146 268c41.256 0 77.097-23.141 95.284-57.144-5.708-37.659-46.177-66.856-95.284-66.856s-89.576 29.197-95.284 66.856c18.187 34.003 54.028 57.144 95.284 57.144z" fill="#b5a19c"/><path d="m146 272c-41.4 0-79.262-22.707-98.811-59.258-.406-.762-.557-1.633-.428-2.484 6.071-40.055 48.733-70.258 99.239-70.258s93.168 30.203 99.238 70.258c.129.852-.021 1.723-.428 2.484-19.548 36.551-57.41 59.258-98.81 59.258zm-91.115-61.852c18.332 33.25 53.119 53.852 91.115 53.852s72.783-20.602 91.115-53.852c-6.219-35.523-45.094-62.148-91.115-62.148s-84.896 26.625-91.115 62.148z" fill="#4c241d"/></g><path d="m205.559 209.984c-.107 0-.219-.004-.328-.012-2.195-.18-3.832-2.098-3.664-4.293.053-.801.9-17.746-19.297-34.461-1.701-1.41-1.939-3.93-.531-5.633 1.406-1.703 3.93-1.941 5.633-.531 23.645 19.57 22.242 40.379 22.17 41.254-.171 2.09-1.921 3.676-3.983 3.676z" fill="#4c241d"/><path d="m74 224c-2.209 0-4-1.789-4-4 0-14.934 3.936-29.504 11.383-42.133 1.125-1.902 3.578-2.531 5.477-1.414 1.904 1.121 2.537 3.574 1.414 5.477-6.721 11.398-10.274 24.562-10.274 38.07 0 2.211-1.791 4-4 4z" fill="#4c241d"/><path d="m94 243.418c-2.209 0-4-1.789-4-4 0-7.363 1.064-14.582 3.162-21.461.645-2.113 2.871-3.316 4.994-2.656 2.113.645 3.303 2.879 2.658 4.992-1.867 6.121-2.814 12.555-2.814 19.125 0 2.211-1.791 4-4 4z" fill="#4c241d"/><path d="m194 243.418c-2.209 0-4-1.789-4-4 0-10.898-2.635-21.473-7.621-30.59-1.061-1.938-.348-4.367 1.59-5.426 1.939-1.07 4.371-.352 5.43 1.59 5.627 10.285 8.602 22.191 8.602 34.426-.001 2.211-1.792 4-4.001 4z" fill="#4c241d"/><g><path d="m178 104s8-12 20-8c0 0 4 16-8 24" fill="#b5a19c"/><path d="m190.004 124c-1.293 0-2.561-.625-3.332-1.781-1.225-1.84-.729-4.32 1.109-5.547 7.115-4.746 7.162-13.293 6.713-17.391-7.682-.996-12.938 6.602-13.176 6.953-1.238 1.82-3.723 2.297-5.547 1.078-1.826-1.23-2.32-3.699-1.1-5.531 3.354-5.027 12.807-13.5 24.594-9.574 1.297.43 2.283 1.496 2.615 2.824.191.762 4.52 18.844-9.662 28.297-.681.453-1.452.672-2.214.672z" fill="#4c241d"/></g><g><path d="m114.64 104s-8-12-20-8c0 0-4 16 8 24" fill="#b5a19c"/><path d="m102.637 124c-.762 0-1.533-.219-2.215-.672-14.182-9.453-9.854-27.535-9.662-28.297.332-1.328 1.318-2.395 2.615-2.824 11.797-3.93 21.24 4.551 24.594 9.574 1.225 1.84.729 4.32-1.109 5.547-1.834 1.219-4.309.73-5.537-1.098-.252-.367-5.471-7.926-13.184-6.949-.465 4.102-.432 12.621 6.721 17.391 1.838 1.227 2.334 3.707 1.109 5.547-.772 1.156-2.039 1.781-3.332 1.781z" fill="#4c241d"/></g><g><path d="m202 142.909c0-27.112-38.769-58.909-56-58.909s-56 31.797-56 58.909 25.072 53.091 56 53.091 56-25.979 56-53.091z" fill="#b5a19c"/><path d="m146 200c-31.963 0-60-26.676-60-57.09 0-28.949 39.658-62.91 60-62.91s60 33.961 60 62.91c0 30.414-28.037 57.09-60 57.09zm0-112c-14.688 0-52 29.906-52 54.91 0 26.152 24.299 49.09 52 49.09s52-22.938 52-49.09c0-25.004-37.312-54.91-52-54.91z" fill="#4c241d"/></g><g><path d="m131.771 164c-5.396 0-9.771 4.375-9.771 9.771l4 21.709c0 2.947-.872 5.828-2.507 8.28l-.688 1.031c-2.971 4.457-3.327 10.165-.931 14.956 2.529 5.057 7.697 8.252 13.352 8.252h21.549c5.654 0 10.823-3.195 13.352-8.252 2.396-4.791 2.04-10.499-.931-14.956l-.688-1.031c-1.635-2.452-2.507-5.333-2.507-8.28l4-21.709c0-5.396-4.375-9.771-9.771-9.771" fill="#9dc1e4"/><path d="m156.773 232h-21.547c-7.217 0-13.703-4.008-16.93-10.461-3.029-6.059-2.578-13.328 1.18-18.965l.688-1.031c1.139-1.707 1.768-3.68 1.83-5.727l-3.928-21.316c-.045-.242-.066-.484-.066-.727 0-7.594 6.178-13.773 13.771-13.773 2.209 0 4 1.789 4 4s-1.791 4-4 4c-3.076 0-5.598 2.418-5.764 5.457l3.926 21.297c.045.242.066.484.066.727 0 3.746-1.1 7.379-3.18 10.5l-.688 1.031c-2.17 3.254-2.43 7.449-.68 10.949 1.861 3.727 5.607 6.039 9.773 6.039h21.547c4.166 0 7.912-2.312 9.773-6.039 1.75-3.5 1.49-7.695-.68-10.949l-.688-1.031c-2.08-3.121-3.18-6.754-3.18-10.5 0-.242.021-.484.066-.727l3.926-21.297c-.166-3.039-2.688-5.457-5.764-5.457-2.209 0-4-1.789-4-4s1.791-4 4-4c7.594 0 13.771 6.18 13.771 13.773 0 .242-.021.484-.066.727l-3.928 21.316c.062 2.047.691 4.02 1.83 5.727l.688 1.031c3.758 5.637 4.209 12.906 1.18 18.965-3.222 6.453-9.709 10.461-16.926 10.461z" fill="#4c241d"/></g><g><ellipse cx="146" cy="144" fill="#6b4f5b" rx="36" ry="12"/><path d="m146 160c-19.266 0-40-5.008-40-16 0-5.047 1.432-8.984 4.252-11.703 5.475-5.277 14.457-4.945 25.83-4.535 6.293.234 13.543.234 19.836 0 11.377-.402 20.357-.742 25.83 4.535 2.82 2.719 4.252 6.656 4.252 11.703 0 10.992-20.734 16-40 16zm-18.219-24.445c-5.504 0-9.889.488-11.977 2.5-.445.43-1.805 1.742-1.805 5.945 0 2.055 11.002 8 32 8s32-5.945 32-8c0-4.203-1.359-5.516-1.805-5.945-3.027-2.918-10.885-2.637-19.984-2.297-6.48.234-13.941.234-20.422 0-2.823-.106-5.528-.203-8.007-.203z" fill="#4c241d"/></g><g fill="#4c241d"><circle cx="68" cy="54" r="4.529"/><circle cx="256" cy="246" r="4.529"/><circle cx="130" cy="144" r="4"/><circle cx="162" cy="144" r="4"/><path d="m251.656 65.656c-1.023 0-2.047-.391-2.828-1.172l-11.312-11.312c-1.562-1.562-1.562-4.094 0-5.656s4.094-1.562 5.656 0l11.312 11.312c1.562 1.562 1.562 4.094 0 5.656-.781.782-1.804 1.172-2.828 1.172z"/><path d="m240.344 65.656c-1.023 0-2.047-.391-2.828-1.172-1.562-1.562-1.562-4.094 0-5.656l11.312-11.312c1.562-1.562 4.094-1.562 5.656 0s1.562 4.094 0 5.656l-11.312 11.312c-.781.782-1.805 1.172-2.828 1.172z"/><path d="m146 180c-2.209 0-4-1.789-4-4v-60c0-2.211 1.791-4 4-4s4 1.789 4 4v60c0 2.211-1.791 4-4 4z"/><path d="m138 220c-1.023 0-2.047-.391-2.828-1.172l-4-4c-1.562-1.562-1.562-4.094 0-5.656s4.094-1.562 5.656 0l4 4c1.562 1.562 1.562 4.094 0 5.656-.781.781-1.805 1.172-2.828 1.172z"/><path d="m154 220c-1.023 0-2.047-.391-2.828-1.172-1.562-1.562-1.562-4.094 0-5.656l4-4c1.562-1.562 4.094-1.562 5.656 0s1.562 4.094 0 5.656l-4 4c-.781.781-1.805 1.172-2.828 1.172z"/><path d="m130.004 268c-1.469 0-2.881-.809-3.582-2.211-8.645-17.289-4.5-26.574-4-27.578.988-1.977 3.387-2.773 5.367-1.789 1.949.977 2.754 3.324 1.828 5.285-.121.301-2.73 7.121 3.961 20.504.988 1.977.188 4.379-1.789 5.367-.574.285-1.185.422-1.785.422z"/><path d="m217.996 224c-.6 0-1.211-.137-1.785-.422-1.977-.988-2.777-3.391-1.789-5.367 2.674-5.348.75-14.047-.217-16.945-.699-2.098.434-4.363 2.529-5.059 2.1-.707 4.361.434 5.061 2.527.184.555 4.471 13.68-.217 23.055-.701 1.402-2.113 2.211-3.582 2.211z"/><path d="m154.004 196c-1.469 0-2.881-.809-3.582-2.211l-4.422-8.844-4.422 8.844c-.986 1.977-3.385 2.773-5.367 1.789-1.977-.988-2.777-3.391-1.789-5.367l8-16c1.355-2.711 5.801-2.711 7.156 0l8 16c.988 1.977.188 4.379-1.789 5.367-.574.285-1.185.422-1.785.422z"/></g></g></svg>