<svg id="monkey" enable-background="new 0 0 300 300" height="512" viewBox="0 0 300 300" width="512" xmlns="http://www.w3.org/2000/svg"><g><circle cx="180" cy="114" fill="#fff4f1" r="86"/><g><circle cx="146" cy="160" fill="#c1dbdc" r="108"/><path d="m146 272c-61.758 0-112-50.242-112-112s50.242-112 112-112 112 50.242 112 112-50.242 112-112 112zm0-216c-57.346 0-104 46.652-104 104s46.654 104 104 104c57.348 0 104-46.652 104-104s-46.652-104-104-104z" fill="#4c241d"/></g><g><path d="m174.13 192h-56.26c-22.02 0-39.87 17.85-39.87 39.87v12.017c18.567 15.069 42.223 24.113 68 24.113s49.433-9.044 68-24.113v-12.017c0-22.02-17.85-39.87-39.87-39.87z" fill="#bf7e68"/><path d="m146 272c-25.609 0-50.654-8.883-70.521-25.008-.936-.758-1.479-1.898-1.479-3.105v-12.016c0-24.191 19.68-43.871 43.869-43.871h56.26c24.191 0 43.871 19.68 43.871 43.871v12.016c0 1.207-.543 2.348-1.48 3.105-19.868 16.125-44.911 25.008-70.52 25.008zm-64-30.039c18.203 14.227 40.854 22.039 64 22.039 23.148 0 45.797-7.812 64-22.039v-10.09c0-19.781-16.09-35.871-35.871-35.871h-56.26c-19.777 0-35.869 16.09-35.869 35.871zm132 1.926h.039z" fill="#4c241d"/></g><g fill="#4c241d"><circle cx="68" cy="54" r="4.529"/><circle cx="252" cy="242" r="4.529"/><path d="m251.656 65.656c-1.023 0-2.047-.391-2.828-1.172l-11.312-11.312c-1.562-1.562-1.562-4.094 0-5.656s4.094-1.562 5.656 0l11.312 11.312c1.562 1.562 1.562 4.094 0 5.656-.781.782-1.804 1.172-2.828 1.172z"/><path d="m240.344 65.656c-1.023 0-2.047-.391-2.828-1.172-1.562-1.562-1.562-4.094 0-5.656l11.312-11.312c1.562-1.562 4.094-1.562 5.656 0s1.562 4.094 0 5.656l-11.312 11.312c-.781.782-1.805 1.172-2.828 1.172z"/></g><g><circle cx="90" cy="140" fill="#bf7e68" r="24"/><path d="m90 168c-15.439 0-28-12.562-28-28s12.561-28 28-28 28 12.562 28 28-12.561 28-28 28zm0-48c-11.027 0-20 8.973-20 20s8.973 20 20 20 20-8.973 20-20-8.973-20-20-20z" fill="#4c241d"/></g><g><circle cx="206" cy="140" fill="#bf7e68" r="24"/><path d="m206 168c-15.438 0-28-12.562-28-28s12.562-28 28-28 28 12.562 28 28-12.562 28-28 28zm0-48c-11.027 0-20 8.973-20 20s8.973 20 20 20 20-8.973 20-20-8.973-20-20-20z" fill="#4c241d"/></g><g><path d="m218 165.949c0 37.555-31.34 54.051-70 54.051s-70-16.496-70-54.051 31.34-81.949 70-81.949 70 44.393 70 81.949z" fill="#bf7e68"/><path d="m148 224c-46.336 0-74-21.703-74-58.051 0-38.929 33.008-85.949 74-85.949s74 47.02 74 85.949c0 36.348-27.664 58.051-74 58.051zm0-136c-36.561 0-66 42.645-66 77.949 0 31.34 24.674 50.051 66 50.051 41.328 0 66-18.711 66-50.051 0-35.304-29.441-77.949-66-77.949z" fill="#4c241d"/></g><g><path d="m118.183 181.102c-2.666 4.904-4.183 10.538-4.183 16.529 0 18.981 15.222 34.369 34 34.369s34-15.388 34-34.369c0-5.994-1.518-11.63-4.187-16.536" fill="#ffded5"/><path d="m148 236c-20.953 0-38-17.215-38-38.371 0-6.445 1.615-12.82 4.67-18.438l7.027 3.82c-2.418 4.449-3.697 9.504-3.697 14.617 0 16.747 13.457 30.372 30 30.372s30-13.625 30-30.371c0-5.113-1.281-10.172-3.703-14.625l7.031-3.82c3.055 5.621 4.672 12 4.672 18.445 0 21.156-17.047 38.371-38 38.371z" fill="#4c241d"/></g><g><path d="m142 160c0-12.452-11.38-22.246-24.306-19.55-7.831 1.633-14.046 8.14-15.392 16.026-1.909 11.186 5.481 21.047 15.699 23.122v15.06c0 9.578 7.765 17.343 17.343 17.343h25.314c9.578 0 17.343-7.765 17.343-17.343v-15.06c10.218-2.075 17.608-11.935 15.699-23.122-1.346-7.886-7.561-14.393-15.392-16.026-12.928-2.696-24.308 7.098-24.308 19.55z" fill="#ffded5"/><path d="m160.656 216h-25.312c-11.77 0-21.344-9.574-21.344-21.344v-12.02c-10.924-3.82-17.66-15.004-15.643-26.832 1.631-9.559 9.074-17.301 18.52-19.27 7.238-1.516 14.617.254 20.256 4.836 4.582 3.727 7.578 8.914 8.535 14.629h4.664c.957-5.715 3.953-10.902 8.535-14.633 5.637-4.578 13.016-6.352 20.254-4.832 9.445 1.969 16.887 9.711 18.52 19.27 2.023 11.828-4.715 23.012-15.641 26.832v12.02c0 11.77-9.574 21.344-21.344 21.344zm-38.623-72.004c-1.158 0-2.338.121-3.523.367-6.156 1.285-11.201 6.543-12.266 12.785-1.479 8.66 4.035 16.801 12.551 18.527 1.865.379 3.205 2.02 3.205 3.922v15.059c0 7.359 5.986 13.344 13.344 13.344h25.312c7.359 0 13.344-5.984 13.344-13.344v-15.059c0-1.902 1.34-3.543 3.203-3.922 8.52-1.727 14.031-9.867 12.555-18.527-1.07-6.242-6.113-11.5-12.27-12.785-4.934-1.027-9.758.109-13.574 3.215-3.758 3.055-5.914 7.582-5.914 12.422 0 2.211-1.789 4-4 4h-12c-2.211 0-4-1.789-4-4 0-4.84-2.156-9.367-5.916-12.422-2.898-2.359-6.379-3.582-10.051-3.582zm23.967 16.004h.039z" fill="#4c241d"/></g><path d="m129.131 185.43c-.785 0-1.578-.23-2.271-.711-1.816-1.258-2.271-3.75-1.014-5.566 3.145-4.543 7.783-7.152 12.725-7.152h18.859c4.547 0 8.934 2.266 12.035 6.219 1.363 1.738 1.059 4.254-.68 5.617-1.734 1.363-4.258 1.059-5.617-.68-1.594-2.035-3.633-3.156-5.738-3.156h-18.86c-2.277 0-4.516 1.352-6.146 3.707-.776 1.12-2.024 1.722-3.293 1.722z" fill="#4c241d"/><g><path d="m142 188v4" fill="#ffce56"/><path d="m142 196c-2.211 0-4-1.789-4-4v-4c0-2.211 1.789-4 4-4s4 1.789 4 4v4c0 2.211-1.789 4-4 4z" fill="#4c241d"/></g><g><path d="m154 188v4" fill="#ffce56"/><path d="m154 196c-2.211 0-4-1.789-4-4v-4c0-2.211 1.789-4 4-4s4 1.789 4 4v4c0 2.211-1.789 4-4 4z" fill="#4c241d"/></g><circle cx="122" cy="160" fill="#4c241d" r="4"/><circle cx="174" cy="160" fill="#4c241d" r="4"/><g><path d="m142 88s16-28 28-16c8 8-8 16-8 16s12 8 0 16" fill="#bf7e68"/><path d="m162.004 108c-1.293 0-2.562-.625-3.332-1.781-1.227-1.84-.73-4.32 1.109-5.547 1.324-.883 3.543-2.621 3.551-4.363.012-1.922-2.398-4.195-3.57-4.992-1.168-.797-1.832-2.164-1.742-3.574.094-1.414.922-2.68 2.184-3.316 2.996-1.512 7.613-4.91 8.016-7.414.047-.293.156-.98-1.047-2.184-1.855-1.855-3.371-1.926-4.477-1.77-5.93.789-13.711 10.801-17.223 16.93-1.094 1.914-3.543 2.578-5.457 1.48-1.918-1.094-2.586-3.535-1.488-5.453 1.125-1.973 11.348-19.312 23.102-20.887 4.133-.551 8 .844 11.199 4.043 3.391 3.387 3.656 6.832 3.285 9.125-.727 4.469-4.418 8.059-7.629 10.402 1.516 1.953 2.848 4.543 2.848 7.598 0 4.172-2.391 7.883-7.113 11.031-.685.453-1.454.672-2.216.672z" fill="#4c241d"/></g><path d="m190 261.5c-2.211 0-4-1.789-4-4v-13.5c0-2.211 1.789-4 4-4s4 1.789 4 4v13.5c0 2.211-1.789 4-4 4z" fill="#4c241d"/><path d="m102 261.5c-2.209 0-4-1.789-4-4v-13.5c0-2.211 1.791-4 4-4s4 1.789 4 4v13.5c0 2.211-1.791 4-4 4z" fill="#4c241d"/></g></svg>