<svg id="morse-walrus" enable-background="new 0 0 300 300" height="512" viewBox="0 0 300 300" width="512" xmlns="http://www.w3.org/2000/svg"><g><circle cx="180" cy="108" fill="#fff4f1" r="86"/><g><circle cx="146" cy="154" fill="#fff" r="108"/><path d="m146 266c-61.758 0-112-50.242-112-112s50.242-112 112-112 112 50.242 112 112-50.242 112-112 112zm0-216c-57.348 0-104 46.654-104 104s46.652 104 104 104 104-46.654 104-104-46.652-104-104-104z" fill="#4c241d"/></g><g><path d="m146 146c-41.974 0-76 33.131-76 74 0 3.995.416 7.887 1.042 11.711 19.425 18.741 45.835 30.289 74.958 30.289s55.533-11.548 74.958-30.289c.626-3.824 1.042-7.716 1.042-11.711 0-40.869-34.026-74-76-74z" fill="#bf7e68"/><path d="m146 266c-29.137 0-56.742-11.154-77.734-31.41-.621-.598-1.031-1.381-1.168-2.23-.739-4.485-1.098-8.528-1.098-12.36 0-43.01 35.887-78 80-78s80 34.99 80 78c0 3.832-.359 7.875-1.098 12.359-.137.85-.547 1.633-1.168 2.23-20.992 20.257-48.597 31.411-77.734 31.411zm-71.215-36.25c19.367 18.227 44.606 28.25 71.215 28.25s51.848-10.023 71.215-28.25c.527-3.525.785-6.727.785-9.75 0-38.598-32.301-70-72-70s-72 31.402-72 70c0 3.023.258 6.225.785 9.75zm146.172 1.961h.039z" fill="#4c241d"/></g><path d="m146 246c-18.328 0-35.672-4.783-46.395-12.795-1.77-1.324-2.133-3.83-.809-5.6 1.32-1.768 3.828-2.129 5.598-.811 9.387 7.017 24.942 11.206 41.606 11.206s32.219-4.189 41.605-11.205c1.773-1.318 4.277-.957 5.598.811 1.324 1.77.961 4.275-.809 5.6-10.722 8.011-28.066 12.794-46.394 12.794z" fill="#4c241d"/><path d="m146 224.545c-13.52 0-25.84-2.314-33.809-6.352-1.969-.998-2.758-3.406-1.758-5.377.996-1.967 3.395-2.758 5.375-1.76 6.781 3.438 18.07 5.488 30.191 5.488s23.41-2.051 30.191-5.488c1.98-1.006 4.379-.209 5.375 1.76 1 1.971.211 4.379-1.758 5.377-7.967 4.037-20.287 6.352-33.807 6.352z" fill="#4c241d"/><g><path d="m204.162 204.162c6.078-6.078 9.838-14.475 9.838-23.751v-.823c0-10.581-12-31.064-12-33.588 0-30.928-25.072-56-56-56-30.928 0-56 25.072-56 56 0 2.524-12 23.008-12 33.588v.823c0 10.833 5.128 20.468 13.089 26.61" fill="#bf7e68"/><path d="m91.086 211.021c-.852 0-1.711-.271-2.441-.834-9.305-7.181-14.645-18.033-14.645-29.775v-.824c0-7.998 5.625-20.023 9.348-27.982 1.102-2.354 2.34-5.002 2.652-5.967.195-32.918 27.035-59.639 60-59.639s59.805 26.721 60 59.639c.312.965 1.551 3.613 2.652 5.967 3.723 7.959 9.348 19.984 9.348 27.982v.824c0 10.043-3.91 19.482-11.012 26.58-1.562 1.559-4.094 1.561-5.656-.002s-1.562-4.096 0-5.658c5.59-5.584 8.668-13.016 8.668-20.92v-.824c0-6.219-5.379-17.721-8.594-24.592-2.59-5.529-3.406-7.357-3.406-8.996 0-28.674-23.328-52-52-52s-52 23.326-52 52c0 1.639-.816 3.467-3.406 8.996-3.215 6.871-8.594 18.373-8.594 24.592v.824c0 9.242 4.203 17.787 11.535 23.443 1.746 1.35 2.07 3.861.723 5.609-.789 1.022-1.973 1.557-3.172 1.557z" fill="#4c241d"/></g><g><path d="m122 274v-108h16l-4 96c0 6.627-5.373 12-12 12z" fill="#fff"/><path d="m122 278c-2.211 0-4-1.791-4-4v-108c0-2.209 1.789-4 4-4h16c1.09 0 2.133.445 2.887 1.23.754.787 1.156 1.848 1.109 2.936l-4 96c.004 8.656-7.172 15.834-15.996 15.834zm4-108v98.926c2.391-1.385 4-3.971 4-6.926l3.828-92z" fill="#4c241d"/></g><g><path d="m170 274v-108h-16l4 96c0 6.627 5.373 12 12 12z" fill="#fff"/><path d="m170 278c-8.824 0-16-7.178-16-16l-3.996-95.834c-.047-1.088.355-2.148 1.109-2.936.754-.785 1.797-1.23 2.887-1.23h16c2.211 0 4 1.791 4 4v108c0 2.209-1.789 4-4 4zm-11.828-108 3.824 91.834c.004 3.066 1.613 5.689 4.004 7.086v-98.92z" fill="#4c241d"/></g><g fill="#4c241d"><circle cx="68" cy="48" r="4.529"/><circle cx="252" cy="236" r="4.529"/><path d="m251.656 59.656c-1.023 0-2.047-.391-2.828-1.172l-11.312-11.312c-1.562-1.562-1.562-4.094 0-5.656s4.094-1.562 5.656 0l11.312 11.312c1.562 1.562 1.562 4.094 0 5.656-.781.782-1.804 1.172-2.828 1.172z"/><path d="m240.344 59.656c-1.023 0-2.047-.391-2.828-1.172-1.562-1.562-1.562-4.094 0-5.656l11.312-11.312c1.562-1.562 4.094-1.562 5.656 0s1.562 4.094 0 5.656l-11.312 11.312c-.781.782-1.805 1.172-2.828 1.172z"/><circle cx="108" cy="144" r="6"/><circle cx="184" cy="144" r="6"/></g><g><path d="m169.948 162c-.28-12.264-6.943-18.755-14.348-20h-19.2c-7.405 1.245-14.068 7.736-14.348 20h-.052v8.849c0 3.518 3.446 6.002 6.784 4.89l15.586-5.195c1.058-.353 2.202-.353 3.26 0l15.586 5.195c3.337 1.112 6.784-1.372 6.784-4.89v-8.849z" fill="#6b4f5b"/><path d="m164.84 180c-.973 0-1.949-.152-2.891-.467l-15.586-5.195c-.234-.076-.488-.082-.73.002l-15.582 5.193c-2.781.93-5.867.461-8.25-1.258-2.379-1.715-3.801-4.492-3.801-7.426v-8.849c0-.262.023-.518.074-.766.605-15 9.84-21.863 17.66-23.18.219-.035.441-.055.664-.055h19.203c.223 0 .445.02.664.055 7.82 1.316 17.055 8.18 17.66 23.18.051.248.074.504.074.766v8.85c0 2.934-1.422 5.711-3.801 7.426-1.573 1.134-3.46 1.724-5.358 1.724zm-18.84-13.725c.973 0 1.945.158 2.891.471l15.59 5.197c.484.168.863-.027 1.039-.158.18-.129.48-.422.48-.936v-8.219c-.027-.176-.047-.355-.051-.539-.203-8.846-4.195-14.834-10.703-16.092h-18.492c-6.508 1.258-10.5 7.246-10.703 16.092-.004.186-.023.367-.051.547v8.211c0 .514.301.807.48.936.18.131.562.326 1.039.158l15.586-5.195c.95-.314 1.922-.473 2.895-.473z" fill="#4c241d"/></g><circle cx="136" cy="156" fill="#4c241d" r="4.529"/><circle cx="156" cy="156" fill="#4c241d" r="4.529"/></g></svg>