<svg id="mouse" enable-background="new 0 0 300 300" height="512" viewBox="0 0 300 300" width="512" xmlns="http://www.w3.org/2000/svg"><g><circle cx="180" cy="114" fill="#fff4f1" r="86"/><g><circle cx="146" cy="160" fill="#f4aeab" r="108"/><path d="m146 272c-61.758 0-112-50.242-112-112s50.242-112 112-112 112 50.242 112 112-50.242 112-112 112zm0-216c-57.346 0-104 46.652-104 104s46.654 104 104 104 104-46.652 104-104-46.654-104-104-104z" fill="#4c241d"/></g><g><path d="m146 200c-22.091 0-40 18.804-40 42 0 7.296 1.777 14.154 4.893 20.133 11.011 3.784 22.812 5.867 35.107 5.867s24.096-2.083 35.107-5.867c3.116-5.979 4.893-12.837 4.893-20.133 0-23.196-17.909-42-40-42z" fill="#eaeaea"/><path d="m146 272c-12.412 0-24.662-2.047-36.408-6.086-.969-.332-1.773-1.023-2.246-1.934-3.498-6.71-5.346-14.312-5.346-21.98 0-25.363 19.738-46 44-46s44 20.637 44 46c0 7.668-1.848 15.27-5.346 21.98-.473.91-1.277 1.602-2.246 1.934-11.746 4.039-23.996 6.086-36.408 6.086zm-32.262-13.133c20.867 6.812 43.656 6.812 64.523 0 2.45-5.219 3.739-11.015 3.739-16.867 0-20.953-16.15-38-36-38s-36 17.047-36 38c0 5.852 1.289 11.648 3.738 16.867zm67.369 3.266h.039z" fill="#4c241d"/></g><g><path d="m146 232c-11.046 0-20 9.85-20 22 0 1.374.129 10.712.348 12.016 6.364 1.288 12.929 1.984 19.652 1.984s13.288-.696 19.652-1.984c.219-1.304.348-10.642.348-12.016 0-12.15-8.954-22-20-22z" fill="#ffded5"/><path d="m146 272c-6.805 0-13.684-.695-20.445-2.062-1.625-.332-2.879-1.625-3.152-3.262-.323-1.918-.403-12.574-.403-12.676 0-14.336 10.766-26 24-26s24 11.664 24 26c0 .102-.08 10.758-.402 12.676-.273 1.637-1.527 2.93-3.152 3.262-6.762 1.367-13.641 2.062-20.446 2.062zm19.652-5.984h.039zm-35.49-3.36c10.523 1.789 21.154 1.781 31.678 0 .092-2.926.16-7.254.16-8.656 0-9.926-7.178-18-16-18s-16 8.074-16 18c0 1.398.068 5.715.162 8.656z" fill="#4c241d"/></g><g><path d="m226 124c0-17.673-14.327-32-32-32s-28 14.327-28 32 6.327 32 24 32 36-14.327 36-32z" fill="#eaeaea"/><path d="m190 160c-17.795 0-28-13.121-28-36 0-21.195 13.158-36 32-36 19.85 0 36 16.148 36 36 0 20.605-21.117 36-40 36zm4-64c-16.578 0-24 14.062-24 28 0 18.578 6.729 28 20 28 14.799 0 32-12.23 32-28 0-15.438-12.561-28-28-28z" fill="#4c241d"/></g><g><path d="m210 129.6c0-11.929-9.671-21.6-21.6-21.6s-18.9 9.671-18.9 21.6 4.271 21.6 16.2 21.6 24.3-9.671 24.3-21.6z" fill="#ffded5"/><path d="m185.699 155.199c-12.836 0-20.199-9.328-20.199-25.598 0-15.074 9.418-25.602 22.9-25.602 14.115 0 25.6 11.484 25.6 25.602 0 14.653-14.941 25.598-28.301 25.598zm2.701-43.199c-10.293 0-14.9 8.84-14.9 17.602 0 11.676 4.104 17.598 12.199 17.598 9.389 0 20.301-7.688 20.301-17.598 0-9.707-7.895-17.602-17.6-17.602z" fill="#4c241d"/></g><g><path d="m66 124c0-17.673 14.327-32 32-32s28 14.327 28 32-6.327 32-24 32-36-14.327-36-32z" fill="#eaeaea"/><path d="m102 160c-18.883 0-40-15.395-40-36 0-19.852 16.15-36 36-36 18.842 0 32 14.805 32 36 0 22.879-10.205 36-28 36zm-4-64c-15.439 0-28 12.562-28 28 0 15.77 17.201 28 32 28 13.271 0 20-9.422 20-28 0-13.938-7.422-28-24-28z" fill="#4c241d"/></g><g><path d="m82 129.6c0-11.929 9.671-21.6 21.6-21.6s18.9 9.671 18.9 21.6-4.271 21.6-16.2 21.6-24.3-9.671-24.3-21.6z" fill="#ffded5"/><path d="m106.301 155.199c-13.36 0-28.301-10.945-28.301-25.597 0-14.118 11.484-25.602 25.6-25.602 13.482 0 22.9 10.527 22.9 25.602 0 16.269-7.363 25.597-20.199 25.597zm-2.701-43.199c-9.705 0-17.6 7.895-17.6 17.602 0 9.91 10.912 17.598 20.301 17.598 8.096 0 12.199-5.922 12.199-17.598 0-8.762-4.607-17.602-14.9-17.602z" fill="#4c241d"/></g><circle cx="68" cy="54" fill="#4c241d" r="4.529"/><path d="m251.656 65.656c-1.023 0-2.047-.391-2.828-1.172l-11.312-11.312c-1.562-1.562-1.562-4.094 0-5.656s4.094-1.562 5.656 0l11.312 11.312c1.562 1.562 1.562 4.094 0 5.656-.781.782-1.804 1.172-2.828 1.172z" fill="#4c241d"/><path d="m240.344 65.656c-1.023 0-2.047-.391-2.828-1.172-1.562-1.562-1.562-4.094 0-5.656l11.312-11.312c1.562-1.562 4.094-1.562 5.656 0s1.562 4.094 0 5.656l-11.312 11.312c-.781.782-1.805 1.172-2.828 1.172z" fill="#4c241d"/><g><path d="m202 163.468c0-25.775-29.448-39.468-54.53-39.468s-56.642 13.693-56.642 39.468 23.514 56.532 55.2 56.532c33.797 0 55.972-30.756 55.972-56.532z" fill="#eaeaea"/><path d="m146.027 224c-27.945 0-59.199-25.887-59.199-60.531 0-26.848 31.479-43.469 60.643-43.469 28.769 0 58.529 16.258 58.529 43.469 0 28.629-24.631 60.531-59.973 60.531zm1.444-96c-21.23 0-52.643 11.273-52.643 35.469 0 24.293 22.365 52.531 51.199 52.531 30.629 0 51.973-27.684 51.973-52.531 0-24.465-29.549-35.469-50.529-35.469z" fill="#4c241d"/></g><circle cx="120" cy="162" fill="#4c241d" r="6"/><circle cx="172" cy="162" fill="#4c241d" r="6"/><g><path d="m150.065 188h-8.13c-1.579 0-2.981-.602-3.481-1.496l-4.263-7.625c-.792-1.416.976-2.879 3.481-2.879h16.657c2.504 0 4.272 1.463 3.481 2.879l-4.263 7.625c-.501.894-1.903 1.496-3.482 1.496z" fill="#6b4f5b"/><path d="m150.064 192h-8.129c-3.084 0-5.756-1.359-6.975-3.551l-4.262-7.617c-.947-1.699-.928-3.711.055-5.387 1.247-2.125 3.897-3.445 6.919-3.445h16.656c3.021 0 5.672 1.32 6.918 3.445.982 1.676 1.002 3.688.053 5.387l-4.262 7.625c-1.217 2.184-3.889 3.543-6.973 3.543zm-.011-7.449c0 .004-.002.004-.002.008zm-8.11-.004.004.004c-.002 0-.004-.004-.004-.004zm-.318-.57c.086.016.189.023.311.023h8.129c.121 0 .225-.008.311-.023l2.224-3.977h-13.2z" fill="#4c241d"/></g><g fill="#4c241d"><path d="m158 204h-4c-6.617 0-12-5.383-12-12 0-2.211 1.791-4 4-4s4 1.789 4 4c0 2.207 1.795 4 4 4h4c2.209 0 4 1.789 4 4s-1.791 4-4 4z"/><path d="m138 204h-4c-2.209 0-4-1.789-4-4s1.791-4 4-4h4c2.205 0 4-1.793 4-4 0-2.211 1.791-4 4-4s4 1.789 4 4c0 6.617-5.383 12-12 12z"/><path d="m114.895 185.918c-.721 0-1.449-.195-2.105-.602-.309-.191-31.043-18.98-48.592-4.941-1.723 1.379-4.244 1.102-5.621-.625-1.381-1.727-1.102-4.242.625-5.625 21.955-17.562 56.359 3.492 57.812 4.398 1.875 1.164 2.447 3.629 1.283 5.504-.758 1.219-2.065 1.891-3.402 1.891z"/><path d="m69.695 201.25c-.701 0-1.41-.184-2.055-.57-1.895-1.137-2.508-3.594-1.371-5.488 13.652-22.754 49.477-7.387 50.996-6.727 2.021.887 2.941 3.242 2.059 5.266-.885 2.023-3.252 2.941-5.266 2.062-.307-.133-30.885-13.223-40.93 3.516-.749 1.25-2.073 1.941-3.433 1.941z"/><path d="m177.1 185.918c-1.336 0-2.643-.668-3.4-1.887-1.166-1.875-.594-4.34 1.283-5.508 1.451-.906 35.865-21.957 57.812-4.398 1.727 1.383 2.006 3.898.625 5.625-1.379 1.723-3.902 2.004-5.621.625-17.592-14.082-48.283 4.746-48.59 4.938-.656.41-1.389.605-2.109.605z"/><path d="m222.301 201.25c-1.359 0-2.684-.691-3.434-1.941-10.043-16.742-40.623-3.648-40.93-3.516-2.012.879-4.379-.039-5.266-2.062-.883-2.023.037-4.379 2.059-5.266 1.52-.66 37.342-16.039 50.996 6.727 1.137 1.895.523 4.352-1.371 5.488-.644.386-1.355.57-2.054.57z"/></g></g></svg>