<svg id="beaver" enable-background="new 0 0 300 300" height="512" viewBox="0 0 300 300" width="512" xmlns="http://www.w3.org/2000/svg"><g><circle cx="180" cy="114" fill="#fff4f1" r="86"/><g><circle cx="146" cy="160" fill="#6b4f5b" r="108"/><path d="m146 272c-61.758 0-112-50.242-112-112s50.242-112 112-112 112 50.242 112 112-50.242 112-112 112zm0-216c-57.346 0-104 46.654-104 104s46.654 104 104 104 104-46.654 104-104-46.654-104-104-104z" fill="#4c241d"/></g><g><path d="m134 108h-46c-12.15 0-22 9.85-22 22v22h22c12.15 0 22-9.85 22-22v-6h24z" fill="#ffce56"/><path d="m88 156h-22c-2.209 0-4-1.791-4-4v-22c0-14.336 11.664-26 26-26h46c2.209 0 4 1.791 4 4v16c0 2.209-1.791 4-4 4h-20v2c0 14.336-11.664 26-26 26zm-18-8h18c9.926 0 18-8.074 18-18v-6c0-2.209 1.791-4 4-4h20v-8h-42c-9.926 0-18 8.074-18 18z" fill="#4c241d"/></g><g><path d="m178 176v-46c0-12.15 9.85-22 22-22h22v22c0 12.15-9.85 22-22 22h-6v24z" fill="#ffce56"/><path d="m194 180h-16c-2.209 0-4-1.791-4-4v-46c0-14.336 11.664-26 26-26h22c2.209 0 4 1.791 4 4v22c0 14.336-11.664 26-26 26h-2v20c0 2.209-1.791 4-4 4zm-12-8h8v-20c0-2.209 1.791-4 4-4h6c9.926 0 18-8.074 18-18v-18h-18c-9.926 0-18 8.074-18 18z" fill="#4c241d"/></g><g><path d="m146 152c-41.974 0-76 33.131-76 74 0 3.995.416 7.887 1.042 11.711 19.425 18.741 45.835 30.289 74.958 30.289s55.533-11.548 74.958-30.289c.626-3.824 1.042-7.716 1.042-11.711 0-40.869-34.026-74-76-74z" fill="#ffce56"/><path d="m146 272c-29.133 0-56.74-11.154-77.734-31.41-.621-.6-1.031-1.381-1.17-2.232-.737-4.497-1.096-8.54-1.096-12.358 0-43.01 35.889-78 80-78s80 34.99 80 78c0 3.818-.359 7.861-1.096 12.357-.139.852-.549 1.633-1.17 2.232-20.994 20.257-48.601 31.411-77.734 31.411zm-71.215-36.248c19.371 18.227 44.608 28.248 71.215 28.248s51.844-10.021 71.215-28.248c.527-3.539.785-6.74.785-9.752 0-38.598-32.299-70-72-70s-72 31.402-72 70c0 3.012.258 6.213.785 9.752zm146.172 1.959h.039z" fill="#4c241d"/></g><g><path d="m180.411 216c18.551 0 33.589-15.038 33.589-33.589v-.823c0-10.581-4.903-20.005-12.549-26.162.324-2.436.549-4.902.549-7.427v-6c0-23.196-18.804-42-42-42h-28c-23.196 0-42 18.804-42 42v6c0 2.524.225 4.991.549 7.427-7.646 6.157-12.549 15.582-12.549 26.162v.823c0 18.551 15.038 33.589 33.589 33.589" fill="#ffce56"/><path d="m180.41 220c-2.209 0-4-1.791-4-4s1.791-4 4-4c16.316 0 29.59-13.273 29.59-29.588v-.824c0-8.986-4.031-17.387-11.059-23.047-1.088-.877-1.641-2.258-1.455-3.643.35-2.635.514-4.826.514-6.898v-6c0-20.953-17.047-38-38-38h-28c-20.953 0-38 17.047-38 38v6c0 2.072.164 4.264.514 6.898.186 1.385-.367 2.766-1.455 3.643-7.028 5.66-11.059 14.061-11.059 23.047v.824c0 16.315 13.273 29.588 29.59 29.588 2.209 0 4 1.791 4 4s-1.791 4-4 4c-20.727 0-37.59-16.861-37.59-37.588v-.824c0-10.666 4.463-20.68 12.322-27.811-.218-2.082-.322-3.955-.322-5.777v-6c0-25.365 20.635-46 46-46h28c25.365 0 46 20.635 46 46v6c0 1.822-.104 3.695-.322 5.777 7.859 7.131 12.322 17.145 12.322 27.811v.824c0 20.727-16.863 37.588-37.59 37.588z" fill="#4c241d"/></g><g><path d="m158 208h-24l-4-20h32z" fill="#fff"/><path d="m158 212h-24c-1.906 0-3.549-1.346-3.922-3.215l-4-20c-.236-1.176.068-2.395.828-3.32.76-.928 1.895-1.465 3.094-1.465h32c1.199 0 2.334.537 3.094 1.465.76.926 1.064 2.145.828 3.32l-4 20c-.373 1.869-2.016 3.215-3.922 3.215zm-20.721-8h17.441l2.4-12h-22.242z" fill="#4c241d"/></g><path d="m122 192h9.753c7.868 0 14.247-6.379 14.247-14.247 0 7.868 6.379 14.247 14.247 14.247h9.753v-16h-48z" fill="#ffce56"/><g fill="#4c241d"><circle cx="68" cy="54" r="4.529"/><circle cx="252" cy="242" r="4.529"/><path d="m251.656 65.656c-1.023 0-2.047-.391-2.828-1.172l-11.312-11.312c-1.562-1.562-1.562-4.094 0-5.656s4.094-1.562 5.656 0l11.312 11.312c1.562 1.562 1.562 4.094 0 5.656-.781.782-1.804 1.172-2.828 1.172z"/><path d="m240.344 65.656c-1.023 0-2.047-.391-2.828-1.172-1.562-1.562-1.562-4.094 0-5.656l11.312-11.312c1.562-1.562 4.094-1.562 5.656 0s1.562 4.094 0 5.656l-11.312 11.312c-.781.782-1.805 1.172-2.828 1.172z"/><circle cx="124" cy="158" r="6"/><circle cx="168" cy="158" r="6"/><path d="m131.752 196h-13.752c-2.209 0-4-1.791-4-4s1.791-4 4-4h13.752c5.65 0 10.248-4.598 10.248-10.248 0-2.209 1.791-4 4-4s4 1.791 4 4c0 10.062-8.186 18.248-18.248 18.248z"/><path d="m174 196h-13.752c-10.062 0-18.248-8.186-18.248-18.248 0-2.209 1.791-4 4-4s4 1.791 4 4c0 5.65 4.598 10.248 10.248 10.248h13.752c2.209 0 4 1.791 4 4s-1.791 4-4 4z"/></g><g><path d="m148.374 176h-4.847c-.941 0-1.777-.201-2.075-.499l-2.542-2.542c-.472-.472.582-.96 2.075-.96h9.93c1.493 0 2.547.488 2.075.96l-2.542 2.542c-.296.298-1.132.499-2.074.499z" fill="#ffce56"/><path d="m148.375 180h-4.848c-1.475 0-3.523-.289-4.902-1.67l-2.543-2.543c-1.143-1.143-1.58-3.189-.963-4.684.814-1.973 2.953-3.104 5.867-3.104h9.93c2.912 0 5.051 1.131 5.865 3.104.619 1.496.18 3.547-.969 4.689l-2.533 2.537c-1.381 1.382-3.429 1.671-4.904 1.671z" fill="#4c241d"/></g><path d="m142 188h8v20h-8z" fill="#4c241d"/><g><path d="m146 268c13.866 0 27.108-2.642 39.288-7.403-3.476-18.55-19.729-32.597-39.288-32.597s-35.812 14.047-39.288 32.597c12.18 4.761 25.422 7.403 39.288 7.403z" fill="#fff"/><path d="m146 272c-14 0-27.709-2.582-40.742-7.676-1.791-.701-2.83-2.574-2.477-4.463 3.893-20.779 22.069-35.861 43.219-35.861s39.326 15.082 43.219 35.861c.354 1.889-.686 3.762-2.477 4.463-13.033 5.094-26.742 7.676-40.742 7.676zm-34.588-13.922c22.25 7.863 46.926 7.863 69.176 0-4.361-15.293-18.41-26.078-34.588-26.078s-30.227 10.785-34.588 26.078z" fill="#4c241d"/></g><g><path d="m146 100h44c0 13.255-10.745 24-24 24" fill="#ffce56"/><path d="m166 128c-2.209 0-4-1.791-4-4s1.791-4 4-4c9.658 0 17.74-6.883 19.598-16h-39.598c-2.209 0-4-1.791-4-4s1.791-4 4-4h44c2.209 0 4 1.791 4 4 0 15.439-12.561 28-28 28z" fill="#4c241d"/></g><path d="m202 160h-8c-2.209 0-4-1.791-4-4s1.791-4 4-4h8c2.209 0 4 1.791 4 4s-1.791 4-4 4z" fill="#4c241d"/><path d="m98 160h-8c-2.209 0-4-1.791-4-4s1.791-4 4-4h8c2.209 0 4 1.791 4 4s-1.791 4-4 4z" fill="#4c241d"/><path d="m154 128h-16c-2.209 0-4-1.791-4-4s1.791-4 4-4h16c2.209 0 4 1.791 4 4s-1.791 4-4 4z" fill="#4c241d"/></g></svg>