<svg id="octopus" enable-background="new 0 0 300 300" height="512" viewBox="0 0 300 300" width="512" xmlns="http://www.w3.org/2000/svg"><g><circle cx="188" cy="112" fill="#fff4f1" r="86"/><g><circle cx="158" cy="150" fill="#9dc1e4" r="108"/><path d="m158 262c-61.758 0-112-50.242-112-112s50.242-112 112-112 112 50.242 112 112-50.242 112-112 112zm0-216c-57.346 0-104 46.654-104 104s46.654 104 104 104 104-46.654 104-104-46.654-104-104-104z" fill="#4c241d"/></g><g fill="#4c241d"><circle cx="80" cy="44" r="4.529"/><circle cx="264" cy="232" r="4.529"/><circle cx="84" cy="184" r="4.529"/></g><g><path d="m213.595 270h.405v-16.857c0-8.363-6.78-15.143-15.143-15.143h-28.857v-64h-16v64.857c0 8.363 6.78 15.143 15.143 15.143h28.857v.405c0 8.613 6.982 15.595 15.595 15.595z" fill="#f4aeab"/><path d="m214 274h-.404c-9.576 0-17.572-6.906-19.266-16h-25.188c-10.554 0-19.142-8.588-19.142-19.143v-64.857c0-2.209 1.791-4 4-4h16c2.209 0 4 1.791 4 4v60h24.857c10.555 0 19.143 8.588 19.143 19.143v16.857c0 2.209-1.791 4-4 4zm-56-96v60.857c0 6.145 4.998 11.143 11.143 11.143h28.857c2.209 0 4 1.791 4 4v.404c0 5.139 3.361 9.508 8 11.025v-12.287c0-6.145-4.998-11.143-11.143-11.143h-28.857c-2.209 0-4-1.791-4-4v-60h-8z" fill="#4c241d"/></g><g><path d="m122.857 170h-17.715c-8.362 0-15.142-6.78-15.142-15.143v-8.857h-60v-.405c0-8.613 6.982-15.595 15.595-15.595h45.262c8.363 0 15.143 6.78 15.143 15.143v8.857h16v-36h16v36.857c0 8.363-6.78 15.143-15.143 15.143z" fill="#f4aeab"/><path d="m122.857 174h-17.715c-10.554 0-19.142-8.588-19.142-19.143v-4.857h-56c-2.209 0-4-1.791-4-4v-.404c0-10.805 8.791-19.596 19.596-19.596h45.262c10.555 0 19.143 8.588 19.143 19.143v4.857h8v-32c0-2.209 1.791-4 4-4h16c2.209 0 4 1.791 4 4v36.857c-.001 10.555-8.589 19.143-19.144 19.143zm-88.287-32h55.43c2.209 0 4 1.791 4 4v8.857c0 6.145 4.998 11.143 11.143 11.143h17.715c6.145 0 11.143-4.998 11.143-11.143v-32.857h-8v32c0 2.209-1.791 4-4 4h-16c-2.209 0-4-1.791-4-4v-8.857c-.001-6.145-4.999-11.143-11.144-11.143h-45.261c-5.139 0-9.508 3.361-11.026 8z" fill="#4c241d"/></g><g><path d="m110.405 230h-.405v-28.857c0-8.363 6.78-15.143 15.143-15.143h28.857v-64h16v64.857c0 8.363-6.78 15.143-15.143 15.143h-28.857v12.405c0 8.613-6.982 15.595-15.595 15.595z" fill="#ffded5"/><path d="m110.404 234h-.404c-2.209 0-4-1.791-4-4v-28.857c0-10.555 8.588-19.143 19.143-19.143h24.857v-60c0-2.209 1.791-4 4-4h16c2.209 0 4 1.791 4 4v64.857c0 10.555-8.588 19.143-19.143 19.143h-24.857v8.404c0 10.805-8.791 19.596-19.596 19.596zm14.739-44c-6.145 0-11.143 4.998-11.143 11.143v24.287c4.639-1.518 8-5.887 8-11.025v-12.405c0-2.209 1.791-4 4-4h28.857c6.145 0 11.143-4.998 11.143-11.143v-60.857h-8v60c0 2.209-1.791 4-4 4z" fill="#4c241d"/></g><g><path d="m250.405 186h-17.262c-8.363 0-15.143 6.78-15.143 15.143v4.857h-16v-52-24.112c11.229-1.116 20-10.589 20-22.113v-1.671c0-19.939-16.165-36.104-36.104-36.104h-47.791c-19.94 0-36.105 16.165-36.105 36.105v1.67c0 11.523 8.771 20.996 20 22.113 0 13.317 10.795 24.112 24.112 24.112h29.208c5.899 0 10.68 4.782 10.68 10.68v42.177c0 8.363 6.78 15.143 15.143 15.143h17.715c8.363 0 15.143-6.78 15.143-15.143v-4.857h32v-.405c-.001-8.613-6.983-15.595-15.596-15.595z" fill="#ffded5"/><path d="m218.857 226h-17.715c-10.554 0-19.142-8.588-19.142-19.143v-42.177c0-3.684-2.996-6.68-6.68-6.68h-29.209c-14.344 0-26.213-10.797-27.904-24.691-11.732-2.727-20.207-13.161-20.207-25.534v-1.67c0-22.113 17.992-40.105 40.105-40.105h47.789c22.114 0 40.106 17.992 40.106 40.105v1.67c0 12.299-8.377 22.684-20 25.482v68.743h8v-.857c0-10.555 8.588-19.143 19.143-19.143h17.262c10.805 0 19.596 8.791 19.596 19.596v.404c0 2.209-1.791 4-4 4h-28v.857c-.001 10.555-8.589 19.143-19.144 19.143zm-80.752-152c-17.703 0-32.105 14.402-32.105 32.105v1.67c0 9.408 7.049 17.203 16.395 18.131 2.047.203 3.605 1.924 3.605 3.98 0 11.09 9.021 20.113 20.111 20.113h29.209c8.094 0 14.68 6.586 14.68 14.68v42.178c0 6.145 4.998 11.143 11.143 11.143h17.715c6.145 0 11.143-4.998 11.143-11.143v-4.857c0-2.209 1.791-4 4-4h27.43c-1.518-4.639-5.887-8-11.025-8h-17.262c-6.145 0-11.143 4.998-11.143 11.143v4.857c0 2.209-1.791 4-4 4h-16c-2.209 0-4-1.791-4-4v-76.113c0-2.057 1.559-3.777 3.605-3.98 9.346-.928 16.395-8.723 16.395-18.131v-1.67c-.001-17.704-14.403-32.106-32.106-32.106z" fill="#4c241d"/></g><path d="m202 134h-16c-2.209 0-4-1.791-4-4s1.791-4 4-4h16c2.209 0 4 1.791 4 4s-1.791 4-4 4z" fill="#4c241d"/><path d="m138 134h-16c-2.209 0-4-1.791-4-4s1.791-4 4-4h16c2.209 0 4 1.791 4 4s-1.791 4-4 4z" fill="#4c241d"/><g><circle cx="232" cy="140" fill="#c1dbdc" r="6"/><path d="m232 150c-5.514 0-10-4.486-10-10s4.486-10 10-10 10 4.486 10 10-4.486 10-10 10zm0-12c-1.104 0-2 .896-2 2s.896 2 2 2 2-.896 2-2-.896-2-2-2z" fill="#4c241d"/></g><g><circle cx="254" cy="106" fill="#c1dbdc" r="8"/><path d="m254 118c-6.617 0-12-5.383-12-12s5.383-12 12-12 12 5.383 12 12-5.383 12-12 12zm0-16c-2.205 0-4 1.795-4 4s1.795 4 4 4 4-1.795 4-4-1.795-4-4-4z" fill="#4c241d"/></g><g><circle cx="248" cy="44" fill="#c1dbdc" r="10"/><path d="m248 58c-7.719 0-14-6.281-14-14s6.281-14 14-14 14 6.281 14 14-6.281 14-14 14zm0-20c-3.309 0-6 2.691-6 6s2.691 6 6 6 6-2.691 6-6-2.691-6-6-6z" fill="#4c241d"/></g><path d="m186 114c-2.209 0-4-1.791-4-4v-8c0-2.209 1.791-4 4-4s4 1.791 4 4v8c0 2.209-1.791 4-4 4z" fill="#4c241d"/><path d="m138 114c-2.209 0-4-1.791-4-4v-8c0-2.209 1.791-4 4-4s4 1.791 4 4v8c0 2.209-1.791 4-4 4z" fill="#4c241d"/></g></svg>