<svg id="ostrich" enable-background="new 0 0 300 300" height="512" viewBox="0 0 300 300" width="512" xmlns="http://www.w3.org/2000/svg"><g><circle cx="180" cy="114" fill="#fff4f1" r="86"/><g><circle cx="146" cy="160" fill="#e2e2e2" r="108"/><path d="m146 272c-61.758 0-112-50.242-112-112s50.242-112 112-112 112 50.242 112 112-50.242 112-112 112zm0-216c-57.346 0-104 46.652-104 104s46.654 104 104 104 104-46.652 104-104-46.654-104-104-104z" fill="#4c241d"/></g><g fill="#4c241d"><circle cx="68" cy="54" r="4.529"/><circle cx="252" cy="242" r="4.529"/><path d="m251.656 65.656c-1.023 0-2.047-.391-2.828-1.172l-11.312-11.312c-1.562-1.562-1.562-4.094 0-5.656s4.094-1.562 5.656 0l11.312 11.312c1.562 1.562 1.562 4.094 0 5.656-.781.782-1.804 1.172-2.828 1.172z"/><path d="m240.344 65.656c-1.023 0-2.047-.391-2.828-1.172-1.562-1.562-1.562-4.094 0-5.656l11.312-11.312c1.562-1.562 4.094-1.562 5.656 0s1.562 4.094 0 5.656l-11.312 11.312c-.781.782-1.805 1.172-2.828 1.172z"/></g><g><path d="m194 154c8 0 8-8 8-8-24 0-20-20-20-20h-76s4 20-20 20c0 0 0 8 8 8 0 0-8 4-16 4 0 0 4 4 16 4 0 0-4 8-12 8 0 0 38.734 17.725 43.473 96.027 6.648 1.28 13.505 1.973 20.527 1.973 5.604 0 11.109-.428 16.483-1.251 4.542-78.919 43.517-96.749 43.517-96.749-8 0-12-8-12-8 12 0 16-4 16-4-8 0-16-4-16-4z" fill="#bf7e68"/><path d="m146 272c-7.061 0-14.221-.688-21.281-2.043-1.795-.348-3.129-1.863-3.238-3.688-4.541-75.035-40.779-92.465-41.145-92.633-1.711-.781-2.645-2.652-2.244-4.488.4-1.84 2.027-3.148 3.908-3.148 1.223 0 2.326-.297 3.299-.762-6.637-1.277-9.492-3.773-10.127-4.41-1.145-1.145-1.486-2.863-.867-4.359s2.078-2.469 3.695-2.469c2.127 0 4.281-.336 6.248-.801-1.576-2.281-2.248-4.988-2.248-7.199s1.791-4 4-4c6.469 0 11.057-1.578 13.641-4.691 3.557-4.285 2.443-10.484 2.432-10.547-.219-1.168.092-2.387.852-3.305.76-.914 1.887-1.457 3.076-1.457h76c1.199 0 2.334.539 3.094 1.465s1.064 2.145.828 3.32c-.006.039-1.119 6.238 2.438 10.523 2.582 3.114 7.17 4.692 13.639 4.692 2.209 0 4 1.789 4 4s-.672 4.918-2.248 7.199c1.967.465 4.121.801 6.248.801 1.617 0 3.076.973 3.695 2.469s.277 3.215-.867 4.359c-.635.637-3.488 3.133-10.127 4.41.973.465 2.074.762 3.299.762 1.881 0 3.508 1.312 3.908 3.148.4 1.84-.533 3.707-2.244 4.488-.072.035-9.254 4.457-18.855 18.016-8.938 12.617-20.064 35.93-22.332 75.328-.109 1.887-1.523 3.438-3.391 3.723-5.631.859-11.381 1.297-17.086 1.297zm-16.746-9.363c9.836 1.594 19.723 1.777 29.445.594 4.09-57.703 26.396-82.727 38.262-92.082-4.271-2.926-6.404-7.09-6.539-7.359-.619-1.238-.553-2.711.176-3.891.598-.969 1.57-1.625 2.666-1.832-.613-.27-.984-.453-1.053-.488-1.658-.828-2.529-2.691-2.104-4.496s2.038-3.083 3.893-3.083c.857 0 1.539-.156 2.078-.418-6.07-.922-10.746-3.348-13.941-7.246-3.346-4.082-4.238-8.863-4.363-12.336h-67.547c-.125 3.473-1.018 8.254-4.363 12.336-3.195 3.898-7.871 6.324-13.941 7.246.538.262 1.22.418 2.077.418 1.855 0 3.467 1.277 3.893 3.082s-.445 3.668-2.104 4.496c-.068.035-.439.219-1.053.488 1.096.207 2.068.863 2.666 1.832.729 1.18.795 2.652.176 3.891-.135.27-2.268 4.434-6.541 7.363 11.822 9.325 34.018 34.207 38.217 91.485z" fill="#4c241d"/></g><g><circle cx="110" cy="130" fill="#6b4f5b" r="16"/><path d="m110 150c-11.027 0-20-8.973-20-20s8.973-20 20-20 20 8.973 20 20-8.973 20-20 20zm0-32c-6.617 0-12 5.383-12 12s5.383 12 12 12 12-5.383 12-12-5.383-12-12-12z" fill="#4c241d"/></g><g><circle cx="178" cy="130" fill="#6b4f5b" r="16"/><path d="m178 150c-11.027 0-20-8.973-20-20s8.973-20 20-20 20 8.973 20 20-8.973 20-20 20zm0-32c-6.617 0-12 5.383-12 12s5.383 12 12 12 12-5.383 12-12-5.383-12-12-12z" fill="#4c241d"/></g><g><path d="m190 90-4-4-8 8c-5.122-5.122-12.07-8-19.314-8h-29.373c-7.244 0-14.191 2.878-19.314 8l-8-8-4 4-8-4v17.597c.001 12.373 10.031 22.403 22.404 22.403h63.194c12.373 0 22.403-10.03 22.403-22.403v-17.597z" fill="#bf7e68"/><path d="m175.598 130h-63.195c-14.559 0-26.403-11.844-26.403-26.402v-17.598c0-1.387.719-2.672 1.896-3.402 1.182-.73 2.656-.793 3.893-.176l5.422 2.711 1.961-1.961c1.562-1.562 4.094-1.562 5.656 0l5.35 5.348c5.459-4.227 12.121-6.52 19.137-6.52h29.371c7.016 0 13.678 2.293 19.137 6.52l5.35-5.348c1.562-1.562 4.094-1.562 5.656 0l1.961 1.961 5.422-2.711c1.238-.617 2.713-.555 3.893.176 1.176.73 1.895 2.015 1.895 3.402v17.598c0 14.558-11.844 26.402-26.402 26.402zm-81.598-37.527v11.125c0 10.148 8.256 18.402 18.402 18.402h63.195c10.146 0 18.402-8.254 18.402-18.402v-11.125l-2.211 1.105c-1.541.773-3.402.469-4.617-.75l-1.171-1.172-5.172 5.172c-1.562 1.562-4.094 1.562-5.656 0-4.404-4.402-10.26-6.828-16.486-6.828h-29.371c-6.227 0-12.082 2.426-16.486 6.828-1.562 1.562-4.094 1.562-5.656 0l-5.173-5.172-1.172 1.172c-1.211 1.219-3.07 1.523-4.617.75z" fill="#4c241d"/></g><g><path d="m159.717 159.195c-1.33-7.494-7.841-13.195-15.717-13.195s-14.387 5.701-15.717 13.195c-8.559 1.409-14.283 3.926-14.283 6.805 0 3.495 16 9.16 16 10 0 9.941 8.477 18 14 18s14-8.059 14-18c0-.84 16-6.505 16-10 0-2.879-5.724-5.396-14.283-6.805z" fill="#ffce56"/><path d="m144 198c-7.561 0-16.686-8.84-17.871-19.648-.582-.277-1.256-.586-1.857-.863-8.881-4.098-14.272-6.911-14.272-11.489 0-4.809 5.059-8.262 15.043-10.277 2.66-8.098 10.23-13.723 18.957-13.723s16.297 5.625 18.957 13.723c9.984 2.015 15.043 5.468 15.043 10.277 0 4.578-5.391 7.391-14.271 11.488-.602.277-1.275.586-1.857.863-1.186 10.809-10.311 19.649-17.872 19.649zm-24.844-32.098c2.361 1.504 6.602 3.461 8.465 4.32 4.512 2.078 6.379 2.941 6.379 5.777 0 8.09 7.018 14 10 14s10-5.91 10-14c0-2.836 1.867-3.699 6.379-5.777 1.863-.859 6.104-2.816 8.465-4.32-1.584-.809-4.621-1.91-9.777-2.762-1.674-.273-2.992-1.574-3.287-3.246-1.02-5.734-5.973-9.894-11.78-9.894s-10.76 4.16-11.779 9.895c-.295 1.672-1.613 2.973-3.287 3.246-5.157.851-8.194 1.953-9.778 2.761zm51.065.926h.039z" fill="#4c241d"/></g><path d="m138 170c-2.209 0-4-1.789-4-4v-4c0-2.211 1.791-4 4-4s4 1.789 4 4v4c0 2.211-1.791 4-4 4z" fill="#4c241d"/><path d="m150 170c-2.209 0-4-1.789-4-4v-4c0-2.211 1.791-4 4-4s4 1.789 4 4v4c0 2.211-1.791 4-4 4z" fill="#4c241d"/><circle cx="112" cy="134" fill="#4c241d" r="4.529"/><circle cx="176" cy="134" fill="#4c241d" r="4.529"/></g></svg>