<svg id="owl" enable-background="new 0 0 300 300" height="512" viewBox="0 0 300 300" width="512" xmlns="http://www.w3.org/2000/svg" xmlns:xlink="http://www.w3.org/1999/xlink"><pattern id="New_Pattern_Swatch_2" height="75" overflow="visible" patternUnits="userSpaceOnUse" viewBox="0 -75 75 75" width="75" x="300"><g><path d="m0-75h75v75h-75z" fill="none"/><path d="m0-75h75v75h-75z" fill="#4c241d"/></g></pattern><pattern id="SVGID_1_" patternTransform="matrix(3.231 0 0 3.231 18738.201 19304.057)" xlink:href="#New_Pattern_Swatch_2"/><pattern id="SVGID_2_" patternTransform="matrix(3.231 0 0 3.231 18738.201 19304.057)" xlink:href="#New_Pattern_Swatch_2"/><pattern id="SVGID_3_" patternTransform="matrix(3.231 0 0 3.231 18738.201 19304.057)" xlink:href="#New_Pattern_Swatch_2"/><pattern id="SVGID_4_" patternTransform="matrix(-3.231 0 0 3.231 -34906.383 19302.057)" xlink:href="#New_Pattern_Swatch_2"/><pattern id="SVGID_5_" patternTransform="matrix(-3.231 0 0 3.231 -34906.383 19302.057)" xlink:href="#New_Pattern_Swatch_2"/><pattern id="SVGID_6_" patternTransform="matrix(-3.231 0 0 3.231 -34906.383 19302.057)" xlink:href="#New_Pattern_Swatch_2"/><g><circle cx="248.094" cy="244" fill="#4c241d" r="4"/><circle cx="178.094" cy="114" fill="#fff4f1" r="86"/><g><circle cx="148.094" cy="160" fill="#9dc1e4" r="108"/><path d="m148.094 272c-61.758 0-112-50.242-112-112s50.242-112 112-112 112 50.242 112 112-50.242 112-112 112zm0-216c-57.346 0-104 46.652-104 104s46.654 104 104 104 104-46.652 104-104-46.654-104-104-104z" fill="#4c241d"/></g><g fill="#4c241d"><circle cx="64.094" cy="56" r="4"/><path d="m252.094 68c-1.023 0-2.047-.391-2.828-1.172l-12-12c-1.562-1.562-1.562-4.094 0-5.656s4.094-1.562 5.656 0l12 12c1.562 1.562 1.562 4.094 0 5.656-.781.781-1.804 1.172-2.828 1.172z"/><path d="m240.094 68c-1.023 0-2.047-.391-2.828-1.172-1.562-1.562-1.562-4.094 0-5.656l12-12c1.562-1.562 4.094-1.562 5.656 0s1.562 4.094 0 5.656l-12 12c-.781.781-1.804 1.172-2.828 1.172z"/></g><g><path d="m256.089 96.257-24.98 10.65c-6.385 2.722-11.968 7.008-16.217 12.498-20.409 26.37-55.657 89.606-55.657 89.606 55.143-.443 99.487-37.505 99.044-92.648-.055-6.893-.808-13.617-2.19-20.106z" fill="#b5a19c"/><path d="m159.235 213.012c-1.412 0-2.721-.746-3.441-1.961-.725-1.223-.746-2.742-.053-3.988 1.445-2.59 35.629-63.801 55.99-90.105 4.633-5.988 10.791-10.738 17.809-13.73l24.98-10.648c1.1-.473 2.354-.418 3.412.129 1.061.551 1.818 1.547 2.068 2.719 1.455 6.824 2.221 13.855 2.279 20.906.447 55.535-42.877 96.195-103.012 96.68-.01-.002-.022-.002-.032-.002zm93.836-111.121-20.395 8.695c-5.764 2.457-10.818 6.355-14.619 11.27-16.258 21-42.426 66.348-51.828 82.898 51.818-3.398 88.443-39.633 88.051-88.359-.039-4.868-.445-9.727-1.209-14.504z" fill="#4c241d"/></g><g><path d="m66.924 106.403-25.148-10.247c-1.278 6.51-1.922 13.246-1.867 20.139.443 55.143 45.505 91.486 100.648 91.043 0 0-36.388-62.661-57.218-88.699-4.336-5.42-9.986-9.616-16.415-12.236z" fill="#b5a19c"/><path d="m139.512 211.344c-59.66 0-103.16-39.809-103.604-95.016-.057-7.043.598-14.09 1.941-20.941.23-1.172.973-2.184 2.025-2.75 1.055-.57 2.303-.641 3.41-.184l25.148 10.246c7.062 2.879 13.297 7.527 18.029 13.441 20.777 25.969 56.061 86.621 57.553 89.191.715 1.23.721 2.75.016 3.988-.707 1.238-2.018 2.008-3.443 2.02-.354.005-.719.005-1.075.005zm-94.627-109.602c-.688 4.789-1.016 9.656-.977 14.523.393 48.723 37.646 84.359 89.574 86.93-9.701-16.406-36.676-61.32-53.266-82.055-3.883-4.852-9-8.668-14.803-11.035z" fill="#4c241d"/></g><path d="m212.266 196.93c-1.398 0-2.758-.734-3.49-2.039l-9.658-17.188c-1.084-1.926-.398-4.367 1.527-5.449 1.92-1.082 4.365-.395 5.445 1.527l9.658 17.188c1.084 1.926.398 4.367-1.527 5.449-.619.348-1.291.512-1.955.512z" fill="url(#SVGID_1_)"/><path d="m241.753 173.434c-.607 0-1.223-.137-1.803-.43l-19.152-9.691c-1.971-1-2.76-3.406-1.762-5.375.996-1.973 3.402-2.766 5.375-1.766l19.152 9.691c1.971 1 2.76 3.406 1.762 5.375-.703 1.395-2.111 2.196-3.572 2.196z" fill="url(#SVGID_2_)"/><path d="m254.757 136.258c-.029 0-.059 0-.088 0l-24.15-.516c-2.209-.047-3.961-1.875-3.914-4.086.049-2.207 1.996-3.805 4.086-3.914l24.15.516c2.209.047 3.961 1.875 3.914 4.086-.047 2.179-1.829 3.914-3.998 3.914z" fill="url(#SVGID_3_)"/><path d="m86.94 194.93c-.664 0-1.336-.164-1.955-.512-1.926-1.082-2.611-3.523-1.527-5.449l9.66-17.188c1.08-1.926 3.518-2.609 5.445-1.527 1.926 1.082 2.611 3.523 1.527 5.449l-9.66 17.188c-.732 1.304-2.091 2.039-3.49 2.039z" fill="url(#SVGID_4_)"/><path d="m57.454 171.434c-1.461 0-2.869-.801-3.572-2.195-.998-1.969-.209-4.375 1.762-5.375l19.154-9.691c1.979-.996 4.379-.207 5.375 1.766.998 1.969.209 4.375-1.762 5.375l-19.154 9.691c-.581.292-1.196.429-1.803.429z" fill="url(#SVGID_5_)"/><path d="m44.452 134.258c-2.17 0-3.951-1.734-3.998-3.914-.047-2.211 1.705-4.039 3.914-4.086l24.15-.516c2.193.074 4.039 1.707 4.086 3.914.047 2.211-1.705 4.039-3.914 4.086l-24.15.516c-.03 0-.059 0-.088 0z" fill="url(#SVGID_6_)"/><g><path d="m184.094 141.756v-36.658c0-16.071-13.028-29.098-29.098-29.098h-9.803c-16.071 0-29.099 13.028-29.099 29.099v36.658c-4.735 2.488-8 7.395-8 13.115v53.201c0 6.193 3.95 7.45 9.623 9.935 8.484 3.717 14.404 12.199 14.377 22.06-.018 6.603 5.397 11.933 12 11.933h12c6.603 0 12.018-5.33 12-11.933-.027-9.862 5.894-18.343 14.377-22.06 5.673-2.485 9.623-3.742 9.623-9.935v-53.201c0-5.721-3.265-10.628-8-13.116z" fill="#6b4f5b"/><path d="m156.094 256h-12c-4.297 0-8.332-1.676-11.363-4.715-3.002-3.008-4.648-6.996-4.637-11.23.021-7.969-4.682-15.188-11.982-18.383l-1.123-.488c-5.105-2.211-10.895-4.715-10.895-13.113v-53.199c0-6.152 3.012-11.836 8-15.348v-34.426c0-18.25 14.848-33.098 33.098-33.098h9.805c18.25 0 33.098 14.848 33.098 33.098v34.426c4.988 3.512 8 9.195 8 15.348v53.199c0 8.398-5.789 10.902-10.895 13.113l-1.121.488c-7.303 3.195-12.006 10.414-11.984 18.383.012 4.234-1.635 8.223-4.637 11.23-3.032 3.039-7.067 4.715-11.364 4.715zm-10.902-176c-13.84 0-25.098 11.258-25.098 25.098v36.66c0 1.488-.824 2.852-2.141 3.543-3.615 1.895-5.859 5.562-5.859 9.57v53.199c0 2.93.84 3.508 6.072 5.77l1.158.504c10.217 4.477 16.801 14.578 16.77 25.734-.006 2.09.811 4.066 2.301 5.559 1.52 1.523 3.543 2.363 5.699 2.363h12c2.156 0 4.18-.84 5.699-2.363 1.49-1.492 2.307-3.469 2.301-5.559-.031-11.156 6.553-21.258 16.771-25.734l1.156-.504c5.232-2.262 6.072-2.84 6.072-5.77v-53.199c0-4.008-2.244-7.676-5.859-9.57-1.316-.691-2.141-2.055-2.141-3.543v-36.66c0-13.84-11.258-25.098-25.098-25.098z" fill="#4c241d"/></g><g><path d="m179.474 104c-13.046 0-24.218 7.513-29.38 18.284-5.162-10.771-16.333-18.284-29.379-18.284h-4.62v16.484c0 16.886 13.717 30.556 30.909 31.363v.153h1.562 3.058 1.562v-.153c17.192-.807 30.909-14.477 30.909-31.363v-16.484z" fill="#fff"/><path d="m153.186 156h-6.184c-.467 0-.916-.082-1.334-.227-18.918-1.461-33.574-16.75-33.574-35.289v-16.484c0-2.211 1.791-4 4-4h4.621c11.678 0 22.59 5.57 29.379 14.613 6.79-9.043 17.702-14.613 29.379-14.613h4.621c2.209 0 4 1.789 4 4v16.484c0 18.559-14.688 33.863-33.635 35.293-.4.145-.827.223-1.273.223zm-5.088-8h4.021c.281-.082.576-.133.879-.148 15.193-.715 27.096-12.734 27.096-27.367v-12.485h-.621c-10.994 0-21.111 6.285-25.771 16.012-1.332 2.781-5.883 2.781-7.215 0-4.66-9.727-14.777-16.012-25.771-16.012h-.621v12.484c0 14.633 11.902 26.652 27.096 27.367.314.016.618.067.907.149z" fill="#4c241d"/></g><g><ellipse cx="150.094" cy="150" fill="#ffce56" rx="6" ry="10"/><path d="m150.094 164c-.676 0-1.354-.172-1.963-.516-4.957-2.789-8.037-7.957-8.037-13.484s3.08-10.695 8.037-13.484c1.219-.688 2.707-.688 3.926 0 4.957 2.789 8.037 7.957 8.037 13.484s-3.08 10.695-8.037 13.484c-.609.344-1.287.516-1.963.516zm0-18.984c-1.279 1.363-2 3.113-2 4.984s.721 3.621 2 4.984c1.279-1.363 2-3.113 2-4.984s-.72-3.621-2-4.984z" fill="#4c241d"/></g><circle cx="166.094" cy="126" fill="#4c241d" r="4"/><circle cx="130.094" cy="126" fill="#4c241d" r="4"/><g><path d="m63.725 227.386 124.369.614 8-4 22.039-4.157 5.961-7.843h-170.665c2.991 5.435 6.447 10.573 10.296 15.386z" fill="#bf7e68"/><path d="m188.094 232c-.006 0-.014 0-.02 0l-124.369-.613c-1.209-.008-2.35-.559-3.104-1.5-4.027-5.035-7.619-10.402-10.678-15.957-.682-1.238-.66-2.746.061-3.965.719-1.219 2.029-1.965 3.443-1.965h170.666c1.52 0 2.908.859 3.584 2.223.674 1.359.52 2.988-.398 4.199l-5.961 7.844c-.6.785-1.471 1.324-2.443 1.508l-21.492 4.055-7.5 3.75c-.556.276-1.167.421-1.789.421zm-122.418-8.605 121.482.602 7.146-3.574c.332-.164.684-.285 1.047-.352l20.679-4.071h-155.564c1.623 2.527 3.365 5 5.21 7.395z" fill="#4c241d"/></g><g><path d="m156.094 204h20v12h-20z" fill="#b5a19c"/><path d="m176.094 220h-20c-2.209 0-4-1.789-4-4v-12c0-2.211 1.791-4 4-4h20c2.209 0 4 1.789 4 4v12c0 2.211-1.791 4-4 4zm-16-8h12v-4h-12z" fill="#4c241d"/></g><g><path d="m124.094 204h20v12h-20z" fill="#b5a19c"/><path d="m144.094 220h-20c-2.209 0-4-1.789-4-4v-12c0-2.211 1.791-4 4-4h20c2.209 0 4 1.789 4 4v12c0 2.211-1.791 4-4 4zm-16-8h12v-4h-12z" fill="#4c241d"/></g></g></svg>