<svg id="panda" enable-background="new 0 0 300 300" height="512" viewBox="0 0 300 300" width="512" xmlns="http://www.w3.org/2000/svg"><g><circle cx="180" cy="114" fill="#fff4f1" r="86"/><g><circle cx="146" cy="160" fill="#ffce56" r="108"/><path d="m146 272c-61.758 0-112-50.242-112-112s50.242-112 112-112 112 50.242 112 112-50.242 112-112 112zm0-216c-57.346 0-104 46.654-104 104s46.654 104 104 104 104-46.654 104-104-46.654-104-104-104z" fill="#4c241d"/></g><g><path d="m146 152c-41.974 0-76 33.131-76 74 0 3.995.416 7.887 1.042 11.711 19.425 18.741 45.835 30.289 74.958 30.289s55.533-11.548 74.958-30.289c.626-3.824 1.042-7.716 1.042-11.711 0-40.869-34.026-74-76-74z" fill="#fff"/><path d="m146 272c-29.133 0-56.74-11.154-77.734-31.41-.621-.6-1.031-1.381-1.17-2.232-.737-4.497-1.096-8.54-1.096-12.358 0-43.01 35.889-78 80-78s80 34.99 80 78c0 3.818-.359 7.861-1.096 12.357-.139.852-.549 1.633-1.17 2.232-20.994 20.257-48.601 31.411-77.734 31.411zm-71.215-36.248c19.371 18.227 44.608 28.248 71.215 28.248s51.844-10.021 71.215-28.248c.527-3.539.785-6.74.785-9.752 0-38.598-32.299-70-72-70s-72 31.402-72 70c0 3.012.258 6.213.785 9.752zm146.172 1.959h.039z" fill="#4c241d"/></g><g><path d="m210.814 156.887-6.494-38.962c4.244-4.365 6.541-10.636 5.379-17.43-1.353-7.907-7.582-14.433-15.438-16.055-12.907-2.664-24.261 7.122-24.261 19.56h-48c0-12.438-11.353-22.224-24.262-19.56-7.856 1.621-14.085 8.148-15.438 16.055-1.162 6.794 1.135 13.065 5.379 17.43l-6.494 38.962c-3.761 22.569 13.643 43.113 36.523 43.113h.292v.212c0 8.72 7.069 15.788 15.788 15.788h24.423c8.72 0 15.788-7.069 15.788-15.788v-.212h.292c22.881 0 40.285-20.544 36.523-43.113z" fill="#fff"/><path d="m158.211 220h-24.422c-9.672 0-17.744-6.973-19.455-16.156-10.947-.936-20.896-6.049-27.93-14.352-7.811-9.221-11.15-21.344-9.164-33.264l6.18-37.072c-4.422-5.393-6.262-12.326-5.062-19.334 1.639-9.588 9.104-17.344 18.572-19.299 7.227-1.488 14.596.281 20.221 4.863 4.574 3.727 7.561 8.908 8.518 14.613h40.664c.957-5.705 3.943-10.887 8.518-14.613 5.621-4.582 12.986-6.354 20.221-4.863 9.469 1.955 16.934 9.711 18.572 19.299 1.199 7.008-.641 13.941-5.062 19.334l6.18 37.072c1.986 11.92-1.354 24.043-9.164 33.264-7.086 8.365-17.135 13.494-27.961 14.373-1.78 9.244-9.813 16.135-19.426 16.135zm-56.176-132.004c-1.148 0-2.314.121-3.488.363-6.172 1.273-11.232 6.541-12.303 12.811-.883 5.156.686 10.246 4.303 13.967.887.912 1.287 2.191 1.078 3.447l-6.494 38.961c-1.6 9.594 1.09 19.354 7.377 26.775 6.287 7.424 15.473 11.68 25.199 11.68 2.209 0 4.293 1.791 4.293 4 0 6.711 5.289 12 11.789 12h24.422c6.5 0 11.789-5.289 11.789-11.789 0-2.209 1.791-4.211 4-4.211 10.02 0 19.205-4.256 25.492-11.68 6.287-7.422 8.977-17.182 7.377-26.775l-6.494-38.961c-.209-1.256.191-2.535 1.078-3.447 3.617-3.721 5.186-8.811 4.303-13.967-1.07-6.27-6.131-11.537-12.303-12.811-4.936-1.021-9.746.127-13.551 3.229-3.75 3.057-5.902 7.58-5.902 12.412 0 2.209-1.791 4-4 4h-48c-2.209 0-4-1.791-4-4 0-4.832-2.152-9.355-5.902-12.412-2.901-2.363-6.387-3.592-10.063-3.592z" fill="#4c241d"/></g><g fill="#4c241d"><circle cx="68" cy="54" r="4.529"/><circle cx="252" cy="242" r="4.529"/><path d="m251.656 65.656c-1.023 0-2.047-.391-2.828-1.172l-11.312-11.312c-1.562-1.562-1.562-4.094 0-5.656s4.094-1.562 5.656 0l11.312 11.312c1.562 1.562 1.562 4.094 0 5.656-.781.782-1.804 1.172-2.828 1.172z"/><path d="m240.344 65.656c-1.023 0-2.047-.391-2.828-1.172-1.562-1.562-1.562-4.094 0-5.656l11.312-11.312c1.562-1.562 4.094-1.562 5.656 0s1.562 4.094 0 5.656l-11.312 11.312c-.781.782-1.805 1.172-2.828 1.172z"/><path d="m142 172h8v12h-8z"/><path d="m158 192.002c-.418 0-.846-.066-1.266-.207l-10.734-3.578-10.734 3.578c-2.1.703-4.361-.436-5.061-2.529-.699-2.096.434-4.361 2.529-5.061l12-4c.824-.273 1.707-.273 2.531 0l12 4c2.096.699 3.229 2.965 2.529 5.061-.558 1.675-2.118 2.736-3.794 2.736z"/></g><g><path d="m195.237 161.946-18.246 10.534c-2.095 1.21-4.775.492-5.984-1.604l-16.688-28.904c-1.21-2.095-.492-4.775 1.604-5.984l18.246-10.534c1.264-.73 2.879-.297 3.609.967l18.427 31.916c.729 1.264.296 2.88-.968 3.609z" fill="#6b4f5b"/><path d="m179.646 172.266c-1.869 0-3.752-.246-5.605-.742-5.553-1.488-10.195-5.049-13.07-10.029l-3.545-6.139c-2.875-4.979-3.639-10.779-2.15-16.332 1.488-5.555 5.051-10.195 10.029-13.07 3.365-1.941 7.287-2.461 11.055-1.455 3.758 1.006 6.9 3.418 8.846 6.787l10.502 18.188c4.016 6.957 1.623 15.883-5.334 19.9-3.317 1.913-6.999 2.892-10.728 2.892zm-7.068-40.266c-1.137 0-2.262.297-3.273.883-3.129 1.805-5.365 4.721-6.301 8.211-.936 3.488-.455 7.133 1.352 10.262l3.545 6.139c1.807 3.129 4.723 5.367 8.211 6.303 3.492.932 7.137.459 10.262-1.354 3.137-1.811 4.215-5.834 2.404-8.971l-10.502-18.188c-.877-1.52-2.293-2.605-3.986-3.059-.567-.152-1.142-.226-1.712-.226z" fill="#4c241d"/></g><g><path d="m96.908 161.946 18.246 10.534c2.095 1.21 4.775.492 5.984-1.604l16.688-28.904c1.21-2.095.492-4.775-1.604-5.984l-18.246-10.534c-1.264-.73-2.879-.297-3.609.967l-18.427 31.916c-.729 1.264-.296 2.88.968 3.609z" fill="#6b4f5b"/><path d="m112.498 172.266c-3.729 0-7.41-.979-10.727-2.893-3.369-1.945-5.781-5.088-6.787-8.846-1.008-3.76-.49-7.686 1.457-11.055l10.498-18.188c1.945-3.369 5.088-5.781 8.846-6.787 3.766-1.006 7.686-.486 11.055 1.455 4.979 2.875 8.541 7.516 10.029 13.07 1.488 5.553.725 11.354-2.15 16.332l-3.545 6.139c-2.875 4.98-7.518 8.541-13.07 10.029-1.854.498-3.737.744-5.606.744zm7.068-40.266c-.57 0-1.145.074-1.711.227-1.693.453-3.109 1.539-3.986 3.059l-10.5 18.188c-.879 1.52-1.111 3.289-.658 4.984.455 1.693 1.541 3.109 3.061 3.986 3.129 1.812 6.77 2.285 10.262 1.354 3.488-.936 6.404-3.174 8.211-6.303l3.545-6.139c1.807-3.129 2.287-6.773 1.352-10.262-.936-3.49-3.172-6.406-6.301-8.211-1.013-.586-2.138-.883-3.275-.883z" fill="#4c241d"/></g><path d="m82 108c-2.209 0-4-1.791-4-4 0-8.822 6.711-16 14.961-16 4.998 0 9.645 2.65 12.428 7.088 1.174 1.871.607 4.34-1.264 5.514s-4.342.607-5.514-1.264c-1.31-2.09-3.423-3.338-5.65-3.338-3.838 0-6.961 3.588-6.961 8 0 2.209-1.791 4-4 4z" fill="#4c241d"/><path d="m210 108c-2.209 0-4-1.791-4-4 0-4.412-3.123-8-6.961-8-2.227 0-4.34 1.248-5.65 3.338-1.172 1.875-3.639 2.441-5.514 1.264-1.871-1.174-2.438-3.643-1.264-5.514 2.783-4.438 7.43-7.088 12.428-7.088 8.25 0 14.961 7.178 14.961 16 0 2.209-1.791 4-4 4z" fill="#4c241d"/><path d="m154 176h-16c-2.209 0-4-1.791-4-4s1.791-4 4-4h16c2.209 0 4 1.791 4 4s-1.791 4-4 4z" fill="#4c241d"/><circle cx="122" cy="144" fill="#4c241d" r="4"/><circle cx="170" cy="144" fill="#4c241d" r="4"/><g><path d="m157.423 228h-22.847c-11.363 0-20.576 9.212-20.576 20.577v14.601c10.112 3.133 20.858 4.823 32 4.823s21.888-1.69 32-4.823v-14.601c0-11.365-9.212-20.577-20.577-20.577z" fill="#6b4f5b"/><path d="m146 272c-11.309 0-22.473-1.684-33.184-5.002-1.676-.518-2.816-2.066-2.816-3.82v-14.602c0-13.551 11.025-24.576 24.576-24.576h22.848c13.551 0 24.576 11.025 24.576 24.576v14.602c0 1.754-1.141 3.303-2.816 3.82-10.711 3.318-21.875 5.002-33.184 5.002zm-28-11.814c18.156 5.062 37.844 5.062 56 0v-11.609c0-9.141-7.436-16.576-16.576-16.576h-22.848c-9.141 0-16.576 7.436-16.576 16.576zm60 2.992h.039z" fill="#4c241d"/></g></g></svg>