<svg id="parrot" enable-background="new 0 0 300 300" height="512" viewBox="0 0 300 300" width="512" xmlns="http://www.w3.org/2000/svg"><g><circle cx="180" cy="114" fill="#fff4f1" r="86"/><g><circle cx="146" cy="160" fill="#bd53b5" r="108"/><path d="m146 272c-61.758 0-112-50.242-112-112s50.242-112 112-112 112 50.242 112 112-50.242 112-112 112zm0-216c-57.346 0-104 46.654-104 104s46.654 104 104 104c57.348 0 104-46.654 104-104s-46.652-104-104-104z" fill="#4c241d"/></g><g fill="#4c241d"><circle cx="68" cy="54" r="4.529"/><circle cx="252" cy="242" r="4.529"/><path d="m251.656 65.656c-1.023 0-2.047-.391-2.828-1.172l-11.312-11.312c-1.562-1.562-1.562-4.094 0-5.656s4.094-1.562 5.656 0l11.312 11.312c1.562 1.562 1.562 4.094 0 5.656-.781.782-1.804 1.172-2.828 1.172z"/><path d="m240.344 65.656c-1.023 0-2.047-.391-2.828-1.172-1.562-1.562-1.562-4.094 0-5.656l11.312-11.312c1.562-1.562 4.094-1.562 5.656 0s1.562 4.094 0 5.656l-11.312 11.312c-.781.782-1.805 1.172-2.828 1.172z"/></g><g><path d="m212.829 194.266s16-16-4-36h-40l4 31.111s16 24.889 32 .889z" fill="#6b4f5b"/><path d="m189.77 204.707c-.047 0-.094 0-.141 0-11.629-.098-19.824-12.633-20.164-13.168-.324-.498-.527-1.062-.605-1.652l-4-31.111c-.145-1.141.207-2.289.965-3.152.762-.863 1.855-1.357 3.004-1.357h40c1.062 0 2.078.422 2.828 1.172 22.566 22.566 4.188 41.469 4 41.656-1.223 1.217-3.082 1.51-4.617.75l-4.965-2.482c-4.895 6.203-10.368 9.344-16.305 9.344zm-13.098-16.795c2.141 2.965 7.465 8.762 13.043 8.795 3.859.082 7.938-2.891 11.785-8.66 1.121-1.676 3.316-2.264 5.117-1.359l5.125 2.562c2.93-4.35 7.117-14.412-4.609-26.984h-33.758z" fill="#4c241d"/></g><g><path d="m190 140c-8-32 9.116-62.247 23.569-78.068 0 0-52.683 8.811-55.569 54.068 0 0-17.173-44.608-4-72 0 0-26.373 25.285-25.024 77.555 0 0-24.578-14.658-14.976-45.555 0 0-20.443 30.547-5.954 56.427 0 0-14.98 1.719-26.902-10.383 0 0 4.095 19.575 16.856 25.956 16 8 26.588 3.652 26.588 3.652" fill="#ffce56"/><path d="m116.688 156.818c-5.168 0-12.207-1.107-20.477-5.24-14.328-7.164-18.799-27.838-18.982-28.715-.363-1.736.463-3.506 2.025-4.344 1.566-.844 3.496-.545 4.74.719 6.027 6.117 12.922 8.248 17.695 8.953-9.686-26.014 8.162-53.184 8.986-54.416 1.104-1.65 3.252-2.238 5.049-1.385 1.793.855 2.686 2.898 2.096 4.797-5.568 17.918 1.424 29.682 7.176 35.826 1.465-47.596 25.168-70.879 26.234-71.9 1.398-1.338 3.551-1.484 5.117-.352 1.566 1.135 2.094 3.229 1.258 4.973-7.762 16.135-4.109 39.242-.344 54.145 12.473-34.248 55.16-41.811 55.648-41.893 1.699-.273 3.359.537 4.176 2.033.812 1.5.59 3.35-.562 4.609-15.652 17.137-29.824 45.682-22.645 74.4.539 2.145-.766 4.316-2.91 4.852-2.137.541-4.316-.77-4.848-2.91-6.676-26.703 3.113-53.041 16.523-71.854-4.172 1.492-9.066 3.584-13.969 6.453-16.605 9.715-25.582 23.404-26.684 40.684-.121 1.877-1.527 3.416-3.387 3.699-1.832.273-3.664-.762-4.34-2.516-.559-1.453-10.711-28.27-9.07-53.594-6.379 12.373-12.893 31.545-12.221 57.607.039 1.457-.721 2.82-1.979 3.557-1.256.736-2.816.73-4.068-.018-.199-.119-14.488-8.883-18.246-26.561-2.477 9.645-3.113 21.385 2.855 32.045.654 1.166.68 2.584.07 3.775s-1.775 2-3.105 2.152c-.502.055-9.387.982-19.254-3.721 2.334 4.588 5.756 9.348 10.541 11.74 13.977 6.988 23.188 3.566 23.279 3.531 2.049-.844 4.379.135 5.221 2.18.838 2.043-.139 4.381-2.182 5.219-.26.113-3.692 1.47-9.416 1.47z" fill="#4c241d"/></g><g><path d="m172.829 178.533c11.046 0 20-7.427 20-18.531h16c0-15.546-12.536-32.17-28-32.17h-22.855c-38.188 0-69.145 33.568-69.145 71.958v12.488h13.557c-15.789 0-28.995 9.839-32.565 24.27 19.53 19.435 46.45 31.452 76.179 31.452 17.19 0 33.431-4.035 47.858-11.18v-8.82-3.571c0-18.627-15.02-32.152-33.549-32.152h12.519v-33.744z" fill="#fff"/><path d="m146 272c-29.807 0-57.863-11.584-79.002-32.617-.996-.992-1.398-2.434-1.061-3.797 2.592-10.477 9.549-18.75 18.891-23.334v-12.463c0-41.174 33.496-75.957 73.145-75.957h22.855c18.316 0 32 19.096 32 36.17 0 2.209-1.789 4-4 4h-12.344c-1.688 9.594-9.395 16.76-19.656 18.246v29.588c12.555 5.787 21.031 18.062 21.031 32.594v12.391c0 1.521-.863 2.91-2.227 3.584-15.538 7.695-32.237 11.595-49.632 11.595zm-71.672-36.646c19.422 18.492 44.779 28.646 71.672 28.646 15.328 0 30.066-3.26 43.859-9.695v-9.875c0-16.049-12.703-28.152-29.551-28.152-2.211 0-4-1.791-4-4s1.789-4 4-4h8.52v-29.744c0-2.209 1.789-4 4-4 9.27 0 16-6.111 16-14.531 0-2.209 1.789-4 4-4h11.688c-1.84-11.936-11.539-24.17-23.688-24.17h-22.855c-35.312 0-65.145 31.121-65.145 67.957v8.488h9.559c2.209 0 4 1.791 4 4s-1.791 4-4 4c-13.207-.001-24.205 7.576-28.059 19.076z" fill="#4c241d"/></g><g><path d="m146 144c0 8.836 7.163 16 16 16h46.829c-.001-14.687-11.195-30.317-25.471-32h-21.358c-8.837 0-16 7.163-16 16z" fill="#e66353"/><path d="m208.828 164h-46.828c-11.027 0-20-8.973-20-20s8.973-20 20-20h21.359c.156 0 .312.01.469.027 17.348 2.047 29 20.252 29 35.973 0 2.209-1.789 4-4 4zm-46.828-32c-6.617 0-12 5.383-12 12s5.383 12 12 12h42.52c-1.789-11.791-11.164-22.654-21.406-24z" fill="#4c241d"/></g><circle cx="175.328" cy="147.832" fill="#4c241d" r="4"/><path d="m204.824 194.266c-.762 0-1.531-.217-2.215-.672l-12-8c-1.84-1.225-2.336-3.709-1.109-5.547 1.219-1.84 3.699-2.338 5.547-1.109l12 8c1.84 1.225 2.336 3.709 1.109 5.547-.769 1.156-2.039 1.781-3.332 1.781z" fill="#4c241d"/></g></svg>