<svg id="pig" enable-background="new 0 0 300 300" height="512" viewBox="0 0 300 300" width="512" xmlns="http://www.w3.org/2000/svg"><g><circle cx="180" cy="114" fill="#fff4f1" r="86"/><g><circle cx="146" cy="160" fill="#bf7e68" r="108"/><path d="m146 272c-61.758 0-112-50.242-112-112s50.242-112 112-112 112 50.242 112 112-50.242 112-112 112zm0-216c-57.348 0-104 46.654-104 104s46.652 104 104 104 104-46.654 104-104-46.652-104-104-104z" fill="#4c241d"/></g><g><path d="m146 152c-41.974 0-76 33.131-76 74 0 3.995.416 7.887 1.042 11.711 19.425 18.741 45.835 30.289 74.958 30.289s55.533-11.548 74.958-30.289c.626-3.824 1.042-7.716 1.042-11.711 0-40.869-34.026-74-76-74z" fill="#ffe8dc"/><path d="m146 272c-29.137 0-56.742-11.154-77.734-31.41-.621-.598-1.031-1.381-1.168-2.23-.739-4.485-1.098-8.528-1.098-12.36 0-43.01 35.887-78 80-78s80 34.99 80 78c0 3.832-.359 7.875-1.098 12.359-.137.85-.547 1.633-1.168 2.23-20.992 20.257-48.597 31.411-77.734 31.411zm-71.215-36.25c19.367 18.227 44.606 28.25 71.215 28.25s51.848-10.023 71.215-28.25c.527-3.525.785-6.727.785-9.75 0-38.598-32.301-70-72-70s-72 31.402-72 70c0 3.023.258 6.225.785 9.75zm146.172 1.961h.039z" fill="#4c241d"/></g><g><path d="m180.163 240h-68.326c-14.269 0-25.837-11.568-25.837-25.837v-14.163h120v14.163c0 14.269-11.568 25.837-25.837 25.837z" fill="#ffe8dc"/><path d="m180.164 244h-68.328c-16.453 0-29.836-13.385-29.836-29.838v-14.162c0-2.209 1.789-4 4-4h120c2.211 0 4 1.791 4 4v14.162c0 16.453-13.383 29.838-29.836 29.838zm-90.164-40v10.162c0 12.041 9.797 21.838 21.836 21.838h68.328c12.039 0 21.836-9.797 21.836-21.838v-10.162z" fill="#4c241d"/></g><g><path d="m180.411 224c18.551 0 33.589-15.038 33.589-33.589v-.823c0-10.581-4.903-20.005-12.549-26.162.324-2.436.549-4.902.549-7.427v-6c0-23.196-18.804-42-42-42h-28c-23.196 0-42 18.804-42 42v6c0 2.524.225 4.991.549 7.427-7.646 6.157-12.549 15.582-12.549 26.162v.823c0 18.551 15.038 33.589 33.589 33.589" fill="#ffe8dc"/><path d="m180.41 228c-2.211 0-4-1.791-4-4s1.789-4 4-4c16.316 0 29.59-13.273 29.59-29.588v-.824c0-8.986-4.031-17.387-11.055-23.047-1.09-.875-1.641-2.254-1.457-3.637.348-2.66.512-4.854.512-6.904v-6c0-20.953-17.047-38-38-38h-28c-20.953 0-38 17.047-38 38v6c0 2.051.164 4.244.512 6.904.184 1.383-.367 2.762-1.457 3.637-7.024 5.66-11.055 14.061-11.055 23.047v.824c0 16.315 13.273 29.588 29.59 29.588 2.211 0 4 1.791 4 4s-1.789 4-4 4c-20.727 0-37.59-16.861-37.59-37.588v-.824c0-10.666 4.465-20.68 12.324-27.811-.219-2.097-.324-3.97-.324-5.777v-6c0-25.365 20.637-46 46-46h28c25.363 0 46 20.635 46 46v6c0 1.807-.105 3.68-.324 5.777 7.859 7.131 12.324 17.145 12.324 27.811v.824c0 20.727-16.863 37.588-37.59 37.588z" fill="#4c241d"/></g><g fill="#4c241d"><circle cx="68" cy="54" r="4.529"/><circle cx="252" cy="242" r="4.529"/><path d="m251.656 65.656c-1.023 0-2.047-.391-2.828-1.172l-11.312-11.312c-1.562-1.562-1.562-4.094 0-5.656s4.094-1.562 5.656 0l11.312 11.312c1.562 1.562 1.562 4.094 0 5.656-.781.782-1.804 1.172-2.828 1.172z"/><path d="m240.344 65.656c-1.023 0-2.047-.391-2.828-1.172-1.562-1.562-1.562-4.094 0-5.656l11.312-11.312c1.562-1.562 4.094-1.562 5.656 0s1.562 4.094 0 5.656l-11.312 11.312c-.781.782-1.805 1.172-2.828 1.172z"/></g><g><path d="m135.787 152c-8.048 1.272-15.319 7.977-15.319 20.762v4.852c0 6.656 3.781 11.593 7.756 10.127l14.681-2.023c.953-.351 5.236-.339 6.186.035l14.595 1.754c3.999 1.577 7.847-3.373 7.847-10.092v-4.653c0-12.785-7.272-19.49-15.319-20.762" fill="#f4aeab"/><path d="m126.797 192.006c-1.645 0-3.27-.523-4.742-1.551-3.445-2.4-5.586-7.32-5.586-12.842v-4.852c0-16.061 10.07-23.352 18.695-24.713 2.18-.342 4.23 1.145 4.574 3.328.348 2.182-1.145 4.229-3.324 4.574-7.48 1.182-11.945 7.465-11.945 16.811v4.852c0 4.111 1.793 6.266 2.363 6.389.27-.102.559-.186.844-.225l14.496-1.994c1.957-.436 5.617-.422 7.621.025l14.367 1.729c.34.041.672.125.988.25.59-.104 2.383-2.256 2.383-6.371v-4.654c0-9.346-4.465-15.629-11.945-16.811-2.18-.346-3.672-2.393-3.324-4.574.344-2.18 2.395-3.664 4.574-3.328 8.625 1.361 18.695 8.652 18.695 24.713v4.654c0 5.576-2.172 10.52-5.672 12.9-2.152 1.467-4.703 1.854-7.082 1.111l-14.164-1.705c-.34-.039-.672-.123-.988-.248-.383-.041-2.906-.051-3.633.086-.273.102-.254.082-.539.121l-14.32 1.971c-.774.237-1.559.354-2.336.354z" fill="#4c241d"/></g><circle cx="122" cy="144" fill="#4c241d" r="4"/><circle cx="170" cy="144" fill="#4c241d" r="4"/><g><path d="m174 121.09s7.51 0 11.264-7.168c3.755-7.168 7.51-17.921 26.284-17.921 0 0 7.51 21.505-3.755 32.258-11.264 10.753-26.284 7.168-26.284 7.168" fill="#ffe8dc"/><path d="m187.547 140.006c-3.973 0-6.691-.623-6.969-.689-2.148-.514-3.473-2.67-2.961-4.82.516-2.148 2.691-3.467 4.82-2.961.516.115 13.105 2.885 22.594-6.17 7.039-6.719 4.906-19.598 3.52-25.26-12.297.902-15.594 7.455-18.789 13.807l-.953 1.865c-4.824 9.207-14.402 9.312-14.809 9.312-2.211 0-4-1.791-4-4 0-2.195 1.77-3.979 3.961-4 .277-.008 5.238-.211 7.762-5.025l.891-1.748c3.671-7.294 9.218-18.317 28.933-18.317 1.699 0 3.215 1.076 3.777 2.682.34.977 8.211 24.08-4.77 36.471-7.71 7.359-16.859 8.851-23.007 8.853z" fill="#4c241d"/></g><g><path d="m118 121.09s-7.51 0-11.264-7.168c-3.755-7.169-7.51-17.922-26.284-17.922 0 0-7.51 21.505 3.755 32.258s26.284 7.168 26.284 7.168" fill="#ffe8dc"/><path d="m104.453 140.006c-6.148 0-15.297-1.492-23.008-8.855-12.98-12.389-5.109-35.492-4.77-36.469.563-1.606 2.079-2.682 3.778-2.682 19.715 0 25.262 11.023 28.934 18.316l.891 1.75c2.543 4.848 7.555 5.02 7.766 5.023 2.191.051 3.957 1.855 3.934 4.047-.027 2.189-1.785 3.953-3.977 3.953-.406 0-9.984-.105-14.809-9.311l-.953-1.867c-3.195-6.354-6.492-12.908-18.801-13.809-1.41 5.65-3.578 18.475 3.531 25.26 9.496 9.066 22.074 6.289 22.609 6.168 2.164-.494 4.297.84 4.801 2.984s-.816 4.289-2.957 4.801c-.277.068-2.996.689-6.969.691z" fill="#4c241d"/></g><path d="m131.754 204h-1.754c-2.211 0-4-1.791-4-4s1.789-4 4-4h1.754c5.648 0 10.246-4.598 10.246-10.248 0-2.209 1.789-4 4-4s4 1.791 4 4c0 10.062-8.184 18.248-18.246 18.248z" fill="#4c241d"/><path d="m162 204h-1.754c-10.062 0-18.246-8.186-18.246-18.248 0-2.209 1.789-4 4-4s4 1.791 4 4c0 5.65 4.598 10.248 10.246 10.248h1.754c2.211 0 4 1.791 4 4s-1.789 4-4 4z" fill="#4c241d"/><path d="m158 176c-2.211 0-4-1.791-4-4v-4c0-2.209 1.789-4 4-4s4 1.791 4 4v4c0 2.209-1.789 4-4 4z" fill="#4c241d"/><path d="m134 176c-2.211 0-4-1.791-4-4v-4c0-2.209 1.789-4 4-4s4 1.791 4 4v4c0 2.209-1.789 4-4 4z" fill="#4c241d"/></g></svg>