<svg id="puma-lioness" enable-background="new 0 0 300 300" height="512" viewBox="0 0 300 300" width="512" xmlns="http://www.w3.org/2000/svg"><g><circle cx="248" cy="244" fill="#4c241d" r="4"/><circle cx="178" cy="114" fill="#fff4f1" r="86"/><g><circle cx="148" cy="160" fill="#fc8c29" r="108"/><path d="m148 272c-61.758 0-112-50.242-112-112s50.242-112 112-112 112 50.242 112 112-50.242 112-112 112zm0-216c-57.348 0-104 46.652-104 104s46.652 104 104 104 104-46.652 104-104-46.652-104-104-104z" fill="#4c241d"/></g><g><path d="m176.13 192h-56.26c-22.02 0-39.87 17.85-39.87 39.87v12.017c18.567 15.069 42.223 24.113 68 24.113s49.433-9.044 68-24.113v-12.017c0-22.02-17.85-39.87-39.87-39.87z" fill="#ffce56"/><path d="m148 272c-25.609 0-50.652-8.883-70.52-25.008-.938-.758-1.48-1.898-1.48-3.105v-12.016c0-24.191 19.68-43.871 43.871-43.871h56.258c24.191 0 43.871 19.68 43.871 43.871v12.016c0 1.207-.543 2.348-1.48 3.105-19.868 16.125-44.911 25.008-70.52 25.008zm-64-30.039c18.203 14.227 40.852 22.039 64 22.039s45.797-7.812 64-22.039v-10.09c0-19.781-16.09-35.871-35.871-35.871h-56.258c-19.781 0-35.871 16.09-35.871 35.871zm132 1.926h.039z" fill="#4c241d"/></g><circle cx="64" cy="56" fill="#4c241d" r="4"/><path d="m252 68c-1.023 0-2.047-.391-2.828-1.172l-12-12c-1.562-1.562-1.562-4.094 0-5.656s4.094-1.562 5.656 0l12 12c1.562 1.562 1.562 4.094 0 5.656-.781.781-1.805 1.172-2.828 1.172z" fill="#4c241d"/><path d="m240 68c-1.023 0-2.047-.391-2.828-1.172-1.562-1.562-1.562-4.094 0-5.656l12-12c1.562-1.562 4.094-1.562 5.656 0s1.562 4.094 0 5.656l-12 12c-.781.781-1.805 1.172-2.828 1.172z" fill="#4c241d"/><g><path d="m212 96c7.754 17.36-11.263 49.6-11.263 49.6l-15.509-22.32z" fill="#fff"/><path d="m200.738 149.602c-1.309 0-2.535-.641-3.285-1.719l-15.512-22.32c-1.098-1.578-.914-3.711.43-5.082l26.773-27.281c.926-.945 2.273-1.371 3.562-1.137 1.305.234 2.406 1.098 2.945 2.305 8.5 19.027-10.648 51.879-11.469 53.266-.691 1.176-1.934 1.914-3.297 1.965-.049.003-.096.003-.147.003zm-10.336-25.883 9.902 14.25c4.492-9.008 10.203-23.352 9.492-34.012z" fill="#4c241d"/></g><g><path d="m80 96c-7.754 17.36 13.914 49.6 13.914 49.6l15.509-22.32z" fill="#fff"/><path d="m93.914 149.602c-.012 0-.02 0-.031 0-1.32-.012-2.551-.672-3.289-1.77-.934-1.391-22.805-34.301-14.246-53.465.527-1.176 1.59-2.027 2.852-2.285 1.266-.258 2.574.109 3.52.984l29.422 27.281c1.461 1.355 1.703 3.578.566 5.215l-15.508 22.32c-.751 1.079-1.977 1.72-3.286 1.72zm-11.57-45.973c-.512 10.832 6.516 25.672 11.758 34.691l10.055-14.469z" fill="#4c241d"/></g><g><path d="m194.61 128.115c7.755-6.162 17.39-17.553 17.39-32.115l-35.279 15.234c-8.863-6.301-18.555-10.274-28.721-10.274-10.537 0-20.573 4.249-29.695 10.955l-38.305-15.915c0 15.599 12.655 27.555 20.364 33.347-17.291 21.135-16.364 50.157-16.364 62.653 0 7.44 22.026 28 64 28s64-20.56 64-28c0-12.74.486-42.588-17.39-63.885z" fill="#ffce56"/><path d="m148 224c-42.184 0-68-20.719-68-32l-.004-1.805c-.043-12.988-.125-39.312 14.805-60.16-8.145-6.828-18.801-18.691-18.801-34.035 0-1.336.668-2.586 1.781-3.328 1.105-.742 2.523-.875 3.754-.367l36.254 15.062c19.629-13.559 39.668-13.836 59.375-.684l33.25-14.355c1.23-.535 2.656-.41 3.785.328 1.125.742 1.801 1.996 1.801 3.344 0 15.492-9.52 26.82-15.875 32.66 15.914 21.57 15.887 49.918 15.875 62.352v.988c0 11.281-25.816 32-68 32zm-63.199-121.672c2.766 10.914 12.055 19.379 17.965 23.82.871.656 1.438 1.637 1.57 2.719.129 1.082-.188 2.168-.875 3.012-15.59 19.059-15.504 45.555-15.465 58.289l.004 1.832c.152 4.746 19.816 24 60 24s59.848-19.254 60-24.004v-.992c.012-13.199.039-40.672-16.453-60.316-.695-.824-1.027-1.898-.918-2.973s.645-2.059 1.492-2.73c4.051-3.219 12.668-11.219 15.18-22.598l-28.996 12.52c-1.273.547-2.762.402-3.902-.414-18.117-12.883-35.68-12.617-53.73.645-1.125.828-2.605 1.004-3.902.473z" fill="#4c241d"/></g><g><path d="m122.839 164.386c-9.032 4.583-14.829 11.803-15.144 20.593-.096 2.672-.011 5.294.239 7.854 1.975 20.161 19.637 35.167 39.894 35.167 20.258 0 37.921-15.007 39.894-35.168.25-2.559.335-5.181.239-7.852-.325-9.041-6.448-16.421-15.927-20.979" fill="#fff"/><path d="m147.828 232c-22.473 0-41.742-17.031-43.875-38.777-.273-2.773-.355-5.598-.254-8.387.352-9.855 6.672-18.609 17.332-24.016 1.961-1.012 4.379-.215 5.375 1.758 1 1.969.215 4.375-1.758 5.375-8.105 4.113-12.707 10.211-12.957 17.172-.086 2.438-.012 4.898.223 7.316 1.734 17.696 17.512 31.559 35.914 31.559 18.406 0 34.184-13.863 35.914-31.559.234-2.418.309-4.879.223-7.316-.258-7.188-5.109-13.406-13.664-17.52-1.988-.957-2.828-3.348-1.871-5.34.957-1.988 3.352-2.828 5.34-1.871 11.195 5.383 17.824 14.293 18.188 24.441.102 2.789.02 5.613-.254 8.387-2.13 21.743-21.399 38.778-43.876 38.778z" fill="#4c241d"/></g><path d="m168 200c-8.34 0-15.695-4.273-20-10.746-4.305 6.473-11.66 10.746-20 10.746-2.211 0-4-1.789-4-4s1.789-4 4-4c8.824 0 16-7.176 16-16 0-2.211 1.789-4 4-4s4 1.789 4 4c0 8.824 7.176 16 16 16 2.211 0 4 1.789 4 4s-1.789 4-4 4z" fill="#4c241d"/><g><path d="m150.71 163.909h-5.42c-1.053 0-1.987-.381-2.32-.945l-2.842-4.819c-.528-.895.651-1.819 2.32-1.819h11.104c1.669 0 2.848.924 2.32 1.819l-2.842 4.819c-.333.564-1.267.945-2.32.945z" fill="#ffce56"/><path d="m150.711 167.91h-5.422c-2.496 0-4.703-1.117-5.766-2.91l-2.84-4.824c-.898-1.512-.918-3.336-.043-4.867 1.047-1.84 3.273-2.984 5.809-2.984h11.102c2.535 0 4.762 1.145 5.809 2.984.875 1.531.855 3.355-.051 4.879l-2.832 4.809c-1.063 1.796-3.27 2.913-5.766 2.913zm1.715-11.797c-.004.008-.008.012-.012.02zm-8.86-.011.012.02c-.004-.009-.008-.013-.012-.02z" fill="#4c241d"/></g><g><path d="m116 148 12 4" fill="#ffce56"/><path d="m128 156c-.418 0-.844-.066-1.266-.207l-12-4c-2.094-.695-3.227-2.961-2.527-5.059.699-2.094 2.945-3.234 5.059-2.527l12 4c2.094.695 3.227 2.961 2.527 5.059-.559 1.675-2.117 2.734-3.793 2.734z" fill="#4c241d"/></g><path d="m168 156c-1.676 0-3.234-1.059-3.793-2.734-.699-2.098.434-4.363 2.527-5.059l12-4c2.113-.707 4.359.434 5.059 2.527.699 2.098-.434 4.363-2.527 5.059l-12 4c-.422.141-.848.207-1.266.207z" fill="#4c241d"/><path d="m148 184c-2.211 0-4-1.789-4-4v-12c0-2.211 1.789-4 4-4s4 1.789 4 4v12c0 2.211-1.789 4-4 4z" fill="#4c241d"/><g><path d="m159.423 236h-22.847c-11.363 0-20.576 9.212-20.576 20.577v6.601c10.112 3.133 20.858 4.823 32 4.823s21.888-1.69 32-4.823v-6.601c0-11.365-9.212-20.577-20.577-20.577z" fill="#fff"/><path d="m148 272c-11.301 0-22.465-1.684-33.184-5.004-1.676-.52-2.816-2.066-2.816-3.82v-6.598c0-13.551 11.027-24.578 24.578-24.578h22.844c13.551 0 24.578 11.027 24.578 24.578v6.598c0 1.754-1.141 3.301-2.816 3.82-10.719 3.32-21.883 5.004-33.184 5.004zm-28-11.816c18.164 5.07 37.836 5.07 56 0v-3.605c0-9.141-7.438-16.578-16.578-16.578h-22.844c-9.141 0-16.578 7.438-16.578 16.578zm60 2.992h.039z" fill="#4c241d"/></g><g fill="#4c241d"><path d="m178.805 180.664c-1.336 0-2.645-.672-3.398-1.891-1.168-1.875-.594-4.34 1.281-5.504 1.453-.906 35.844-21.953 57.812-4.395 1.723 1.383 2.004 3.898.625 5.625-1.383 1.719-3.891 2.012-5.625.625-17.539-14.047-48.281 4.746-48.59 4.938-.656.407-1.383.602-2.105.602z"/><path d="m224.004 196c-1.359 0-2.684-.691-3.434-1.941-10.051-16.746-40.621-3.648-40.93-3.516-2.016.887-4.379-.035-5.266-2.062-.883-2.023.035-4.379 2.059-5.266 1.52-.66 37.348-16.027 50.996 6.727 1.137 1.895.523 4.352-1.371 5.488-.644.386-1.355.57-2.054.57z"/><path d="m119.234 180.664c-.723 0-1.449-.195-2.105-.602-.309-.191-31.051-18.977-48.59-4.938-1.73 1.383-4.242 1.098-5.625-.625-1.379-1.727-1.098-4.242.625-5.625 21.977-17.559 56.363 3.492 57.812 4.395 1.875 1.164 2.449 3.629 1.281 5.504-.753 1.219-2.062 1.891-3.398 1.891z"/><path d="m74.035 196c-.699 0-1.41-.184-2.055-.57-1.895-1.137-2.508-3.594-1.371-5.488 13.652-22.754 49.477-7.391 50.996-6.727 2.023.887 2.941 3.242 2.059 5.266-.887 2.023-3.254 2.941-5.266 2.062-.309-.133-30.879-13.23-40.93 3.516-.749 1.25-2.073 1.941-3.433 1.941z"/><path d="m148 124c-2.211 0-4-1.789-4-4v-16c0-2.211 1.789-4 4-4s4 1.789 4 4v16c0 2.211-1.789 4-4 4z"/><path d="m136 120c-2.211 0-4-1.789-4-4v-12c0-2.211 1.789-4 4-4s4 1.789 4 4v12c0 2.211-1.789 4-4 4z"/><path d="m160 120c-2.211 0-4-1.789-4-4v-12c0-2.211 1.789-4 4-4s4 1.789 4 4v12c0 2.211-1.789 4-4 4z"/></g></g></svg>