<svg id="rabbit" enable-background="new 0 0 300 300" height="512" viewBox="0 0 300 300" width="512" xmlns="http://www.w3.org/2000/svg"><g><circle cx="248" cy="244" fill="#4c241d" r="4"/><circle cx="178" cy="114" fill="#fff4f1" r="86"/><g><circle cx="148" cy="160" fill="#bf7e68" r="108"/><path d="m148 272c-61.758 0-112-50.242-112-112s50.242-112 112-112 112 50.242 112 112-50.242 112-112 112zm0-216c-57.348 0-104 46.654-104 104s46.652 104 104 104 104-46.654 104-104-46.652-104-104-104z" fill="#4c241d"/></g><g><path d="m160 140s12-28 28-52l16 24s-4 20-28 40" fill="#edebdc"/><path d="m176.004 156c-1.148 0-2.285-.49-3.078-1.439-1.414-1.697-1.184-4.219.512-5.633 18.789-15.656 24.754-31.369 26.23-36.215l-11.621-17.43c-13.961 22.148-24.262 46.035-24.371 46.293-.867 2.025-3.223 2.979-5.25 2.1-2.031-.869-2.973-3.221-2.102-5.252.496-1.156 12.328-28.613 28.348-52.643 1.484-2.227 5.172-2.227 6.656 0l16 24c.59.883.801 1.963.594 3.004-.176.873-4.562 21.621-29.359 42.287-.751.623-1.657.928-2.559.928z" fill="#4c241d"/></g><g><path d="m188 88s-4 40 16 48c0 0 12-24 12-40z" fill="#fff"/><path d="m204 140c-.496 0-1-.092-1.484-.285-22.535-9.016-18.672-50.357-18.496-52.113.117-1.18.754-2.246 1.734-2.91.98-.666 2.215-.863 3.344-.537l28 8c1.718.49 2.902 2.06 2.902 3.845 0 16.752-11.914 40.773-12.422 41.789-.695 1.393-2.105 2.211-3.578 2.211zm-12.316-46.787c-.34 11.164 1.195 30.027 10.52 37.193 2.969-6.602 8.699-20.508 9.66-31.428z" fill="#4c241d"/></g><g><path d="m148 184c-22.091 0-40 25.072-40 56 0 7.626 1.098 14.89 3.07 21.515 11.522 4.193 23.958 6.485 36.93 6.485s25.408-2.292 36.93-6.485c1.972-6.625 3.07-13.889 3.07-21.515 0-30.928-17.909-56-40-56z" fill="#eaeaea"/><path d="m148 272c-13.148 0-26.035-2.264-38.297-6.725-1.191-.434-2.105-1.404-2.465-2.619-2.148-7.213-3.238-14.834-3.238-22.656 0-33.084 19.738-60 44-60s44 26.916 44 60c0 7.822-1.09 15.443-3.238 22.656-.359 1.215-1.273 2.186-2.465 2.619-12.262 4.461-25.149 6.725-38.297 6.725zm-33.641-13.566c21.609 7.391 45.672 7.391 67.281 0 1.567-5.895 2.36-12.086 2.36-18.434 0-28.674-16.148-52-36-52s-36 23.326-36 52c0 6.348.793 12.539 2.359 18.434zm70.571 3.082h.039z" fill="#4c241d"/></g><g><path d="m179.299 129.737c-4.629 5.333-9.784 12.824-14.3 23.083" fill="#edebdc"/><path d="m164.996 156.822c-.535 0-1.082-.109-1.609-.342-2.02-.889-2.938-3.25-2.047-5.271 4.078-9.266 9.102-17.373 14.938-24.094 1.449-1.672 3.973-1.846 5.641-.4 1.668 1.449 1.848 3.975.398 5.643-5.305 6.115-9.898 13.543-13.656 22.074-.661 1.498-2.126 2.39-3.665 2.39z" fill="#4c241d"/></g><g><path d="m136 140s-12-28-28-52l-16 24s4 20 28 40" fill="#edebdc"/><path d="m119.996 156c-.902 0-1.809-.305-2.559-.928-24.797-20.666-29.184-41.414-29.359-42.287-.207-1.041.004-2.121.594-3.004l16-24c1.484-2.227 5.172-2.227 6.656 0 16.02 24.029 27.852 51.486 28.348 52.643.871 2.031-.07 4.383-2.102 5.252-2.035.879-4.383-.074-5.25-2.1-.109-.258-10.41-24.145-24.371-46.293l-11.621 17.432c1.469 4.826 7.43 20.547 26.23 36.213 1.695 1.414 1.926 3.936.512 5.633-.793.949-1.929 1.439-3.078 1.439z" fill="#4c241d"/></g><g><path d="m108 88s4 40-16 48c0 0-12-24-12-40z" fill="#fff"/><path d="m92 140c-1.473 0-2.883-.818-3.578-2.211-.508-1.016-12.422-25.037-12.422-41.789 0-1.785 1.184-3.355 2.902-3.846l28-8c1.137-.326 2.367-.129 3.344.537.98.664 1.617 1.73 1.734 2.91.176 1.756 4.039 43.098-18.496 52.113-.484.194-.988.286-1.484.286zm-7.863-41.021c.961 10.92 6.691 24.826 9.66 31.428 9.324-7.166 10.859-26.029 10.52-37.193z" fill="#4c241d"/></g><g><path d="m116.701 129.737c4.629 5.333 9.784 12.824 14.3 23.083" fill="#edebdc"/><path d="m131.004 156.822c-1.539 0-3.004-.893-3.664-2.391-3.758-8.531-8.352-15.959-13.656-22.074-1.449-1.668-1.27-4.193.398-5.643 1.668-1.445 4.199-1.271 5.641.4 5.836 6.721 10.859 14.828 14.938 24.094.891 2.021-.027 4.383-2.047 5.271-.528.234-1.075.343-1.61.343z" fill="#4c241d"/></g><circle cx="64" cy="56" fill="#4c241d" r="4"/><path d="m252 68c-1.023 0-2.047-.391-2.828-1.172l-12-12c-1.562-1.562-1.562-4.094 0-5.656s4.094-1.562 5.656 0l12 12c1.562 1.562 1.562 4.094 0 5.656-.781.781-1.805 1.172-2.828 1.172z" fill="#4c241d"/><path d="m240 68c-1.023 0-2.047-.391-2.828-1.172-1.562-1.562-1.562-4.094 0-5.656l12-12c1.562-1.562 4.094-1.562 5.656 0s1.562 4.094 0 5.656l-12 12c-.781.781-1.805 1.172-2.828 1.172z" fill="#4c241d"/><g><path d="m140 212h16v20h-16z" fill="#fff"/><path d="m156 236h-16c-2.211 0-4-1.791-4-4v-20c0-2.209 1.789-4 4-4h16c2.211 0 4 1.791 4 4v20c0 2.209-1.789 4-4 4zm-12-8h8v-12h-8z" fill="#4c241d"/></g><g><path d="m184.923 159.738c0-15.319-14.329-27.738-32.005-27.738h-9.836c-17.676 0-32.005 12.419-32.005 27.738 0 5.282-3.377 9.955-8.473 12.852-10.358 5.889-16.576 16.791-14.037 28.736 2.41 11.339 13.119 20.402 26.245 22.28 14.02 2.007 26.678-3.834 33.188-13.238 6.51 9.403 19.169 15.244 33.188 13.238 13.125-1.879 23.834-10.942 26.245-22.28 2.539-11.945-3.679-22.847-14.037-28.736-5.096-2.898-8.473-7.571-8.473-12.852z" fill="#fff"/><path d="m120.223 227.992c-1.977 0-3.973-.141-5.977-.428-14.926-2.135-26.816-12.346-29.594-25.406-2.758-12.988 3.512-25.961 15.977-33.045 4.039-2.299 6.449-5.803 6.449-9.375 0-17.5 16.152-31.738 36.004-31.738h9.836c19.852 0 36.004 14.238 36.004 31.738 0 3.572 2.41 7.076 6.449 9.375 12.465 7.084 18.734 20.057 15.977 33.045-2.777 13.061-14.668 23.271-29.594 25.406-12.871 1.846-25.582-2.377-33.754-10.898-6.902 7.197-17.039 11.324-27.777 11.326zm22.859-91.992c-15.441 0-28.004 10.648-28.004 23.738 0 6.484-3.922 12.59-10.496 16.328-9.52 5.412-14.156 14.771-12.102 24.428 2.047 9.639 11.465 17.516 22.898 19.152 11.809 1.68 23.305-2.852 29.332-11.557 1.492-2.156 5.086-2.156 6.578 0 6.023 8.703 17.512 13.234 29.332 11.557 11.434-1.637 20.852-9.514 22.898-19.152 2.055-9.656-2.582-19.016-12.102-24.428-6.574-3.738-10.496-9.844-10.496-16.328 0-13.09-12.562-23.738-28.004-23.738z" fill="#4c241d"/></g><g><path d="m140 188 8 4 8-4" fill="#a9ba5a"/><path d="m148 196c-.613 0-1.227-.141-1.789-.422l-8-4c-1.977-.988-2.777-3.391-1.789-5.367.992-1.979 3.395-2.779 5.367-1.789l6.211 3.105 6.211-3.105c1.98-.99 4.375-.189 5.367 1.789.988 1.977.188 4.379-1.789 5.367l-8 4c-.562.281-1.176.422-1.789.422z" fill="#4c241d"/></g><g fill="#4c241d"><path d="m148 216c-2.211 0-4-1.791-4-4v-20c0-2.209 1.789-4 4-4s4 1.791 4 4v20c0 2.209-1.789 4-4 4z"/><circle cx="128" cy="168" r="4"/><circle cx="168" cy="168" r="4"/><path d="m116.566 194.285c-.445 0-.902-.076-1.348-.236-.277-.1-27.398-9.674-45.734-2.334-2.031.809-4.379-.176-5.199-2.229s.18-4.379 2.23-5.201c21.164-8.463 50.184 1.797 51.41 2.236 2.078.748 3.156 3.037 2.406 5.115-.585 1.634-2.124 2.649-3.765 2.649z"/><path d="m79.996 216c-.762 0-1.531-.217-2.215-.672-1.84-1.225-2.336-3.709-1.109-5.547 9.082-13.625 34.262-13.781 35.328-13.781 2.207 0 3.996 1.789 4 3.996 0 2.209-1.789 4-3.996 4.004-6.09.012-23.109 1.867-28.676 10.219-.769 1.156-2.039 1.781-3.332 1.781z"/><path d="m180.008 191.996c-1.363 0-2.691-.695-3.438-1.949-1.133-1.895-.52-4.342 1.371-5.477.883-.529 21.867-12.857 47.324-4.365 2.094.699 3.227 2.965 2.527 5.061-.699 2.094-2.945 3.238-5.059 2.529-21.867-7.285-40.5 3.531-40.684 3.641-.639.378-1.346.56-2.041.56z"/><path d="m212.004 216c-1.293 0-2.562-.625-3.332-1.781-6.699-10.047-24.5-10.219-24.68-10.219-2.203-.008-3.992-1.799-3.988-4.006s1.789-3.994 3.996-3.994c.902 0 22.246.156 31.328 13.781 1.227 1.838.73 4.322-1.109 5.547-.684.455-1.453.672-2.215.672z"/></g><g><path d="m124 268h-16.364c-4.217 0-7.636-3.419-7.636-7.636v-5.48c0-3.802 3.082-6.884 6.884-6.884h10.232c3.802 0 6.884 3.082 6.884 6.884z" fill="#fff"/><path d="m124 272h-16.363c-6.418 0-11.637-5.221-11.637-11.637v-5.48c0-6 4.883-10.883 10.883-10.883h10.234c6 0 10.883 4.883 10.883 10.883v13.117c0 2.209-1.789 4-4 4zm-17.117-20c-1.59 0-2.883 1.293-2.883 2.883v5.48c0 2.006 1.633 3.637 3.637 3.637h12.363v-9.117c0-1.59-1.293-2.883-2.883-2.883z" fill="#4c241d"/></g><g><path d="m172 268h16.364c4.217 0 7.636-3.419 7.636-7.636v-5.48c0-3.802-3.082-6.884-6.884-6.884h-10.232c-3.802 0-6.884 3.082-6.884 6.884z" fill="#fff"/><path d="m188.363 272h-16.363c-2.211 0-4-1.791-4-4v-13.117c0-6 4.883-10.883 10.883-10.883h10.234c6 0 10.883 4.883 10.883 10.885v5.48c0 6.416-5.219 11.635-11.637 11.635zm-12.363-8h12.363c2.004 0 3.637-1.631 3.637-3.635v-5.48c0-1.59-1.293-2.885-2.883-2.885h-10.234c-1.59 0-2.883 1.293-2.883 2.883z" fill="#4c241d"/></g></g></svg>