<svg id="bison" enable-background="new 0 0 300 300" height="512" viewBox="0 0 300 300" width="512" xmlns="http://www.w3.org/2000/svg"><g><circle cx="184" cy="114" fill="#fff4f1" r="86"/><g><circle cx="150" cy="160" fill="#a9ba5a" r="108"/><path d="m150 272c-61.758 0-112-50.242-112-112s50.242-112 112-112 112 50.242 112 112-50.242 112-112 112zm0-216c-57.348 0-104 46.654-104 104s46.652 104 104 104 104-46.654 104-104-46.652-104-104-104z" fill="#4c241d"/></g><g><path d="m150 128.409v139.591c59.647 0 108-48.353 108-108 0-27.666-10.415-52.891-27.522-72h-40.069c-22.317 0-40.409 18.092-40.409 40.409z" fill="#bf7e68"/><path d="m150 272c-2.211 0-4-1.791-4-4v-139.59c0-24.488 19.922-44.41 44.41-44.41h40.066c1.137 0 2.223.484 2.98 1.332 18.407 20.559 28.544 47.076 28.544 74.668 0 61.758-50.242 112-112 112zm40.41-180c-20.078 0-36.41 16.334-36.41 36.41v135.514c55.496-2.111 100-47.918 100-103.924 0-25.027-8.984-49.105-25.332-68z" fill="#4c241d"/></g><g><path d="m156 260c-3.314 0-6-2.686-6-6v-26h12v26c0 3.314-2.686 6-6 6z" fill="#6b4f5b"/><path d="m156 264c-5.516 0-10-4.486-10-10v-26c0-2.209 1.789-4 4-4h12c2.211 0 4 1.791 4 4v26c0 5.514-4.484 10-10 10zm-2-32v22c0 1.104.898 2 2 2s2-.896 2-2v-22z" fill="#4c241d"/></g><g><path d="m168 256c-3.314 0-6-2.686-6-6v-26h12v26c0 3.314-2.686 6-6 6z" fill="#6b4f5b"/><path d="m168 260c-5.516 0-10-4.486-10-10v-26c0-2.209 1.789-4 4-4h12c2.211 0 4 1.791 4 4v26c0 5.514-4.484 10-10 10zm-2-32v22c0 1.104.898 2 2 2s2-.896 2-2v-22z" fill="#4c241d"/></g><g><path d="m132 256c-3.314 0-6-2.686-6-6v-26h12v26c0 3.314-2.686 6-6 6z" fill="#6b4f5b"/><path d="m132 260c-5.516 0-10-4.486-10-10v-26c0-2.209 1.789-4 4-4h12c2.211 0 4 1.791 4 4v26c0 5.514-4.484 10-10 10zm-2-32v22c0 1.104.898 2 2 2s2-.896 2-2v-22z" fill="#4c241d"/></g><g><path d="m144 260c-3.314 0-6-2.686-6-6v-26h12v26c0 3.314-2.686 6-6 6z" fill="#6b4f5b"/><path d="m144 264c-5.516 0-10-4.486-10-10v-26c0-2.209 1.789-4 4-4h12c2.211 0 4 1.791 4 4v26c0 5.514-4.484 10-10 10zm-2-32v22c0 1.104.898 2 2 2s2-.896 2-2v-22z" fill="#4c241d"/></g><g><path d="m258 102.44v-2.44c0-8.837 7.163-16 16-16v22.34c0 16.381-13.279 33.66-29.66 33.66h-78.34v-20h74.44c9.698 0 17.56-7.862 17.56-17.56z" fill="#b5a19c"/><path d="m244.34 144h-78.34c-2.211 0-4-1.791-4-4v-20c0-2.209 1.789-4 4-4h74.441c7.477 0 13.559-6.084 13.559-13.561v-2.439c0-11.027 8.973-20 20-20 2.211 0 4 1.791 4 4v22.34c0 17.777-14.395 37.66-33.66 37.66zm-74.34-8h74.34c14.453 0 25.66-15.943 25.66-29.66v-17.654c-4.656 1.65-8 6.1-8 11.314v2.439c0 11.889-9.672 21.561-21.559 21.561h-70.441z" fill="#4c241d"/></g><path d="m226 132c-2.211 0-4-1.791-4-4v-8c0-2.209 1.789-4 4-4s4 1.791 4 4v8c0 2.209-1.789 4-4 4z" fill="#4c241d"/><path d="m214 132c-2.211 0-4-1.791-4-4v-8c0-2.209 1.789-4 4-4s4 1.791 4 4v8c0 2.209-1.789 4-4 4z" fill="#4c241d"/><path d="m202 132c-2.211 0-4-1.791-4-4v-8c0-2.209 1.789-4 4-4s4 1.791 4 4v8c0 2.209-1.789 4-4 4z" fill="#4c241d"/><g><path d="m42 102.44v-2.44c0-8.837-7.163-16-16-16v22.34c0 16.381 13.279 33.66 29.66 33.66h78.34v-20h-74.44c-9.698 0-17.56-7.862-17.56-17.56z" fill="#b5a19c"/><path d="m134 144h-78.34c-19.265 0-33.66-19.883-33.66-37.66v-22.34c0-2.209 1.789-4 4-4 11.027 0 20 8.973 20 20v2.439c0 7.477 6.082 13.561 13.559 13.561h74.441c2.211 0 4 1.791 4 4v20c0 2.209-1.789 4-4 4zm-104-55.314v17.654c0 13.717 11.207 29.66 25.66 29.66h74.34v-12h-70.441c-11.887 0-21.559-9.672-21.559-21.561v-2.439c0-5.215-3.344-9.664-8-11.314z" fill="#4c241d"/></g><g><path d="m206 172c0-25.528-27.281-64-56-64s-56 38.472-56 64 27.281 32 56 32 56-6.472 56-32z" fill="#bf7e68"/><path d="m150 208c-27.371 0-60-6.246-60-36 0-13.441 6.945-30.338 18.125-44.096 12.348-15.191 27.609-23.904 41.875-23.904s29.527 8.713 41.875 23.904c11.18 13.758 18.125 30.655 18.125 44.096 0 29.754-32.629 36-60 36zm0-96c-26.812 0-52 37.43-52 60 0 18.58 17.496 28 52 28s52-9.42 52-28c0-22.57-25.188-60-52-60z" fill="#4c241d"/></g><g fill="#4c241d"><circle cx="72" cy="54" r="4.529"/><circle cx="256" cy="242" r="4.529"/><path d="m255.656 65.656c-1.023 0-2.047-.391-2.828-1.172l-11.312-11.312c-1.562-1.562-1.562-4.094 0-5.656s4.094-1.562 5.656 0l11.312 11.312c1.562 1.562 1.562 4.094 0 5.656-.781.782-1.804 1.172-2.828 1.172z"/><path d="m244.344 65.656c-1.023 0-2.047-.391-2.828-1.172-1.562-1.562-1.562-4.094 0-5.656l11.312-11.312c1.562-1.562 4.094-1.562 5.656 0s1.562 4.094 0 5.656l-11.312 11.312c-.781.782-1.805 1.172-2.828 1.172z"/></g><g><path d="m160 240h-20c-7.732 0-14-6.268-14-14 0-7.732 6.268-14 14-14h20c7.732 0 14 6.268 14 14 0 7.732-6.268 14-14 14z" fill="#bf7e68"/><path d="m160 244h-20c-9.926 0-18-8.074-18-18s8.074-18 18-18h20c9.926 0 18 8.074 18 18s-8.074 18-18 18zm-20-28c-5.516 0-10 4.486-10 10s4.484 10 10 10h20c5.516 0 10-4.486 10-10s-4.484-10-10-10z" fill="#4c241d"/></g><path d="m166 188c-2.211 0-4-1.791-4-4v-26.979c0-13.796 11.227-25.021 25.023-25.021h5.301c2.211 0 4 1.791 4 4s-1.789 4-4 4h-5.301c-9.387 0-17.023 7.637-17.023 17.021v26.979c0 2.209-1.789 4-4 4z" fill="#4c241d"/><g><path d="m134 184c-12.608 1.594-24 15.011-24 31.035v6.081c0 8.342 5.923 14.53 12.15 12.692l23-7.548c1.492-.44 8.204-.425 9.691.044l22.865 7.212c6.265 1.976 12.294-4.227 12.294-12.648v-5.832c0-16.024-11.392-29.44-24-31.035" fill="#ffded5"/><path d="m119.898 238.125c-2.578 0-5.062-.852-7.27-2.5-4.152-3.104-6.629-8.527-6.629-14.51v-6.08c0-17.385 12.336-33.088 27.5-35.004 2.195-.295 4.191 1.277 4.469 3.467.277 2.191-1.277 4.193-3.469 4.471-9.898 1.252-20.5 12.426-20.5 27.066v6.08c0 3.42 1.309 6.525 3.418 8.102 1.16.863 2.367 1.113 3.598.756l22.891-7.514c2.398-.707 9.93-.668 12.137.029l22.867 7.213c1.234.387 2.457.156 3.629-.701 2.133-1.564 3.461-4.682 3.461-8.133v-5.832c0-14.641-10.602-25.814-20.5-27.066-2.191-.277-3.746-2.279-3.469-4.471s2.324-3.742 4.469-3.467c15.164 1.916 27.5 17.619 27.5 35.004v5.832c0 6.043-2.516 11.494-6.73 14.586-3.246 2.375-7.074 3.039-10.766 1.877l-22.867-7.213c-1.086-.232-6.234-.252-7.445.004l-22.797 7.488c-1.172.346-2.344.516-3.497.516z" fill="#4c241d"/></g><path d="m134 188c-2.211 0-4-1.791-4-4v-26.979c0-9.385-7.637-17.021-17.023-17.021h-4.672c-2.211 0-4-1.791-4-4s1.789-4 4-4h4.672c13.796 0 25.023 11.225 25.023 25.021v26.979c0 2.209-1.789 4-4 4z" fill="#4c241d"/><g><path d="m126 204s8-4 12 4" fill="#b5a19c"/><path d="m138.004 212c-1.469.002-2.879-.809-3.582-2.211-1.887-3.77-4.992-2.992-6.672-2.193-1.973.936-4.367.117-5.324-1.857-.961-1.971-.176-4.336 1.785-5.316 4.664-2.324 13.117-2.701 17.367 5.789.988 1.977.188 4.379-1.789 5.367-.574.286-1.184.421-1.785.421z" fill="#4c241d"/></g><g><path d="m174 204s-8-4-12 4" fill="#b5a19c"/><path d="m161.996 212c-.602 0-1.211-.135-1.785-.422-1.977-.988-2.777-3.391-1.789-5.367 4.25-8.496 12.707-8.119 17.367-5.789 1.977.988 2.777 3.391 1.789 5.367-.984 1.965-3.363 2.768-5.336 1.805-1.676-.797-4.781-1.574-6.664 2.195-.703 1.402-2.113 2.211-3.582 2.211z" fill="#4c241d"/></g><circle cx="122" cy="168" fill="#4c241d" r="4"/><circle cx="178" cy="168" fill="#4c241d" r="4"/><g><path d="m142 124v-20h-12v8c0 6.627 5.373 12 12 12z" fill="#6b4f5b"/><path d="m142 128c-8.824 0-16-7.178-16-16v-8c0-2.209 1.789-4 4-4h12c2.211 0 4 1.791 4 4v20c0 2.209-1.789 4-4 4zm-8-20v4c0 2.955 1.609 5.541 4 6.926v-10.926z" fill="#4c241d"/></g><g><path d="m158 124v-20h12v8c0 6.627-5.373 12-12 12z" fill="#6b4f5b"/><path d="m158 128c-2.211 0-4-1.791-4-4v-20c0-2.209 1.789-4 4-4h12c2.211 0 4 1.791 4 4v8c0 8.822-7.176 16-16 16zm4-20v10.926c2.391-1.385 4-3.971 4-6.926v-4z" fill="#4c241d"/></g><g><path d="m152 136h-4c-3.314 0-6-2.686-6-6v-26h16v26c0 3.314-2.686 6-6 6z" fill="#6b4f5b"/><path d="m152 140h-4c-5.516 0-10-4.486-10-10v-26c0-2.209 1.789-4 4-4h16c2.211 0 4 1.791 4 4v26c0 5.514-4.484 10-10 10zm-6-32v22c0 1.104.898 2 2 2h4c1.102 0 2-.896 2-2v-22z" fill="#4c241d"/></g><path d="m74 132c-2.211 0-4-1.791-4-4v-8c0-2.209 1.789-4 4-4s4 1.791 4 4v8c0 2.209-1.789 4-4 4z" fill="#4c241d"/><path d="m86 132c-2.211 0-4-1.791-4-4v-8c0-2.209 1.789-4 4-4s4 1.791 4 4v8c0 2.209-1.789 4-4 4z" fill="#4c241d"/><path d="m98 132c-2.211 0-4-1.791-4-4v-8c0-2.209 1.789-4 4-4s4 1.791 4 4v8c0 2.209-1.789 4-4 4z" fill="#4c241d"/></g></svg>