<svg id="reindeer" enable-background="new 0 0 300 300" height="512" viewBox="0 0 300 300" width="512" xmlns="http://www.w3.org/2000/svg"><g><circle cx="179.281" cy="116" fill="#fff4f1" r="86"/><g><circle cx="149.281" cy="158" fill="#c1dbdc" r="108"/><path d="m149.281 270c-61.758 0-112-50.242-112-112s50.242-112 112-112 112 50.242 112 112-50.242 112-112 112zm0-216c-57.348 0-104 46.654-104 104s46.652 104 104 104 104-46.654 104-104-46.652-104-104-104z" fill="#4c241d"/></g><g><path d="m105.751 256.839c13.32 5.875 28.037 9.161 43.53 9.161s30.21-3.286 43.53-9.161l-8.066-90.839h-70.927z" fill="#bf7e68"/><path d="m149.281 270c-15.66 0-30.852-3.197-45.145-9.502-1.57-.691-2.523-2.307-2.371-4.014l8.066-90.838c.184-2.064 1.914-3.646 3.984-3.646h70.93c2.07 0 3.801 1.582 3.984 3.646l8.066 90.838c.152 1.707-.801 3.322-2.371 4.014-14.291 6.305-29.483 9.502-45.143 9.502zm-39.289-15.705c25 10.227 53.578 10.227 78.578 0l-7.484-84.295h-63.609z" fill="#4c241d"/></g><g><path d="m177.904 165.1s6.196-4.243 13.344-.449c7.148 3.793 16.321 10.544 31.812-.062 0 0-5.954-21.987-21.323-24.495s-25.737 8.935-25.737 8.935" fill="#bf7e68"/><path d="m207.285 174.293c-6.816 0-12.098-2.914-16.188-5.168l-1.727-.941c-4.828-2.564-9.07.127-9.246.242-1.836 1.193-4.316.701-5.531-1.119-1.215-1.822-.758-4.271 1.051-5.508.332-.232 8.297-5.562 17.477-.682l1.84 1.002c6.23 3.434 12.66 6.98 23.316.768-2.027-5.457-7.484-17.262-17.184-18.846-12.914-2.115-21.77 7.281-22.141 7.684-1.488 1.623-4.016 1.736-5.645.25s-1.75-4-.273-5.633c.484-.533 12.066-13.012 29.348-10.195 17.707 2.889 24.266 26.396 24.535 27.396.445 1.641-.195 3.385-1.598 4.346-6.964 4.769-12.928 6.404-18.034 6.404z" fill="#4c241d"/></g><g><path d="m121.156 165.1s-6.196-4.243-13.344-.449c-7.148 3.793-16.321 10.544-31.812-.062 0 0 5.954-21.987 21.323-24.495s25.737 8.935 25.737 8.935" fill="#bf7e68"/><path d="m91.777 174.293c-5.105 0-11.07-1.635-18.039-6.404-1.402-.961-2.043-2.705-1.598-4.346.27-1 6.828-24.508 24.539-27.396 17.363-2.822 28.863 9.664 29.344 10.195 1.484 1.637 1.359 4.166-.277 5.65-1.637 1.48-4.172 1.359-5.652-.279-.355-.389-9.164-9.77-22.125-7.672-9.703 1.584-15.16 13.389-17.188 18.846 10.66 6.209 17.09 2.668 23.316-.768l1.84-1.002c9.18-4.873 17.145.453 17.48.682 1.82 1.248 2.285 3.738 1.039 5.561-1.234 1.811-3.711 2.289-5.531 1.062-.242-.16-4.449-2.777-9.238-.238l-1.727.941c-4.089 2.254-9.37 5.168-16.183 5.168z" fill="#4c241d"/></g><circle cx="39.281" cy="44" fill="#4c241d" r="4.529"/><circle cx="251.281" cy="240" fill="#4c241d" r="4.529"/><g><path d="m157.281 142c19.878 0 31.778 22.329 31.778 52.446 0 17.963-5.543 30.69-14.388 40.626-5.185 11.574-12.835 18.928-21.39 18.928h-8.222c-8.554 0-16.204-7.354-21.39-18.928-8.845-9.936-14.388-22.663-14.388-40.626 0-30.117 11.9-52.446 31.778-52.446z" fill="#bf7e68"/><path d="m153.281 258h-8.223c-9.711 0-18.723-7.547-24.785-20.73-10.086-11.553-14.992-25.568-14.992-42.824 0-33.762 14.379-56.445 35.777-56.445h16.223c21.398 0 35.777 22.684 35.777 56.445 0 17.256-4.906 31.271-14.992 42.824-6.062 13.183-15.074 20.73-24.785 20.73zm-12.222-112c-16.613 0-27.777 19.469-27.777 48.445 0 15.652 4.25 27.717 13.375 37.967.27.307.496.65.66 1.023 4.718 10.528 11.187 16.565 17.742 16.565h8.223c6.555 0 13.023-6.037 17.742-16.564.164-.373.391-.717.66-1.023 9.125-10.25 13.375-22.314 13.375-37.967 0-28.977-11.164-48.445-27.777-48.445h-16.223z" fill="#4c241d"/></g><g fill="#4c241d"><path d="m145.281 238h8v16h-8z"/><path d="m151.938 242h-5.312c-5.152 0-9.344-4.193-9.344-9.346v-2.654c0-2.209 1.789-4 4-4s4 1.791 4 4v2.654c0 .742.602 1.346 1.344 1.346h5.312c.742 0 1.344-.604 1.344-1.346v-2.654c0-2.209 1.789-4 4-4s4 1.791 4 4v2.654c-.001 5.153-4.192 9.346-9.344 9.346z"/><circle cx="131.281" cy="188" r="6"/><circle cx="167.281" cy="188" r="6"/><path d="m247.98 118.73h-12.5c-2.211 0-4-1.791-4-4s1.789-4 4-4h12.5c6.617 0 12.012-5.385 12.02-12.006.004-2.207 1.793-3.994 4-3.994h.004c2.211.002 4 1.797 3.996 4.006-.016 11.026-8.996 19.994-20.02 19.994z"/><path d="m222.762 102.73c-10.344 0-18.762-8.418-18.762-18.764v-1.236c0-2.209 1.789-4 4-4s4 1.791 4 4v1.236c0 5.936 4.828 10.764 10.762 10.764 2.211 0 4 1.791 4 4s-1.789 4-4 4z"/><path d="m183.855 116.186c-.688 0-1.383-.176-2.016-.547-1.906-1.117-2.547-3.566-1.434-5.473l3.715-6.348c2.469-4.221 3.773-9.033 3.773-13.918v-8.08c0-2.209 1.789-4 4-4s4 1.791 4 4v8.08c0 6.303-1.684 12.512-4.867 17.957l-3.715 6.348c-.745 1.272-2.081 1.981-3.456 1.981z"/><path d="m191.895 94.73h-4.984c-8.223 0-14.91-6.689-14.91-14.914v-3.541c0-2.209 1.789-4 4-4s4 1.791 4 4v3.541c0 3.812 3.102 6.914 6.91 6.914h4.984c2.211 0 4 1.791 4 4s-1.79 4-4 4z"/><path d="m240.262 87.451h-3.543c-2.211 0-4-1.791-4-4s1.789-4 4-4h3.543c3.812 0 6.914-3.102 6.914-6.914v-4.982c0-2.209 1.789-4 4-4s4 1.791 4 4v4.982c0 8.225-6.692 14.914-14.914 14.914z"/><path d="m63.176 87.451h-3.543c-8.223 0-14.914-6.689-14.914-14.914v-4.982c0-2.209 1.789-4 4-4s4 1.791 4 4v4.982c0 3.812 3.102 6.914 6.914 6.914h3.543c2.211 0 4 1.791 4 4s-1.789 4-4 4z"/><path d="m64.57 118.73h-12.55c-11.027 0-20.012-8.971-20.02-19.996-.004-2.209 1.789-4.002 3.996-4.004h.004c2.207 0 3.996 1.789 4 3.996.004 6.619 5.398 12.004 12.02 12.004h12.55c2.211 0 4 1.791 4 4s-1.789 4-4 4z"/><path d="m77.238 102.73h-.957c-2.211 0-4-1.791-4-4s1.789-4 4-4h.957c5.934 0 10.762-4.828 10.762-10.763v-1.237c0-2.209 1.789-4 4-4s4 1.791 4 4v1.236c0 10.346-8.418 18.764-18.762 18.764z"/><path d="m116.273 116.406c-1.375 0-2.711-.707-3.457-1.979l-3.848-6.568c-3.184-5.447-4.867-11.656-4.867-17.959v-8.08c0-2.209 1.789-4 4-4s4 1.791 4 4v8.08c0 4.885 1.305 9.697 3.773 13.918l3.848 6.566c1.113 1.906.477 4.355-1.43 5.473-.636.373-1.331.549-2.019.549z"/><path d="m113.086 94.73h-4.984c-2.211 0-4-1.791-4-4s1.789-4 4-4h4.984c3.812 0 6.914-3.102 6.914-6.914v-3.541c0-2.209 1.789-4 4-4s4 1.791 4 4v3.541c0 8.225-6.691 14.914-14.914 14.914z"/></g><g><path d="m166.79 150.73-.764-11.912c-.084-3.097 1.644-7.04 4.485-8.888 1.444-.885 3.021-1.462 4.879-1.597 5.371-.26 35.213-1.002 41.237-1.3 7.009-.395 14.523-6.275 16.607-12.628 3.441-10.489-.928-60.405-.928-60.405h-3.031s-5.218 48.936-7.675 54.668c-2.363 5.513-6.19 6.236-10.221 6.011l-36.022-1.229c-3.633-.154-7.525.651-10.935 2.318-6.853 3.344-11.833 13.83-12.628 21.739h-4.799c-.795-7.909-5.776-18.396-12.628-21.739-3.41-1.667-7.301-2.472-10.935-2.318l-36.022 1.23c-4.031.225-7.857-.498-10.221-6.011-2.457-5.733-7.675-54.669-7.675-54.669h-3.031s-4.37 49.916-.929 60.404c2.084 6.353 9.598 12.233 16.607 12.628 6.024.299 35.866 1.041 41.237 1.3 1.857.135 3.435.713 4.879 1.597 2.841 1.848 4.569 5.791 4.485 8.888l-.764 11.912" fill="#6b4f5b"/><path d="m166.785 154.73c-2.094 0-3.852-1.627-3.988-3.744l-.762-11.912c-.141-4.918 2.453-9.998 6.297-12.498 2.199-1.35 4.387-2.061 6.77-2.234 2.672-.129 10.867-.365 19.375-.609 9.223-.266 18.82-.541 21.953-.695 5.191-.293 11.402-5.004 13.004-9.881 1.383-4.213 1.312-17.549.676-31.656-1.609 12.746-3.488 25.613-4.832 28.744-3.457 8.07-9.727 8.678-14.121 8.43l-35.938-1.225c-3.082-.152-6.254.551-9.039 1.914-5.371 2.621-9.719 11.705-10.406 18.545-.207 2.045-1.926 3.6-3.98 3.6h-4.797c-2.055 0-3.773-1.555-3.98-3.6-.688-6.84-5.035-15.924-10.402-18.543-2.789-1.367-5.969-2.062-9.012-1.918l-36.055 1.23c-4.352.248-10.578-.371-14.035-8.434-1.344-3.131-3.223-15.998-4.832-28.744-.637 14.107-.707 27.443.676 31.658 1.602 4.875 7.812 9.586 13.031 9.879 3.105.154 12.703.43 21.926.695 8.508.244 16.703.48 19.277.604 2.48.18 4.668.891 6.777 2.182 3.934 2.559 6.527 7.639 6.395 12.412l-.77 12.057c-.141 2.205-2.125 3.887-4.246 3.736-2.207-.141-3.879-2.043-3.738-4.248l.762-11.912c.043-1.568-1.043-4.219-2.672-5.279-.914-.559-1.895-.883-2.988-.961-2.461-.119-10.586-.352-19.027-.594-9.293-.268-18.965-.545-22.121-.703-8.527-.479-17.578-7.375-20.207-15.373-3.596-10.954.287-56.809.744-62.003.18-2.064 1.91-3.65 3.984-3.65h3.031c2.047 0 3.762 1.543 3.977 3.576 2.531 23.76 5.984 50.275 7.371 53.516 1.414 3.301 3.137 3.787 6.324 3.594l36.109-1.232c4.281-.186 8.859.785 12.828 2.723 6.266 3.059 10.918 10.363 13.27 17.615 2.352-7.252 7.004-14.559 13.273-17.617 3.961-1.938 8.531-2.912 12.855-2.719l35.992 1.227c3.32.174 4.996-.297 6.41-3.59 1.387-3.24 4.84-29.756 7.371-53.516.215-2.033 1.93-3.576 3.977-3.576h3.031c2.074 0 3.805 1.586 3.984 3.65.457 5.193 4.34 51.049.746 62-2.629 8-11.68 14.896-20.18 15.375-3.184.158-12.855.436-22.148.703-8.441.242-16.566.475-19.125.6-.996.072-1.977.396-2.98 1.014-1.539 1.002-2.625 3.652-2.574 5.365l.754 11.768c.141 2.205-1.531 4.107-3.738 4.248-.085.005-.171.006-.257.006z" fill="#4c241d"/></g><path d="m149.281 162c-2.211 0-4-1.791-4-4v-20c0-2.209 1.789-4 4-4s4 1.791 4 4v20c0 2.209-1.789 4-4 4z" fill="#4c241d"/></g></svg>