<svg id="rhino" enable-background="new 0 0 300 300" height="512" viewBox="0 0 300 300" width="512" xmlns="http://www.w3.org/2000/svg"><g><circle cx="180" cy="114" fill="#fff4f1" r="86"/><g><circle cx="146" cy="160" fill="#ffce56" r="108"/><path d="m146 272c-61.758 0-112-50.242-112-112s50.242-112 112-112 112 50.242 112 112-50.242 112-112 112zm0-216c-57.348 0-104 46.654-104 104s46.652 104 104 104 104-46.654 104-104-46.652-104-104-104z" fill="#4c241d"/></g><g><path d="m173.553 95.157c-2.297-13.152-13.744-23.157-27.553-23.157s-25.256 10.005-27.553 23.157c-37.149 10.218-64.447 44.217-64.447 84.612v36.802c19.013 30.854 53.099 51.429 92 51.429s72.987-20.575 92-51.429v-36.802c0-40.395-27.298-74.394-64.447-84.612z" fill="#6b4f5b"/><path d="m146 272c-39.164 0-74.828-19.938-95.406-53.332-.387-.631-.594-1.357-.594-2.098v-36.8c0-40.361 26.621-76.115 65.043-87.791 3.609-14.04 16.246-23.979 30.957-23.979s27.348 9.939 30.957 23.979c38.422 11.675 65.043 47.429 65.043 87.791v36.801c0 .74-.207 1.467-.594 2.098-20.578 33.393-56.242 53.331-95.406 53.331zm-88-56.574c19.199 30.437 52.012 48.574 88 48.574s68.801-18.137 88-48.574v-35.656c0-37.586-25.293-70.795-61.508-80.756-1.488-.41-2.609-1.645-2.879-3.168-2.011-11.5-11.941-19.846-23.613-19.846s-21.602 8.346-23.613 19.846c-.27 1.523-1.391 2.758-2.879 3.168-36.215 9.961-61.508 43.17-61.508 80.756zm180 1.144h.039z" fill="#4c241d"/></g><g><path d="m148 112h-4c-34.242 0-74 27.758-74 62l12 72.984c17.913 13.202 40.041 21.016 64 21.016s46.087-7.814 64-21.016l12-72.984c0-34.242-39.758-62-74-62z" fill="#6b4f5b"/><path d="m146 272c-24.074 0-47.023-7.537-66.371-21.795-.84-.619-1.406-1.543-1.574-2.572l-12-72.984c-.035-.215-.055-.432-.055-.649 0-37.17 41.93-66 78-66h4c36.07 0 78 28.83 78 66 0 .217-.02.434-.055.648l-12 72.984c-.168 1.029-.734 1.953-1.574 2.572-19.348 14.259-42.297 21.796-66.371 21.796zm-60.32-27.287c17.687 12.623 38.508 19.287 60.32 19.287s42.633-6.664 60.32-19.287l11.68-71.031c-.254-31.983-38.398-57.682-70-57.682h-4c-31.602 0-69.746 25.699-70 57.682zm136.32-70.713h.039z" fill="#4c241d"/></g><g><path d="m211.543 100s-11.947 7.98-22.36 18.858c-3.594-4.166-8.847-6.858-14.78-6.858-4.047 0-52.759 0-56.806 0-5.651 0-10.704 2.427-14.281 6.253-10.273-10.571-21.791-18.253-21.791-18.253-6.931 27.723 3.944 44.068 11.069 51.38-1.623 2.482-2.594 5.425-2.594 8.62 0 5.907 3.238 11.009 8 13.781v46.219h96v-46.219c4.762-2.772 8-7.874 8-13.781 0-2.919-.796-5.638-2.17-7.98 7.083-6.961 18.859-23.435 11.713-52.02z" fill="#6b4f5b"/><path d="m194 224h-96c-2.211 0-4-1.791-4-4v-44.082c-4.984-3.756-8-9.664-8-15.918 0-2.771.59-5.496 1.723-8.021-7.527-8.744-16.855-25.836-10.078-52.949.312-1.262 1.223-2.291 2.438-2.76 1.203-.473 2.578-.322 3.66.402.441.295 10.086 6.762 19.719 16.078 4.059-3.086 8.957-4.75 14.137-4.75h56.805c5.371 0 10.547 1.873 14.711 5.242 9.789-9.568 19.75-16.262 20.207-16.568 1.086-.723 2.453-.877 3.664-.406 1.215.469 2.125 1.5 2.438 2.762 6.953 27.805-2.918 45.037-10.789 53.754.898 2.293 1.367 4.742 1.367 7.217 0 6.254-3.016 12.162-8 15.918v44.081c-.002 2.209-1.791 4-4.002 4zm-92-8h88v-42.219c0-1.424.758-2.74 1.988-3.457 3.766-2.191 6.012-6.051 6.012-10.324 0-2.09-.562-4.148-1.621-5.955-.93-1.582-.664-3.594.645-4.879 6.281-6.168 15.648-19.551 11.867-42.318-4.328 3.27-10.863 8.559-16.816 14.775-.781.814-1.887 1.314-2.996 1.232-1.125-.029-2.188-.531-2.922-1.385-3-3.477-7.285-5.471-11.754-5.471h-56.805c-4.324 0-8.355 1.77-11.359 4.984-.746.799-1.789 1.258-2.883 1.27-1.191.078-2.145-.43-2.906-1.213-5.801-5.969-12.074-11.031-16.27-14.197-3.688 22.268 5.266 35.572 11.277 41.744 1.309 1.342 1.512 3.412.484 4.98-1.269 1.943-1.941 4.167-1.941 6.433 0 4.273 2.246 8.133 6.012 10.324 1.23.717 1.988 2.033 1.988 3.457z" fill="#4c241d"/></g><g fill="#4c241d"><circle cx="68" cy="54" r="4.529"/><circle cx="252" cy="242" r="4.529"/><path d="m251.656 65.656c-1.023 0-2.047-.391-2.828-1.172l-11.312-11.312c-1.562-1.562-1.562-4.094 0-5.656s4.094-1.562 5.656 0l11.312 11.312c1.562 1.562 1.562 4.094 0 5.656-.781.782-1.804 1.172-2.828 1.172z"/><path d="m240.344 65.656c-1.023 0-2.047-.391-2.828-1.172-1.562-1.562-1.562-4.094 0-5.656l11.312-11.312c1.562-1.562 4.094-1.562 5.656 0s1.562 4.094 0 5.656l-11.312 11.312c-.781.782-1.805 1.172-2.828 1.172z"/></g><g><path d="m164 248h-32c-7.732 0-14-6.268-14-14 0-7.732 6.268-14 14-14h32c7.732 0 14 6.268 14 14 0 7.732-6.268 14-14 14z" fill="#6b4f5b"/><path d="m164 252h-32c-9.926 0-18-8.074-18-18s8.074-18 18-18h32c9.926 0 18 8.074 18 18s-8.074 18-18 18zm-32-28c-5.516 0-10 4.486-10 10s4.484 10 10 10h32c5.516 0 10-4.486 10-10s-4.484-10-10-10z" fill="#4c241d"/></g><g><path d="m122.872 178.669c-16.39 1.891-28.872 17.805-28.872 36.811v7.213c0 9.895 7.7 17.234 15.795 15.055l29.9-8.953c1.94-.522 10.665-.505 12.598.052l29.724 8.555c8.144 2.344 15.982-5.014 15.982-15.003v-6.918c0-19.006-12.482-34.92-28.872-36.811" fill="#b5a19c"/><path d="m106.871 242.129c-3.328 0-6.539-1.115-9.348-3.268-4.711-3.611-7.523-9.654-7.523-16.168v-7.213c0-21.119 13.934-38.652 32.414-40.785 2.156-.281 4.18 1.32 4.43 3.514.254 2.195-1.32 4.18-3.516 4.432-14.437 1.668-25.328 15.785-25.328 32.839v7.213c0 4.041 1.641 7.711 4.391 9.818 1.359 1.039 3.57 2.123 6.367 1.373l29.789-8.922c2.762-.75 12.277-.703 14.852.039l29.727 8.555c2.816.811 5.047-.256 6.426-1.295 2.785-2.098 4.449-5.785 4.449-9.863v-6.918c0-17.055-10.891-31.172-25.328-32.84-2.195-.252-3.77-2.236-3.516-4.432.254-2.193 2.293-3.793 4.43-3.514 18.479 2.134 32.413 19.667 32.413 40.786v6.918c0 6.578-2.855 12.654-7.641 16.256-3.941 2.965-8.844 3.914-13.445 2.59l-29.727-8.555c-1.465-.344-8.938-.367-10.48-.025l-29.762 8.916c-1.367.367-2.73.549-4.074.549z" fill="#4c241d"/></g><g><path d="m106 208s8-4 12 4" fill="#b5a19c"/><path d="m118.004 216c-1.469.002-2.879-.809-3.582-2.211-1.887-3.766-4.992-2.992-6.672-2.193-1.976.936-4.367.117-5.324-1.857-.961-1.971-.176-4.336 1.785-5.316 4.66-2.324 13.121-2.701 17.367 5.789.988 1.977.188 4.379-1.789 5.367-.574.286-1.184.421-1.785.421z" fill="#4c241d"/></g><g><path d="m182 208s-8-4-12 4" fill="#b5a19c"/><path d="m169.996 216c-.602 0-1.211-.135-1.785-.422-1.977-.988-2.777-3.391-1.789-5.367 4.246-8.496 12.707-8.115 17.367-5.789 1.977.988 2.777 3.391 1.789 5.367-.988 1.965-3.363 2.768-5.336 1.805-1.676-.797-4.777-1.57-6.664 2.195-.703 1.402-2.113 2.211-3.582 2.211z" fill="#4c241d"/></g><circle cx="114" cy="160" fill="#4c241d" r="4"/><circle cx="178" cy="160" fill="#4c241d" r="4"/><g><path d="m158 198.667v-5.203c0-7.621-.902-15.221-2.69-22.672l-9.31-38.792-9.31 38.791c-1.788 7.452-2.69 15.051-2.69 22.672v5.203" fill="#d6d6d6"/><path d="m158 202.666c-2.211 0-4-1.791-4-4v-5.203c0-7.291-.867-14.605-2.582-21.738l-5.418-22.582-5.418 22.582c-1.715 7.133-2.582 14.447-2.582 21.738v5.203c0 2.209-1.789 4-4 4s-4-1.791-4-4v-5.203c0-7.92.941-15.861 2.801-23.605l9.309-38.791c.434-1.799 2.043-3.066 3.891-3.066s3.457 1.268 3.891 3.066l9.309 38.791c1.859 7.744 2.801 15.686 2.801 23.605v5.203c-.002 2.209-1.791 4-4.002 4z" fill="#4c241d"/></g></g></svg>