<svg id="sheep" enable-background="new 0 0 300 300" height="512" viewBox="0 0 300 300" width="512" xmlns="http://www.w3.org/2000/svg"><g><circle cx="180" cy="114" fill="#fff4f1" r="86"/><g><circle cx="146" cy="160" fill="#a9ba5a" r="108"/><path d="m146 272c-61.758 0-112-50.242-112-112s50.242-112 112-112 112 50.242 112 112-50.242 112-112 112zm0-216c-57.346 0-104 46.654-104 104s46.654 104 104 104 104-46.654 104-104-46.654-104-104-104z" fill="#4c241d"/></g><g><path d="m102 258.626c13.443 6.007 28.324 9.374 44 9.374s30.557-3.367 44-9.374v-26.056c0-22.406-18.164-40.57-40.57-40.57h-6.86c-22.406 0-40.57 18.164-40.57 40.57z" fill="#fff"/><path d="m146 272c-15.84 0-31.193-3.271-45.631-9.721-1.441-.645-2.369-2.074-2.369-3.652v-26.057c0-24.576 19.994-44.57 44.57-44.57h6.859c24.576 0 44.57 19.994 44.57 44.57v26.057c0 1.578-.928 3.008-2.369 3.652-14.437 6.45-29.79 9.721-45.63 9.721zm-40-16.002c12.711 5.312 26.154 8.002 40 8.002s27.289-2.689 40-8.002v-23.428c0-20.164-16.406-36.57-36.57-36.57h-6.859c-20.164 0-36.57 16.406-36.57 36.57v23.428z" fill="#4c241d"/></g><g><path d="m106 116-9.108 14.572c-7.118 11.389-10.892 24.549-10.892 37.98v18.237c0 5.755 2.876 11.128 7.664 14.32 2.827 1.885 6.149 2.891 9.547 2.891h2.297c11.317 0 20.492-9.175 20.492-20.492v-67.508z" fill="#fff"/><path d="m105.508 208h-2.297c-4.199 0-8.268-1.232-11.766-3.562-5.914-3.944-9.445-10.542-9.445-17.649v-18.238c0-14.197 3.977-28.062 11.5-40.1l9.107-14.57c.732-1.17 2.014-1.881 3.393-1.881h20c2.209 0 4 1.791 4 4v67.508c0 13.506-10.986 24.492-24.492 24.492zm2.709-88-7.932 12.691c-6.728 10.764-10.285 23.164-10.285 35.86v18.238c0 4.428 2.199 8.537 5.883 10.992 2.178 1.451 4.713 2.219 7.328 2.219h2.297c9.094 0 16.492-7.398 16.492-16.492v-63.508z" fill="#4c241d"/></g><g><path d="m186 116 9.108 14.572c7.118 11.389 10.892 24.549 10.892 37.98v18.237c0 5.755-2.876 11.128-7.664 14.32-2.827 1.885-6.149 2.891-9.547 2.891h-2.297c-11.317 0-20.492-9.175-20.492-20.492v-67.508z" fill="#fff"/><path d="m188.789 208h-2.297c-13.506 0-24.492-10.986-24.492-24.492v-67.508c0-2.209 1.791-4 4-4h20c1.379 0 2.66.711 3.393 1.881l9.107 14.572c7.523 12.035 11.5 25.9 11.5 40.098v18.238c0 7.107-3.531 13.705-9.445 17.648-3.498 2.331-7.567 3.563-11.766 3.563zm-18.789-88v63.508c0 9.094 7.398 16.492 16.492 16.492h2.297c2.615 0 5.15-.768 7.328-2.219 3.684-2.455 5.883-6.564 5.883-10.992v-18.238c0-12.695-3.557-25.096-10.285-35.857l-7.932-12.694z" fill="#4c241d"/></g><circle cx="68" cy="54" fill="#4c241d" r="4.529"/><circle cx="252" cy="242" fill="#4c241d" r="4.529"/><path d="m251.656 65.656c-1.023 0-2.047-.391-2.828-1.172l-11.312-11.312c-1.562-1.562-1.562-4.094 0-5.656s4.094-1.562 5.656 0l11.312 11.312c1.562 1.562 1.562 4.094 0 5.656-.781.782-1.804 1.172-2.828 1.172z" fill="#4c241d"/><path d="m240.344 65.656c-1.023 0-2.047-.391-2.828-1.172-1.562-1.562-1.562-4.094 0-5.656l11.312-11.312c1.562-1.562 4.094-1.562 5.656 0s1.562 4.094 0 5.656l-11.312 11.312c-.781.782-1.805 1.172-2.828 1.172z" fill="#4c241d"/><g><path d="m193.916 108.232c-.893-9.359-9.288-16.232-18.689-16.232h-25.227c0-4.418-3.582-8-8-8h-16c-4.418 0-8 3.582-8 8h-1.227c-9.401 0-17.796 6.873-18.689 16.232-.662 6.946 2.661 13.128 7.916 16.663v19.444c0 7.235 3.796 13.939 10 17.662s10 10.427 10 17.662v12.337h40v-12.338c0-7.235 3.796-13.939 10-17.662.062-.037.124-.075.185-.113 6.292-3.865 9.815-11.009 9.815-18.393v-18.592c5.257-3.534 8.578-9.723 7.916-16.67z" fill="#fff"/><path d="m166 196h-40c-2.209 0-4-1.791-4-4v-12.338c0-5.795-3.088-11.25-8.059-14.232-7.365-4.42-11.941-12.502-11.941-21.092v-17.445c-5.6-4.633-8.594-11.742-7.898-19.039.998-10.451 9.832-18.775 20.551-19.756 1.622-4.707 6.095-8.098 11.347-8.098h16c5.215 0 9.664 3.344 11.314 8h21.912c11.65 0 21.609 8.721 22.672 19.854.695 7.307-2.299 14.418-7.898 19.049v16.592c0 9.008-4.492 17.361-11.721 21.801-5.191 3.117-8.279 8.572-8.279 14.367v12.337c0 2.209-1.791 4-4 4zm-36-8h32v-8.338c0-8.59 4.576-16.672 11.941-21.092 5.029-3.088 8.059-8.828 8.059-15.076v-18.592c0-1.332.664-2.576 1.77-3.32 4.355-2.926 6.66-7.775 6.164-12.971-.674-7.072-7.135-12.611-14.707-12.611h-25.227c-2.209 0-4-1.791-4-4 0-2.205-1.795-4-4-4h-16c-2.205 0-4 1.795-4 4 0 2.209-1.791 4-4 4h-1.227c-7.572 0-14.033 5.539-14.707 12.611-.494 5.188 1.811 10.033 6.166 12.965 1.105.742 1.768 1.986 1.768 3.318v19.443c0 5.795 3.088 11.25 8.059 14.232 7.365 4.42 11.941 12.502 11.941 21.092z" fill="#4c241d"/></g><g><path d="m174 140c-23.842 0-20 26.454-20 26.454 0 6.112 2.158 11.974 6 16.296 3.842 4.322 6 10.184 6 16.296 0 7.154-5.155 12.954-11.515 12.954h-16.971c-6.359 0-11.515-5.8-11.515-12.954 0-6.112 2.158-11.974 6-16.296 3.842-4.322 6-10.184 6-16.296 0 0 3.842-26.454-20-26.454" fill="#fff"/><path d="m154.484 216h-16.969c-8.555 0-15.516-7.605-15.516-16.953 0-7.137 2.49-13.869 7.01-18.955 3.172-3.566 4.99-8.539 4.99-13.639 0-.191.014-.385.041-.574.014-.1 1.467-11-4.002-17.289-2.686-3.088-6.625-4.59-12.039-4.59-2.209 0-4-1.791-4-4s1.791-4 4-4c7.779 0 13.873 2.482 18.109 7.379 7.314 8.455 6.154 21.148 5.889 23.34-.061 7.039-2.545 13.666-7.008 18.689-3.172 3.566-4.99 8.539-4.99 13.639 0 4.938 3.371 8.953 7.516 8.953h16.969c4.145 0 7.516-4.016 7.516-8.953 0-5.1-1.818-10.072-4.99-13.639-4.463-5.023-6.947-11.65-7.008-18.689-.266-2.191-1.426-14.885 5.889-23.34 4.236-4.897 10.33-7.379 18.109-7.379 2.209 0 4 1.791 4 4s-1.791 4-4 4c-5.414 0-9.354 1.502-12.039 4.59-5.469 6.289-4.016 17.189-4.002 17.299.027.184.041.379.041.564 0 5.1 1.818 10.072 4.99 13.639 4.52 5.086 7.01 11.818 7.01 18.955 0 9.348-6.961 16.953-15.516 16.953z" fill="#4c241d"/></g><g><path d="m148.423 192h-4.847c-.941 0-1.777-.201-2.075-.499l-2.542-2.542c-.472-.472.582-.96 2.075-.96h9.931c1.493 0 2.547.488 2.075.96l-2.542 2.542c-.297.298-1.133.499-2.075.499z" fill="#ffce56"/><path d="m148.424 196h-4.848c-1.475 0-3.523-.289-4.902-1.67l-2.543-2.543c-1.145-1.145-1.58-3.193-.961-4.688.816-1.971 2.953-3.1 5.865-3.1h9.93c2.912 0 5.049 1.129 5.865 3.1.619 1.494.184 3.543-.961 4.688l-2.543 2.543c-1.379 1.381-3.428 1.67-4.902 1.67z" fill="#4c241d"/></g><g fill="#4c241d"><path d="m142 192h8v20h-8z"/><circle cx="122" cy="152" r="4"/><circle cx="170" cy="152" r="4"/><path d="m154 136c-6.617 0-12-5.383-12-12 0-2.209 1.791-4 4-4s4 1.791 4 4c0 2.205 1.795 4 4 4s4-1.795 4-4c0-2.209 1.791-4 4-4h24c2.209 0 4 1.791 4 4s-1.791 4-4 4h-20.686c-1.65 4.656-6.099 8-11.314 8z"/><path d="m118 116c-2.209 0-4-1.791-4-4 0-6.617 5.383-12 12-12 2.371 0 4.662.691 6.629 1.996 1.84 1.223 2.34 3.707 1.117 5.547-1.227 1.836-3.707 2.336-5.547 1.117-.648-.432-1.408-.66-2.199-.66-2.205 0-4 1.795-4 4 0 2.209-1.791 4-4 4z"/><path d="m126 244c-2.209 0-4-1.791-4-4 0-6.617 5.383-12 12-12 2.371 0 4.662.691 6.629 1.996 1.84 1.223 2.34 3.707 1.117 5.547-1.225 1.836-3.705 2.334-5.547 1.117-.648-.432-1.408-.66-2.199-.66-2.205 0-4 1.795-4 4 0 2.209-1.791 4-4 4z"/></g><g><path d="m168 252c3.314 0 6-2.686 6-6" fill="#fff"/><path d="m168 256c-2.209 0-4-1.791-4-4s1.791-4 4-4c1.104 0 2-.896 2-2 0-2.209 1.791-4 4-4s4 1.791 4 4c0 5.514-4.486 10-10 10z" fill="#4c241d"/></g><g><path d="m146 224c-4.418 0-8 3.582-8 8s3.582 8 8 8" fill="#fff"/><path d="m146 244c-6.617 0-12-5.383-12-12s5.383-12 12-12c2.209 0 4 1.791 4 4s-1.791 4-4 4c-2.205 0-4 1.795-4 4s1.795 4 4 4c2.209 0 4 1.791 4 4s-1.791 4-4 4z" fill="#4c241d"/></g></g></svg>