<svg id="snake" enable-background="new 0 0 300 300" height="512" viewBox="0 0 300 300" width="512" xmlns="http://www.w3.org/2000/svg"><g><circle cx="248" cy="244" fill="#4c241d" r="4"/><circle cx="178" cy="114" fill="#fff4f1" r="86"/><g><circle cx="148" cy="160" fill="#b5a19c" r="108"/><path d="m148 272c-61.758 0-112-50.242-112-112s50.242-112 112-112 112 50.242 112 112-50.242 112-112 112zm0-216c-57.348 0-104 46.652-104 104s46.652 104 104 104 104-46.652 104-104-46.652-104-104-104z" fill="#4c241d"/></g><circle cx="64" cy="56" fill="#4c241d" r="4"/><path d="m252 68c-1.023 0-2.047-.391-2.828-1.172l-12-12c-1.562-1.562-1.562-4.094 0-5.656s4.094-1.562 5.656 0l12 12c1.562 1.562 1.562 4.094 0 5.656-.781.781-1.805 1.172-2.828 1.172z" fill="#4c241d"/><path d="m240 68c-1.023 0-2.047-.391-2.828-1.172-1.562-1.562-1.562-4.094 0-5.656l12-12c1.562-1.562 4.094-1.562 5.656 0s1.562 4.094 0 5.656l-12 12c-.781.781-1.805 1.172-2.828 1.172z" fill="#4c241d"/><g><path d="m179.34 92h-62.68c-24.665 0-44.66 19.995-44.66 44.66 0 9.646 4.584 18.718 12.35 24.44l29.867 22.007c20.09 14.803 47.477 14.803 67.567 0l29.866-22.007c7.766-5.722 12.35-14.794 12.35-24.44 0-24.665-19.995-44.66-44.66-44.66z" fill="#ffce56"/><path d="m148 198.277c-12.672 0-25.344-3.98-36.156-11.953l-29.864-22.004c-8.753-6.449-13.98-16.789-13.98-27.66 0-26.832 21.828-48.66 48.66-48.66h62.68c26.832 0 48.66 21.828 48.66 48.66 0 10.871-5.227 21.211-13.98 27.66l-29.863 22.004c-10.813 7.969-23.485 11.953-36.157 11.953zm-31.34-102.277c-22.422 0-40.66 18.238-40.66 40.66 0 8.34 4.008 16.273 10.723 21.223l29.863 22.004c18.789 13.844 44.039 13.844 62.828 0l29.863-22.004c6.715-4.949 10.723-12.883 10.723-21.223 0-22.422-18.238-40.66-40.66-40.66z" fill="#4c241d"/></g><g><path d="m171.093 92h-46.186c-18.174 0-32.907 19.995-32.907 44.66 0 9.822 3.902 19.242 10.847 26.187l23.465 23.465c11.978 11.978 31.398 11.978 43.376 0l23.465-23.465c6.945-6.945 10.847-16.365 10.847-26.187 0-24.665-14.733-44.66-32.907-44.66z" fill="#fc8c29"/><path d="m148 199.281c-8.879 0-17.758-3.383-24.516-10.141l-23.465-23.465c-7.749-7.749-12.019-18.054-12.019-29.015 0-26.832 16.555-48.66 36.906-48.66h46.188c20.351 0 36.906 21.828 36.906 48.66 0 10.961-4.27 21.266-12.02 29.016l-23.465 23.465c-6.757 6.757-15.636 10.14-24.515 10.14zm-23.094-103.281c-15.937 0-28.906 18.238-28.906 40.66 0 8.824 3.438 17.121 9.676 23.359l23.465 23.465c10.398 10.398 27.32 10.398 37.719 0l23.465-23.465c6.238-6.238 9.676-14.535 9.676-23.359-.001-22.422-12.97-40.66-28.907-40.66z" fill="#4c241d"/></g><g><path d="m157.734 194.211.312-.547c6.512-11.395 9.953-24.352 9.953-37.473v-44.191h-32v44.191c0 7.562-1.984 15.031-5.734 21.598l-.312.547c-6.512 11.394-9.953 24.352-9.953 37.473v23.369c10.112 3.133 20.858 4.822 32 4.822v-28.191c0-7.563 1.984-15.032 5.734-21.598z" fill="#ffce56"/><path d="m152 248c-11.309 0-22.473-1.684-33.184-5-1.676-.52-2.816-2.066-2.816-3.82v-23.371c0-13.816 3.625-27.461 10.48-39.457l.312-.547c3.406-5.965 5.207-12.746 5.207-19.613v-44.192c0-2.211 1.789-4 4-4h32c2.211 0 4 1.789 4 4v44.191c0 13.816-3.625 27.461-10.48 39.457l-.312.547c-3.406 5.965-5.207 12.746-5.207 19.613v28.192c0 2.211-1.789 4-4 4zm-28-11.812c7.805 2.176 15.848 3.43 24 3.738v-24.117c0-8.254 2.164-16.41 6.262-23.582l.312-.547c6.168-10.789 9.426-23.062 9.426-35.488v-40.192h-24v40.191c0 8.254-2.164 16.41-6.262 23.582l-.312.547c-6.168 10.789-9.426 23.062-9.426 35.488z" fill="#4c241d"/></g><g><path d="m157.672 92h-19.344c-12.331 0-22.328 9.997-22.328 22.328 0 3.132 2.539 5.672 5.672 5.672 3.495 0 6.328 2.833 6.328 6.328v1c0 9.208 7.464 16.672 16.672 16.672h6.656c9.208 0 16.672-7.464 16.672-16.672v-1c0-3.495 2.833-6.328 6.328-6.328 3.132 0 5.672-2.539 5.672-5.672 0-12.331-9.997-22.328-22.328-22.328z" fill="#ffce56"/><path d="m151.328 148h-6.656c-11.399 0-20.672-9.273-20.672-20.672v-1c0-1.285-1.043-2.328-2.328-2.328-5.332 0-9.672-4.34-9.672-9.672 0-14.516 11.812-26.328 26.328-26.328h19.344c14.516 0 26.328 11.812 26.328 26.328 0 5.332-4.34 9.672-9.672 9.672-1.285 0-2.328 1.043-2.328 2.328v1c0 11.399-9.273 20.672-20.672 20.672zm-13-52c-10.105 0-18.328 8.223-18.328 18.328 0 .922.75 1.672 1.672 1.672 5.695 0 10.328 4.633 10.328 10.328v1c0 6.988 5.684 12.672 12.672 12.672h6.656c6.988 0 12.672-5.684 12.672-12.672v-1c0-5.695 4.633-10.328 10.328-10.328.922 0 1.672-.75 1.672-1.672 0-10.105-8.223-18.328-18.328-18.328z" fill="#4c241d"/></g><path d="m144 144h8v28h-8z" fill="#4c241d"/><path d="m155.996 180c-.602 0-1.211-.137-1.785-.422l-6.211-3.105-6.211 3.105c-1.973.98-4.375.188-5.367-1.789-.988-1.977-.188-4.379 1.789-5.367l8-4c1.125-.562 2.453-.562 3.578 0l8 4c1.977.988 2.777 3.391 1.789 5.367-.703 1.402-2.113 2.211-3.582 2.211z" fill="#4c241d"/><path d="m160 116c-1.023 0-2.047-.391-2.828-1.172-1.562-1.562-1.562-4.094 0-5.656l4-4c1.562-1.562 4.094-1.562 5.656 0s1.562 4.094 0 5.656l-4 4c-.781.781-1.805 1.172-2.828 1.172z" fill="#4c241d"/><path d="m136 116c-1.023 0-2.047-.391-2.828-1.172l-4-4c-1.562-1.562-1.562-4.094 0-5.656s4.094-1.562 5.656 0l4 4c1.562 1.562 1.562 4.094 0 5.656-.781.781-1.805 1.172-2.828 1.172z" fill="#4c241d"/><g><path d="m75.448 240c19.172 17.397 44.623 28 72.552 28s53.379-10.603 72.552-28z" fill="#ffce56"/><path d="m148 272c-27.883 0-54.605-10.312-75.238-29.039-1.227-1.109-1.641-2.859-1.043-4.402.594-1.543 2.078-2.559 3.73-2.559h145.102c1.652 0 3.137 1.016 3.73 2.559.598 1.543.184 3.293-1.043 4.402-20.633 18.727-47.355 29.039-75.238 29.039zm-61.328-28c17.73 12.965 39.129 20 61.328 20s43.598-7.035 61.328-20z" fill="#4c241d"/></g><g><path d="m200 240h-108c-6.627 0-12-5.373-12-12v-4c0-6.627 5.373-12 12-12h108c6.627 0 12 5.373 12 12v4c0 6.627-5.373 12-12 12z" fill="#fc8c29"/><path d="m200 244h-108c-8.824 0-16-7.176-16-16v-4c0-8.824 7.176-16 16-16h108c8.824 0 16 7.176 16 16v4c0 8.824-7.176 16-16 16zm-108-28c-4.41 0-8 3.59-8 8v4c0 4.41 3.59 8 8 8h108c4.41 0 8-3.59 8-8v-4c0-4.41-3.59-8-8-8z" fill="#4c241d"/></g><g fill="#4c241d"><path d="m104 224c-2.211 0-4-1.789-4-4v-8c0-2.211 1.789-4 4-4s4 1.789 4 4v8c0 2.211-1.789 4-4 4z"/><path d="m124 244c-2.211 0-4-1.789-4-4v-8c0-2.211 1.789-4 4-4s4 1.789 4 4v8c0 2.211-1.789 4-4 4z"/><path d="m140 224c-2.211 0-4-1.789-4-4v-8c0-2.211 1.789-4 4-4s4 1.789 4 4v8c0 2.211-1.789 4-4 4z"/><path d="m156 244c-2.211 0-4-1.789-4-4v-8c0-2.211 1.789-4 4-4s4 1.789 4 4v8c0 2.211-1.789 4-4 4z"/><path d="m172 224c-2.211 0-4-1.789-4-4v-8c0-2.211 1.789-4 4-4s4 1.789 4 4v8c0 2.211-1.789 4-4 4z"/><path d="m104 252c-2.211 0-4-1.789-4-4v-8c0-2.211 1.789-4 4-4s4 1.789 4 4v8c0 2.211-1.789 4-4 4z"/><path d="m172 252c-2.211 0-4-1.789-4-4v-8c0-2.211 1.789-4 4-4s4 1.789 4 4v8c0 2.211-1.789 4-4 4z"/><path d="m188 244c-2.211 0-4-1.789-4-4v-8c0-2.211 1.789-4 4-4s4 1.789 4 4v8c0 2.211-1.789 4-4 4z"/><path d="m107.691 171.078c-.512 0-1.031-.098-1.531-.305-2.039-.844-3.008-3.184-2.164-5.227 1.742-4.211 4.434-5.992 6.387-6.742 3.742-1.438 7.477-.359 9.941.816 1.996.945 2.852 3.328 1.902 5.324-.945 2-3.332 2.863-5.324 1.902-1.449-.688-2.809-.895-3.641-.578-.715.273-1.348 1.062-1.875 2.34-.636 1.54-2.128 2.47-3.695 2.47z"/><path d="m95.996 156c-.762 0-1.531-.219-2.215-.672-1.84-1.227-2.336-3.707-1.109-5.547 7.883-11.816 22.492-8.672 29.117-5.359 1.977.988 2.777 3.391 1.789 5.367-.988 1.973-3.379 2.781-5.355 1.793-.531-.258-12.977-6.254-18.895 2.637-.769 1.156-2.039 1.781-3.332 1.781z"/><path d="m190.602 168.246c-1.098 0-2.195-.453-2.984-1.34-.34-.375-1.375-1.547-4.52-.055-2 .949-4.387.09-5.328-1.906-.945-1.996-.09-4.383 1.906-5.328 5.348-2.535 10.555-1.805 13.91 1.969 1.473 1.648 1.328 4.176-.324 5.645-.762.679-1.711 1.015-2.66 1.015z"/><path d="m200.668 152.383c-.852 0-1.715-.273-2.441-.836-6.309-4.863-16.352-.012-16.449.035-1.977.977-4.375.164-5.355-1.809s-.184-4.367 1.789-5.352c.59-.297 14.609-7.16 24.906.797 1.75 1.352 2.07 3.863.719 5.609-.786 1.021-1.97 1.556-3.169 1.556z"/><path d="m140 252c-2.211 0-4-1.789-4-4v-8c0-2.211 1.789-4 4-4s4 1.789 4 4v8c0 2.211-1.789 4-4 4z"/></g></g></svg>