<svg id="squirrel" enable-background="new 0 0 300 300" height="512" viewBox="0 0 300 300" width="512" xmlns="http://www.w3.org/2000/svg"><g><circle cx="180" cy="112" fill="#fff4f1" r="86"/><g><circle cx="146" cy="158" fill="#a9ba5a" r="108"/><path d="m146 270c-61.758 0-112-50.242-112-112s50.242-112 112-112 112 50.242 112 112-50.242 112-112 112zm0-216c-57.346 0-104 46.652-104 104s46.654 104 104 104 104-46.652 104-104-46.654-104-104-104z" fill="#4c241d"/></g><g><path d="m174 98s39.822-12.714 32-44c-4-16-96-28-96 16s52 48 52 92-28 52-28 52v12s38.382-3.145 56-56c16-48-8-72-8-72" fill="#bf7e68"/><path d="m134 230c-1 0-1.969-.375-2.711-1.059-.822-.757-1.289-1.824-1.289-2.941v-12c0-1.785 1.184-3.355 2.9-3.848 1.002-.297 25.1-7.98 25.1-48.152 0-20.25-12.004-31.328-24.713-43.062-13.416-12.383-27.287-25.188-27.287-48.938 0-18.336 14.531-30.637 39.869-33.758 26.115-3.23 60.787 3.898 64.012 16.789 5.379 21.512-9.541 36.195-23.494 43.902 5.381 6.586 21.75 31.301 7.408 74.332-18.244 54.73-57.793 58.582-59.469 58.723-.109.008-.217.012-.326.012zm4-13.266v4.465c10.053-2.539 34.961-12.73 48.205-52.465 14.945-44.836-6.141-66.996-7.047-67.918-.1-.105-.195-.211-.283-.32-1.273.508-2.5.945-3.658 1.312-2.107.691-4.35-.484-5.023-2.59-.674-2.102.484-4.352 2.586-5.027 1.479-.477 36.152-11.977 29.34-39.223-1.367-5.473-28.402-14.09-55.273-10.785-14.986 1.844-32.847 7.821-32.847 25.817 0 20.25 12.004 31.328 24.713 43.062 13.416 12.383 27.287 25.188 27.287 48.938 0 38.441-20.273 51.25-28 54.734z" fill="#4c241d"/></g><g><path d="m146 198c-22.091 0-40 18.804-40 42 0 7.296 1.777 14.154 4.893 20.133 11.011 3.784 22.812 5.867 35.107 5.867s24.096-2.083 35.107-5.867c3.116-5.979 4.893-12.837 4.893-20.133 0-23.196-17.909-42-40-42z" fill="#bf7e68"/><path d="m146 270c-12.412 0-24.662-2.047-36.408-6.086-.969-.332-1.773-1.023-2.246-1.934-3.498-6.71-5.346-14.312-5.346-21.98 0-25.363 19.738-46 44-46s44 20.637 44 46c0 7.668-1.848 15.27-5.346 21.98-.473.91-1.277 1.602-2.246 1.934-11.746 4.039-23.996 6.086-36.408 6.086zm-32.262-13.133c20.867 6.812 43.656 6.812 64.523 0 2.45-5.219 3.739-11.015 3.739-16.867 0-20.953-16.15-38-36-38s-36 17.047-36 38c0 5.852 1.289 11.648 3.738 16.867zm67.369 3.266h.039z" fill="#4c241d"/></g><g><path d="m146 230c-11.046 0-20 9.85-20 22 0 1.374.129 10.712.348 12.016 6.364 1.288 12.929 1.984 19.652 1.984s13.288-.696 19.652-1.984c.219-1.304.348-10.642.348-12.016 0-12.15-8.954-22-20-22z" fill="#f4aeab"/><path d="m146 270c-6.805 0-13.684-.695-20.445-2.062-1.625-.332-2.879-1.625-3.152-3.262-.323-1.918-.403-12.574-.403-12.676 0-14.336 10.766-26 24-26s24 11.664 24 26c0 .102-.08 10.758-.402 12.676-.273 1.637-1.527 2.93-3.152 3.262-6.762 1.367-13.641 2.062-20.446 2.062zm19.652-5.984h.039zm-35.49-3.36c10.523 1.789 21.154 1.781 31.678 0 .092-2.926.16-7.254.16-8.656 0-9.926-7.178-18-16-18s-16 8.074-16 18c0 1.398.068 5.715.162 8.656z" fill="#4c241d"/></g><g><path d="m210 127.6c0-11.929-9.671-21.6-21.6-21.6s-18.9 9.671-18.9 21.6 4.271 21.6 16.2 21.6 24.3-9.671 24.3-21.6z" fill="#f4aeab"/><path d="m185.699 153.199c-12.836 0-20.199-9.328-20.199-25.598 0-15.074 9.418-25.602 22.9-25.602 14.115 0 25.6 11.484 25.6 25.602 0 14.653-14.941 25.598-28.301 25.598zm2.701-43.199c-10.293 0-14.9 8.84-14.9 17.602 0 11.676 4.104 17.598 12.199 17.598 9.389 0 20.301-7.688 20.301-17.598 0-9.707-7.895-17.602-17.6-17.602z" fill="#4c241d"/></g><g><path d="m194 136.133c0-7.217-5.85-13.067-13.067-13.067s-11.433 5.85-11.433 13.067 2.583 13.067 9.8 13.067 14.7-5.85 14.7-13.067z" fill="#bf7e68"/><path d="m179.301 153.199c-8.643 0-13.801-6.379-13.801-17.066 0-9.891 6.49-17.066 15.434-17.066 9.41 0 17.066 7.656 17.066 17.066 0 10.058-9.855 17.066-18.699 17.066zm1.633-26.133c-5.486 0-7.434 4.883-7.434 9.066 0 9.066 4.215 9.066 5.801 9.066 4.846 0 10.699-4.043 10.699-9.066 0-4.999-4.066-9.066-9.066-9.066z" fill="#4c241d"/></g><g><path d="m82 127.6c0-11.929 9.671-21.6 21.6-21.6s18.9 9.671 18.9 21.6-4.271 21.6-16.2 21.6-24.3-9.671-24.3-21.6z" fill="#f4aeab"/><path d="m106.301 153.199c-13.36 0-28.301-10.945-28.301-25.597 0-14.118 11.484-25.602 25.6-25.602 13.482 0 22.9 10.527 22.9 25.602 0 16.269-7.363 25.597-20.199 25.597zm-2.701-43.199c-9.705 0-17.6 7.895-17.6 17.602 0 9.91 10.912 17.598 20.301 17.598 8.096 0 12.199-5.922 12.199-17.598 0-8.762-4.607-17.602-14.9-17.602z" fill="#4c241d"/></g><g><path d="m98 136.133c0-7.217 5.85-13.067 13.067-13.067s11.433 5.85 11.433 13.067-2.583 13.067-9.8 13.067-14.7-5.85-14.7-13.067z" fill="#bf7e68"/><path d="m112.699 153.199c-8.844 0-18.699-7.008-18.699-17.066 0-9.41 7.656-17.066 17.066-17.066 8.943 0 15.434 7.176 15.434 17.066 0 10.687-5.158 17.066-13.801 17.066zm-1.633-26.133c-5 0-9.066 4.066-9.066 9.066 0 5.023 5.854 9.066 10.699 9.066 1.586 0 5.801 0 5.801-9.066 0-4.183-1.947-9.066-7.434-9.066z" fill="#4c241d"/></g><g><path d="m192.742 167.171c-4.608-20.682-21.994-41.171-46.659-41.171-23.012 0-40.938 20.292-45.861 40.872-5.93 2.031-10.222 7.593-10.222 14.212v5.832c0 8.33 6.754 15.084 15.084 15.084h6.129c9.813 7.898 23.853 12 36.104 12s25.702-4.102 35.01-12h4.587c8.331 0 15.084-6.754 15.084-15.084v-5.832c.002-6.265-3.819-11.633-9.256-13.913z" fill="#bf7e68"/><path d="m147.318 218c-13.42 0-27.627-4.57-37.477-12h-4.758c-10.522 0-19.083-8.562-19.083-19.086v-5.828c0-7.367 4.279-14.008 10.854-17.152 5.785-20.691 24.545-41.934 49.23-41.934 25.947 0 44.562 21.023 50.105 42.402 6.021 3.34 9.811 9.68 9.811 16.684v5.828c0 10.523-8.561 19.086-19.084 19.086h-3.158c-9.514 7.535-23.008 12-36.44 12zm-1.234-88c-21.387 0-37.586 19.477-41.971 37.801-.318 1.332-1.299 2.41-2.594 2.855-4.498 1.539-7.52 5.73-7.52 10.43v5.828c.001 6.113 4.974 11.086 11.085 11.086h6.131c.912 0 1.797.312 2.508.883 8.517 6.859 21.39 11.117 33.595 11.117 11.965 0 24.389-4.234 32.422-11.051.723-.613 1.641-.949 2.588-.949h4.588c6.111 0 11.084-4.973 11.084-11.086v-5.828c0-4.48-2.67-8.492-6.803-10.223-1.197-.504-2.076-1.555-2.359-2.82-4.211-18.906-20.248-38.043-42.754-38.043z" fill="#4c241d"/></g><g fill="#4c241d"><circle cx="68" cy="52" r="4.529"/><circle cx="256" cy="244" r="4.529"/><path d="m251.656 63.656c-1.023 0-2.047-.391-2.828-1.172l-11.312-11.312c-1.562-1.562-1.562-4.094 0-5.656s4.094-1.562 5.656 0l11.312 11.312c1.562 1.562 1.562 4.094 0 5.656-.781.782-1.804 1.172-2.828 1.172z"/><path d="m240.344 63.656c-1.023 0-2.047-.391-2.828-1.172-1.562-1.562-1.562-4.094 0-5.656l11.312-11.312c1.562-1.562 4.094-1.562 5.656 0s1.562 4.094 0 5.656l-11.312 11.312c-.781.782-1.805 1.172-2.828 1.172z"/><circle cx="120" cy="160" r="6"/><circle cx="172" cy="160" r="6"/></g><g><path d="m138 186h16v16h-16z" fill="#fff"/><path d="m154 206h-16c-2.209 0-4-1.789-4-4v-16c0-2.211 1.791-4 4-4h16c2.209 0 4 1.789 4 4v16c0 2.211-1.791 4-4 4zm-12-8h8v-8h-8z" fill="#4c241d"/></g><g><path d="m114 270h-16.364c-4.217 0-7.636-3.419-7.636-7.636v-5.48c0-3.802 3.082-6.884 6.884-6.884h10.232c3.802 0 6.884 3.082 6.884 6.884z" fill="#bf7e68"/><path d="m114 274h-16.363c-6.416 0-11.637-5.219-11.637-11.637v-5.48c0-6 4.883-10.883 10.883-10.883h10.234c6 0 10.883 4.883 10.883 10.883v13.117c0 2.211-1.791 4-4 4zm-17.117-20c-1.59 0-2.883 1.293-2.883 2.883v5.48c0 2.004 1.631 3.637 3.637 3.637h12.363v-9.117c0-1.59-1.293-2.883-2.883-2.883z" fill="#4c241d"/></g><g><path d="m178 270h16.364c4.217 0 7.636-3.419 7.636-7.636v-5.48c0-3.802-3.082-6.884-6.884-6.884h-10.232c-3.802 0-6.884 3.082-6.884 6.884z" fill="#bf7e68"/><path d="m194.365 274h-16.365c-2.209 0-4-1.789-4-4v-13.117c0-6 4.883-10.883 10.883-10.883h10.232c6.002 0 10.885 4.883 10.885 10.883v5.48c0 6.418-5.219 11.637-11.635 11.637zm-12.365-8h12.365c2.004 0 3.635-1.633 3.635-3.637v-5.48c0-1.59-1.295-2.883-2.885-2.883h-10.232c-1.59 0-2.883 1.293-2.883 2.883z" fill="#4c241d"/></g><g><path d="m146 180c0 5.523 4.477 10 10 10s10-4.477 10-10" fill="#f4aeab"/><path d="m156 194c-7.719 0-14-6.281-14-14 0-2.211 1.791-4 4-4s4 1.789 4 4c0 3.309 2.691 6 6 6s6-2.691 6-6c0-2.211 1.791-4 4-4s4 1.789 4 4c0 7.719-6.281 14-14 14z" fill="#4c241d"/></g><g><path d="m126 180c0 5.523 4.477 10 10 10s10-4.477 10-10" fill="#f4aeab"/><path d="m136 194c-7.719 0-14-6.281-14-14 0-2.211 1.791-4 4-4s4 1.789 4 4c0 3.309 2.691 6 6 6s6-2.691 6-6c0-2.211 1.791-4 4-4s4 1.789 4 4c0 7.719-6.281 14-14 14z" fill="#4c241d"/></g><g><path d="m150.065 178h-8.13c-1.579 0-2.981-.602-3.481-1.496l-4.263-7.625c-.792-1.416.976-2.879 3.481-2.879h16.657c2.504 0 4.272 1.463 3.481 2.879l-4.263 7.625c-.501.894-1.903 1.496-3.482 1.496z" fill="#ffded5"/><path d="m150.064 182h-8.129c-3.084 0-5.756-1.359-6.975-3.551l-4.262-7.617c-.947-1.699-.928-3.711.055-5.387 1.247-2.125 3.897-3.445 6.919-3.445h16.656c3.021 0 5.672 1.32 6.918 3.445.982 1.676 1.002 3.688.053 5.387l-4.262 7.625c-1.217 2.184-3.889 3.543-6.973 3.543zm-.011-7.449c0 .004-.002.004-.002.008zm-8.11-.004.004.004c-.002 0-.004-.004-.004-.004zm-.318-.57c.086.016.189.023.311.023h8.129c.121 0 .225-.008.311-.023l2.224-3.977h-13.2z" fill="#4c241d"/></g></g></svg>