<svg id="tiger" enable-background="new 0 0 300 300" height="512" viewBox="0 0 300 300" width="512" xmlns="http://www.w3.org/2000/svg"><g><circle cx="248" cy="244" fill="#4c241d" r="4"/><circle cx="178" cy="114" fill="#fff4f1" r="86"/><g><circle cx="148" cy="160" fill="#b5a19c" r="108"/><path d="m148 272c-61.758 0-112-50.242-112-112s50.242-112 112-112 112 50.242 112 112-50.242 112-112 112zm0-216c-57.348 0-104 46.654-104 104s46.652 104 104 104 104-46.654 104-104-46.652-104-104-104z" fill="#4c241d"/></g><g><path d="m176.13 192h-56.26c-22.02 0-39.87 17.85-39.87 39.87v12.017c18.567 15.069 42.223 24.113 68 24.113s49.433-9.044 68-24.113v-12.017c0-22.02-17.85-39.87-39.87-39.87z" fill="#fc8c29"/><path d="m148 272c-25.609 0-50.652-8.881-70.52-25.008-.938-.76-1.48-1.9-1.48-3.105v-12.018c0-24.189 19.68-43.869 43.871-43.869h56.258c24.191 0 43.871 19.68 43.871 43.869v12.018c0 1.205-.543 2.346-1.48 3.105-19.868 16.127-44.911 25.008-70.52 25.008zm-64-30.041c18.203 14.227 40.852 22.041 64 22.041s45.797-7.814 64-22.041v-10.09c0-19.777-16.09-35.869-35.871-35.869h-56.258c-19.781 0-35.871 16.092-35.871 35.869zm132 1.928h.039z" fill="#4c241d"/></g><circle cx="64" cy="56" fill="#4c241d" r="4"/><path d="m252 68c-1.023 0-2.047-.391-2.828-1.172l-12-12c-1.562-1.562-1.562-4.094 0-5.656s4.094-1.562 5.656 0l12 12c1.562 1.562 1.562 4.094 0 5.656-.781.781-1.805 1.172-2.828 1.172z" fill="#4c241d"/><path d="m240 68c-1.023 0-2.047-.391-2.828-1.172-1.562-1.562-1.562-4.094 0-5.656l12-12c1.562-1.562 4.094-1.562 5.656 0s1.562 4.094 0 5.656l-12 12c-.781.781-1.805 1.172-2.828 1.172z" fill="#4c241d"/><g><path d="m212 96c7.754 17.36-11.263 49.6-11.263 49.6l-15.509-22.32z" fill="#6b4f5b"/><path d="m200.738 149.6c-1.309 0-2.535-.639-3.285-1.717l-15.512-22.32c-1.098-1.578-.914-3.713.43-5.086l26.773-27.279c.926-.941 2.273-1.363 3.562-1.135 1.305.234 2.406 1.098 2.945 2.307 8.5 19.025-10.648 51.873-11.469 53.262-.691 1.174-1.934 1.916-3.297 1.967-.049.001-.096.001-.147.001zm-10.336-25.883 9.902 14.25c4.492-9.006 10.203-23.35 9.492-34.01z" fill="#4c241d"/></g><g><path d="m80 96c-7.754 17.36 13.914 49.6 13.914 49.6l15.509-22.32z" fill="#6b4f5b"/><path d="m93.914 149.6c-.012 0-.02 0-.031 0-1.32-.01-2.551-.672-3.289-1.77-.934-1.391-22.805-34.299-14.246-53.461.527-1.178 1.586-2.029 2.852-2.289 1.266-.254 2.574.111 3.52.986l29.422 27.279c1.461 1.355 1.703 3.58.566 5.217l-15.508 22.32c-.751 1.077-1.977 1.718-3.286 1.718zm-11.57-45.973c-.512 10.834 6.516 25.674 11.758 34.693l10.055-14.471z" fill="#4c241d"/></g><g><path d="m194.61 128.115c7.755-6.162 17.39-17.553 17.39-32.115l-35.279 15.234c-8.863-6.301-18.555-10.274-28.721-10.274-10.537 0-20.573 4.249-29.695 10.955l-38.305-15.915c0 15.599 12.655 27.555 20.364 33.347-17.291 21.135-28.364 48.397-28.364 60.893 0 7.44 34.026 29.76 76 29.76s76-22.32 76-29.76c0-12.74-11.514-40.828-29.39-62.125z" fill="#fc8c29"/><path d="m148 224c-42.969 0-80-22.643-80-33.76 0-12.666 10.156-38.705 26.746-60.248-8.141-6.836-18.746-18.683-18.746-33.992 0-1.336.668-2.586 1.781-3.326 1.105-.744 2.523-.883 3.754-.367l36.254 15.064c19.609-13.564 39.664-13.846 59.375-.688l33.25-14.355c1.23-.537 2.656-.412 3.785.33 1.125.738 1.801 1.996 1.801 3.342 0 15.453-9.473 26.764-15.828 32.611 17.258 21.809 27.828 48.51 27.828 61.629 0 11.117-37.031 33.76-80 33.76zm-63.199-121.674c2.766 10.916 12.055 19.381 17.965 23.824.871.654 1.438 1.635 1.57 2.717.129 1.082-.188 2.17-.875 3.014-16.426 20.078-27.461 46.387-27.461 58.359 1.387 4.963 32.184 25.76 72 25.76s70.613-20.797 72.023-26c-.023-11.896-11.711-39.338-28.477-59.312-.695-.826-1.027-1.898-.918-2.973s.648-2.059 1.492-2.73c4.055-3.223 12.668-11.219 15.18-22.598l-28.996 12.52c-1.273.555-2.762.402-3.902-.412-18.129-12.891-35.695-12.619-53.727.645-1.133.83-2.609 1.01-3.906.471z" fill="#4c241d"/></g><g><path d="m130.518 164.386c-6.257 4.583-10.272 11.803-10.491 20.593-.45 18.105 4.843 33.972 12.751 43.021l-4.778 12h40l-5.121-12c7.909-9.048 13.202-24.916 12.751-43.021-.225-9.041-4.467-16.421-11.033-20.979" fill="#fff"/><path d="m168 244h-40c-1.324 0-2.566-.658-3.309-1.754-.746-1.098-.898-2.494-.406-3.727l3.902-9.811c-8.07-10.482-12.586-26.633-12.16-43.828.242-9.746 4.551-18.17 12.125-23.721 1.773-1.309 4.277-.924 5.59.863 1.305 1.781.918 4.285-.863 5.59-5.527 4.051-8.672 10.254-8.852 17.467-.402 16.09 4.105 31.527 11.762 40.287.988 1.131 1.258 2.719.703 4.113l-2.594 6.52h28.047l-2.746-6.43c-.602-1.414-.344-3.047.668-4.203 7.66-8.76 12.164-24.197 11.762-40.287-.184-7.434-3.488-13.752-9.312-17.795-1.816-1.26-2.266-3.752-1.004-5.566s3.75-2.27 5.566-1.004c7.859 5.455 12.504 14.264 12.75 24.168.43 17.164-4.07 33.289-12.121 43.773l4.172 9.773c.527 1.236.398 2.654-.344 3.775-.738 1.123-1.992 1.797-3.336 1.797z" fill="#4c241d"/></g><path d="m168 220c-8.34 0-15.695-4.273-20-10.746-4.305 6.473-11.66 10.746-20 10.746-2.211 0-4-1.791-4-4s1.789-4 4-4c8.824 0 16-7.178 16-16 0-2.209 1.789-4 4-4s4 1.791 4 4c0 8.822 7.176 16 16 16 2.211 0 4 1.791 4 4s-1.789 4-4 4z" fill="#4c241d"/><g><path d="m150.71 163.909h-5.42c-1.053 0-1.987-.381-2.32-.945l-2.842-4.819c-.528-.895.651-1.819 2.32-1.819h11.104c1.669 0 2.848.924 2.32 1.819l-2.842 4.819c-.333.564-1.267.945-2.32.945z" fill="#ffce56"/><path d="m150.711 167.908h-5.422c-2.5 0-4.711-1.117-5.77-2.918l-2.836-4.814c-.898-1.51-.918-3.334-.043-4.867 1.047-1.84 3.273-2.982 5.809-2.982h11.102c2.535 0 4.762 1.143 5.809 2.982.875 1.533.855 3.357-.051 4.879l-2.832 4.807c-1.055 1.796-3.266 2.913-5.766 2.913zm-1.125-6.978c0 .002 0 .004-.004.006zm-3.176-.002.004.004c0-.002 0-.002-.004-.004zm6.016-4.815c-.004.006-.008.012-.012.016zm-8.86-.011.012.018c-.004-.007-.008-.013-.012-.018z" fill="#4c241d"/></g><g><path d="m116 148 12 4" fill="#ffce56"/><path d="m128 156.002c-.418 0-.844-.066-1.266-.207l-12-4c-2.094-.699-3.227-2.965-2.527-5.061.699-2.094 2.945-3.236 5.059-2.529l12 4c2.094.699 3.227 2.965 2.527 5.061-.559 1.675-2.117 2.736-3.793 2.736z" fill="#4c241d"/></g><path d="m168 156.002c-1.676 0-3.234-1.061-3.793-2.736-.699-2.096.434-4.361 2.527-5.061l12-4c2.113-.707 4.359.436 5.059 2.529.699 2.096-.434 4.361-2.527 5.061l-12 4c-.422.141-.848.207-1.266.207z" fill="#4c241d"/><path d="m148 200c-2.211 0-4-1.791-4-4v-32c0-2.209 1.789-4 4-4s4 1.791 4 4v32c0 2.209-1.789 4-4 4z" fill="#4c241d"/><path d="m188.004 172c-1.469.002-2.879-.809-3.582-2.211-.988-1.977-.188-4.379 1.789-5.367l5.789-2.895v-5.527c0-2.209 1.789-4 4-4h16c2.211 0 4 1.791 4 4s-1.789 4-4 4h-12v4c0 1.516-.855 2.9-2.211 3.578l-8 4c-.574.287-1.184.422-1.785.422z" fill="#4c241d"/><g><path d="m216 168-12 8v8l-12 4" fill="#fc8c29"/><path d="m192 192.002c-1.676 0-3.234-1.061-3.793-2.736-.699-2.096.434-4.361 2.527-5.061l9.266-3.088v-5.117c0-1.338.668-2.586 1.781-3.328l12-8c1.84-1.229 4.324-.73 5.547 1.109 1.227 1.838.73 4.322-1.109 5.547l-10.219 6.813v5.859c0 1.723-1.102 3.25-2.734 3.795l-12 4c-.422.141-.848.207-1.266.207z" fill="#4c241d"/></g><path d="m107.996 172c-.602 0-1.211-.135-1.785-.422l-8-4c-1.356-.678-2.211-2.062-2.211-3.578v-4h-12c-2.211 0-4-1.791-4-4s1.789-4 4-4h16c2.211 0 4 1.791 4 4v5.527l5.789 2.895c1.977.988 2.777 3.391 1.789 5.367-.703 1.402-2.113 2.211-3.582 2.211z" fill="#4c241d"/><g><path d="m80 168 12 8v8l12 4" fill="#fc8c29"/><path d="m104 192.002c-.418 0-.844-.066-1.266-.207l-12-4c-1.632-.545-2.734-2.072-2.734-3.795v-5.859l-10.219-6.812c-1.84-1.225-2.336-3.709-1.109-5.547 1.219-1.84 3.699-2.338 5.547-1.109l12 8c1.113.741 1.781 1.989 1.781 3.327v5.117l9.266 3.088c2.094.699 3.227 2.965 2.527 5.061-.559 1.675-2.117 2.736-3.793 2.736z" fill="#4c241d"/></g><g fill="#4c241d"><path d="m136 124c-2.211 0-4-1.791-4-4v-16c0-2.209 1.789-4 4-4s4 1.791 4 4v16c0 2.209-1.789 4-4 4z"/><path d="m160 124c-2.211 0-4-1.791-4-4v-16c0-2.209 1.789-4 4-4s4 1.791 4 4v16c0 2.209-1.789 4-4 4z"/><path d="m148 116c-2.211 0-4-1.791-4-4v-8c0-2.209 1.789-4 4-4s4 1.791 4 4v8c0 2.209-1.789 4-4 4z"/><path d="m184 264c-2.211 0-4-1.791-4-4v-16c0-2.209 1.789-4 4-4s4 1.791 4 4v16c0 2.209-1.789 4-4 4z"/><path d="m108 264c-2.211 0-4-1.791-4-4v-16c0-2.209 1.789-4 4-4s4 1.791 4 4v16c0 2.209-1.789 4-4 4z"/></g></g></svg>