<svg id="whale" enable-background="new 0 0 300 300" height="512" viewBox="0 0 300 300" width="512" xmlns="http://www.w3.org/2000/svg"><g><circle cx="180" cy="114" fill="#fff4f1" r="86"/><g fill="#4c241d"><circle cx="68" cy="54" r="4.529"/><circle cx="252" cy="242" r="4.529"/><path d="m251.656 65.656c-1.023 0-2.047-.391-2.828-1.172l-11.312-11.312c-1.562-1.562-1.562-4.094 0-5.656s4.094-1.562 5.656 0l11.312 11.312c1.562 1.562 1.562 4.094 0 5.656-.781.782-1.804 1.172-2.828 1.172z"/><path d="m240.344 65.656c-1.023 0-2.047-.391-2.828-1.172-1.562-1.562-1.562-4.094 0-5.656l11.312-11.312c1.562-1.562 4.094-1.562 5.656 0s1.562 4.094 0 5.656l-11.312 11.312c-.781.782-1.805 1.172-2.828 1.172z"/></g><g><circle cx="146" cy="160" fill="#c1dbdc" r="108"/><path d="m146 272c-61.758 0-112-50.242-112-112s50.242-112 112-112 112 50.242 112 112-50.242 112-112 112zm0-216c-57.346 0-104 46.654-104 104s46.654 104 104 104 104-46.654 104-104-46.654-104-104-104z" fill="#4c241d"/></g><g><path d="m146 268c44.766 0 83.17-27.238 99.546-66.044-6.969-.152-13.064-3.852-16.528-9.371-1.425-2.27-4.757-2.03-6.207.224-3.558 5.529-9.767 9.191-16.83 9.191-7.127 0-13.383-3.727-16.925-9.339-1.448-2.295-4.702-2.295-6.15 0-3.542 5.612-9.798 9.339-16.925 9.339s-13.383-3.727-16.925-9.339c-1.448-2.295-4.702-2.295-6.15 0-3.542 5.612-9.798 9.339-16.925 9.339s-13.383-3.727-16.925-9.339c-1.448-2.295-4.702-2.295-6.15 0-3.544 5.612-9.8 9.339-16.927 9.339-7.07 0-13.283-3.669-16.84-9.206-1.445-2.25-4.771-2.487-6.191-.222-3.457 5.513-9.539 9.214-16.495 9.38 16.375 38.808 54.779 66.048 99.547 66.048z" fill="#9dc1e4"/><path d="m146 272c-45.154 0-85.676-26.885-103.232-68.494-.514-1.219-.393-2.615.326-3.727s1.941-1.795 3.266-1.826c5.398-.129 10.334-2.934 13.201-7.506 1.35-2.154 3.688-3.447 6.252-3.461h.043c2.699 0 5.184 1.361 6.65 3.648 2.961 4.611 7.998 7.365 13.473 7.365 5.525 0 10.59-2.795 13.543-7.475 1.418-2.246 3.832-3.586 6.457-3.586 2.627 0 5.041 1.34 6.459 3.584 2.953 4.682 8.014 7.477 13.541 7.477 5.525 0 10.59-2.795 13.543-7.475 1.418-2.246 3.832-3.586 6.457-3.586 2.627 0 5.041 1.34 6.459 3.584 2.953 4.682 8.014 7.477 13.541 7.477 5.525 0 10.59-2.795 13.543-7.475 1.418-2.246 3.832-3.586 6.457-3.586 2.627 0 5.041 1.34 6.459 3.584 2.953 4.682 8.014 7.477 13.541 7.477 5.469 0 10.504-2.75 13.469-7.355 1.469-2.287 3.955-3.648 6.656-3.648h.043c2.566.014 4.906 1.309 6.26 3.463 2.873 4.578 7.818 7.381 13.227 7.498 1.324.029 2.549.713 3.27 1.826.721 1.111.844 2.508.328 3.729-17.558 41.605-58.078 68.488-103.232 68.488zm-93.729-66.875c17.293 35.936 53.534 58.875 93.729 58.875 40.189 0 76.428-22.938 93.723-58.861-5.592-1.502-10.496-4.988-13.768-9.92-4.389 6.748-11.863 10.781-19.976 10.781-8.1 0-15.533-4-20-10.73-4.465 6.73-11.9 10.73-20 10.73s-15.533-4-20-10.73c-4.465 6.73-11.9 10.73-20 10.73s-15.533-4-20-10.73c-4.465 6.73-11.9 10.73-20 10.73-8.088 0-15.539-4.008-20.006-10.738-3.262 4.896-8.141 8.361-13.702 9.863z" fill="#4c241d"/></g><path d="m142.5 236.75c-7.057 0-13.521-3.418-17.5-8.998-3.979 5.58-10.443 8.998-17.5 8.998-8.283 0-15.688-4.625-19.326-12.072-.971-1.984-.146-4.381 1.838-5.35 1.986-.973 4.379-.146 5.35 1.838 2.285 4.678 6.938 7.584 12.139 7.584 5.447 0 10.334-3.244 12.449-8.266.861-2.047 2.844-3.369 5.051-3.369s4.189 1.322 5.051 3.369c2.115 5.021 7.002 8.266 12.449 8.266 5.439 0 10.322-3.236 12.441-8.246.861-2.035 3.207-2.988 5.242-2.125 2.033.859 2.986 3.207 2.125 5.242-3.373 7.975-11.149 13.129-19.809 13.129z" fill="#4c241d"/><g><path clip-rule="evenodd" d="m146 188s-7.819-16.927-30.031-22.539c-22.211-5.612-40.449-37.776-32.306-57.461 0 0 8.389 7.631 33.376 8.857s27.364 26.003 27.364 26.003z" fill="#6b4f5b" fill-rule="evenodd"/><path d="m145.998 192c-1.525 0-2.955-.877-3.623-2.311-.312-.66-7.463-15.316-27.387-20.35-12.277-3.104-24.334-13.846-31.461-28.037-6.264-12.467-7.561-25.162-3.561-34.832.496-1.203 1.551-2.09 2.82-2.373 1.279-.289 2.604.066 3.566.943.035.027 8.072 6.701 30.881 7.82 22.5 1.104 30.215 19.855 31.152 29.615l1.611 45.383c.066 1.902-1.217 3.59-3.07 4.031-.309.076-.619.111-.928.111zm-59.943-77.816c-1.131 6.844.479 15.283 4.621 23.529 6.115 12.174 16.182 21.32 26.273 23.869 11.496 2.904 19.432 8.602 24.602 13.801l-1.145-32.383c-.072-.617-2.424-21.111-23.562-22.146-15.969-.786-25.574-4.079-30.789-6.67z" fill="#4c241d"/></g><g><path clip-rule="evenodd" d="m146 188s7.819-16.927 30.031-22.539c22.211-5.612 40.449-37.775 32.306-57.461 0 0-8.389 7.631-33.376 8.857s-27.364 26.003-27.364 26.003z" fill="#6b4f5b" fill-rule="evenodd"/><path d="m146.002 192c-.309 0-.619-.035-.93-.109-1.854-.441-3.137-2.129-3.07-4.031l1.596-45.141c.953-10.002 8.668-28.754 31.168-29.857 22.809-1.119 30.846-7.793 30.926-7.859.973-.834 2.303-1.174 3.557-.873 1.246.299 2.297 1.158 2.785 2.342 4 9.67 2.703 22.365-3.561 34.832-7.127 14.191-19.184 24.934-31.461 28.037-20.129 5.084-27.311 20.186-27.381 20.338-.664 1.438-2.1 2.321-3.629 2.321zm59.943-77.816c-5.215 2.592-14.82 5.885-30.789 6.67-21.139 1.035-23.49 21.529-23.58 22.402l-1.131 32.129c5.172-5.199 13.109-10.896 24.605-13.803 10.092-2.549 20.158-11.695 26.273-23.869 4.144-8.246 5.753-16.686 4.622-23.529z" fill="#4c241d"/></g><circle cx="120" cy="78" fill="#4c241d" r="4.529"/><circle cx="224" cy="162" fill="#4c241d" r="4.529"/><circle cx="68" cy="162" fill="#4c241d" r="4.529"/><circle cx="164" cy="98" fill="#4c241d" r="4.529"/></g></svg>