<svg id="wolf" enable-background="new 0 0 300 300" height="512" viewBox="0 0 300 300" width="512" xmlns="http://www.w3.org/2000/svg"><g><circle cx="248" cy="244" fill="#4c241d" r="4"/><circle cx="178" cy="114" fill="#fff4f1" r="86"/><g><circle cx="148" cy="160" fill="#ffce56" r="108"/><path d="m148 272c-61.758 0-112-50.242-112-112s50.242-112 112-112 112 50.242 112 112-50.242 112-112 112zm0-216c-57.346 0-104 46.652-104 104s46.654 104 104 104 104-46.652 104-104-46.654-104-104-104z" fill="#4c241d"/></g><g><path d="m176.13 192h-56.26c-22.02 0-39.87 17.85-39.87 39.87v12.017c18.567 15.069 42.223 24.113 68 24.113s49.433-9.044 68-24.113v-12.017c0-22.02-17.85-39.87-39.87-39.87z" fill="#6b4f5b"/><path d="m148 272c-25.609 0-50.654-8.883-70.521-25.008-.936-.758-1.479-1.898-1.479-3.105v-12.016c0-24.191 19.68-43.871 43.869-43.871h56.262c24.189 0 43.869 19.68 43.869 43.871v12.016c0 1.207-.543 2.348-1.479 3.105-19.867 16.125-44.912 25.008-70.521 25.008zm-64-30.039c18.203 14.227 40.854 22.039 64 22.039s45.797-7.812 64-22.039v-10.09c0-19.781-16.092-35.871-35.869-35.871h-56.262c-19.777 0-35.869 16.09-35.869 35.871zm132 1.926h.039z" fill="#4c241d"/></g><circle cx="64" cy="56" fill="#4c241d" r="4"/><path d="m252 68c-1.023 0-2.047-.391-2.828-1.172l-12-12c-1.562-1.562-1.562-4.094 0-5.656s4.094-1.562 5.656 0l12 12c1.562 1.562 1.562 4.094 0 5.656-.781.781-1.805 1.172-2.828 1.172z" fill="#4c241d"/><path d="m240 68c-1.023 0-2.047-.391-2.828-1.172-1.562-1.562-1.562-4.094 0-5.656l12-12c1.562-1.562 4.094-1.562 5.656 0s1.562 4.094 0 5.656l-12 12c-.781.781-1.805 1.172-2.828 1.172z" fill="#4c241d"/><g><path d="m212 96c7.754 17.36-16 52-16 52l-10.772-24.72z" fill="#b5a19c"/><path d="m196 152c-.125 0-.252-.008-.379-.02-1.449-.137-2.707-1.051-3.287-2.383l-10.771-24.719c-.652-1.496-.332-3.234.811-4.398l26.771-27.281c.926-.945 2.252-1.383 3.564-1.137 1.301.234 2.404 1.098 2.943 2.305 8.424 18.863-13.793 52.16-16.354 55.895-.749 1.093-1.987 1.738-3.298 1.738zm-6.027-27.844 6.68 15.328c5.664-9.586 12.947-24.52 12.926-35.305z" fill="#4c241d"/></g><g><path d="m80 96c-7.754 17.36 20 52 20 52l9.423-24.72z" fill="#b5a19c"/><path d="m100 152c-1.203 0-2.355-.543-3.121-1.5-2.998-3.738-29.035-37.094-20.531-56.133.525-1.176 1.588-2.027 2.852-2.285 1.26-.266 2.574.105 3.52.984l29.422 27.281c1.197 1.109 1.6 2.832 1.02 4.359l-9.422 24.719c-.512 1.34-1.701 2.305-3.119 2.527-.209.032-.416.048-.621.048zm-17.391-48.125c.381 10.91 9.48 26.297 16.244 35.902l5.869-15.398z" fill="#4c241d"/></g><g><path d="m186.61 136.115c7.755-6.162 25.39-25.553 25.39-40.115l-35.279 15.234c-8.863-6.301-18.555-10.274-28.721-10.274-10.537 0-20.573 4.249-29.695 10.955l-38.305-15.915c0 15.599 20.655 35.555 28.364 41.347-17.291 21.135-20.364 40.397-20.364 52.893 0 7.44 18.026 33.76 60 33.76s60-26.32 60-33.76c0-12.74-3.514-32.828-21.39-54.125z" fill="#6b4f5b"/><path d="m148 228c-42.225 0-64-26.469-64-37.762 0-18.348 6.318-35.918 18.787-52.281-8.789-7.59-26.787-25.992-26.787-41.957 0-1.336.668-2.586 1.779-3.328 1.113-.742 2.518-.875 3.756-.367l36.256 15.062c19.625-13.559 39.656-13.84 59.375-.684l33.248-14.355c1.234-.531 2.658-.41 3.783.328 1.125.742 1.803 1.996 1.803 3.344 0 14.586-14.682 32.215-23.84 40.613 16.32 20.852 19.84 40.535 19.84 53.625 0 11.293-21.775 37.762-64 37.762zm-62.777-125.5c4.396 12.672 19.471 27.086 25.543 31.648.871.656 1.438 1.637 1.568 2.719s-.186 2.172-.875 3.012c-12.912 15.785-19.459 32.726-19.459 50.359 0 4.414 15.438 29.762 56 29.762s56-25.348 56-29.762c0-12.402-3.549-31.414-20.453-51.551-.695-.824-1.025-1.898-.918-2.973.109-1.074.646-2.059 1.492-2.73 7.102-5.645 18.832-19.098 22.643-30.367l-28.457 12.289c-1.289.547-2.766.398-3.904-.41-18.127-12.895-35.68-12.617-53.729.641-1.133.828-2.613 1.004-3.904.473z" fill="#4c241d"/></g><g><path d="m130.518 168.386c-6.257 4.583-10.272 7.803-10.491 16.593-.45 18.105 4.843 41.972 12.751 51.021h30.101c7.909-9.048 13.202-32.916 12.751-51.021-.225-9.041-4.467-12.421-11.033-16.979" fill="#fff"/><path d="m162.879 240h-30.102c-1.154 0-2.252-.5-3.012-1.367-9.055-10.359-14.18-35.965-13.736-53.754.273-11.043 6.031-15.258 12.125-19.719 1.785-1.312 4.287-.918 5.59.863 1.307 1.781.918 4.285-.863 5.59-6.018 4.406-8.686 6.641-8.855 13.465-.424 17.07 4.473 38.191 10.689 46.922h26.227c6.217-8.73 11.113-29.852 10.689-46.918-.178-7.141-3.148-9.516-9.314-13.797-1.814-1.258-2.264-3.75-1.004-5.566 1.256-1.812 3.752-2.273 5.566-1.004 7.297 5.066 12.482 9.477 12.748 20.168.443 17.785-4.682 43.391-13.736 53.75-.76.867-1.858 1.367-3.012 1.367z" fill="#4c241d"/></g><path d="m172 220c-8.838 0-18.658-4.887-24-12.285-5.342 7.398-15.162 12.285-24 12.285v-8c9.002 0 20-7.383 20-16 0-2.211 1.791-4 4-4s4 1.789 4 4c0 8.617 10.998 16 20 16z" fill="#4c241d"/><g><path d="m152.065 183.909h-8.13c-1.579 0-2.981-.196-3.481-.487l-4.263-2.484c-.792-.461.976-.938 3.481-.938h16.657c2.504 0 4.272.476 3.481.938l-4.263 2.484c-.501.29-1.903.487-3.482.487z" fill="#ffce56"/><path d="m152.064 187.91h-8.129c-2.465 0-4.312-.348-5.488-1.027l-4.27-2.488c-1.561-.91-2.506-3.016-2.035-4.762.869-3.219 4.48-3.633 7.529-3.633h16.656c3.049 0 6.66.414 7.529 3.633.471 1.746-.475 3.855-2.039 4.762l-4.26 2.484c-1.18.683-3.028 1.031-5.493 1.031z" fill="#4c241d"/></g><g><path d="m124 152 8 4" fill="#ffce56"/><path d="m131.996 160c-.6 0-1.211-.137-1.785-.422l-8-4c-1.977-.988-2.777-3.391-1.789-5.367.988-1.973 3.387-2.77 5.367-1.789l8 4c1.977.988 2.777 3.391 1.789 5.367-.701 1.402-2.113 2.211-3.582 2.211z" fill="#4c241d"/></g><g fill="#4c241d"><path d="m164.004 160c-1.469 0-2.881-.809-3.582-2.211-.988-1.977-.188-4.379 1.789-5.367l8-4c1.979-.98 4.381-.184 5.367 1.789.988 1.977.188 4.379-1.789 5.367l-8 4c-.574.285-1.185.422-1.785.422z"/><path d="m148 200c-2.209 0-4-1.789-4-4v-12c0-2.211 1.791-4 4-4s4 1.789 4 4v12c0 2.211-1.791 4-4 4z"/><path d="m184 264c-2.209 0-4-1.789-4-4v-16c0-2.211 1.791-4 4-4s4 1.789 4 4v16c0 2.211-1.791 4-4 4z"/><path d="m108 264c-2.209 0-4-1.789-4-4v-16c0-2.211 1.791-4 4-4s4 1.789 4 4v16c0 2.211-1.791 4-4 4z"/></g><g><path d="m96 168c-11.434-5.41-23.242 6.602-23.242 6.602s16.364-2.053 19.376 6.369c0 0-16.505-2.067-14.883 14.346 0 0 7.314-4.726 18.748.684" fill="#6b4f5b"/><path d="m95.998 200c-.574 0-1.156-.121-1.709-.383-9.084-4.297-14.682-1.047-14.92-.906-1.18.707-2.66.777-3.885.16-1.225-.613-2.078-1.797-2.213-3.16-.602-6.09.842-10.879 4.289-14.238 1.234-1.203 2.607-2.098 4.01-2.762-3.021-.453-6.312-.387-8.32-.141-1.674.203-3.326-.68-4.076-2.199-.752-1.527-.461-3.359.732-4.574.562-.574 13.943-13.961 27.805-7.414 1.996.945 2.85 3.332 1.904 5.328-.943 2-3.332 2.852-5.326 1.906-2.943-1.395-6.027-1.188-8.824-.305 4.455 1.133 8.721 3.508 10.436 8.309.469 1.309.225 2.766-.645 3.852-.871 1.082-2.232 1.629-3.617 1.465-1.523-.18-6.08-.113-8.518 2.285-.664.656-1.164 1.488-1.494 2.484 3.947-.633 9.48-.445 16.084 2.676 1.996.945 2.85 3.332 1.904 5.328-.683 1.445-2.119 2.289-3.617 2.289z" fill="#4c241d"/></g><g><path d="m196.758 168c11.434-5.41 23.242 6.602 23.242 6.602s-16.364-2.053-19.376 6.369c0 0 16.505-2.067 14.883 14.346 0 0-7.314-4.726-18.748.684" fill="#6b4f5b"/><path d="m196.76 200c-1.498 0-2.934-.844-3.617-2.289-.945-1.996-.092-4.383 1.904-5.328 6.609-3.121 12.145-3.309 16.086-2.676-.332-.996-.83-1.828-1.496-2.484-2.434-2.395-6.986-2.453-8.537-2.281-1.375.137-2.74-.406-3.6-1.488s-1.109-2.531-.643-3.832c1.717-4.801 5.982-7.176 10.438-8.309-2.793-.883-5.877-1.09-8.826.305-1.994.949-4.381.094-5.326-1.906-.945-1.996-.092-4.383 1.904-5.328 13.844-6.555 27.244 6.84 27.807 7.414 1.191 1.215 1.482 3.047.73 4.574-.75 1.523-2.395 2.406-4.076 2.199-2.016-.25-5.305-.312-8.318.141 1.4.664 2.773 1.559 4.008 2.762 3.449 3.359 4.893 8.148 4.291 14.238-.137 1.387-.986 2.602-2.242 3.207-1.258.605-2.74.516-3.91-.242-.18-.105-5.781-3.363-14.867.941-.554.261-1.136.382-1.71.382z" fill="#4c241d"/></g></g></svg>