<svg id="black-panther" enable-background="new 0 0 300 300" height="512" viewBox="0 0 300 300" width="512" xmlns="http://www.w3.org/2000/svg"><g><circle cx="248" cy="244" fill="#4c241d" r="4"/><circle cx="178" cy="114" fill="#fff4f1" r="86"/><g><circle cx="148" cy="160" fill="#fc8c29" r="108"/><path d="m148 272c-61.758 0-112-50.242-112-112s50.242-112 112-112 112 50.242 112 112-50.242 112-112 112zm0-216c-57.346 0-104 46.652-104 104s46.654 104 104 104c57.348 0 104-46.652 104-104s-46.652-104-104-104z" fill="#4c241d"/></g><g><path d="m176.13 192h-56.26c-22.02 0-39.87 17.85-39.87 39.87v12.017c18.567 15.069 42.223 24.113 68 24.113s49.433-9.044 68-24.113v-12.017c0-22.02-17.85-39.87-39.87-39.87z" fill="#6b4f5b"/><path d="m148 272c-25.609 0-50.654-8.883-70.521-25.008-.936-.758-1.479-1.898-1.479-3.105v-12.016c0-24.191 19.68-43.871 43.869-43.871h56.26c24.191 0 43.871 19.68 43.871 43.871v12.016c0 1.207-.543 2.348-1.48 3.105-19.868 16.125-44.911 25.008-70.52 25.008zm-64-30.039c18.203 14.227 40.854 22.039 64 22.039 23.148 0 45.797-7.812 64-22.039v-10.09c0-19.781-16.09-35.871-35.871-35.871h-56.26c-19.777 0-35.869 16.09-35.869 35.871zm132 1.926h.039z" fill="#4c241d"/></g><circle cx="64" cy="56" fill="#4c241d" r="4"/><path d="m252 68c-1.023 0-2.047-.391-2.828-1.172l-12-12c-1.562-1.562-1.562-4.094 0-5.656s4.094-1.562 5.656 0l12 12c1.562 1.562 1.562 4.094 0 5.656-.781.781-1.805 1.172-2.828 1.172z" fill="#4c241d"/><path d="m240 68c-1.023 0-2.047-.391-2.828-1.172-1.562-1.562-1.562-4.094 0-5.656l12-12c1.562-1.562 4.094-1.562 5.656 0s1.562 4.094 0 5.656l-12 12c-.781.781-1.805 1.172-2.828 1.172z" fill="#4c241d"/><g><path d="m200 132c10.033-6.081 9.404-24.789 11.161-33.954.858-4.475-3.665-8.101-7.848-6.295l-26.592 15.483c-8.863-6.3-18.555-7.234-28.721-7.234-10.537 0-20.573 1.209-29.695 7.915l-27.125-15.27c-5.292-2.199-10.658 2.877-8.833 8.31 3.944 11.742 8.021 26.814 13.653 31.045-17.291 21.136-12 48-8 60 2.353 7.058 18.026 36 60 36s57.647-28.942 60-36c4-12 9.876-38.703-8-60z" fill="#6b4f5b"/><path d="m148 232c-41.738 0-60.203-27.961-63.795-38.734-2.84-8.52-10.438-37.301 6.529-60.965-4.176-5.391-7.176-14.664-10.316-24.383-.629-1.941-1.246-3.855-1.861-5.688-1.357-4.035-.27-8.344 2.838-11.242 3.082-2.883 7.42-3.656 11.32-2.039.146.062.289.133.428.211l24.951 14.043c9.771-6.289 20.119-7.203 29.906-7.203 9.539 0 19.59.828 28.852 6.527l24.449-14.234c.137-.082.281-.152.426-.215 3.309-1.43 7.098-.902 9.91 1.348 2.805 2.254 4.129 5.848 3.453 9.375-.359 1.871-.629 4.332-.914 6.938-.945 8.707-2.199 20.191-8.617 26.879 15.703 21.629 10.773 47.039 6.234 60.648-3.586 10.773-22.047 38.734-63.793 38.734zm-59.396-135.879c-.865 0-1.482.465-1.752.715-.383.359-1.217 1.348-.713 2.848.625 1.859 1.254 3.801 1.891 5.773 2.959 9.152 6.641 20.543 10.373 23.344.871.656 1.438 1.637 1.568 2.719s-.186 2.168-.875 3.012c-17.164 20.984-9.928 48.324-7.301 56.203.111.331 12.318 33.265 56.205 33.265 43.895 0 56.094-32.93 56.203-33.266 4.234-12.695 8.918-36.879-7.266-56.164-.75-.895-1.074-2.07-.883-3.223.188-1.152.875-2.164 1.871-2.77 6.121-3.707 7.379-15.27 8.301-23.707.301-2.77.586-5.387 1.004-7.578.168-.859-.309-1.391-.605-1.629-.277-.223-.844-.535-1.562-.305l-26.332 15.332c-1.352.789-3.051.711-4.328-.199-7.583-5.386-16.036-6.491-26.403-6.491-9.148 0-18.789.863-27.326 7.137-1.264.934-2.959 1.035-4.332.262l-26.875-15.129c-.309-.106-.598-.149-.863-.149z" fill="#4c241d"/></g><g><path d="m132.792 199.417c-5.435 2.578-8.923 6.639-9.112 11.584-.058 1.503-.007 2.978.144 4.418 1.188 11.34 11.816 19.781 24.005 19.781 12.189 0 22.817-8.441 24.005-19.782.151-1.439.202-2.914.144-4.417-.196-5.086-3.88-9.237-9.583-11.801" fill="#b5a19c"/><path d="m147.828 239.199c-14.318 0-26.609-10.262-27.982-23.363-.172-1.656-.229-3.332-.162-4.992.238-6.234 4.393-11.719 11.395-15.039 2-.945 4.385-.098 5.328 1.898.947 1.996.098 4.383-1.898 5.328-2.48 1.176-6.666 3.797-6.83 8.121-.051 1.281-.008 2.574.125 3.848.951 9.086 9.748 16.199 20.025 16.199s19.074-7.113 20.027-16.199c.133-1.266.176-2.559.125-3.844-.172-4.477-4.602-7.129-7.227-8.309-2.016-.906-2.914-3.273-2.008-5.289.91-2.012 3.281-2.91 5.289-2.008 7.34 3.305 11.691 8.879 11.938 15.297.066 1.668.012 3.348-.164 4.992-1.395 13.317-13.422 23.36-27.981 23.36z" fill="#4c241d"/></g><g><path d="m122.839 176.242c-9.032 2.864-14.829 7.377-15.144 12.871-.096 1.67-.011 3.309.239 4.909 1.975 12.599 19.637 21.978 39.894 21.978 20.258 0 37.921-9.379 39.894-21.98.25-1.599.335-3.238.239-4.908-.325-5.651-6.448-10.263-15.927-13.112" fill="#b5a19c"/><path d="m147.828 220c-22.73 0-41.58-10.902-43.846-25.359-.297-1.895-.391-3.832-.281-5.758.406-7.074 6.773-12.918 17.93-16.453 2.109-.672 4.355.496 5.021 2.605.668 2.105-.498 4.352-2.604 5.02-7.543 2.391-12.164 5.863-12.359 9.285-.078 1.363-.012 2.727.195 4.062 1.608 10.254 17.733 18.598 35.944 18.598 18.215 0 34.336-8.344 35.941-18.598.211-1.34.277-2.707.199-4.055-.203-3.508-5.215-7.152-13.086-9.516-2.113-.637-3.312-2.867-2.68-4.984.633-2.113 2.84-3.316 4.984-2.68 11.684 3.512 18.352 9.449 18.766 16.715.113 1.914.02 3.852-.277 5.754-2.265 14.462-21.113 25.364-43.847 25.364z" fill="#4c241d"/></g><path d="m168 216.566c-8.234 0-15.656-4.508-20-11.191-4.344 6.684-11.768 11.191-20 11.191-2.209 0-4-1.789-4-4s1.791-4 4-4c8.674 0 16-7.586 16-16.566 0-2.211 1.789-4 4-4s4 1.789 4 4c0 8.98 7.328 16.566 16 16.566 2.211 0 4 1.789 4 4s-1.789 4-4 4z" fill="#4c241d"/><g><path d="m152.172 188h-8.344c-1.621 0-3.06-.586-3.572-1.455l-4.376-7.419c-.813-1.378 1.002-2.801 3.572-2.801h17.095c2.57 0 4.385 1.423 3.572 2.801l-4.376 7.419c-.511.869-1.95 1.455-3.571 1.455z" fill="#6b4f5b"/><path d="m152.172 192h-8.344c-3.078 0-5.768-1.309-7.016-3.418l-4.377-7.426c-.984-1.66-1.002-3.656-.047-5.332 1.23-2.16 3.938-3.5 7.064-3.5h17.094c3.125 0 5.832 1.34 7.062 3.5.957 1.676.941 3.668-.043 5.336l-4.375 7.414c-1.249 2.117-3.94 3.426-7.018 3.426zm-8.797-8.039c.117.02.27.039.453.039h8.344c.184 0 .336-.02.453-.039l2.145-3.637h-13.54zm-4.053-6.875.006.008c-.002-.004-.004-.004-.006-.008z" fill="#4c241d"/></g><g><path d="m116 156 12 4" fill="#ffce56"/><path d="m128 164c-.418 0-.846-.066-1.266-.207l-12-4c-2.096-.695-3.229-2.961-2.529-5.059.697-2.094 2.953-3.23 5.061-2.527l12 4c2.096.695 3.229 2.961 2.529 5.059-.559 1.675-2.119 2.734-3.795 2.734z" fill="#4c241d"/></g><g fill="#4c241d"><path d="m168 164c-1.676 0-3.234-1.059-3.793-2.734-.699-2.098.434-4.363 2.527-5.059l12-4c2.113-.703 4.359.434 5.059 2.527.699 2.098-.434 4.363-2.527 5.059l-12 4c-.422.141-.848.207-1.266.207z"/><path d="m178.805 188.664c-1.336 0-2.645-.672-3.398-1.891-1.168-1.875-.594-4.34 1.281-5.504 1.449-.902 35.848-21.953 57.812-4.395 1.723 1.383 2.004 3.898.625 5.625-1.383 1.719-3.891 2.012-5.625.625-17.539-14.043-48.281 4.746-48.59 4.938-.656.407-1.383.602-2.105.602z"/><path d="m224.004 204c-1.359 0-2.684-.691-3.434-1.941-10.047-16.746-40.621-3.652-40.93-3.516-2.012.879-4.383-.035-5.266-2.062-.883-2.023.035-4.379 2.059-5.266 1.523-.66 37.348-16.023 50.996 6.727 1.137 1.895.523 4.352-1.371 5.488-.644.386-1.355.57-2.054.57z"/><path d="m119.234 184.664c-.719 0-1.449-.195-2.105-.602-.311-.191-31.051-18.973-48.592-4.938-1.721 1.379-4.242 1.102-5.621-.625-1.381-1.727-1.102-4.242.625-5.625 21.953-17.562 56.361 3.492 57.812 4.395 1.875 1.164 2.447 3.629 1.283 5.504-.757 1.219-2.064 1.891-3.402 1.891z"/><path d="m74.035 200c-.701 0-1.41-.184-2.055-.57-1.895-1.137-2.508-3.594-1.371-5.488 13.65-22.754 49.479-7.391 50.996-6.727 2.021.887 2.941 3.242 2.059 5.266-.885 2.027-3.252 2.941-5.266 2.062-.307-.133-30.887-13.219-40.93 3.516-.749 1.25-2.073 1.941-3.433 1.941z"/></g><g><path d="m160 140-12 4-12-4" fill="#6b4f5b"/><path d="m148 148c-.426 0-.855-.07-1.266-.207l-12-4c-2.096-.695-3.229-2.961-2.529-5.059.699-2.094 2.961-3.227 5.061-2.527l10.734 3.578 10.734-3.578c2.113-.699 4.359.434 5.059 2.527.699 2.098-.434 4.363-2.527 5.059l-12 4c-.411.137-.84.207-1.266.207z" fill="#4c241d"/></g></g></svg>