<svg id="zebra" enable-background="new 0 0 300 300" height="512" viewBox="0 0 300 300" width="512" xmlns="http://www.w3.org/2000/svg"><g><circle cx="180" cy="114" fill="#fff4f1" r="86"/><g><circle cx="146" cy="160" fill="#a9ba5a" r="108"/><path d="m146 272c-61.758 0-112-50.242-112-112s50.242-112 112-112 112 50.242 112 112-50.242 112-112 112zm0-216c-57.346 0-104 46.652-104 104s46.654 104 104 104 104-46.652 104-104-46.654-104-104-104z" fill="#4c241d"/></g><g><path d="m251.29 136h-4.484c-8.29 0-16.333-2.821-22.806-8s-14.516-8-22.806-8h-55.194v148c59.647 0 108-48.353 108-108 0-8.253-.957-16.278-2.71-24z" fill="#fff"/><path d="m146 272c-2.209 0-4-1.789-4-4v-148c0-2.211 1.791-4 4-4h55.193c9.166 0 18.152 3.152 25.307 8.875 5.74 4.594 12.951 7.125 20.307 7.125h4.484c1.869 0 3.488 1.293 3.9 3.113 1.864 8.215 2.809 16.586 2.809 24.887 0 61.758-50.242 112-112 112zm4-148v139.926c55.498-2.113 100-47.922 100-103.926 0-6.66-.656-13.371-1.951-20h-1.242c-9.166 0-18.152-3.152-25.307-8.875-5.74-4.594-12.951-7.125-20.307-7.125z" fill="#4c241d"/></g><g><path d="m166 102.58s6.759 0 10.138-6.452c3.379-6.451 6.758-16.128 23.655-16.128 0 0 6.759 19.355-3.379 29.032s-23.655 6.452-23.655 6.452" fill="#fff"/><path d="m178.186 120.004c-3.625 0-6.105-.57-6.355-.629-2.15-.512-3.477-2.672-2.963-4.82.512-2.148 2.699-3.469 4.818-2.961.459.105 11.59 2.543 19.967-5.457 6.119-5.84 4.4-16.852 3.148-22.016-10.58.895-13.465 6.625-16.26 12.18l-.859 1.684c-4.453 8.5-13.307 8.598-13.682 8.598-2.209 0-4-1.789-4-4 0-2.195 1.768-3.977 3.957-4 .268-.008 4.49-.211 6.639-4.309l.799-1.57c3.347-6.649 8.406-16.704 26.398-16.704 1.701 0 3.215 1.074 3.777 2.68.311.891 7.471 21.922-4.395 33.246-7.034 6.715-15.38 8.078-20.989 8.078z" fill="#4c241d"/></g><g><path d="m143.337 96.086c-6.698.434-12.876 2.582-18.205 5.981-2.254-.663-5.315-2.205-7.271-5.938-3.378-6.452-6.757-16.129-23.654-16.129 0 0-6.759 19.355 3.379 29.032 4.63 4.42 9.954 6.135 14.384 6.708-3.79 6.371-5.97 13.813-5.97 21.63v53.072c0 8.556 5.011 15.889 12.243 19.354 2.256 1.081 3.757 3.278 3.757 5.78v20.424h48v-20.424c0-2.502 1.501-4.699 3.757-5.78 7.232-3.465 12.243-10.797 12.243-19.354v-54.442c0-22.973-19.366-41.422-42.663-39.914z" fill="#fff"/><path d="m170 240h-48c-2.209 0-4-1.789-4-4v-20.426c0-.902-.568-1.73-1.48-2.168-8.959-4.293-14.52-13.09-14.52-22.965v-53.07c0-6.496 1.381-12.914 4.027-18.844-4.236-1.324-7.99-3.535-11.203-6.602-11.865-11.323-4.705-32.355-4.394-33.245.562-1.605 2.076-2.68 3.777-2.68 17.992 0 23.051 10.055 26.398 16.703l.799 1.57c.783 1.496 1.902 2.621 3.34 3.355 5.619-3.215 11.916-5.117 18.336-5.535 12.287-.777 24.037 3.395 33.006 11.797 8.842 8.29 13.914 19.993 13.914 32.11v54.441c0 9.875-5.561 18.672-14.514 22.961-.918.441-1.486 1.27-1.486 2.172v20.426c0 2.211-1.791 4-4 4zm-44-8h40v-16.426c0-4.012 2.312-7.609 6.035-9.387 6.145-2.945 9.965-8.98 9.965-15.746v-54.441c0-10.059-4.043-19.387-11.387-26.27-7.334-6.879-16.918-10.328-27.018-9.652-5.838.379-11.328 2.18-16.312 5.359-.975.617-2.17.781-3.275.469-4.283-1.254-7.635-3.996-9.689-7.922l-.859-1.684c-2.795-5.555-5.68-11.285-16.26-12.18-1.252 5.164-2.971 16.176 3.148 22.016 3.27 3.121 7.352 5.02 12.137 5.637 1.336.176 2.494 1.008 3.084 2.219.588 1.211.529 2.637-.16 3.797-3.537 5.945-5.408 12.715-5.408 19.582v53.07c0 6.766 3.82 12.801 9.971 15.75 3.717 1.773 6.029 5.371 6.029 9.383v16.426z" fill="#4c241d"/></g><g><path d="m161.329 224h-3.329v-16h-24v16h-3.329c-4.789 0-8.671 3.882-8.671 8.671v5.391c0 12.116 9.822 21.938 21.938 21.938h4.125c12.116 0 21.938-9.822 21.938-21.938v-5.391c-.001-4.789-3.883-8.671-8.672-8.671z" fill="#6b4f5b"/><path d="m148.062 264h-4.125c-14.302 0-25.937-11.637-25.937-25.938v-5.391c0-6.762 5.324-12.305 12-12.652v-12.019c0-2.211 1.791-4 4-4h24c2.209 0 4 1.789 4 4v12.02c6.676.348 12 5.891 12 12.652v5.391c0 14.3-11.635 25.937-25.938 25.937zm-17.39-36c-2.576 0-4.672 2.098-4.672 4.672v5.391c0 9.891 8.047 17.938 17.938 17.938h4.125c9.891 0 17.938-8.047 17.938-17.938v-5.391c0-2.574-2.096-4.672-4.672-4.672h-3.329c-2.209 0-4-1.789-4-4v-12h-16v12c0 2.211-1.791 4-4 4z" fill="#4c241d"/></g><circle cx="68" cy="54" fill="#4c241d" r="4.529"/><circle cx="252" cy="242" fill="#4c241d" r="4.529"/><path d="m251.656 65.656c-1.023 0-2.047-.391-2.828-1.172l-11.312-11.312c-1.562-1.562-1.562-4.094 0-5.656s4.094-1.562 5.656 0l11.312 11.312c1.562 1.562 1.562 4.094 0 5.656-.781.782-1.804 1.172-2.828 1.172z" fill="#4c241d"/><path d="m240.344 65.656c-1.023 0-2.047-.391-2.828-1.172-1.562-1.562-1.562-4.094 0-5.656l11.312-11.312c1.562-1.562 4.094-1.562 5.656 0s1.562 4.094 0 5.656l-11.312 11.312c-.781.782-1.805 1.172-2.828 1.172z" fill="#4c241d"/><g><path d="m158.281 237.945c-.469 1.992-1.781 4.055-4.781 5.555" fill="#b5a19c"/><path d="m153.504 247.5c-1.469 0-2.881-.809-3.582-2.211-.988-1.977-.188-4.379 1.789-5.367 2.027-1.012 2.498-2.137 2.676-2.895.506-2.148 2.658-3.473 4.811-2.977 2.15.508 3.484 2.66 2.979 4.812-.582 2.465-2.248 5.895-6.887 8.215-.575.286-1.186.423-1.786.423z" fill="#4c241d"/></g><g><path d="m133.5 237.945c.469 1.992 1.781 4.055 4.781 5.555" fill="#b5a19c"/><path d="m138.277 247.5c-.6 0-1.211-.137-1.785-.422-4.639-2.32-6.305-5.75-6.887-8.215-.506-2.152.828-4.305 2.979-4.812 2.146-.492 4.305.828 4.811 2.977.178.758.648 1.883 2.676 2.895 1.977.988 2.777 3.391 1.789 5.367-.702 1.401-2.114 2.21-3.583 2.21z" fill="#4c241d"/></g><g><path d="m106.192 99.896c-4.546-3.437-9.801-9.508-11.986-19.896" fill="#bf7e68"/><path d="m106.188 103.895c-.84 0-1.688-.262-2.408-.809-4.775-3.613-10.992-10.406-13.486-22.262-.455-2.164.928-4.285 3.09-4.738 2.152-.457 4.283.93 4.738 3.09 1.594 7.574 5.121 13.473 10.482 17.527 1.764 1.332 2.111 3.844.777 5.605-.785 1.04-1.983 1.587-3.193 1.587z" fill="#4c241d"/></g><g><path d="m190 96s.703 7.908-13.648 13.954" fill="#bf7e68"/><path d="m176.354 113.953c-1.561 0-3.045-.918-3.688-2.445-.857-2.039.096-4.383 2.133-5.242 11.045-4.652 11.207-10.031 11.207-10.086.014-2.133 1.699-3.984 3.832-4.074 2.17-.004 3.959 1.414 4.146 3.539.098 1.109.482 11.016-16.08 17.996-.506.211-1.033.312-1.55.312z" fill="#4c241d"/></g><g><path d="m186 148h-16l16 8" fill="#bf7e68"/><path d="m184.211 159.578-16-8c-1.658-.828-2.529-2.691-2.104-4.496s2.038-3.082 3.893-3.082h16v7.527l1.789.895z" fill="#4c241d"/></g><g><path d="m106 148h16l-16 8" fill="#bf7e68"/><path d="m107.789 159.578-3.578-7.156 1.789-.895v-7.527h16c1.855 0 3.467 1.277 3.893 3.082s-.445 3.668-2.104 4.496z" fill="#4c241d"/></g><g><path d="m146 72-12 28 12 12 12-12z" fill="#6b4f5b"/><path d="m146 116c-1.023 0-2.047-.391-2.828-1.172l-12-12c-1.156-1.156-1.492-2.902-.848-4.402l12-28c.629-1.473 2.076-2.426 3.676-2.426s3.047.953 3.676 2.426l12 28c.645 1.5.309 3.246-.848 4.402l-12 12c-.781.781-1.805 1.172-2.828 1.172zm-7.256-16.914 7.256 7.258 7.256-7.258-7.256-16.93z" fill="#4c241d"/></g><g fill="#4c241d"><path d="m134.004 212c-.133 0-.266-.008-.402-.02-2.197-.219-3.801-2.18-3.582-4.379l3.869-38.68-11.318-18.863c-.703-1.172-.76-2.625-.148-3.848l12-24c.988-1.977 3.387-2.773 5.367-1.789 1.977.988 2.777 3.391 1.789 5.367l-11.018 22.035 10.869 18.117c.443.738.637 1.602.551 2.457l-4 40c-.208 2.064-1.946 3.603-3.977 3.603z"/><path d="m157.996 212c-2.031 0-3.77-1.539-3.977-3.602l-4-40c-.086-.855.107-1.719.551-2.457l10.869-18.117-11.018-22.035c-.988-1.977-.188-4.379 1.789-5.367 1.982-.984 4.377-.188 5.367 1.789l12 24c.611 1.223.555 2.676-.148 3.848l-11.318 18.863 3.869 38.68c.219 2.199-1.385 4.16-3.582 4.379-.134.011-.269.019-.402.019z"/><path d="m182 136h-8c-1.338 0-2.586-.668-3.328-1.781l-8-12c-1.225-1.84-.729-4.32 1.109-5.547 1.838-1.223 4.318-.73 5.547 1.109l6.813 10.219h5.859c2.209 0 4 1.789 4 4s-1.791 4-4 4z"/><path d="m118 136h-8c-2.209 0-4-1.789-4-4s1.791-4 4-4h5.859l6.812-10.219c1.225-1.84 3.703-2.332 5.547-1.109 1.838 1.227 2.334 3.707 1.109 5.547l-8 12c-.741 1.113-1.989 1.781-3.327 1.781z"/><path d="m174 152h-8c-2.209 0-4-1.789-4-4s1.791-4 4-4h8c2.209 0 4 1.789 4 4s-1.791 4-4 4z"/><path d="m126 152h-8c-2.209 0-4-1.789-4-4s1.791-4 4-4h8c2.209 0 4 1.789 4 4s-1.791 4-4 4z"/><path d="m165.996 184c-.6 0-1.211-.137-1.785-.422-1.977-.988-2.777-3.391-1.789-5.367l4-8c.686-1.367 2.129-2.059 3.617-2.211l16 .156c2.209.023 3.982 1.828 3.961 4.039-.021 2.195-1.809 3.961-4 3.961-.012 0-.025 0-.039 0l-13.5-.133-2.883 5.766c-.701 1.402-2.113 2.211-3.582 2.211z"/><path d="m170.004 196c-1.469 0-2.881-.809-3.582-2.211-.988-1.977-.188-4.379 1.789-5.367l7.42-3.711 7.541-7.539c1.562-1.562 4.094-1.562 5.656 0s1.562 4.094 0 5.656l-8 8c-.303.305-.654.559-1.039.75l-8 4c-.574.285-1.185.422-1.785.422z"/><path d="m121.996 196c-.6 0-1.211-.137-1.785-.422l-8-4c-.385-.191-.736-.445-1.039-.75l-8-8c-1.562-1.562-1.562-4.094 0-5.656s4.094-1.562 5.656 0l7.541 7.539 7.42 3.711c1.977.988 2.777 3.391 1.789 5.367-.701 1.402-2.113 2.211-3.582 2.211z"/><path d="m126.004 184c-1.469 0-2.881-.809-3.582-2.211l-2.883-5.766-13.5.133c-2.318 0-4.016-1.754-4.039-3.961-.021-2.211 1.752-4.016 3.961-4.039l16-.156c1.635.148 2.934.844 3.617 2.211l4 8c.988 1.977.188 4.379-1.789 5.367-.574.285-1.185.422-1.785.422z"/><path d="m146 156c-2.209 0-4-1.789-4-4v-12c0-2.211 1.791-4 4-4s4 1.789 4 4v12c0 2.211-1.791 4-4 4z"/><path d="m210 212c-2.209 0-4-1.789-4-4v-35.055l-3.578-7.156c-.279-.559-.424-1.18-.422-1.805l.172-43.629c.008-2.203 1.799-3.984 4-3.984h.016c2.209.008 3.992 1.809 3.984 4.016l-.168 42.676 3.574 7.148c.277.555.422 1.168.422 1.789v36c0 2.211-1.791 4-4 4z"/><path d="m226.004 204c-.217 0-.439-.016-.662-.055-2.178-.363-3.65-2.426-3.287-4.602l3.785-22.719-7.418-14.836c-.277-.554-.422-1.167-.422-1.788v-32c0-2.211 1.791-4 4-4s4 1.789 4 4v31.055l7.578 15.156c.377.758.506 1.613.367 2.445l-4 24c-.326 1.957-2.021 3.344-3.941 3.344z"/><path d="m238 160c-2.209 0-4-1.789-4-4v-20c0-2.211 1.791-4 4-4s4 1.789 4 4v20c0 2.211-1.791 4-4 4z"/></g></g></svg>