<svg id="boar" enable-background="new 0 0 300 300" height="512" viewBox="0 0 300 300" width="512" xmlns="http://www.w3.org/2000/svg"><g><circle cx="180" cy="114" fill="#fff4f1" r="86"/><g><circle cx="146" cy="160" fill="#bf7e68" r="108"/><path d="m146 272c-61.758 0-112-50.242-112-112s50.242-112 112-112 112 50.242 112 112-50.242 112-112 112zm0-216c-57.348 0-104 46.652-104 104s46.652 104 104 104 104-46.652 104-104-46.652-104-104-104z" fill="#4c241d"/></g><g><path d="m202 176.095v-28.095c0-30.928-25.072-56-56-56-30.928 0-56 25.072-56 56v28.095c-12.382 13.165-20 30.647-20 49.905 0 3.995.416 7.887 1.042 11.711 19.425 18.741 45.835 30.289 74.958 30.289s55.533-11.548 74.958-30.289c.626-3.824 1.042-7.716 1.042-11.711 0-19.258-7.618-36.74-20-49.905z" fill="#b5a19c"/><path d="m146 272c-29.137 0-56.746-11.156-77.734-31.41-.621-.598-1.031-1.379-1.168-2.23-.739-4.485-1.098-8.528-1.098-12.36 0-18.965 7.09-37.18 20-51.469v-26.531c0-33.086 26.914-60 60-60s60 26.914 60 60v26.531c12.91 14.289 20 32.504 20 51.469 0 3.832-.359 7.875-1.098 12.359-.137.852-.547 1.633-1.168 2.23-20.988 20.255-48.597 31.411-77.734 31.411zm-71.215-36.25c19.367 18.227 44.606 28.25 71.215 28.25s51.848-10.023 71.215-28.25c.527-3.527.785-6.727.785-9.75 0-17.445-6.719-34.195-18.914-47.168-.699-.738-1.086-1.719-1.086-2.738v-28.094c0-28.672-23.328-52-52-52s-52 23.328-52 52v28.094c0 1.02-.387 2-1.086 2.738-12.195 12.973-18.914 29.723-18.914 47.168 0 3.023.258 6.223.785 9.75zm146.172 1.961h.039z" fill="#4c241d"/></g><g><path d="m170 180.412c18.926.342 20-16.412 20-16.412 6.339 15.342-6.236 33.195-20 30.872z" fill="#fff"/><path d="m172.426 199.074c-1.031 0-2.062-.086-3.09-.258-1.926-.324-3.336-1.992-3.336-3.945v-14.461c0-1.074.43-2.102 1.199-2.855.746-.734 1.754-1.145 2.801-1.145.168.008.367.004.555.004 14.055 0 15.352-11.383 15.457-12.695.141-1.848 1.535-3.367 3.363-3.656 1.805-.273 3.613.695 4.32 2.41 3.766 9.109 2.152 19.723-4.211 27.699-4.554 5.711-10.757 8.902-17.058 8.902zm1.574-14.836v6.715c3.344-.492 6.633-2.512 9.23-5.77 1.48-1.855 2.602-3.941 3.348-6.129-3.016 2.606-7.117 4.594-12.578 5.184z" fill="#4c241d"/></g><g><path d="m122 180.412c-18.926.342-20-16.412-20-16.412-6.339 15.342 6.236 33.195 20 30.872z" fill="#fff"/><path d="m119.574 199.074c-6.301 0-12.504-3.188-17.059-8.902-6.363-7.977-7.977-18.59-4.211-27.699.707-1.727 2.531-2.75 4.348-2.418 1.836.301 3.219 1.832 3.34 3.688.105 1.305 1.605 13.02 15.934 12.668 1.211-.02 2.109.395 2.875 1.145.77.754 1.199 1.781 1.199 2.855v14.461c0 1.953-1.41 3.621-3.336 3.945-1.027.171-2.062.257-3.09.257zm-14.152-20.019c.746 2.191 1.867 4.273 3.348 6.129 2.598 3.258 5.887 5.277 9.23 5.77v-6.715c-5.461-.591-9.562-2.579-12.578-5.184z" fill="#4c241d"/></g><g fill="#4c241d"><path d="m155.238 244h-18.477c-12.707 0-23.738-9.496-26.703-22.77-5.137-5-8.059-12.051-8.059-19.574 0-2.211 1.789-4 4-4s4 1.789 4 4c0 5.699 2.312 10.984 6.348 14.496.688.598 1.152 1.414 1.312 2.312 1.816 10.16 9.848 17.535 19.102 17.535h18.477c9.254 0 17.285-7.375 19.102-17.535.16-.898.625-1.715 1.312-2.312 4.035-3.512 6.348-8.797 6.348-14.496 0-2.211 1.789-4 4-4s4 1.789 4 4c0 7.523-2.922 14.574-8.059 19.574-2.964 13.274-13.996 22.77-26.703 22.77z"/><circle cx="68" cy="54" r="4.529"/><circle cx="252" cy="242" r="4.529"/><path d="m251.656 65.656c-1.023 0-2.047-.391-2.828-1.172l-11.312-11.312c-1.562-1.562-1.562-4.094 0-5.656s4.094-1.562 5.656 0l11.312 11.312c1.562 1.562 1.562 4.094 0 5.656-.781.782-1.804 1.172-2.828 1.172z"/></g><g><path d="m157.919 208h-23.839c-2.254 0-4.081-1.827-4.081-4.081v-11.919h32v11.919c.001 2.254-1.826 4.081-4.08 4.081z" fill="#b5a19c"/><path d="m157.918 212h-23.836c-4.457 0-8.082-3.625-8.082-8.082v-11.918c0-2.211 1.789-4 4-4h32c2.211 0 4 1.789 4 4v11.918c0 4.457-3.625 8.082-8.082 8.082zm-23.918-16v7.918l23.918.082c.043 0 .082-.039.082-.082v-7.918z" fill="#4c241d"/></g><path d="m240.344 65.656c-1.023 0-2.047-.391-2.828-1.172-1.562-1.562-1.562-4.094 0-5.656l11.312-11.312c1.562-1.562 4.094-1.562 5.656 0s1.562 4.094 0 5.656l-11.312 11.312c-.781.782-1.805 1.172-2.828 1.172z" fill="#4c241d"/><circle cx="122" cy="152" fill="#4c241d" r="4"/><circle cx="170" cy="152" fill="#4c241d" r="4"/><g><path d="m174 121.09s7.51 0 11.264-7.168c3.755-7.168 7.51-17.921 26.284-17.921 0 0 7.51 21.505-3.755 32.258-11.264 10.753-26.284 7.168-26.284 7.168" fill="#b5a19c"/><path d="m187.547 140.004c-3.973 0-6.691-.621-6.969-.688-2.148-.512-3.473-2.672-2.961-4.82.516-2.148 2.676-3.457 4.82-2.961.512.117 13.105 2.883 22.594-6.172 7.109-6.785 4.941-19.609 3.531-25.258-12.305.898-15.605 7.453-18.801 13.805l-.953 1.867c-4.824 9.207-14.402 9.312-14.809 9.312-2.211 0-4-1.789-4-4 0-2.195 1.77-3.98 3.961-4 .277-.008 5.238-.211 7.762-5.023l.891-1.75c3.672-7.293 9.219-18.316 28.934-18.316 1.699 0 3.215 1.074 3.777 2.68.34.98 8.211 24.082-4.77 36.473-7.71 7.359-16.859 8.851-23.007 8.851z" fill="#4c241d"/></g><g><path d="m156.057 164c7.701 0 13.943 6.243 13.943 13.943v12.517c0 5.269-4.271 9.54-9.54 9.54l-14.46-4-14.46 4c-5.269 0-9.54-4.271-9.54-9.54v-12.517c0-7.701 6.243-13.943 13.943-13.943" fill="#6b4f5b"/><path d="m160.461 204c-.359 0-.719-.047-1.066-.145l-13.395-3.707-13.395 3.707c-.348.098-.707.145-1.066.145-7.465 0-13.539-6.074-13.539-13.539v-12.516c0-9.895 8.051-17.945 17.945-17.945 2.211 0 4 1.789 4 4s-1.789 4-4 4c-5.484 0-9.945 4.461-9.945 9.945v12.516c0 2.895 2.234 5.281 5.066 5.52l13.867-3.836c.695-.195 1.438-.195 2.133 0l13.867 3.836c2.832-.238 5.066-2.625 5.066-5.52v-12.516c0-5.484-4.461-9.945-9.945-9.945-2.211 0-4-1.789-4-4s1.789-4 4-4c9.895 0 17.945 8.051 17.945 17.945v12.516c.001 7.465-6.073 13.539-13.538 13.539z" fill="#4c241d"/></g><g><path d="m118 121.09s-7.51 0-11.264-7.168c-3.755-7.169-7.51-17.922-26.284-17.922 0 0-7.51 21.505 3.755 32.258s26.284 7.168 26.284 7.168" fill="#b5a19c"/><path d="m104.453 140.004c-6.148 0-15.297-1.492-23.008-8.852-12.98-12.391-5.109-35.492-4.77-36.473.562-1.605 2.078-2.68 3.777-2.68 19.715 0 25.262 11.023 28.934 18.316l.891 1.75c2.543 4.848 7.555 5.02 7.766 5.023 2.191.051 3.957 1.855 3.934 4.047-.027 2.191-1.785 3.953-3.977 3.953-.406 0-9.984-.105-14.809-9.312l-.953-1.867c-3.195-6.352-6.496-12.906-18.801-13.805-1.41 5.648-3.578 18.473 3.531 25.258 9.496 9.059 22.078 6.289 22.609 6.168 2.168-.5 4.297.84 4.801 2.984s-.816 4.289-2.957 4.801c-.276.068-2.995.689-6.968.689z" fill="#4c241d"/></g><path d="m158 188c-2.211 0-4-1.789-4-4v-4c0-2.211 1.789-4 4-4s4 1.789 4 4v4c0 2.211-1.789 4-4 4z" fill="#4c241d"/><path d="m134 188c-2.211 0-4-1.789-4-4v-4c0-2.211 1.789-4 4-4s4 1.789 4 4v4c0 2.211-1.789 4-4 4z" fill="#4c241d"/><g><path d="m162 80-16-8-16 8 8 36h16z" fill="#fc8c29"/><path d="m154 120h-16c-1.875 0-3.496-1.301-3.906-3.133l-8-36c-.398-1.793.477-3.625 2.117-4.445l16-8c1.125-.562 2.453-.562 3.578 0l16 8c1.641.82 2.516 2.652 2.117 4.445l-8 36c-.41 1.832-2.031 3.133-3.906 3.133zm-12.793-8h9.586l6.625-29.82-11.418-5.707-11.418 5.707z" fill="#4c241d"/></g><path d="m190 260c-2.211 0-4-1.789-4-4v-16c0-2.211 1.789-4 4-4s4 1.789 4 4v16c0 2.211-1.789 4-4 4z" fill="#4c241d"/><path d="m102 260c-2.211 0-4-1.789-4-4v-16c0-2.211 1.789-4 4-4s4 1.789 4 4v16c0 2.211-1.789 4-4 4z" fill="#4c241d"/><path d="m146 128c-2.211 0-4-1.789-4-4v-8c0-2.211 1.789-4 4-4s4 1.789 4 4v8c0 2.211-1.789 4-4 4z" fill="#4c241d"/></g></svg>