<svg id="buffalo-bull" enable-background="new 0 0 300 300" height="512" viewBox="0 0 300 300" width="512" xmlns="http://www.w3.org/2000/svg"><g><circle cx="180" cy="114" fill="#fff4f1" r="86"/><g><circle cx="146" cy="160" fill="#a9ba5a" r="108"/><path d="m146 272c-61.758 0-112-50.242-112-112s50.242-112 112-112 112 50.242 112 112-50.242 112-112 112zm0-216c-57.346 0-104 46.652-104 104s46.654 104 104 104 104-46.652 104-104-46.654-104-104-104z" fill="#4c241d"/></g><g><path d="m150 213.423c0 23.515 19.062 42.577 42.577 42.577h2.882c34.76-17.946 58.541-54.184 58.541-96 0-14.137-2.744-27.625-7.683-40h-96.317z" fill="#6b4f5b"/><path d="m195.459 260h-2.883c-25.681 0-46.576-20.895-46.576-46.578v-93.422c0-2.211 1.791-4 4-4h96.316c1.637 0 3.107.996 3.715 2.516 5.287 13.25 7.969 27.207 7.969 41.484 0 42.074-23.262 80.223-60.705 99.555-.568.293-1.197.445-1.836.445zm-41.459-136v89.422c0 21.273 17.305 38.578 38.576 38.578h1.902c34.272-18.09 55.522-53.254 55.522-92 0-12.355-2.162-24.453-6.432-36z" fill="#4c241d"/></g><g><path d="m114 134.91s-7.51 0-11.264 7.168c-3.755 7.169-7.51 17.922-26.284 17.922 0 0-7.51-21.505 3.755-32.258s26.284-7.168 26.284-7.168" fill="#6b4f5b"/><path d="m76.451 164c-1.701 0-3.215-1.074-3.777-2.68-.34-.98-8.207-24.082 4.771-36.473 12.691-12.113 29.275-8.336 29.975-8.164 2.148.512 3.475 2.672 2.961 4.82-.51 2.148-2.67 3.473-4.82 2.961-.514-.121-13.102-2.883-22.592 6.172-7.109 6.785-4.943 19.609-3.533 25.258 12.307-.898 15.605-7.453 18.805-13.805l.953-1.867c4.82-9.207 14.4-9.312 14.807-9.312 2.209 0 4 1.789 4 4 0 2.195-1.77 3.98-3.961 4-.277.008-5.238.211-7.76 5.023l-.895 1.754c-3.67 7.293-9.219 18.313-28.934 18.313z" fill="#4c241d"/></g><g><path d="m178 134.91s7.51 0 11.264 7.168c3.755 7.168 7.51 17.921 26.284 17.921 0 0 7.51-21.505-3.755-32.258-11.264-10.753-26.284-7.168-26.284-7.168" fill="#6b4f5b"/><path d="m215.549 164c-19.715 0-25.264-11.02-28.934-18.312l-.895-1.754c-2.539-4.848-7.553-5.02-7.766-5.023-2.189-.051-3.955-1.855-3.93-4.047s1.783-3.953 3.975-3.953c.406 0 9.986.105 14.807 9.312l.953 1.867c3.199 6.352 6.498 12.906 18.805 13.805 1.41-5.648 3.576-18.473-3.533-25.258-9.488-9.059-22.08-6.293-22.607-6.168-2.15.504-4.299-.84-4.801-2.984s.814-4.289 2.957-4.801c.703-.164 17.285-3.949 29.975 8.164 12.979 12.391 5.111 35.492 4.771 36.473-.562 1.605-2.076 2.679-3.777 2.679z" fill="#4c241d"/></g><circle cx="68" cy="54" fill="#4c241d" r="4.529"/><circle cx="252" cy="242" fill="#4c241d" r="4.529"/><g><path d="m146 104c-22.091 0-40 17.909-40 40v60c0 22.091 17.909 40 40 40 22.091 0 40-17.909 40-40v-60c0-22.091-17.909-40-40-40z" fill="#6b4f5b"/><path d="m146 248c-24.262 0-44-19.738-44-44v-60c0-24.262 19.738-44 44-44s44 19.738 44 44v60c0 24.262-19.738 44-44 44zm0-140c-19.85 0-36 16.148-36 36v60c0 19.852 16.15 36 36 36s36-16.148 36-36v-60c0-19.852-16.15-36-36-36z" fill="#4c241d"/></g><g fill="#4c241d"><path d="m215.656 49.656c-1.023 0-2.047-.391-2.828-1.172l-11.312-11.312c-1.562-1.562-1.562-4.094 0-5.656s4.094-1.562 5.656 0l11.312 11.312c1.562 1.562 1.562 4.094 0 5.656-.781.782-1.804 1.172-2.828 1.172z"/><path d="m204.344 49.656c-1.023 0-2.047-.391-2.828-1.172-1.562-1.562-1.562-4.094 0-5.656l11.312-11.312c1.562-1.562 4.094-1.562 5.656 0s1.562 4.094 0 5.656l-11.312 11.312c-.781.782-1.805 1.172-2.828 1.172z"/><path d="m162 188c-2.209 0-4-1.789-4-4v-26.977c0-13.796 11.225-25.023 25.021-25.023 2.209 0 4 1.789 4 4s-1.791 4-4 4c-9.385 0-17.021 7.637-17.021 17.023v26.977c0 2.211-1.791 4-4 4z"/><path d="m130 188c-2.209 0-4-1.789-4-4v-26.977c0-9.387-7.637-17.023-17.021-17.023-2.209 0-4-1.789-4-4s1.791-4 4-4c13.796 0 25.021 11.227 25.021 25.023v26.977c0 2.211-1.791 4-4 4z"/><circle cx="118" cy="168" r="4"/><circle cx="174" cy="168" r="4"/></g><g><path d="m130 184c-12.608 1.594-24 15.011-24 31.035v6.081c0 8.342 5.923 14.53 12.15 12.692l23-7.548c1.492-.44 8.204-.425 9.691.044l22.865 7.212c6.265 1.976 12.294-4.227 12.294-12.648v-5.832c0-16.024-11.392-29.44-24-31.035" fill="#f4aeab"/><path d="m115.902 238.125c-2.578 0-5.066-.852-7.273-2.5-4.15-3.105-6.629-8.527-6.629-14.508v-6.082c0-17.383 12.336-33.086 27.498-35.004 2.193-.254 4.193 1.273 4.471 3.469.277 2.191-1.275 4.191-3.467 4.469-9.9 1.25-20.502 12.426-20.502 27.066v6.082c0 3.418 1.311 6.523 3.42 8.098 1.158.871 2.369 1.121 3.6.758l22.883-7.516c2.406-.707 9.93-.66 12.141.031l22.867 7.211c1.236.398 2.457.16 3.627-.699 2.137-1.566 3.463-4.684 3.463-8.133v-5.832c0-14.641-10.602-25.816-20.502-27.066-2.191-.277-3.744-2.277-3.467-4.469.279-2.195 2.299-3.719 4.471-3.469 15.161 1.918 27.497 17.621 27.497 35.004v5.832c0 6.043-2.518 11.496-6.734 14.586-3.244 2.375-7.062 3.043-10.762 1.879l-22.865-7.211c-1.084-.238-6.248-.258-7.455 0l-22.785 7.488c-1.172.348-2.344.516-3.497.516z" fill="#4c241d"/></g><g><path d="m133.89 110.656c-.64-3.933-4.334-6.656-8.319-6.656h-58.079c-7.451 0-13.492-6.041-13.492-13.492v-2.915c0-9.984-3.966-19.56-11.026-26.619l-4.974-4.974v38.667c0 13.991 11.342 25.333 25.333 25.333h62.667c4.859 0 8.706-4.332 7.89-9.344z" fill="#b5a19c"/><path d="m126 124h-62.666c-16.176 0-29.334-13.16-29.334-29.332v-38.668c0-1.617.975-3.074 2.469-3.695 1.494-.625 3.215-.277 4.359.867l4.975 4.973c7.865 7.871 12.197 18.328 12.197 29.449v2.914c0 5.234 4.258 9.492 9.492 9.492h58.078c6.064 0 11.338 4.305 12.268 10.012v.004c.572 3.516-.41 7.07-2.695 9.758s-5.618 4.226-9.143 4.226zm-84-58.191v28.859c0 11.762 9.57 21.332 21.334 21.332h62.666c1.176 0 2.287-.516 3.049-1.41.773-.91 1.09-2.078.895-3.293-.303-1.848-2.223-3.297-4.373-3.297h-58.079c-9.644 0-17.492-7.848-17.492-17.492v-2.914c0-8.071-2.822-15.707-8-21.785z" fill="#4c241d"/></g><g><path d="m158.11 110.656c.64-3.933 4.334-6.656 8.319-6.656h58.079c7.451 0 13.492-6.041 13.492-13.492v-2.915c0-9.984 3.966-19.56 11.026-26.619l4.974-4.974v38.667c0 13.991-11.342 25.333-25.333 25.333h-62.667c-4.859 0-8.706-4.332-7.89-9.344z" fill="#b5a19c"/><path d="m228.666 124h-62.666c-3.525 0-6.857-1.539-9.143-4.227s-3.268-6.242-2.695-9.758c0 0 0 0 0-.004.93-5.707 6.203-10.012 12.268-10.012h58.078c5.234 0 9.492-4.258 9.492-9.492v-2.914c0-11.121 4.332-21.578 12.195-29.449l4.977-4.973c1.146-1.145 2.865-1.492 4.359-.867 1.494.622 2.469 2.079 2.469 3.696v38.668c0 16.172-13.158 29.332-29.334 29.332zm-66.609-12.703c-.195 1.215.121 2.383.895 3.293.762.895 1.873 1.41 3.049 1.41h62.666c11.763 0 21.333-9.57 21.333-21.332v-28.859c-5.178 6.078-8 13.715-8 21.785v2.914c0 9.645-7.848 17.492-17.492 17.492h-58.078c-2.151 0-4.071 1.449-4.373 3.297z" fill="#4c241d"/></g><g><path d="m122 204s8-4 12 4" fill="#b5a19c"/><path d="m134.004 212c-1.469 0-2.881-.809-3.582-2.211-1.877-3.758-4.98-2.992-6.67-2.191-1.98.938-4.371.113-5.328-1.859-.959-1.969-.174-4.336 1.787-5.316 4.654-2.32 13.119-2.707 17.367 5.789.988 1.977.188 4.379-1.789 5.367-.574.284-1.185.421-1.785.421z" fill="#4c241d"/></g><g><path d="m170 204s-8-4-12 4" fill="#b5a19c"/><path d="m157.996 212c-.6 0-1.211-.137-1.785-.422-1.977-.988-2.777-3.391-1.789-5.367 4.246-8.496 12.717-8.109 17.367-5.789 1.977.988 2.777 3.391 1.789 5.367-.982 1.965-3.367 2.777-5.334 1.805-1.688-.793-4.789-1.559-6.666 2.195-.701 1.402-2.113 2.211-3.582 2.211z" fill="#4c241d"/></g><g><path d="m168 124h-44c-5.523 0-10-4.477-10-10 0-5.523 4.477-10 10-10h44c5.523 0 10 4.477 10 10 0 5.523-4.477 10-10 10z" fill="#6b4f5b"/><path d="m168 128h-44c-7.719 0-14-6.281-14-14s6.281-14 14-14h44c7.719 0 14 6.281 14 14s-6.281 14-14 14zm-44-20c-3.309 0-6 2.691-6 6s2.691 6 6 6h44c3.309 0 6-2.691 6-6s-2.691-6-6-6z" fill="#4c241d"/></g></g></svg>